<svg xmlns="http://www.w3.org/2000/svg" id="Слой_1" enable-background="new 0 0 48 48" viewBox="0 0 48 48" x="0px" y="0px" width="48px" height="48px" version="1.1" xmlns:xml="http://www.w3.org/XML/1998/namespace" xml:space="preserve">
<path fill="#ffb74d" d="M 33.451 15.037 c -0.575 -0.156 -1.095 0.159 -1.483 1.395 c -0.045 0.139 -0.09 0.275 -0.134 0.404 l -1.628 6.218 c -0.092 0.324 -0.425 0.521 -0.749 0.446 c -0.328 -0.075 -0.542 -0.394 -0.486 -0.727 c 0.065 -0.381 0.507 -5.888 0.923 -9.585 C 29.963 12.663 30.302 11.289 29 11 c -1.3 -0.288 -1.45 1.193 -1.494 1.566 l -1.039 9.139 c -0.01 0.083 -0.273 0.693 -0.784 0.549 s -0.461 -0.791 -0.461 -0.791 c -0.018 -0.339 -0.031 -11.074 -0.031 -11.074 c 0.039 -0.482 -0.067 -0.855 -0.297 -1.107 c -0.221 -0.242 -0.552 -0.371 -0.956 -0.371 c -0.975 0 -1.211 0.723 -1.238 1.327 L 22.67 21.633 c 0 0.356 -0.115 0.635 -0.65 0.642 s -0.615 -0.717 -0.615 -0.717 c -0.196 -0.679 -1.892 -9.165 -1.892 -9.165 C 19.338 11.468 18.909 11 18.234 11 c -0.266 0 -0.648 0.109 -0.924 0.418 c -0.249 0.279 -0.35 0.656 -0.298 1.119 c 0.187 1.212 1.86 11.922 1.86 12.911 c 0 0.272 -0.175 0.516 -0.432 0.604 c -0.063 0.021 -0.129 0.031 -0.194 0.033 h -0.006 c -0.194 0 -0.385 -0.091 -0.508 -0.252 l -2.389 -3.046 C 15.02 22.287 14.516 22 14 22 c -0.238 0 -0.467 0.064 -0.661 0.185 c -0.271 0.173 -0.468 0.458 -0.542 0.797 c -0.086 0.394 -0.008 0.809 0.223 1.167 c 0.029 0.049 1.933 3.354 2.538 4.48 h -0.007 l 0.182 0.327 c 0.789 1.381 1.433 2.411 1.909 3.059 c 0.085 0.117 0.183 0.255 0.292 0.405 c 1.037 1.458 3.194 4.49 5.937 4.49 l -0.01 -0.041 l 0.025 0.041 l 4.554 -0.012 c 2.616 -0.256 4.43 -3.045 4.561 -7.65 v -5.127 l 0.834 -6.78 C 34.143 15.575 34.025 15.194 33.451 15.037 Z" />
<rect fill="#37474f" x="5" y="29" width="38" height="13" />
<g>
	<polyline fill="none" stroke="#00b8d4" stroke-width="2" points="14,39 8,39 8,33" />
	<polyline fill="none" stroke="#00b8d4" stroke-width="2" points="40,33 40,38.998 34,38.998" />
</g>
<g>
	<polyline fill="none" stroke="#90a4ae" stroke-width="2" points="34,7 40,7 40,13" />
	<polyline fill="none" stroke="#90a4ae" stroke-width="2" points="8,13 8,7 14,7" />
</g>
<path fill="#00e5ff" d="M 15.758 29 c 0.777 1.357 1.412 2.375 1.884 3.015 c 0.085 0.117 0.183 0.255 0.292 0.405 c 1.037 1.458 3.194 4.49 5.937 4.49 l -0.01 -0.041 l 0.025 0.041 l 4.554 -0.012 c 2.616 -0.256 4.43 -3.045 4.561 -7.65 V 29 H 15.758 Z" />
<rect fill="#18ffff" x="5" y="28" width="38" height="2" />
</svg>