<svg xmlns="http://www.w3.org/2000/svg" id="Layer_1" enable-background="new 0 0 48 48" viewBox="0 0 48 48" x="0px" y="0px" version="1.1" xmlns:xml="http://www.w3.org/XML/1998/namespace" xml:space="preserve">
<path fill="#ff9800" d="M 40 42 H 8 c -1.1 0 -2 -0.9 -2 -2 V 8 c 0 -1.1 0.9 -2 2 -2 h 32 c 1.1 0 2 0.9 2 2 v 32 C 42 41.1 41.1 42 40 42 Z" />
<rect fill="#ffb74d" x="21" y="6" width="6" height="7" />
<g>
	<rect fill="#b86d00" x="29" y="37" width="9" height="1" />
	<rect fill="#b86d00" x="35" y="32" width="2" height="4" />
	<polygon fill="#b86d00" points="36,30 34,33 38,33" />
	<rect fill="#b86d00" x="30" y="32" width="2" height="4" />
	<polygon fill="#b86d00" points="31,30 29,33 33,33" />
</g>
</svg>