<svg xmlns="http://www.w3.org/2000/svg" id="Слой_1" enable-background="new 0 0 48 48" viewBox="0 0 48 48" x="0px" y="0px" width="48px" height="48px" version="1.1" xmlns:xml="http://www.w3.org/XML/1998/namespace" xml:space="preserve">
<polygon fill="#b0bec5" points="42,42 17.017,42 17,40 42,40" />
<path fill="#607d8b" d="M 30.749 32.749 l 12.021 -12.02 c 0.781 -0.781 0.781 -2.048 0 -2.829 L 31.456 6.586 c -0.781 -0.781 -2.048 -0.781 -2.829 0 l -12.021 12.02 L 30.749 32.749 Z" />
<path fill="#546e7a" d="M 39.728 23.771 l 3.042 -3.042 c 0.781 -0.781 0.781 -2.048 0 -2.829 L 31.456 6.586 c -0.781 -0.781 -2.048 -0.781 -2.829 0 l -3.043 3.042 L 39.728 23.771 Z" />
<path fill="#cfd8dc" d="M 21.367 42 l 9.382 -9.251 L 16.606 18.606 L 4.586 30.628 c -0.781 0.78 -0.781 2.047 0 2.828 L 13 42 H 21.367 Z" />
</svg>