<svg xmlns="http://www.w3.org/2000/svg" id="Layer_1" enable-background="new 0 0 48 48" viewBox="0 0 48 48" x="0px" y="0px" version="1.1" xmlns:xml="http://www.w3.org/XML/1998/namespace" xml:space="preserve">
<path fill="#ffb74d" d="M 2 22.6 V 35 c 1 0.2 7.9 1 10.3 1 c 1.7 0 2.5 -7.3 2.5 -7.3 l -0.1 -14.5 l 10 -0.4 c 0 0 -6.2 -2.4 -8 -3.2 c -2.8 -1.2 -4.4 0 -7 2.8 C 7.2 16.4 2 22.6 2 22.6 Z" />
<path fill="#90caf9" d="M 42 36 H 18 c -2.2 0 -4 -1.8 -4 -4 V 16 c 0 -2.2 1.8 -4 4 -4 h 24 c 2.2 0 4 1.8 4 4 v 16 C 46 34.2 44.2 36 42 36 Z" />
<path fill="#ffb74d" d="M 8.8 33.7 c 0.6 1.8 2.9 2.9 4.9 2 c 0.8 -0.2 10.2 -4.1 11 -4.5 c 1.8 -0.6 2.9 -2.9 2 -4.9 c -0.6 -1.8 -2.9 -2.9 -4.9 -2 c -0.8 0.2 -10.2 2.9 -11 3.3 C 8.8 28.4 7.9 31.8 8.8 33.7 Z" />
<path fill="#e3f2fd" d="M 41 16 H 29 c -0.6 0 -1 0.4 -1 1 v 14 c 0 0.6 0.4 1 1 1 h 12 c 0.6 0 1 -0.4 1 -1 V 17 C 42 16.4 41.6 16 41 16 Z" />
<path fill="#ff9800" d="M 35 29.9 c -1.7 0 -1.8 -2.5 -1.8 -2.5 v -2.1 h 3.5 v 2.1 C 36.8 27.5 36.7 29.9 35 29.9 Z" />
<g>
	<circle fill="#ffa726" cx="38.2" cy="23.2" r="0.7" />
	<circle fill="#ffa726" cx="31.8" cy="23.2" r="0.7" />
</g>
<path fill="#ffb74d" d="M 38.2 21.1 c 0 -2.7 -6.3 -1.7 -6.3 0 c 0 0.4 0 2.1 0 2.5 c 0 1.7 1.4 3.1 3.1 3.1 s 3.2 -1.4 3.2 -3.1 C 38.2 23.2 38.2 21.5 38.2 21.1 Z" />
<path fill="#424242" d="M 35 18 c -2.1 0 -3.5 1.7 -3.5 3.9 c 0 0.3 0 0.8 0 0.8 l 0.7 0.6 v -1.8 l 4.2 -1.4 l 1.4 1.4 v 1.8 l 0.7 -0.6 c 0 0 0 -0.5 0 -0.8 c 0 -1.4 -0.4 -2.8 -2.1 -3.1 L 36 18 H 35 Z" />
<g>
	<circle fill="#784719" cx="36.4" cy="23.2" r="0.3" />
	<circle fill="#784719" cx="33.6" cy="23.2" r="0.3" />
</g>
<g>
	<path fill="#009688" d="M 36.8 27.5 L 36.8 27.5 c 0 0 -0.6 0.7 -1.8 0.7 s -1.8 -0.7 -1.8 -0.7 s -3.9 0.7 -3.9 4.5 h 11.2 C 40.6 28.2 36.8 27.5 36.8 27.5 Z" />
</g>
<g>
	<rect fill="#1976d2" x="17" y="18" width="9" height="2" />
	<rect fill="#1976d2" x="17" y="22" width="9" height="2" />
</g>
<g>
	<path fill="#ffcc80" d="M 21.9 25.6 c -1.3 0.6 -0.9 1.7 -0.2 3 c 0.6 1.3 1.2 2.2 2.4 1.6 c 1.3 -0.6 1.8 -2.1 1.2 -3.4 C 24.7 25.6 23.2 25 21.9 25.6 Z" />
</g>
<polygon fill="#ff9800" points="14,17.1 11,27.5 14,26.6" />
</svg>