<svg xmlns="http://www.w3.org/2000/svg" id="Слой_1" enable-background="new 0 0 48 48" viewBox="0 0 48 48" x="0px" y="0px" width="48px" height="48px" version="1.1" xmlns:xml="http://www.w3.org/XML/1998/namespace" xml:space="preserve">
<path fill="#424242" d="M 24 4 c -5.514 0 -10 4.486 -10 10 v 4 h 4 v -4 c 0 -3.309 2.691 -6 6 -6 s 6 2.691 6 6 v 4 h 4 v -4 C 34 8.486 29.514 4 24 4" />
<path fill="#fb8c00" d="M 36 44 H 12 c -2.209 0 -4 -1.791 -4 -4 V 22 c 0 -2.209 1.791 -4 4 -4 h 24 c 2.209 0 4 1.791 4 4 v 18 C 40 42.209 38.209 44 36 44" />
<g>
	<path fill="#af5902" d="M 22.322 34 c 0 -1.055 0.117 -1.888 0.351 -2.497 c 0.233 -0.611 0.612 -1.14 1.136 -1.589 c 0.524 -0.448 0.922 -0.857 1.195 -1.23 c 0.272 -0.371 0.408 -0.781 0.408 -1.229 c 0 -1.091 -0.461 -1.637 -1.381 -1.637 c -0.424 0 -0.768 0.158 -1.029 0.477 s -0.399 0.748 -0.414 1.291 H 19 c 0.014 -1.446 0.46 -2.572 1.338 -3.377 C 21.215 23.403 22.446 23 24.031 23 c 1.578 0 2.801 0.373 3.669 1.116 c 0.867 0.744 1.3 1.803 1.3 3.175 c 0 0.601 -0.117 1.146 -0.351 1.639 c -0.233 0.489 -0.608 0.99 -1.125 1.504 l -1.221 1.16 c -0.347 0.34 -0.588 0.688 -0.722 1.045 c -0.135 0.359 -0.208 0.813 -0.224 1.361 H 22.322 Z" />
	<path fill="#af5902" d="M 21.873 37.183 c 0 -0.532 0.189 -0.966 0.572 -1.308 c 0.382 -0.339 0.857 -0.51 1.428 -0.51 s 1.046 0.171 1.427 0.51 c 0.383 0.342 0.573 0.775 0.573 1.308 c 0 0.53 -0.19 0.966 -0.573 1.307 C 24.919 38.83 24.443 39 23.873 39 s -1.046 -0.17 -1.428 -0.511 C 22.063 38.148 21.873 37.713 21.873 37.183 Z" />
</g>
</svg>