<?xml version="1.0" standalone="no"?>
<!DOCTYPE svg PUBLIC "-//W3C//DTD SVG 1.1//EN" "http://www.w3.org/Graphics/SVG/1.1/DTD/svg11.dtd" >
<!--
2015-12-8: Created with FontForge (http://fontforge.org)
-->
<svg xmlns="http://www.w3.org/2000/svg" xmlns:xlink="http://www.w3.org/1999/xlink" version="1.1">
<metadata>
Created by FontForge 20150603 at Tue Dec  8 07:34:03 2015
 By icons8
Copyright (c) 2015, icons8
</metadata>
<defs>
<font id="Downloaded" horiz-adv-x="512" >
  <font-face 
    font-family="Downloaded"
    font-weight="400"
    font-stretch="normal"
    units-per-em="512"
    panose-1="2 0 5 9 0 0 0 0 0 0"
    ascent="448"
    descent="-64"
    bbox="0 -49.5 512 416"
    underline-thickness="25.6"
    underline-position="-51.2"
    unicode-range="U+F100-F13F"
  />
    <missing-glyph />
    <glyph glyph-name="uniF12D" unicode="&#xf12d;" 
d="M64 384h16h352h16v-16v-352v-16h-16h-352h-16v16v352v16zM96 352v-320h320v320h-320zM256 313.5l37 -83l91 -9.5l-69 -61l19.5 -89.5l-78.5 46.5l-78.5 -46.5l19.5 89.5l-69 61l91 9.5zM256 235l-6.5 -17.5l-8 -17.5l-19 -1.5l-19.5 -1.5l14.5 -13l14.5 -13l-3 -17.5
l-5 -19l16 9.5l16 9.5l16 -9.5l17.5 -9.5l-4.5 19l-3.5 17.5l14.5 13l14.5 13l-19.5 1.5l-19 1.5l-8 17.5z" />
    <glyph glyph-name="uniF118" unicode="&#xf118;" 
d="M203.5 384h100.5l-31 -18h-31c3.15234 -1.96777 34.5 -23.748 34.5 -68.5c0 -61.7764 -51.5 -64.3516 -51.5 -96c0 -30.1602 69 -41.1885 69 -106.5c0 -34.1924 -30.2002 -95 -129 -95c-86.624 0 -105 50.5283 -105 72c0 58.6719 73.2002 85.0918 134 84.5
c-3.75977 6.6084 -14.5 17.54 -14.5 34.5c0 8.14355 4.05566 16.8604 5 19.5c-5.71191 -0.65625 -11.4443 -1 -16.5 -1c-55.5684 0 -83 44.1719 -83 79.5c0 23.7275 16.292 95 118.5 95zM172.5 367.5c-38.2236 0 -45 -40.1924 -45 -54c0 -46.4961 29.4082 -90 64 -90
c45.6162 0 42.5 46.4082 42.5 51c0 19.8721 -12.252 93 -61.5 93zM380 272h32v-48h48v-32h-48v-48h-32v48h-48v32h48v48zM196.5 142.5c-84.0801 0 -94 -43.4082 -94 -60c0 -47.9844 54.8359 -61.5 86.5 -61.5c63.0723 0 72.4844 38.7402 72.5 54.5
c0 34.7676 -36.5283 53.4443 -54 66.5c-3.2002 0.335938 -6.67969 0.5 -11 0.5z" />
    <glyph glyph-name="uniF129" unicode="&#xf129;" 
d="M32 368h16h416h16v-16v-320v-16h-16h-416h-16v16v320v16zM64 336v-206l100.5 100.5l11.5 11.5l11.5 -11.5l92 -93l61 61l11.5 11.5l11.5 -11.5l84.5 -85v222.5h-384zM384 304c17.6729 0 32 -14.3271 32 -32s-14.3271 -32 -32 -32s-32 14.3271 -32 32s14.3271 32 32 32z
M176 196.5l-112 -112v-36.5h259zM352 164.5l-50 -49.5l66.5 -67h79.5v20.5z" />
    <glyph glyph-name="uniF123" unicode="&#xf123;" 
d="M240 400c61.5273 0 112 -50.4727 112 -112v-48h32h16v-16v-224v-16h-16h-288h-16v16v224v16h16h32v48c0 61.5273 50.4727 112 112 112zM240 368c-44.0723 0 -80 -35.9277 -80 -80v-48h160v48c0 44.0723 -35.9277 80 -80 80zM112 208v-192h256v192h-256z" />
    <glyph glyph-name="uniF12C" unicode="&#xf12c;" 
d="M272 400c35.3564 0 64 -28.6436 64 -64h80h16v-16v-80v-16h-16h-16c-19.043 0 -32 -12.957 -32 -32s12.957 -32 32 -32h16h16v-16v-80v-16h-16h-80c0 -35.3564 -28.6436 -64 -64 -64s-64 28.6436 -64 64h-80h-16v16v64c-35.3564 0 -64 28.6436 -64 64s28.6436 64 64 64
v64v16h16h80c0 35.3564 28.6436 64 64 64zM272 368c-19.043 0 -32 -12.957 -32 -32v-16v-16h-16h-80v-64v-16h-16h-16c-19.043 0 -32 -12.957 -32 -32s12.957 -32 32 -32h16h16v-16v-64h80h16v-16v-16c0 -19.043 12.957 -32 32 -32s32 12.957 32 32v16v16h16h80v48
c-35.3564 0 -64 28.6436 -64 64s28.6436 64 64 64v48h-80h-16v16v16c0 19.043 -12.957 32 -32 32z" />
    <glyph glyph-name="uniF134" unicode="&#xf134;" 
d="M256 384c34.3037 0 62.1465 -27.5088 63.5 -61.5c57.6895 -24.4932 96.5 -81.5898 96.5 -146.5c0 -3.34277 -0.242188 -5.91699 -0.5 -8.5c19.2939 -11.0645 32.5 -31.8145 32.5 -55.5c0 -35.1562 -28.8438 -64 -64 -64c-9.19531 0 -18.0723 1.95703 -26 5.5
c-27.7207 -23.2998 -63.8828 -37.5 -102 -37.5s-74.2793 14.2002 -102 37.5c-7.92773 -3.54297 -16.8047 -5.5 -26 -5.5c-35.1562 0 -64 28.8438 -64 64c0 23.4375 13.0371 43.8496 32 55c-0.129883 3.2207 0 6.25684 0 9c0 64.9102 38.8105 122.007 96.5 146.5
c1.35352 33.9912 29.1963 61.5 63.5 61.5zM256 352c-17.8623 0 -32 -14.1377 -32 -32s14.1377 -32 32 -32s32 14.1377 32 32s-14.1377 32 -32 32zM199.5 290.5c-42.8799 -20.8008 -71.5 -64.5713 -71.5 -114.5c35.1562 0 64 -28.8438 64 -64
c0 -14.3164 -4.95605 -27.2988 -13 -38c21.4033 -16.1846 48.9043 -26 77 -26s55.5967 9.81543 77 26c-8.04395 10.7012 -13 23.6836 -13 38c0 35.1562 28.8438 64 64 64c0 49.9287 -28.6201 93.6992 -71.5 114.5c-10.7441 -20.3857 -32.0029 -34.5 -56.5 -34.5
s-45.7559 14.1143 -56.5 34.5zM128 144c-17.8623 0 -32 -14.1377 -32 -32s14.1377 -32 32 -32s32 14.1377 32 32s-14.1377 32 -32 32zM384 144c-17.8623 0 -32 -14.1377 -32 -32s14.1377 -32 32 -32s32 14.1377 32 32s-14.1377 32 -32 32z" />
    <glyph glyph-name="uniF11D" unicode="&#xf11d;" 
d="M109 409.5l33.5 -33.5l-22.5 -22.5l-33.5 33.5zM403 409.5l22.5 -22.5l-33.5 -33.5l-22.5 22.5zM256 399.5c78.9502 0.749023 144 -64.4365 144 -143.5c0 -43.2891 -19.9863 -80.9863 -46.5 -107.5c-19.8086 -18.3936 -32 -42.0332 -32 -65.5v-3v-16h-1.5v-48v-16h-16
h-20.5c-5.55273 -9.5498 -15.7148 -16 -27.5 -16s-21.9473 6.4502 -27.5 16h-20.5h-16v16v64v16c-3.24023 17.8691 -12.7051 35.3906 -28 48.5c-35.7275 30.3682 -57.1689 77.5273 -50 129.5c8.97656 64.6279 60.6299 117.062 125.5 124.5
c0.173828 0.0214844 0.326172 -0.0214844 0.5 0c5.37109 0.652344 10.7363 0.950195 16 1zM256 367.5c-4.12207 -0.0585938 -8.28516 -0.473633 -12.5 -1c-50.1016 -5.56641 -90.999 -46.0898 -98 -96.5c-5.63086 -40.8271 11.2275 -76.9688 39.5 -101
c22.2109 -19.0381 33.9893 -45.5732 37.5 -73h70c3.76855 28.6719 17.5068 54.9365 39 75l-0.5 0.5c21.4863 21.4863 37 50.9893 37 84.5c0 61.7764 -50.1641 112.378 -112 111.5zM32 256h48v-32h-48v32zM432 256h48v-32h-48v32zM120 126.5l22.5 -22.5l-33.5 -33.5
l-22.5 22.5zM392 126.5l33.5 -33.5l-22.5 -22.5l-33.5 33.5zM224 64v-32h64v32h-64z" />
    <glyph glyph-name="uniF122" unicode="&#xf122;" 
d="M120 368h272c21.9053 0 40 -18.0947 40 -40v-272c0 -21.9053 -18.0947 -40 -40 -40h-272c-21.9053 0 -40 18.0947 -40 40v272c0 21.9053 18.0947 40 40 40zM120 336c-4.59082 0 -8 -3.40918 -8 -8v-272c0 -4.59082 3.40918 -8 8 -8h272c4.59082 0 8 3.40918 8 8v272
c0 4.59082 -3.40918 8 -8 8h-272zM167 308.5c15.168 0 27.5 -12.332 27.5 -27.5c0 -15.1836 -12.332 -27.5 -27.5 -27.5c-15.2158 0 -27.5 12.3164 -27.5 27.5s12.2998 27.5 27.5 27.5zM311.5 235.5c47.792 0 56.5 -31.1035 56.5 -72v-83.5h-47v74
c0 17.6162 -0.291992 40 -24.5 40c-24.5596 0 -28.5 -19.1924 -28.5 -39v-75h-47v152h45v-21h1c6.30371 11.9355 21.54 24.5 44.5 24.5zM144 232h47.5v-152h-47.5v152z" />
    <glyph glyph-name="uniF114" unicode="&#xf114;" 
d="M288 368h128h16v-16v-128h-32v89l-196.5 -196.5l-23 23l196.5 196.5h-89v32zM80 304h208l-32 -32h-144v-224h224v144l32 32v-208h-288v288z" />
    <glyph glyph-name="uniF13A" unicode="&#xf13a;" 
d="M227.5 368h40c10.8496 0 20 -9.15039 20 -20v-59.5h49.5c10.8496 0 20 -9.07422 20 -20v-48c0 -10.9258 -9.15039 -20 -20 -20h-49.5v-79c0 1.53125 0.583984 -4.80273 2.5 -8.5s2.61035 -6.5 12.5 -6.5c18.9912 0 36.3604 9.84863 37.5 10.5
c0.0302734 0.0175781 0.494141 0.49707 0.5 0.5l0.5 -0.5c6.21094 3.61035 13.4971 4.33496 19.5 1c6.2627 -3.52246 10.5 -10.3916 10.5 -17.5v-26.5v-16c0 -5.55176 -2.70703 -11.1758 -7 -15c-2.34375 -2.0332 -33.5332 -27 -96.5 -27
c-41.3096 0 -66.5186 25.5205 -77.5 50c-10.9805 24.4795 -11 48.2891 -11 54v83.5h-18c-10.8496 0 -20 9.15039 -20 20v35.5c0 8.22852 5.24121 15.46 13 18.5c-1.41016 -0.52832 0.147461 -0.150391 0.5 0c0.352539 0.151367 0.759766 0.655273 1.5 1
c1.48047 0.69043 3.36523 1.53418 6 3c5.26953 2.93164 12.6348 7.51855 19.5 13.5c13.7295 11.9629 26 28.8008 26 53c0 10.8496 9.15039 20 20 20zM236.5 336c-4.04199 -28.6641 -18.3076 -51.3262 -34 -65c-9.02344 -7.8623 -17.7334 -13.7354 -24.5 -17.5
c-2.0127 -1.12012 -3.40723 -1.70508 -5 -2.5v-15.5h22h16v-16v-99.5c0 -3.28125 0.777344 -23.7832 8.5 -41s18.5898 -31 48 -31c48.7061 0 67.3027 13.6562 71.5 17v16.5c-9.56055 -3.55078 -22.0586 -7 -36.5 -7c-20.3018 0 -35.1201 12.1533 -41 23.5
s-6 20.7363 -6 23.5v95v16h16h53.5v24h-53.5h-16v16v63.5h-19z" />
    <glyph glyph-name="uniF132" unicode="&#xf132;" 
d="M344 408h32v-22.5c13.2559 -2.33398 25.375 -7.5791 36 -15l15 15l22.5 -22.5l-15 -15c7.4209 -10.625 12.666 -22.7441 15 -36h22.5v-32h-22.5c-2.35742 -13.3877 -7.46094 -25.8018 -15 -36.5l15.5 -16.5l-23.5 -22l-15 16
c-10.4941 -7.21191 -22.4795 -12.208 -35.5 -14.5v-22.5h-32v22.5c-13.2559 2.33398 -25.375 7.5791 -36 15l-16.5 -17l-23 23l17 16.5c-7.4209 10.625 -12.666 22.7441 -15 36h-22.5v32h22.5c2.29199 13.0205 7.28809 25.0059 14.5 35.5l-16 15l22 23.5l16.5 -15.5
c10.6982 7.53906 23.1123 12.6426 36.5 15v22.5zM360 355c-32.8848 0 -59 -26.1152 -59 -59s26.1152 -59 59 -59s59 26.1152 59 59s-26.1152 59 -59 59zM152.5 260.5l11.5 -29c8.47754 2.11816 17.3877 3.5 26.5 3.5c9.13086 0 18.0146 -1.3623 26.5 -3.5l11.5 29l29.5 -12
l-11.5 -29c15.1084 -9.13281 27.874 -21.9443 37 -37l29 11.5l12 -29.5l-29 -11.5c2.11816 -8.45801 3.5 -17.3877 3.5 -26.5s-1.38184 -18.0225 -3.5 -26.5l29 -11.5l-12 -29.5l-29 11.5c-9.10742 -15.2295 -21.8799 -28.2637 -37 -37.5l11.5 -28.5l-29.5 -12l-11.5 28.5
c-8.45801 -2.1377 -17.3877 -3.5 -26.5 -3.5c-9.16602 0 -17.9717 1.34473 -26.5 3.5l-11.5 -28.5l-29.5 12l11.5 28.5c-15.3701 9.23047 -28.2461 22.1455 -37.5 37.5l-28.5 -11.5l-12 29.5l28.5 11.5c-2.1377 8.47754 -3.5 17.3877 -3.5 26.5s1.3623 18.042 3.5 26.5
l-28.5 11.5l12 29.5l28.5 -11.5c9.23633 15.1201 22.2705 27.8926 37.5 37l-11.5 29zM190.5 203c-42.6055 0 -77 -33.8955 -77 -76.5c0 -42.6055 34.3945 -77 77 -77c42.6045 0 76.5 34.3945 76.5 77c0 42.6045 -33.8955 76.5 -76.5 76.5z" />
    <glyph glyph-name="uniF13C" unicode="&#xf13c;" 
d="M240 400c61.5273 0 112 -50.4727 112 -112v-48h32h16v-16v-224v-16h-16h-288h-16v16v224v16h16h224v48c0 44.0723 -35.9277 80 -80 80c-34.626 0 -64.3496 -22.9482 -76.5 -54l-29.5 12c16.6494 42.5479 57.4258 74 106 74zM112 208v-192h256v192h-256z" />
    <glyph glyph-name="uniF116" unicode="&#xf116;" 
d="M80 400h16h192h6.5l5 -4.5l96 -96l4.5 -5v-6.5v-288v-16h-16h-288h-16v16v384v16zM112 368v-352h256v256h-80h-16v16v80h-160zM304 345v-41h41z" />
    <glyph glyph-name="uniF11B" unicode="&#xf11b;" 
d="M256 406.5l11.5 -11l208 -208l-23 -23l-20.5 20.5v-169v-16h-16h-112h-16v16v144h-64v-144v-16h-16h-112h-16v16v169l-20.5 -20.5l-23 23l208 208zM256 361l-144 -144v-185h80v144v16h16h96h16v-16v-144h80v185z" />
    <glyph glyph-name="uniF106" unicode="&#xf106;" 
d="M256 400c114.686 0 208 -93.3145 208 -208s-93.3145 -208 -208 -208s-208 93.3145 -208 208s93.3145 208 208 208zM256 368c-97.3916 0 -176 -78.6084 -176 -176s78.6084 -176 176 -176s176 78.6084 176 176s-78.6084 176 -176 176zM195.5 275.5l60.5 -60.5l60.5 60.5
l23 -23l-60.5 -60.5l60.5 -60.5l-23 -23l-60.5 60.5l-60.5 -60.5l-23 23l60.5 60.5l-60.5 60.5z" />
    <glyph glyph-name="uniF11A" unicode="&#xf11a;" 
d="M208 416c26.3271 0 48 -21.6729 48 -48v-67c5.05273 1.82812 10.3506 3 16 3c12.2734 0 23.4736 -4.80469 32 -12.5c8.52637 7.69531 19.7266 12.5 32 12.5c22.3232 0 41.2441 -15.7109 46.5 -36.5c5.89551 2.60938 12.1855 4.5 19 4.5c26.3271 0 48 -21.6729 48 -48
v-125c0 -72.5332 -58.4668 -131 -131 -131h-27.5c-30.9648 0 -58.4111 10.8076 -80 27l-0.5 1l-1 0.5l-131 129.5v0.5c-18.457 18.457 -18.457 48.543 0 67s48.543 18.457 67 0l4 -3.5l10.5 -11v189c0 26.3271 21.6729 48 48 48zM208 384c-8.87305 0 -16 -7.12695 -16 -16
v-227v-39l-27.5 27.5l-41.5 41.5c-7.14355 7.14355 -14.8564 7.14355 -22 0s-7.14355 -14.8564 0 -22l129.5 -128c16.8105 -12.6084 37.0645 -21 60.5 -21h27.5c55.4668 0 99 43.5332 99 99v125c0 8.87305 -7.12695 16 -16 16s-16 -7.12695 -16 -16v-32h-1.5h-30.5h-1.5v64
c0 8.87305 -7.12695 16 -16 16s-16 -7.12695 -16 -16v-64h-32v64c0 8.87305 -7.12695 16 -16 16s-16 -7.12695 -16 -16v-64h-32v64v112c0 8.87305 -7.12695 16 -16 16z" />
    <glyph glyph-name="uniF105" unicode="&#xf105;" 
d="M144 384h32v-16h160v16h32v-16h48h16v-16v-320v-16h-16h-320h-16v16v320v16h16h48v16zM112 336v-32h288v32h-32v-16h-32v16h-160v-16h-32v16h-32zM112 272v-224h288v224h-288zM208 240h32v-32h-32v32zM272 240h32v-32h-32v32zM336 240h32v-32h-32v32zM144 176h32v-32h-32
v32zM208 176h32v-32h-32v32zM272 176h32v-32h-32v32zM336 176h32v-32h-32v32zM144 112h32v-32h-32v32zM208 112h32v-32h-32v32zM272 112h32v-32h-32v32z" />
    <glyph glyph-name="uniF12A" unicode="&#xf12a;" 
d="M256 384c106.032 0 192 -85.9678 192 -192s-85.9678 -192 -192 -192c-19.792 0 -38.8799 3.00781 -56.8477 8.54395c7.83984 12.752 19.5361 33.6641 23.8721 50.3359c2.33594 8.99219 11.9678 45.6484 11.9678 45.6484c6.25586 -11.9365 24.5439 -22.0479 44 -22.0479
c57.9043 0 99.6318 53.2471 99.6318 119.424c0 63.4395 -51.7598 110.896 -118.368 110.896c-82.8643 0 -126.864 -55.6318 -126.864 -116.191c0 -28.1602 14.9922 -63.2168 38.9766 -74.3848c3.63184 -1.69531 5.58398 -0.959961 6.41602 2.56055
c0.639648 2.67188 3.87207 15.7119 5.32812 21.7754c0.463867 1.93652 0.239258 3.60059 -1.32812 5.50488c-7.93652 9.63184 -14.2881 27.3271 -14.2881 43.8232c0 42.3525 32.0635 83.3281 86.6875 83.3281c47.168 0 80.1924 -32.1436 80.1924 -78.1123
c0 -51.9355 -26.2236 -87.9199 -60.3516 -87.9199c-18.8486 0 -32.96 15.584 -28.4326 34.7041c5.42383 22.8164 15.9043 47.4404 15.9043 63.9199c0 14.7363 -7.9043 27.04 -24.2881 27.04c-19.2637 0 -34.7363 -19.9199 -34.7363 -46.624
c0 -16.9912 5.74414 -28.4961 5.74414 -28.4961s-19.0234 -80.4639 -22.5117 -95.4395c-3.87207 -16.5762 -2.35254 -39.8877 -0.671875 -55.0723c-71.4238 27.9678 -122.032 97.4404 -122.032 178.784c0 106.032 85.9678 192 192 192z" />
    <glyph glyph-name="uniF107" unicode="&#xf107;" 
d="M256 400c114.686 0 208 -93.3145 208 -208s-93.3145 -208 -208 -208s-208 93.3145 -208 208s93.3145 208 208 208zM256 368c-42.3555 0 -81.1709 -14.6855 -111.5 -39.5l245.5 -250.5c26.1641 30.71 42 70.3779 42 114c0 97.3916 -78.6084 176 -176 176zM122 306
c-26.1641 -30.71 -42 -70.3779 -42 -114c0 -97.3916 78.6084 -176 176 -176c42.3555 0 81.1709 14.6855 111.5 39.5z" />
    <glyph glyph-name="uniF120" unicode="&#xf120;" 
d="M128 368h256c26.3193 0 48 -21.6807 48 -48v-256c0 -26.3193 -21.6807 -48 -48 -48h-256c-26.3193 0 -48 21.6807 -48 48v256c0 26.3193 21.6807 48 48 48zM336 320v-48h48v48h-48zM256 256c-35.5361 0 -64 -28.4639 -64 -64s28.4639 -64 64 -64s64 28.4639 64 64
s-28.4639 64 -64 64zM112 224v-160c0 -9.04004 6.95996 -16 16 -16h256c9.04004 0 16 6.95996 16 16v160h-53.5c3.54395 -9.99023 5.5 -20.8291 5.5 -32c0 -52.8301 -43.1699 -96 -96 -96s-96 43.1699 -96 96c0 11.1709 1.95605 22.0098 5.5 32h-53.5z" />
    <glyph glyph-name="uniF108" unicode="&#xf108;" 
d="M256 400c56 0 107.2 -22.2002 144 -59l-22.5 -22.5c-30.4004 30.4004 -73.5 49.5 -121.5 49.5c-97.5996 0 -176 -78.4004 -176 -176s78.4004 -176 176 -176s176 78.4004 176 176c0 14.4004 -1.7998 27.2002 -5 40l26 25.5c8 -20.7998 11 -43.0996 11 -65.5
c0 -115.2 -92.7998 -208 -208 -208s-208 92.7998 -208 208s92.7998 208 208 208zM436.5 331.5l23 -23l-192 -192l-11.5 -11l-11.5 11l-80 80l23 23l68.5 -68.5z" />
    <glyph glyph-name="uniF10B" unicode="&#xf10b;" 
d="M256 384c105.85 0 192 -86.1504 192 -192s-86.1504 -192 -192 -192s-192 86.1504 -192 192s86.1504 192 192 192zM256 352c-88.5547 0 -160 -71.4453 -160 -160s71.4453 -160 160 -160s160 71.4453 160 160s-71.4453 160 -160 160zM240 320h32v-112h80v-32h-96h-16v16
v128z" />
    <glyph glyph-name="uniF102" unicode="&#xf102;" 
d="M112 368h16h256h16v-16v-320v-32l-25.5 19l-118.5 89l-118.5 -89l-25.5 -19v32v320v16zM144 336v-272l102.5 77l9.5 7l9.5 -7l102.5 -77v272h-224z" />
    <glyph glyph-name="uniF124" unicode="&#xf124;" 
d="M64 336h384v-32h-384v32zM64 208h384v-32h-384v32zM64 80h384v-32h-384v32z" />
    <glyph glyph-name="uniF10A" unicode="&#xf10a;" 
d="M452.5 347.5l23 -23l-288 -288l-11.5 -11l-11.5 11l-128 128l23 23l116.5 -116.5z" />
    <glyph glyph-name="uniF137" unicode="&#xf137;" 
d="M336 400c21.8662 0 42.1367 -5.63184 59 -15l18.5 -10l-15 -15l-68.5 -69l25 -25l69 68.5l15 15l10 -18.5c9.36816 -16.8633 15 -37.1338 15 -59c0 -70.8789 -57.1211 -128 -128 -128c-3.75195 0 -8.8457 0.591797 -13.5 1l-137 -137
c-31.4922 -31.4922 -82.0078 -31.4922 -113.5 0s-31.4922 82.0078 0 113.5l137 137c-0.408203 4.6543 -1 9.74805 -1 13.5c0 70.8789 57.1211 128 128 128zM336 368c-53.9209 0 -96 -42.0791 -96 -96c0 -6.40039 0.00878906 -11.5352 1 -15.5l2.5 -8.5l-6.5 -6.5
l-142.5 -142.5c-19.5352 -19.5352 -19.6934 -48.3027 -0.5 -68l0.5 -0.5c19.707 -19.707 48.793 -19.707 68.5 0l142.5 142.5l6.5 6.5l8.5 -2.5c3.96484 -0.991211 9.09961 -1 15.5 -1c53.9209 0 96 42.0791 96 96c0 7.77539 -3.33691 13.5723 -5 20.5l-60.5 -60.5
l-11.5 -11.5l-11 11.5l-48 48l-11.5 11l11.5 11.5l60.5 60.5c-6.92773 1.66309 -12.7246 5 -20.5 5z" />
    <glyph glyph-name="uniF10C" unicode="&#xf10c;" 
d="M48 352h16h384h16v-16v-288v-16h-16h-137l-43.5 -43.5l-11.5 -11l-11.5 11l-43.5 43.5h-137h-16v16v288v16zM80 320v-256h128h6.5l5 -4.5l36.5 -36.5l36.5 36.5l5 4.5h6.5h128v256h-352zM144 272h224v-32h-224v32zM144 208h224v-32h-224v32zM144 144h160v-32h-160v32z
" />
    <glyph glyph-name="uniF109" unicode="&#xf109;" 
d="M64 384h381l-32 -32h-317v-320h320v189l32 32v-253h-384v384zM436.5 331.5l23 -23l-192 -192l-11.5 -11l-11.5 11l-80 80l23 23l68.5 -68.5z" />
    <glyph glyph-name="uniF112" unicode="&#xf112;" 
d="M256 368c54.043 0 98.2383 -34.0947 117.5 -81c56.4316 -2.91113 101.284 -47.7734 105 -104c19.8271 -17.627 33.5 -42.833 33.5 -71c0 -53.1807 -42.8193 -96 -96 -96h-320c-53.1807 0 -96 42.8193 -96 96c0 44.0117 30.1396 79.0977 69.5 90.5
c9.54785 27.1855 32.792 46.7031 61.5 51.5c7.25781 63.9092 59.0967 114 125 114zM256 336c-53.9209 0 -96 -42.0791 -96 -96v-16h-16c-23.1016 0 -42.2061 -15.4277 -47 -37l-2 -10.5l-10.5 -2c-29.3184 -5.09863 -52.5 -30.1797 -52.5 -62.5
c0 -36.4189 27.5811 -64 64 -64h320c36.4189 0 64 27.5811 64 64c0 20.2666 -10.3965 39.6719 -25.5 51l-6.5 5v8c0 44.0723 -35.9277 80 -80 80h-5h-11.5l-3.5 11.5c-12.4629 40.1572 -47.7998 68.5 -92 68.5zM240 256h32v-105l36.5 36.5l23 -23l-64 -64l-11.5 -11
l-11.5 11l-64 64l23 23l36.5 -36.5v105z" />
    <glyph glyph-name="uniF13E" unicode="&#xf13e;" 
d="M290 384h9.5l4.5 -8l15 -26.5c24.7236 -2.49609 58.0547 -13.2695 87 -52c32.875 -43.9883 58 -119.495 58 -249.5v-16h-16h-138.5c-15.8242 -9.87305 -33.6572 -16 -53.5 -16c-19.8555 0 -37.6777 6.00586 -53.5 16h-138.5h-16v16c0 146.14 31.6279 230.763 79.5 279
s109.633 57 162.5 57zM281 351c-46.6201 -0.946289 -93.8652 -9.08105 -131 -46.5c-37.8535 -38.1426 -66.5566 -110.322 -69 -240.5h86.5c-1.90723 2.42773 -3.73438 4.97559 -5.5 7.5c-21.7139 31.0479 -34 69.333 -34 104.5c0 12.5342 3.38672 24.2383 10 33
s15.6514 14.3096 25 18c18.6982 7.37988 39.6318 8.3291 59.5 10s38.8838 3.87109 50 9s15.5 9.29395 15.5 26h32c0 -26.5664 -15.6162 -46.2881 -34.5 -55s-39.8682 -10.3066 -60 -12s-39.1982 -3.53906 -50.5 -8c-5.65137 -2.23047 -9.36328 -4.66895 -11.5 -7.5
s-3.5 -6.39844 -3.5 -13.5c0 -27.377 10.2939 -61.1836 28 -86.5s41.3906 -41.5 68 -41.5c26.6348 0 50.3018 16.2314 68 41.5s28 58.9434 28 86.5h32c0 -35.3076 -12.2773 -73.9854 -34 -105c-1.63281 -2.33203 -3.24512 -4.75488 -5 -7h86
c-2.18359 114.716 -24.8467 180.174 -50.5 214.5c-26.9375 36.043 -56.3291 41.5 -72.5 41.5h-9.5l-4.5 8zM208 176c8.83691 0 16 -7.16309 16 -16s-7.16309 -16 -16 -16s-16 7.16309 -16 16s7.16309 16 16 16zM304 176c8.83691 0 16 -7.16309 16 -16s-7.16309 -16 -16 -16
s-16 7.16309 -16 16s7.16309 16 16 16z" />
    <glyph glyph-name="uniF117" unicode="&#xf117;" 
d="M96 400h16h256h16h48h16v-16v-144v-6.5l-4.5 -5l-27.5 -27.5v-201v-16h-16h-288h-16v16v384v16zM128 368v-352h256v185l-27.5 27.5l-4.5 5v6.5v128h-224zM384 368v-121l16 -16l16 16v121h-32z" />
    <glyph glyph-name="uniF111" unicode="&#xf111;" 
d="M80 400h16h192h6.5l5 -4.5l96 -96l4.5 -5v-6.5v-288v-16h-16h-288h-16v16v384v16zM112 368v-352h256v256h-80h-16v16v80h-160zM304 345v-41h41zM160 240h160v-32h-160v32zM160 176h160v-32h-160v32zM160 112h160v-32h-160v32z" />
    <glyph glyph-name="uniF13B" unicode="&#xf13b;" 
d="M448 311.088c-10.5596 -15.792 -23.9199 -29.6641 -39.3115 -40.7842c0.143555 -3.37598 0.223633 -6.78418 0.223633 -10.1914c0 -104.112 -79.2324 -224.16 -224.145 -224.16c-44.4951 0 -85.9033 13.04 -120.768 35.3916
c6.17578 -0.735352 12.4482 -1.10352 18.7998 -1.10352c36.9121 0 70.8799 12.5918 97.8398 33.7275c-34.4795 0.640625 -63.5674 23.4238 -73.5996 54.7207c4.7998 -0.912109 9.74414 -1.4082 14.8164 -1.4082c7.19922 0 14.1592 0.959961 20.7676 2.76758
c-36.0479 7.23242 -63.2002 39.0723 -63.2002 77.248v0.992188c10.624 -5.9043 22.7686 -9.44043 35.6797 -9.85645c-21.1357 14.1279 -35.0391 38.2402 -35.0391 65.5684c0 14.4482 3.8877 27.9844 10.6553 39.6162c38.8643 -47.6641 96.9121 -79.04 162.384 -82.3203
c-1.32715 5.75977 -2.03125 11.7764 -2.03125 17.9521c0 43.5039 35.2793 78.7842 78.7842 78.7842c22.6553 0 43.1357 -9.56836 57.5039 -24.8799c17.9512 3.53613 34.8154 10.0957 50.0312 19.1201c-5.8877 -18.4004 -18.3672 -33.8408 -34.6396 -43.584
c15.9365 1.90332 31.1201 6.12793 45.248 12.3994z" />
    <glyph glyph-name="uniF11F" unicode="&#xf11f;" 
d="M256 400c114.686 0 208 -93.3145 208 -208s-93.3145 -208 -208 -208s-208 93.3145 -208 208s93.3145 208 208 208zM256 368c-97.3916 0 -176 -78.6084 -176 -176s78.6084 -176 176 -176s176 78.6084 176 176s-78.6084 176 -176 176zM240 288h32v-32h-32v32zM240 224h32
v-128h-32v128z" />
    <glyph glyph-name="uniF12E" unicode="&#xf12e;" 
d="M298.5 384c17.2207 0 30.5391 -6.42773 45 -11.5c12.4414 -4.36426 26.3428 -8.39648 45.5 -9.5c6.79395 12.4668 19.875 21 35 21c22 0 40 -18 40 -40s-18 -40 -40 -40c-17.4014 0 -32.0322 11.4053 -37.5 27c-22.4854 1.49902 -39.9883 6.76074 -53.5 11.5
c-15.8955 5.5752 -26.1689 9.5 -34.5 9.5c-17.5508 0 -26.5 -10.8359 -26.5 -26.5v-54c44.1504 -2.28223 84.1104 -13.9766 116.5 -32.5c12.3721 11.9385 28.8789 17.0117 45 17c17.4287 -0.0126953 35.21 -6.1748 47.5 -20l0.5 -0.5
c11.7881 -14.7324 16.6436 -34.4062 13.5 -54c-2.88184 -17.9609 -13.3594 -36.2178 -31.5 -48c0.0986328 -1.83008 0.5 -3.64844 0.5 -5.5c0 -41.6641 -25.2041 -78.2051 -63 -103.5s-88.7842 -40.5 -145 -40.5s-107.204 15.2051 -145 40.5s-63 61.8359 -63 103.5
c0 1.85156 0.401367 3.66992 0.5 5.5c-18.1406 11.7822 -28.6182 30.0391 -31.5 48c-3.14355 19.5938 1.71191 39.2676 13.5 54l0.5 0.5v0.5c12.2891 13.8232 30.0732 19.4873 47.5 19.5c16.1201 0.0117188 32.624 -5.06543 45 -17
c32.3896 18.5234 72.3496 30.2178 116.5 32.5v54c0 31.1836 24.9463 58.5 58.5 58.5zM256 240c-50.4561 0 -95.4639 -13.8945 -127 -35s-49 -48.2646 -49 -77s17.4639 -55.8945 49 -77s76.5439 -35 127 -35s95.4639 13.8945 127 35s49 48.2646 49 77
s-17.4639 55.8945 -49 77s-76.5439 35 -127 35zM78.5 224c-9.49121 -0.00683594 -18.1533 -3.37207 -23 -8.5c-0.0859375 -0.107422 0.0849609 -0.389648 0 -0.5c-5.09863 -6.61426 -8.22363 -17.7568 -6.5 -28.5c0.999023 -6.22852 3.4082 -12.3604 7.5 -17.5
c8.12012 19.1523 21.6367 36.46 39 51c-4.9248 2.49902 -10.9121 4.00488 -17 4zM433.5 224c-6.08984 0.00488281 -12.0752 -1.50098 -17 -4c17.3633 -14.54 30.8799 -31.8477 39 -51c4.0918 5.13965 6.50098 11.2715 7.5 17.5c1.72363 10.7432 -1.40137 21.8857 -6.5 28.5
c-0.0351562 0.0380859 0.0351562 0.462891 0 0.5c-4.8457 5.12598 -13.5068 8.49316 -23 8.5zM176 192c17.6729 0 32 -14.3271 32 -32s-14.3271 -32 -32 -32s-32 14.3271 -32 32s14.3271 32 32 32zM336 192c17.6729 0 32 -14.3271 32 -32s-14.3271 -32 -32 -32
s-32 14.3271 -32 32s14.3271 32 32 32zM340 103.5c-10.2236 -29.8721 -43.1035 -55.5 -84 -55.5s-73.7764 25.7725 -84 53.5c18.4004 -14.9277 49.248 -26 84 -26s65.5996 10.9277 84 28z" />
    <glyph glyph-name="uniF104" unicode="&#xf104;" 
d="M256 400c29.8203 0 54.3877 -20.4072 61.5 -48h130.5h16v-16v-288v-16h-16h-384h-16v16v288v16h16h130.5c7.1123 27.5928 31.6797 48 61.5 48zM256 368c-12.9619 0 -22.8438 -6.16113 -28 -16h56c-5.15625 9.83887 -15.0381 16 -28 16zM80 320v-144h352v144h-352z
M256 224c8.83691 0 16 -7.16309 16 -16s-7.16309 -16 -16 -16s-16 7.16309 -16 16s7.16309 16 16 16zM80 144v-80h352v80h-352z" />
    <glyph glyph-name="uniF101" unicode="&#xf101;" 
d="M256 400c114.686 0 208 -93.3145 208 -208s-93.3145 -208 -208 -208s-208 93.3145 -208 208s93.3145 208 208 208zM256 368c-97.3916 0 -176 -78.6084 -176 -176s78.6084 -176 176 -176s176 78.6084 176 176s-78.6084 176 -176 176zM240 288h32v-128h-32v128zM240 128h32
v-32h-32v32z" />
    <glyph glyph-name="uniF13F" unicode="&#xf13f;" 
d="M272 384h10l4.5 -9l12.5 -25c20.4316 -2.24707 41.0703 -9.5752 56.5 -27.5c18.2051 -21.1484 28.5 -53.3154 28.5 -98.5v-14.5c9.13574 -8.74023 16 -19.958 16 -33.5c0 -20.1553 -14.25 -34.4717 -32 -41.5c-5.90918 -18.6826 -12.8701 -38.2822 -20 -55
c-7.78516 -18.2559 -14.3115 -32.7529 -24 -43c-45.916 -48.5801 -122.084 -48.5801 -168 0c-9.68848 10.2471 -16.7148 24.7441 -24.5 43c-7.12793 16.7139 -13.5918 36.3213 -19.5 55c-17.7432 7.02832 -32 21.3447 -32 41.5c0 13.6191 6.8418 24.7881 16 33.5v14.5
c0 48.6797 13.1377 89.7881 43 118s74.3477 42 133 42zM262.5 351c-47.5703 -1.59473 -80.9961 -12.6289 -101.5 -32c-22.0498 -20.832 -33 -51.8555 -33 -95v-20.5v-9l-8 -4.5c-4.90918 -2.83594 -8 -8.01758 -8 -14c0 -8.53711 6.13672 -15.3164 14.5 -16l11 -0.5l3 -10.5
c5.91797 -19.251 13.2891 -39.5918 20.5 -56.5s15.4648 -31.3184 18 -34c34.0518 -36.0273 87.9482 -36.0273 122 0c2.53516 2.68164 10.7891 17.0918 18 34s14.582 37.249 20.5 56.5l3 10.5l11 0.5c8.38672 0.685547 14.5 7.46289 14.5 16c0 6.08398 -3.1377 11.1914 -8 14
l-8 4.5v9v20.5c0 40.2871 -9.39258 64.0166 -21 77.5c-5.63965 6.55176 -12.0527 11.0508 -19 14c0.384766 -2.37695 0.933594 -4.64941 1 -7c0.304688 -10.7236 -4.4707 -21.6621 -12 -28c-15.0576 -12.6748 -32.8057 -11.627 -50 -12.5s-34.7861 -2.04883 -45 -6
s-13.874 -6.22559 -14 -22h-32c0.208984 25.9609 16.2363 44.9355 34.5 52s37.8457 6.6543 54.5 7.5s30.1123 4.33203 31.5 5.5c0.694336 0.583984 0.592773 -0.746094 0.5 2.5s-2.16016 10.835 -7.5 21.5zM192 192c8.83691 0 16 -7.16309 16 -16s-7.16309 -16 -16 -16
s-16 7.16309 -16 16s7.16309 16 16 16zM288 192c8.83691 0 16 -7.16309 16 -16s-7.16309 -16 -16 -16s-16 7.16309 -16 16s7.16309 16 16 16z" />
    <glyph glyph-name="uniF131" unicode="&#xf131;" 
d="M304 400c88.1758 0 160 -71.8242 160 -160s-71.8242 -160 -160 -160c-38.3203 0 -73.4102 13.4229 -101 36l-127.5 -127.5l-23 23l127.5 127.5c-22.5771 27.5898 -36 62.6797 -36 101c0 88.1758 71.8242 160 160 160zM304 368c-70.8818 0 -128 -57.1182 -128 -128
s57.1182 -128 128 -128s128 57.1182 128 128s-57.1182 128 -128 128z" />
    <glyph glyph-name="uniF138" unicode="&#xf138;" 
d="M232 414.5l67.5 -67l11 -11.5l-11 -11.5l-67.5 -67l-22.5 22.5l39 39.5c-2.77148 0.21582 -5.7168 0.5 -8.5 0.5c-70.4004 0 -128 -57.5996 -128 -128c0 -14.4004 3.2998 -28.7002 6.5 -41.5l-24 -24c-9.59961 19.2002 -14.5 41.5 -14.5 65.5c0 88 72 160 160 160
c3.25586 0 6.30664 -0.323242 9.5 -0.5l-40 40.5zM385.5 257.5c9.59961 -19.2002 14.5 -41.5 14.5 -65.5c0 -88 -72 -160 -160 -160c-3.12793 0 -6.37598 0.3125 -9.5 0.5l40 -40.5l-22.5 -22.5l-67.5 67l-11 11.5l11 11.5l67.5 67l22.5 -22.5l-39 -39.5
c2.77148 -0.21582 5.7168 -0.5 8.5 -0.5c70.4004 0 128 57.5996 128 128c0 14.4004 -1.7002 28.7002 -6.5 41.5z" />
    <glyph glyph-name="uniF128" unicode="&#xf128;" 
d="M80 400h16h320h16v-16v-144v-6.5l-4.5 -5l-27.5 -27.5v-185v-16h-16h-80v-24v-19.5l-19.5 4l-192 40l-12.5 2.5v13v368v16zM226 368l34 -8.5l12 -3v-12.5v-137l27.5 -27.5l4.5 -5v-6.5v-136h64v176v6.5l4.5 5l27.5 27.5v121h-174zM112 363.5v-334.5l160 -33.5v20.5v16
v129l-27.5 27.5l-4.5 5v6.5v131.5z" />
    <glyph glyph-name="uniF115" unicode="&#xf115;" 
d="M112 368h288c17.4893 0 32 -14.5107 32 -32v-288c0 -17.4893 -14.5107 -32 -32 -32h-288c-17.4893 0 -32 14.5107 -32 32v288c0 17.4893 14.5107 32 32 32zM112 336v-288h155v108h-42v48h42v36c0 41.3281 25.1357 63.5 62 63.5c17.6641 0 33.0684 -0.908203 37.5 -1.5
v-43.5h-26c-20.0479 0 -23.5 -9.51562 -23.5 -23.5v-31h47.5l-6 -48h-41.5v-108h83v288h-288z" />
    <glyph glyph-name="uniF13D" unicode="&#xf13d;" 
d="M256 384c54.043 0 98.2383 -34.0947 117.5 -81c56.4316 -2.91113 101.284 -47.7734 105 -104c19.8271 -17.627 33.5 -42.833 33.5 -71c0 -53.1807 -42.8193 -96 -96 -96h-320c-53.1807 0 -96 42.8193 -96 96c0 44.0117 30.1396 79.0977 69.5 90.5
c9.54785 27.1855 32.792 46.7031 61.5 51.5c7.25781 63.9092 59.0967 114 125 114zM256 352c-53.9209 0 -96 -42.0791 -96 -96v-16h-16c-23.1016 0 -42.2061 -15.4277 -47 -37l-2 -10.5l-10.5 -2c-29.3184 -5.09863 -52.5 -30.1797 -52.5 -62.5
c0 -36.4189 27.5811 -64 64 -64h320c36.4189 0 64 27.5811 64 64c0 20.2666 -10.3965 39.6719 -25.5 51l-6.5 5v8c0 44.0723 -35.9277 80 -80 80h-5h-11.5l-3.5 11.5c-12.4629 40.1572 -47.7998 68.5 -92 68.5zM256 262.5l11.5 -11l64 -64l-23 -23l-36.5 36.5v-105h-32v105
l-36.5 -36.5l-23 23l64 64z" />
    <glyph glyph-name="uniF121" unicode="&#xf121;" 
d="M320 400c79.127 0 144 -64.873 144 -144s-64.873 -144 -144 -144c-23.1162 0 -45.1016 6.2627 -64 15.5v-31.5v-16h-16h-32v-32v-16h-16h-32v-32v-16h-16h-80h-16v16v96v6.5l4.5 5l126 125.5c-1.14551 7.34766 -2.5 14.6943 -2.5 23c0 79.127 64.873 144 144 144z
M320 368c-61.6729 0 -112 -50.3271 -112 -112c0 -7.82227 1.40039 -16.4004 3 -26l1.5 -8.5l-6 -5.5l-126.5 -127v-73h48v32v16h16h32v32v16h16h32v32v16h16h17.5h4l4 -2c15.2139 -8.29883 35.1475 -14 54.5 -14c61.6729 0 112 50.3271 112 112s-50.3271 112 -112 112z
M352 320c17.6729 0 32 -14.3271 32 -32s-14.3271 -32 -32 -32s-32 14.3271 -32 32s14.3271 32 32 32z" />
    <glyph glyph-name="uniF11E" unicode="&#xf11e;" 
d="M80 400h16h192h6.5l5 -4.5l96 -96l4.5 -5v-6.5v-288v-16h-16h-288h-16v16v384v16zM112 368v-352h256v256h-80h-16v16v80h-160zM304 345v-41h41zM321.5 224c8.83691 0 16 -7.16309 16 -16s-7.16309 -16 -16 -16s-16 7.16309 -16 16s7.16309 16 16 16zM208 198.5l11.5 -11
l36.5 -36.5l20.5 20.5l11.5 11l11.5 -11l48 -48l-23 -23l-36.5 36.5l-20.5 -20.5l-11.5 -11l-11.5 11l-36.5 36.5l-52.5 -52.5l-23 23l64 64z" />
    <glyph glyph-name="uniF126" unicode="&#xf126;" 
d="M48 368h16h288h16v-16v-96h80h16v-16v-160c0 -35.3564 -28.6436 -64 -64 -64h-288c-35.3564 0 -64 28.6436 -64 64v272v16zM80 336v-256c0 -19.043 12.957 -32 32 -32h233c-5.46289 9.42578 -9 20.3174 -9 32v160v16v80h-256zM112 304h16h160h16v-16v-48v-16h-16h-160
h-16v16v48v16zM144 272v-16h128v16h-128zM368 224v-144c0 -19.043 12.957 -32 32 -32s32 12.957 32 32v144h-64zM112 208h80v-32h-80v32zM224 208h80v-32h-80v32zM112 160h80v-32h-80v32zM224 160h80v-32h-80v32zM112 112h80v-32h-80v32zM224 112h80v-32h-80v32z" />
    <glyph glyph-name="uniF11C" unicode="&#xf11c;" 
d="M153.5 400h6.5h192h6.5l5 -4.5l27.5 -27.5h9c26.3271 0 48 -21.6729 48 -48v-32v-16h-16h-17.5l-30.5 -274l-1.5 -14h-14.5h-224h-14.5l-1.5 14l-30.5 274h-17.5h-16v16v32c0 26.3271 21.6729 48 48 48h9l27.5 27.5zM167 368l-27.5 -27.5l-5 -4.5h-6.5h-16
c-8.87305 0 -16 -7.12695 -16 -16v-16h16h304v16c0 8.87305 -7.12695 16 -16 16h-16h-6.5l-5 4.5l-27.5 27.5h-178zM130 272l28.5 -256h195l28.5 256h-252zM256 224c26.3203 0 48 -21.6797 48 -48c0 -12.2695 -4.80371 -23.4736 -12.5 -32
c7.69629 -8.52637 12.5 -19.7305 12.5 -32c0 -26.3203 -21.6797 -48 -48 -48s-48 21.6797 -48 48c0 12.2695 4.80371 23.4736 12.5 32c-7.69629 8.52637 -12.5 19.7305 -12.5 32c0 26.3203 21.6797 48 48 48zM256 192c-9.02637 0 -16 -6.97363 -16 -16s6.97363 -16 16 -16
s16 6.97363 16 16s-6.97363 16 -16 16zM256 128c-9.02637 0 -16 -6.97363 -16 -16s6.97363 -16 16 -16s16 6.97363 16 16s-6.97363 16 -16 16z" />
    <glyph glyph-name="uniF130" unicode="&#xf130;" 
d="M256 384c105.848 0 192 -86.1523 192 -192s-86.1523 -192 -192 -192s-192 86.1523 -192 192c0 57.3291 25.4941 108.82 65.5 144h-65.5v32h112h16v-16v-112h-32v79.5c-38.6396 -29.1514 -64 -75.2354 -64 -127.5c0 -88.5527 71.4473 -160 160 -160s160 71.4473 160 160
s-71.4473 160 -160 160v32z" />
    <glyph glyph-name="uniF103" unicode="&#xf103;" 
d="M64 368h16h352h16v-16v-64v-16h-16v-240v-16h-16h-320h-16v16v240h-16v16v64v16zM96 336v-32h320v32h-320zM112 272v-224h288v224h-288zM205 240c0.207031 0.00976562 0.542969 0.0175781 0.75 0.0175781s0.542969 -0.0078125 0.75 -0.0175781
c0.207031 0.00976562 0.542969 0.0175781 0.75 0.0175781s0.542969 -0.0078125 0.75 -0.0175781h96c0.0625 0.000976562 0.164062 0.00195312 0.226562 0.00195312c8.83301 0 16.001 -7.16895 16.001 -16.002s-7.16797 -16.002 -16.001 -16.002
c-0.0625 0 -0.164062 0.000976562 -0.226562 0.00195312h-96c-0.413086 -0.0390625 -1.08496 -0.0703125 -1.5 -0.0703125c-8.87109 0 -16.0703 7.19922 -16.0703 16.0703c0 8.07812 6.52734 15.2461 14.5703 16z" />
    <glyph glyph-name="uniF100" unicode="&#xf100;" 
d="M32 352h16h416h16v-16v-288v-16h-16h-250.5l-75.5 -60.5l-26 -21v33.5v48h-64h-16v16v288v16zM64 320v-256h64h16v-16v-30.5l54 43l4.5 3.5h5.5h240v256h-384zM240 288h32v-32h-32v32zM240 224h32v-128h-32v128z" />
    <glyph glyph-name="uniF139" unicode="&#xf139;" 
d="M228 384h64c8.35547 0 16.9678 -2.96777 23 -9s9 -14.6445 9 -23v-16h96v-32h-16v-256c0 -26.3271 -21.6729 -48 -48 -48h-192c-26.3271 0 -48 21.6729 -48 48v256h-16v32h96v16c0 8.35547 2.96777 16.9678 9 23s14.6445 9 23 9zM228 352v-16h64v16h-64zM148 304v-256
c0 -8.87305 7.12695 -16 16 -16h192c8.87305 0 16 7.12695 16 16v256h-224zM180 256h32v-176h-32v176zM244 256h32v-176h-32v176zM308 256h32v-176h-32v176z" />
    <glyph glyph-name="uniF127" unicode="&#xf127;" 
d="M256 400c114.686 0 208 -93.3145 208 -208s-93.3145 -208 -208 -208s-208 93.3145 -208 208s93.3145 208 208 208zM256 368c-97.3916 0 -176 -78.6084 -176 -176s78.6084 -176 176 -176s176 78.6084 176 176s-78.6084 176 -176 176zM356.5 267.5l23 -23l-128 -128
l-11.5 -11l-11.5 11l-80 80l23 23l68.5 -68.5z" />
    <glyph glyph-name="uniF135" unicode="&#xf135;" 
d="M256 384c46.6807 0 90.4121 -12.1758 123 -37.5s53 -64.4629 53 -113.5c0 -44.8447 -22.0625 -79.8418 -34 -95.5c0.989258 -5.16211 2 -10.6426 2 -17c0 -19.0605 -11.4258 -35.084 -26.5 -44c-10.5811 -6.25879 -24.2529 -7.37207 -37.5 -9v-35.5v-6.5l-5 -5
s-6.93652 -6.69531 -19 -11.5s-30.3779 -9 -56 -9s-43.9365 4.19531 -56 9s-19 11.5 -19 11.5l-5 5v6.5v35.5c-13.2471 1.62793 -26.9189 2.74121 -37.5 9c-15.0742 8.91602 -26.5 24.9395 -26.5 44c0 6.35742 1.01074 11.8379 2 17c-11.9375 15.6582 -34 50.6553 -34 95.5
c0 49.0303 20.4121 88.1777 53 113.5s76.3193 37.5 123 37.5zM256 352c-41.1592 0 -77.5479 -10.7227 -103 -30.5s-41 -48.0742 -41 -88.5c0 -21.7529 6.97852 -41.0068 14.5 -55.5c0.801758 3.95898 1.5 8.30957 1.5 14.5h32c0 -19.7832 -5.45605 -32.959 -9.5 -42.5
s-6.5 -15.4336 -6.5 -29c0 -7.69141 2.94629 -11.7363 11 -16.5s21.3574 -8 37 -8h16v-16v-39c1.28223 -0.739258 0.435547 -0.580078 4 -2c8.02051 -3.19531 21.958 -7 44 -7s35.9795 3.80469 44 7c3.56445 1.41992 2.71777 1.26074 4 2v39v16h16
c15.6426 0 28.9463 3.23633 37 8s11 8.80859 11 16.5c0 13.5664 -2.45605 19.459 -6.5 29s-9.5 22.7168 -9.5 42.5h32c0 -6.19043 0.698242 -10.541 1.5 -14.5c7.52148 14.4932 14.5 33.7471 14.5 55.5c0 40.4346 -15.5479 68.7207 -41 88.5s-61.8408 30.5 -103 30.5z
M208 192c17.6729 0 32 -14.3271 32 -32s-14.3271 -32 -32 -32s-32 14.3271 -32 32s14.3271 32 32 32zM304 192c17.6729 0 32 -14.3271 32 -32s-14.3271 -32 -32 -32s-32 14.3271 -32 32s14.3271 32 32 32zM256 132c0 0 20 -25.5 20 -37.5c0 -6 -4 -9 -8 -9
c-6.67188 0 -12 12 -12 12s-5.32812 -12 -12 -12c-4 0 -8 3 -8 9c0 12 20 37.5 20 37.5z" />
    <glyph glyph-name="uniF133" unicode="&#xf133;" 
d="M197 375.5l18.5 -45.5c12.8125 3.75293 26.499 6 40.5 6s27.6875 -2.24707 40.5 -6l18.5 45.5l29.5 -12l-18.5 -46c23.2471 -13.0332 42.4668 -32.2529 55.5 -55.5l46 18.5l12 -29.5l-45.5 -18.5c3.75293 -12.8125 6 -26.499 6 -40.5s-2.24707 -27.6875 -6 -40.5
l45.5 -18.5l-12 -29.5l-46 18.5c-13.0332 -23.2471 -32.2529 -42.4668 -55.5 -55.5l18.5 -46l-29.5 -12l-18.5 45.5c-12.8125 -3.75293 -26.499 -6 -40.5 -6c-14.0322 0 -27.6836 2.21777 -40.5 6l-18.5 -45.5l-29.5 12l18.5 46
c-23.1338 13.0674 -42.4922 32.2969 -55.5 55.5l-46 -18.5l-12 29.5l45.5 18.5c-3.75293 12.8125 -6 26.499 -6 40.5s2.24707 27.6875 6 40.5l-45.5 18.5l12 29.5l46 -18.5c13.0332 23.2471 32.2529 42.4668 55.5 55.5l-18.5 46zM256 304
c-62.0449 0 -112 -49.9551 -112 -112s49.9551 -112 112 -112s112 49.9551 112 112s-49.9551 112 -112 112zM256 256c35.1562 0 64 -28.8438 64 -64s-28.8438 -64 -64 -64s-64 28.8438 -64 64s28.8438 64 64 64zM256 224c-17.8623 0 -32 -14.1377 -32 -32s14.1377 -32 32 -32
s32 14.1377 32 32s-14.1377 32 -32 32z" />
    <glyph glyph-name="uniF113" unicode="&#xf113;" 
d="M382.5 384.5c16.751 0 33.4893 -6.48926 46.5 -19.5c26.0215 -26.0215 26.0215 -66.9785 0 -93l-249.5 -249.5l-3.5 -3.5l-5 -1l-88 -17.5l-23.5 -5l5 23.5l17.5 88l1 5l3.5 3.5l249.5 249.5c13.0107 13.0107 29.749 19.5 46.5 19.5zM382.5 354
c-8.04883 0 -16.2109 -3.71094 -24 -11.5l-11 -11.5l47.5 -47.5l11.5 11c15.5781 15.5781 15.5781 32.4219 0 48c-7.78906 7.78906 -15.9512 11.5 -24 11.5zM325 308.5l-193.5 -193.5c20.4893 -10.4697 37.0303 -27.0107 47.5 -47.5l193.5 193.5zM111 89l-10.5 -52.5
l52.5 10.5c-7.77441 19.1855 -22.8145 34.2256 -42 42z" />
    <glyph glyph-name="uniF10D" unicode="&#xf10d;" 
d="M240 384c61.666 0 112 -50.334 112 -112c0 -38.2891 -19.5264 -72.2852 -49 -92.5c57.2314 -24.3467 97 -81.2578 97 -147.5h-32c0 71.4668 -56.5332 128 -128 128s-128 -56.5332 -128 -128h-32c0 66.2422 39.7686 123.153 97 147.5
c-29.4736 20.2148 -49 54.2109 -49 92.5c0 61.666 50.334 112 112 112zM240 352c-44.3721 0 -80 -35.6279 -80 -80s35.6279 -80 80 -80s80 35.6279 80 80s-35.6279 80 -80 80z" />
    <glyph glyph-name="uniF12F" unicode="&#xf12f;" 
d="M256 384c57.1348 0 108.96 -25.293 144 -65.5v49.5h32v-96v-16h-16h-96v32h63c-28.8623 38.5674 -75.1543 64 -127 64c-68.6182 0 -125.172 -42.2227 -148.5 -102l-29.5 12c27.8721 71.4229 96.2188 122 178 122zM404.5 134l29.5 -12
c-27.8721 -71.4229 -96.2188 -122 -178 -122c-57.6865 0 -108.982 25.832 -144 65.5v-49.5h-32v96v16h16h96v-32h-63.5c28.9951 -38.2129 75.0762 -64 127.5 -64c68.6182 0 125.172 42.2227 148.5 102z" />
    <glyph glyph-name="uniF10E" unicode="&#xf10e;" 
d="M144 406.5l27.5 -27l235 -235.5l23 -23l-32.5 -4l-81 -10l29.5 -58l7 -14.5l-14 -7l-49.5 -25.5l-14.5 -7.5l-7 14.5l-32.5 64.5l-64.5 -54l-26.5 -22v34.5v336v38.5zM176 329v-262.5l53.5 45l15.5 13l9.5 -18l34.5 -69l21 11l-33 64l-10.5 20.5l22.5 3l72 8.5z" />
    <glyph glyph-name="uniF110" unicode="&#xf110;" 
d="M115.5 355.5l140.5 -140.5l140.5 140.5l23 -23l-140.5 -140.5l140.5 -140.5l-23 -23l-140.5 140.5l-140.5 -140.5l-23 23l140.5 140.5l-140.5 140.5z" />
    <glyph glyph-name="uniF12B" unicode="&#xf12b;" 
d="M256 400c114.686 0 208 -93.3145 208 -208s-93.3145 -208 -208 -208s-208 93.3145 -208 208s93.3145 208 208 208zM256 368c-97.3916 0 -176 -78.6084 -176 -176s78.6084 -176 176 -176s176 78.6084 176 176s-78.6084 176 -176 176zM240 288h32v-80h80v-32h-80v-80h-32
v80h-80v32h80v80z" />
    <glyph glyph-name="uniF136" unicode="&#xf136;" 
d="M240 400h32v-80h-32v80zM120 350.5l57 -56.5l-23 -23l-56.5 57zM392 350.5l22.5 -22.5l-56.5 -57l-23 23zM256 304c61.666 0 112 -50.334 112 -112s-50.334 -112 -112 -112s-112 50.334 -112 112s50.334 112 112 112zM256 272c-44.3721 0 -80 -35.6279 -80 -80
s35.6279 -80 80 -80s80 35.6279 80 80s-35.6279 80 -80 80zM48 208h80v-32h-80v32zM384 208h80v-32h-80v32zM154 113l23 -23l-57 -56.5l-22.5 22.5zM358 113l56.5 -57l-22.5 -22.5l-57 56.5zM240 64h32v-80h-32v80z" />
    <glyph glyph-name="uniF119" unicode="&#xf119;" 
d="M48 352h16h384h16v-16v-288v-16h-16h-384h-16v16v288v16zM80 320v-64h64v64h-64zM176 320v-64h64v64h-64zM272 320v-64h64v64h-64zM368 320v-64h64v64h-64zM80 224v-64h64v64h-64zM176 224v-64h64v64h-64zM272 224v-64h64v64h-64zM368 224v-64h64v64h-64zM80 128v-64h64
v64h-64zM176 128v-64h64v64h-64zM272 128v-64h64v64h-64zM368 128v-64h64v64h-64z" />
    <glyph glyph-name="uniF125" unicode="&#xf125;" 
d="M256 400c114.686 0 208 -93.3145 208 -208s-93.3145 -208 -208 -208s-208 93.3145 -208 208s93.3145 208 208 208zM256 368c-97.3916 0 -176 -78.6084 -176 -176s78.6084 -176 176 -176s176 78.6084 176 176s-78.6084 176 -176 176zM160 208h192v-32h-192v32z" />
    <glyph glyph-name="uniF10F" unicode="&#xf10f;" 
d="M201.5 384h6.5h64h6.5l5 -4.5l11.5 -11.5h105v-32h-16v-288c0 -26.3271 -21.6729 -48 -48 -48h-192c-26.3271 0 -48 21.6729 -48 48v288h-16v32h105l11.5 11.5zM215 352l-11.5 -11.5l-5 -4.5h-6.5h-64v-288c0 -8.87305 7.12695 -16 16 -16h192
c8.87305 0 16 7.12695 16 16v288h-64h-6.5l-5 4.5l-11.5 11.5h-50zM160 272h32v-176h-32v176zM224 272h32v-176h-32v176zM288 272h32v-176h-32v176z" />
  </font>
</defs>
</svg>
