<?xml version="1.0" encoding="utf-8"?>
<!-- Generator: Adobe Illustrator 17.0.0, SVG Export Plug-In . SVG Version: 6.00 Build 0)  -->
<!DOCTYPE svg PUBLIC "-//W3C//DTD SVG 1.1//EN" "http://www.w3.org/Graphics/SVG/1.1/DTD/svg11.dtd">
<svg version="1.1" id="Capa_1" xmlns="http://www.w3.org/2000/svg" xmlns:xlink="http://www.w3.org/1999/xlink" x="0px" y="0px"
	 width="841.9px" height="518.2px" viewBox="0 0 841.9 518.2" style="enable-background:new 0 0 841.9 518.2;" xml:space="preserve"
	>
<radialGradient id="SVGID_1_" cx="441.7497" cy="285.4572" r="567.0658" gradientUnits="userSpaceOnUse">
	<stop  offset="0" style="stop-color:#5AA1D8"/>
	<stop  offset="0.47" style="stop-color:#2C8DCC"/>
	<stop  offset="1" style="stop-color:#007BC2"/>
</radialGradient>
<rect x="0" y="0" style="display:none;fill:url(#SVGID_1_);" width="841.9" height="595.3"/>
<rect y="-0.5" style="fill:#92D8ED;" width="862" height="542.9"/>
<g>
	<g>
		<defs>
			<path id="SVGID_2_" d="M441.9,122.9c-23.4,10.9-43.6,27.5-58.8,48c2.4-0.3,5-0.5,7.5-0.7c16.4-20.7,38.4-37,63.6-46.3
				C462.1,121.7,452.2,117.9,441.9,122.9z M432,123c10.3-6.4-9.3-8.6-27.5,4.6c-16.9,12.9-31.1,29-42.2,47.2
				c4.8-1.2,9.9-2.3,15.4-3.1C391.8,151.5,410.2,134.7,432,123z M374.3,176.4c-5.4,1-10.4,2.2-15,3.5c-13.2,23.8-21,51-21,80.2
				c0,5.3,0.3,10.4,0.8,15.5c0.9,6.2,11.6,7.2,10.6-2.3c-0.3-4-0.6-8-0.6-12.1C349,229.9,358.4,200.9,374.3,176.4z M379.8,175.6
				c-16.7,24.4-26.6,53.9-26.6,85.7c0,4.3,0.3,8.5,0.6,12.6c0.8,5.9,6.5,5.9,6.3,1.8c-0.6-5.1-0.9-10.3-0.9-15.6
				c0-32,10.4-61.4,28-85.4C384.7,174.9,382.2,175.2,379.8,175.6z M580,407.4c23.4-10.9,43.6-27.5,58.8-48c-2.4,0.3-5,0.5-7.5,0.6
				c-16.4,20.7-38.4,37-63.6,46.3C561.4,407.7,562.1,414.5,580,407.4z M642.1,354.7c1.5-2.2,11.2-15.1,7.2-17.2
				c-3.6-1.9-8.3,8-11.7,14c-1.1,2-1.9,4-3,4.1C637.2,355.4,639.6,355,642.1,354.7z"/>
		</defs>
		<clipPath id="SVGID_3_">
			<use xlink:href="#SVGID_2_"  style="overflow:visible;"/>
		</clipPath>
	</g>
</g>
<g style="display:none;">
	<g style="display:inline;">
		<g>
			<path style="fill:#2870AC;" d="M332.4,121.7c0,5.5-4,7.8-9.3,7.8H320v9h-3v-24.1h6.2C328.9,114.3,332.4,116.6,332.4,121.7z
				 M329.2,121.7c0-3.7-2.4-5.1-6.1-5.1H320V127h3.1C326.7,127,329.2,125.9,329.2,121.7z"/>
			<path style="fill:#2870AC;" d="M345.8,132.2h-9.4l-1.9,6.2h-3.1l7.8-24.1h3.9l7.8,24.1h-3.2L345.8,132.2z M345.1,129.7l-3.9-12.9
				l-3.9,12.9H345.1z"/>
			<path style="fill:#2870AC;" d="M368.7,116.2l-1.6,2c-1.5-1.2-3-1.8-4.7-1.8c-3.8,0-6.9,2.6-6.9,10c0,7.1,3,9.9,6.9,9.9
				c2.3,0,3.8-1,5.2-2l1.5,2c-1.3,1.4-3.6,2.7-6.8,2.7c-5.8,0-10-4.4-10-12.5c0-8.2,4.5-12.5,10-12.5
				C365.1,113.8,366.8,114.7,368.7,116.2z"/>
			<path style="fill:#2870AC;" d="M376.4,138.4h-3v-24.1h3V138.4z M380,125.3l10,13.1h-3.8l-9.8-12.9l9.4-11.2h3.5L380,125.3z"/>
			<path style="fill:#2870AC;" d="M404.7,132.2h-9.4l-1.9,6.2h-3.1l7.8-24.1h3.9l7.8,24.1h-3.2L404.7,132.2z M403.9,129.7l-3.9-12.9
				l-3.9,12.9H403.9z"/>
			<path style="fill:#2870AC;" d="M428.5,116.4l-1.8,1.9c-1.7-1.3-3.2-1.9-5.3-1.9c-3.5,0-7.1,2.7-7.1,9.9c0,7.1,2.5,10,6.8,10
				c1.7,0,3.3-0.4,4.7-1.2v-7.5h-4.4l-0.4-2.5h7.8v11.6c-2.2,1.3-4.7,2.1-7.9,2.1c-6,0-9.9-4.2-9.9-12.5c0-8.2,4.9-12.5,10.3-12.5
				C424.5,113.8,426.5,114.8,428.5,116.4z"/>
			<path style="fill:#2870AC;" d="M447.2,116.7h-9.5v8.1h8.2v2.5h-8.2v8.6h10.1v2.5h-13.1v-24.1h12.9L447.2,116.7z"/>
			<path style="fill:#2870AC;" d="M476.2,127h-10.5v11.4h-3v-24.1h3v10.2h10.5v-10.2h3.1v24.1h-3.1V127z"/>
			<path style="fill:#2870AC;" d="M499,116.7h-9.5v8.1h8.2v2.5h-8.2v8.6h10.1v2.5h-13.1v-24.1h12.9L499,116.7z"/>
			<path style="fill:#2870AC;" d="M512,128h-4v10.4h-3v-24.1h6.2c6,0,9.1,2.3,9.1,6.8c0,3.4-1.8,5.4-5.3,6.5l6.5,10.9h-3.6L512,128z
				 M511.6,125.7c3.5,0,5.5-1.3,5.5-4.6c0-3.1-1.8-4.4-5.9-4.4H508v9H511.6z"/>
			<path style="fill:#2870AC;" d="M544.4,126.4c0,8-4.1,12.5-10.1,12.5c-6,0-10.1-4.3-10.1-12.4c0-8,4.1-12.6,10.1-12.6
				C540.3,113.8,544.4,118.2,544.4,126.4z M527.4,126.4c0,7,2.8,9.9,6.9,9.9c4.2,0,6.9-2.9,6.9-9.9c0-7.1-2.6-10-6.9-10
				C530.1,116.4,527.4,119.3,527.4,126.4z"/>
		</g>
	</g>
	<g style="display:inline;">
		<g>
			<g>
				<g>
					<g>
						<path style="fill:#BB976C;" d="M329.4,134.1c0.3,0.4,0.3,0.9-0.1,1.2l-28.5,25.8c-0.4,0.3-0.9,0.3-1.2-0.1l-26.2-31.1
							c-0.3-0.4-0.3-0.9,0.1-1.2L302,103c0.4-0.3,0.9-0.3,1.2,0.1L329.4,134.1z"/>
					</g>
					<g>
						<path style="fill:#9E784D;" d="M294.7,108.4c0.3,0.4,0.3,0.9-0.1,1.2l-20.7,18.8c-0.4,0.3-0.9,0.3-1.2-0.1l-11-13.1
							c-0.3-0.4-0.3-0.9,0.1-1.2l20.7-18.8c0.4-0.3,0.9-0.3,1.2,0.1L294.7,108.4z"/>
					</g>
					<g>
						<path style="fill:#BB976C;" d="M294.2,108c0.3,0.4,0.3,0.9-0.1,1.2L273.4,128c-0.4,0.3-0.9,0.3-1.2-0.1l-11-13.1
							c-0.3-0.4-0.3-0.9,0.1-1.2L282,94.8c0.4-0.3,0.9-0.3,1.2,0.1L294.2,108z"/>
					</g>
				</g>
			</g>
			<g>
				<polygon style="fill:#FFFFFF;" points="326.5,135 321.4,139.8 318,135.8 323.1,131 				"/>
				<path style="fill:#2F2A2F;" d="M321.5,138.9l0.2-0.2l-2.7-3.2l-0.2,0.2L321.5,138.9z M324.3,136.2l0.1-0.1l-2.7-3.2l-0.1,0.1
					L324.3,136.2z M322.8,137.7l0.2-0.2l-2.7-3.2l-0.2,0.2L322.8,137.7z M323.7,136.8l0.2-0.2l-2.7-3.2l-0.2,0.2L323.7,136.8z
					 M323.1,137.3l0.3-0.3l-2.7-3.2l-0.3,0.3L323.1,137.3z M322.7,132l2.7,3.2l0.2-0.2l-2.7-3.2L322.7,132z M325,135.6l0.2-0.2
					l-2.7-3.2l-0.2,0.2L325,135.6z M321.7,138.6L321.7,138.6l-2.7-3.2l0,0L321.7,138.6z M322,138.4L322,138.4l-2.7-3.2l0,0
					L322,138.4z M322.2,138.2L322.2,138.2l-2.7-3.2l0,0L322.2,138.2z M321.9,138.6L321.9,138.6l-2.7-3.2l0,0L321.9,138.6z
					 M324.7,135.9L324.7,135.9l-2.7-3.2l0,0L324.7,135.9z M325.3,135.4L325.3,135.4l-2.7-3.2l0,0L325.3,135.4z M322.6,137.9
					L322.6,137.9l-2.7-3.2l0,0L322.6,137.9z M324.2,136.4L324.2,136.4l-2.7-3.2l0,0L324.2,136.4z M323.6,136.9L323.6,136.9l-2.7-3.2
					l0,0L323.6,136.9z"/>
			</g>
		</g>
		<g>
			<g>
				<g>
					<path style="fill:#04529D;" d="M292,136.5c-0.1-3.4,2.1-6.3,4.7-7.3c2.6-1,5.3-0.3,6.9,1c1.6,1.3,2.3,3,2.6,4.1
						c0.3,1.1,0.2,1.8,0.2,1.8c0,0,0-0.7-0.3-1.8c-0.3-1.1-1.1-2.6-2.7-3.8c-1.6-1.2-4.1-1.7-6.4-0.7c-2.3,0.9-4.3,3.6-4.2,6.6
						c0,3,2.1,5.6,4.5,6.4c2.4,0.9,4.9,0.2,6.4-1.1c1.6-1.2,2.2-2.8,2.5-3.9c0.3-1.1,0.2-1.8,0.2-1.8c0,0,0.1,0.6-0.1,1.8
						c-0.2,1.1-0.8,2.8-2.4,4.2c-1.5,1.4-4.2,2.3-6.8,1.4C294.4,142.6,292,139.8,292,136.5z"/>
					<path style="fill:#04529D;" d="M303.4,131.1c-1.5,1.2-4,1.9-6.4,1.1c-0.8-0.3-1.6-0.8-2.3-1.4c-0.2,0.1-0.4,0.3-0.6,0.4
						c0.8,0.8,1.7,1.3,2.7,1.6c2.7,0.9,5.3,0,6.8-1.4c0.2-0.1,0.3-0.3,0.4-0.4c-0.1-0.1-0.1-0.2-0.2-0.3
						C303.7,130.8,303.5,131,303.4,131.1z"/>
					<path style="fill:#04529D;" d="M297.2,140.5c2.4-1,4.9-0.4,6.4,0.7c0.2,0.1,0.3,0.2,0.4,0.3c0.1-0.1,0.2-0.2,0.3-0.2
						c-0.2-0.1-0.3-0.3-0.5-0.4c-1.6-1.3-4.3-2-6.9-1c-1,0.3-1.9,1-2.6,1.8c0.2,0.1,0.4,0.3,0.6,0.4
						C295.6,141.4,296.4,140.8,297.2,140.5z"/>
					<path style="fill:#04529D;" d="M302.5,136.2c0,2.3-0.4,4.5-1.1,5.9c-0.4,0.7-0.8,1.2-1.2,1.3c-0.4,0.2-0.6,0.1-0.6,0.1
						c0,0.1,1-0.2,1.5-1.6c0.5-1.4,0.8-3.4,0.7-5.7c-0.1-2.3-0.4-4.3-1-5.6c-0.5-1.4-1.6-1.6-1.6-1.6c0,0,0.2-0.1,0.6,0.1
						c0.4,0.2,0.9,0.6,1.3,1.3C301.9,131.7,302.5,133.8,302.5,136.2z"/>
					<path style="fill:#04529D;" d="M296.3,136.3c0-2.3,0.4-4.5,1.1-5.9c0.4-0.7,0.8-1.2,1.2-1.3c0.4-0.2,0.6-0.1,0.6-0.1
						c0-0.1-1,0.2-1.5,1.6c-0.5,1.4-0.8,3.4-0.7,5.7c0.1,2.2,0.4,4.3,1,5.6c0.5,1.4,1.6,1.6,1.6,1.6c0,0-0.2,0.1-0.6-0.1
						c-0.4-0.2-0.9-0.6-1.3-1.3C296.9,140.8,296.3,138.7,296.3,136.3z"/>
					<path style="fill:#04529D;" d="M299.7,136.3c0.1,4-0.2,7.3-0.2,7.3s-0.4-3.2-0.5-7.3c-0.1-4,0.2-7.3,0.2-7.3
						S299.6,132.2,299.7,136.3z"/>
					<path style="fill:#04529D;" d="M299.4,135.9c3.9-0.1,7,0.2,7,0.2s-3.1,0.5-7,0.6c-3.9,0.1-7-0.2-7-0.2S295.5,136,299.4,135.9z"
						/>
				</g>
				<g>
					<path style="fill:#F79222;" d="M310.2,141.4c-0.5-2.4-1.9-3.8-3.1-5.2c-0.2-0.2-0.5-0.5-0.7-0.7c0.1,0.5,0,1.1-0.1,1.7
						c1.1,1.2,2.3,2.8,2.5,4.3c0.3,1.5-1.5,1.8-3.3,1.6c-3.6-0.6-7-2.3-9.9-4.2c-2.9-1.9-5.3-3.9-6.8-6.1c-0.7-1.1-1.3-2.2-1.1-3.1
						c0.2-0.9,1-1.3,1.7-1.5c1.3-0.3,2.1-0.1,2.1-0.1c0,0-0.8-0.3-2.2-0.1c-0.7,0.1-1.7,0.4-2.1,1.5c-0.3,1.2,0.2,2.5,0.9,3.7
						c1.5,2.4,3.9,4.7,6.8,6.8c2.9,2,6.4,4,10.4,4.6c1,0.1,2.1,0.2,3.1-0.2C309.6,144.1,310.5,142.7,310.2,141.4z"/>
				</g>
				<g>
					<path style="fill:#007BBF;" d="M308,129.6c-1.9-0.8-3.6-0.3-5.1,0c-0.1,0-0.2,0.1-0.3,0.1c0.4,0.3,0.8,0.6,1.2,0.9
						c1.2-0.2,2.6-0.3,3.6,0.2c1.2,0.5,0.6,2.2-0.4,3.5c-2.1,2.7-4.9,4.6-7.5,6.1c-2.6,1.4-5.2,2.4-7.4,2.6
						c-1.1,0.1-2.1-0.1-2.7-0.7c-0.6-0.6-0.5-1.5-0.3-2.1c0.4-1.2,0.9-1.8,0.9-1.8c0,0-0.5,0.5-1.1,1.8c-0.2,0.6-0.5,1.6,0.2,2.5
						c0.7,0.8,1.9,1.1,3.1,1.1c2.4,0,5.1-0.8,7.9-2.2c2.8-1.4,5.7-3.3,8-6.3c0.6-0.8,1.1-1.6,1.3-2.7C309.7,131.4,309,130,308,129.6
						z"/>
				</g>
			</g>
			<g>
				<path style="fill:#F79222;" d="M300.5,127.6l0.5-5c3.3-1.9,3.5-2.1,4.5-3.3c0.4-0.6,0.7-1.6-1.1-1.1c-0.2-0.1-1.2-0.3-1.9,0.6
					l-3.1,1.8l-6.1-0.2l-4.7-0.1c-0.6,0.1-0.8,0-0.9,0.6l5.3,1.3l2,0.9l-2.3,1.3l-1.7-1.1c-0.3-0.1-0.3-0.2-0.5-0.1
					c-0.2,0.1-0.5,0.2-0.5,0.2l0.5,1.6l-1.9-0.4c-0.3-0.1-0.8,0-0.9,0.4l2.6,1.4c-0.4,0.5,0.4,0.5,0.6,0.4l1.4,1
					c0.2,0,0.5-0.1,0.4-0.5l-0.3-0.9c1.1-0.3,3.1-1.1,4.8-1.8l1.5,0.8l0.8,2.5C300,127.9,300.3,127.8,300.5,127.6z"/>
			</g>
		</g>
	</g>
</g>
<rect y="333.7" style="fill:#FBF8DE;" width="862" height="217.8"/>
<polyline style="fill:#B6C1C1;" points="869.1,415.4 869.1,576.5 -7.1,576.5 -7.1,415.4 "/>
<g>
	<circle style="fill:#E1593F;" cx="756.4" cy="350.2" r="22.5"/>
	<polyline style="fill:#704B1D;" points="758.5,402.7 756.4,338.3 753.2,402.7 	"/>
	<polygon style="fill:#704B1D;" points="756.6,353.1 772.9,338.3 756.6,356.7 	"/>
	<polygon style="fill:#704B1D;" points="755.6,360.5 755.3,363.4 741.9,354.7 	"/>
	<circle style="fill:#E1593F;" cx="824.1" cy="350.2" r="22.5"/>
	<polyline style="fill:#704B1D;" points="826.2,402.7 824.1,338.3 820.9,402.7 	"/>
	<polygon style="fill:#704B1D;" points="824.4,353.1 840.6,338.3 824.4,356.7 	"/>
	<polygon style="fill:#704B1D;" points="823.3,360.5 823.1,363.4 809.6,354.7 	"/>
	<circle style="fill:#81B040;" cx="792.1" cy="342.7" r="25.7"/>
	<polyline style="fill:#704B1D;" points="794.5,402.7 792.1,329.1 788.4,402.7 	"/>
	<polygon style="fill:#704B1D;" points="792.3,346.1 810.9,329.1 792.3,350.2 	"/>
	<polygon style="fill:#704B1D;" points="791.2,354.5 790.9,357.8 775.5,347.9 	"/>
</g>
<line style="fill:#92D8ED;" x1="821.8" y1="-56.2" x2="821.8" y2="333.7"/>
<g>
	<g>
		<polygon style="fill:#E1593F;" points="18.9,333.7 67.1,333.7 72.2,333.7 134.4,333.7 134.4,269.9 134.4,254.9 134.4,121.9 
			18.9,121.9 		"/>
		<rect x="95.9" y="141.2" style="fill:#1D5371;" width="19.3" height="19.3"/>
		<rect x="95.9" y="170" style="fill:#1D5371;" width="19.3" height="19.3"/>
		<rect x="95.9" y="198.9" style="fill:#1D5371;" width="19.3" height="19.3"/>
		<rect x="95.9" y="227.8" style="fill:#1D5371;" width="19.3" height="19.3"/>
		<rect x="67" y="141.2" style="fill:#1D5371;" width="19.3" height="19.3"/>
		<rect x="67" y="170" style="fill:#1D5371;" width="19.3" height="19.3"/>
		<rect x="67" y="198.9" style="fill:#1D5371;" width="19.3" height="19.3"/>
		<rect x="67" y="227.8" style="fill:#1D5371;" width="19.3" height="19.3"/>
		<rect x="38.2" y="141.2" style="fill:#1D5371;" width="19.3" height="19.3"/>
		<rect x="38.2" y="170" style="fill:#1D5371;" width="19.3" height="19.3"/>
		<rect x="38.2" y="198.9" style="fill:#1D5371;" width="19.3" height="19.3"/>
		<rect x="38.2" y="227.8" style="fill:#1D5371;" width="19.3" height="19.3"/>
		<rect x="95.9" y="289.1" style="fill:#1D5371;" width="19.3" height="19.3"/>
		<rect x="67" y="289.1" style="fill:#1D5371;" width="19.3" height="19.3"/>
		<rect x="95.9" y="257.1" style="fill:#1D5371;" width="19.3" height="19.3"/>
		<rect x="67" y="257.1" style="fill:#1D5371;" width="19.3" height="19.3"/>
		<rect x="38.2" y="289.1" style="fill:#1D5371;" width="19.3" height="19.3"/>
		<rect x="38.2" y="256.7" style="fill:#1D5371;" width="19.3" height="19.3"/>
	</g>
	<rect x="36.1" y="308.3" style="fill:#B6C1C1;" width="23.5" height="3.6"/>
	<rect x="36.1" y="275.8" style="fill:#B6C1C1;" width="23.5" height="3.6"/>
	<rect x="36.1" y="247.1" style="fill:#B6C1C1;" width="23.5" height="3.6"/>
	<rect x="36.1" y="217.6" style="fill:#B6C1C1;" width="23.5" height="3.6"/>
	<rect x="36.1" y="189.3" style="fill:#B6C1C1;" width="23.5" height="3.6"/>
	<rect x="36.1" y="156.8" style="fill:#B6C1C1;" width="23.5" height="3.6"/>
	<rect x="64.9" y="308.3" style="fill:#B6C1C1;" width="23.5" height="3.6"/>
	<rect x="64.9" y="275.8" style="fill:#B6C1C1;" width="23.5" height="3.6"/>
	<rect x="64.9" y="247.1" style="fill:#B6C1C1;" width="23.5" height="3.6"/>
	<rect x="64.9" y="217.6" style="fill:#B6C1C1;" width="23.5" height="3.6"/>
	<rect x="64.9" y="189.3" style="fill:#B6C1C1;" width="23.5" height="3.6"/>
	<rect x="64.9" y="156.8" style="fill:#B6C1C1;" width="23.5" height="3.6"/>
	<rect x="93.8" y="308.3" style="fill:#B6C1C1;" width="23.5" height="3.6"/>
	<rect x="93.8" y="275.8" style="fill:#B6C1C1;" width="23.5" height="3.6"/>
	<rect x="93.8" y="247.1" style="fill:#B6C1C1;" width="23.5" height="3.6"/>
	<rect x="93.8" y="217.6" style="fill:#B6C1C1;" width="23.5" height="3.6"/>
	<rect x="93.8" y="189.3" style="fill:#B6C1C1;" width="23.5" height="3.6"/>
	<rect x="93.8" y="156.8" style="fill:#B6C1C1;" width="23.5" height="3.6"/>
</g>
<path style="fill:#E1593F;" d="M312.8,73.9"/>
<path style="fill:#90D7F0;" d="M347.5,34.4c0,0,6.6,0.2,9.5,1.4c2.9,1.2-22,8.7-22,8.7v-5L347.5,34.4z"/>
<g>
	<polygon style="fill:#90D7F0;" points="292.2,54.9 292.2,58.4 296.6,56.7 296.6,52.9 	"/>
	<polygon style="fill:#90D7F0;" points="298.8,52.2 298.8,55.7 303.2,53.9 303.2,50.2 	"/>
	<polygon style="fill:#90D7F0;" points="304.9,49.4 304.9,52.9 309.3,51.2 309.3,47.5 	"/>
	<polygon style="fill:#90D7F0;" points="311.5,46.7 311.5,50.2 315.9,48.4 315.9,44.7 	"/>
	<polygon style="fill:#90D7F0;" points="279.5,60.4 279.5,63.9 283.8,62.1 283.8,58.4 	"/>
	<polygon style="fill:#90D7F0;" points="286,57.7 286,61.2 290.4,59.4 290.4,55.7 	"/>
</g>
<g>
	<path style="fill:#1D5371;" d="M334.6,13.4c0.6,0.2,1.3,0.3,1.9,0.5c0.6,0.2,1.2,0.4,1.9,0.6l1.8,0.6c0.6,0.2,1.2,0.4,1.8,0.7
		c2.4,0.9,4.8,1.9,7.1,3l-1.7,0.7c0.4-1.1,0.7-2.3,1.2-3.4c0.4-1.1,0.8-2.2,1.3-3.3c0.2-0.6,0.4-1.1,0.7-1.7l0.7-1.6
		c0.5-1.1,1-2.2,1.7-3.2c-0.1,1.2-0.3,2.4-0.5,3.5l-0.4,1.7c-0.1,0.6-0.3,1.2-0.4,1.7c-0.3,1.2-0.6,2.3-0.9,3.4
		c-0.3,1.1-0.7,2.3-1,3.4l-0.4,1.2l-1.3-0.6c-2.3-1.1-4.6-2.2-6.8-3.4c-0.6-0.3-1.1-0.6-1.7-0.9l-1.7-0.9c-0.5-0.3-1.1-0.7-1.6-1
		C335.7,14.1,335.1,13.7,334.6,13.4z"/>
	<path style="fill:#1D5371;" d="M346.6,49.2c0.6,0.3,1.1,0.7,1.6,1c0.5,0.4,1,0.7,1.6,1.1l1.5,1.1c0.5,0.4,1,0.8,1.5,1.2
		c2,1.5,3.8,3.2,5.7,4.8l-1.8,0.1c0.7-1,1.5-1.9,2.3-2.9c0.8-0.9,1.6-1.9,2.4-2.8c0.4-0.5,0.8-0.9,1.2-1.4l1.3-1.4
		c0.9-0.9,1.7-1.8,2.7-2.6c-0.5,1.1-1.1,2.2-1.7,3.2l-1,1.6c-0.3,0.5-0.7,1-1,1.5c-0.7,1-1.4,2-2.1,3c-0.7,1-1.4,2-2.2,2.9l-0.8,1.1
		l-1-0.9c-1.8-1.7-3.6-3.4-5.3-5.2c-0.4-0.4-0.9-0.9-1.3-1.3L349,52c-0.4-0.5-0.8-0.9-1.2-1.4C347.4,50.2,347,49.7,346.6,49.2z"/>
	<path style="fill:#1D5371;" d="M371.9,25.7c0.6,0.3,1.1,0.7,1.6,1c0.5,0.4,1,0.7,1.6,1.1l1.5,1.1c0.5,0.4,1,0.8,1.5,1.2
		c2,1.5,3.9,3.2,5.7,4.8l-1.8,0.1c0.7-1,1.5-1.9,2.3-2.9c0.8-0.9,1.6-1.9,2.4-2.8c0.4-0.5,0.8-0.9,1.2-1.4l1.3-1.4
		c0.9-0.9,1.7-1.8,2.7-2.6c-0.5,1.1-1.1,2.2-1.7,3.2l-1,1.6c-0.3,0.5-0.7,1-1,1.5c-0.7,1-1.4,2-2.1,3c-0.7,1-1.4,2-2.2,2.9l-0.8,1.1
		l-1-0.9c-1.8-1.7-3.6-3.4-5.3-5.2c-0.4-0.4-0.9-0.9-1.3-1.3l-1.2-1.4c-0.4-0.5-0.8-0.9-1.2-1.4C372.7,26.7,372.3,26.2,371.9,25.7z"
		/>
</g>
<path style="fill:#1D5371;" d="M653,472.3"/>
<g>
	<rect x="66" y="456.7" style="fill:#FBF8DE;" width="33.3" height="6.1"/>
	<rect x="155.9" y="456.7" style="fill:#FBF8DE;" width="33.3" height="6.1"/>
	<rect x="245.8" y="456.7" style="fill:#FBF8DE;" width="33.3" height="6.1"/>
	<rect x="335.7" y="456.7" style="fill:#FBF8DE;" width="33.3" height="6.1"/>
	<rect x="425.6" y="456.7" style="fill:#FBF8DE;" width="33.3" height="6.1"/>
	<rect x="515.5" y="456.7" style="fill:#FBF8DE;" width="33.3" height="6.1"/>
	<rect x="605.4" y="456.7" style="fill:#FBF8DE;" width="33.3" height="6.1"/>
	<rect x="695.2" y="456.7" style="fill:#FBF8DE;" width="33.3" height="6.1"/>
</g>
<g>
	<path style="fill:#707171;" d="M475.4,488.4"/>
</g>
<path style="fill:#76A0B2;" d="M504,442.9"/>
<path style="fill:#503065;" d="M251.8,480.3"/>
<g>
	<g>
		<path style="fill:#707171;" d="M220.9,488.6"/>
	</g>
	<g>
		<path style="fill:#707171;" d="M117,488.6"/>
	</g>
</g>
<g>
	<polyline style="fill:#1D5371;" points="581.2,334.4 581.2,164.5 569.4,164.5 569.4,135.6 559.5,135.6 559.5,121.2 544.6,121.2 
		544.6,135.6 534.6,135.6 534.6,164.5 522.8,164.5 522.8,334.4 	"/>
	<rect x="528.5" y="286.6" style="fill:#81B040;" width="7.5" height="14.1"/>
	<rect x="528.5" y="263.3" style="fill:#81B040;" width="7.5" height="14.1"/>
	<rect x="528.5" y="240.1" style="fill:#81B040;" width="7.5" height="14.1"/>
	<rect x="528.5" y="216.9" style="fill:#81B040;" width="7.5" height="14.1"/>
	<rect x="528.5" y="193.6" style="fill:#81B040;" width="7.5" height="14.1"/>
	<rect x="528.5" y="170.7" style="fill:#81B040;" width="7.5" height="14.1"/>
	<rect x="541.3" y="286.6" style="fill:#81B040;" width="7.5" height="14.1"/>
	<rect x="541.3" y="263.3" style="fill:#81B040;" width="7.5" height="14.1"/>
	<rect x="541.3" y="240.1" style="fill:#81B040;" width="7.5" height="14.1"/>
	<rect x="541.3" y="216.9" style="fill:#81B040;" width="7.5" height="14.1"/>
	<rect x="541.3" y="193.6" style="fill:#81B040;" width="7.5" height="14.1"/>
	<rect x="541.3" y="170.7" style="fill:#81B040;" width="7.5" height="14.1"/>
	<rect x="541.3" y="142.6" style="fill:#81B040;" width="7.5" height="14.1"/>
	<rect x="554" y="286.6" style="fill:#81B040;" width="7.5" height="14.1"/>
	<rect x="554" y="263.3" style="fill:#81B040;" width="7.5" height="14.1"/>
	<rect x="554" y="240.1" style="fill:#81B040;" width="7.5" height="14.1"/>
	<rect x="554" y="216.9" style="fill:#81B040;" width="7.5" height="14.1"/>
	<rect x="554" y="193.6" style="fill:#81B040;" width="7.5" height="14.1"/>
	<rect x="554" y="170.7" style="fill:#81B040;" width="7.5" height="14.1"/>
	<rect x="554" y="142.6" style="fill:#81B040;" width="7.5" height="14.1"/>
	<rect x="566.7" y="286.6" style="fill:#81B040;" width="7.5" height="14.1"/>
	<rect x="566.7" y="263.3" style="fill:#81B040;" width="7.5" height="14.1"/>
	<rect x="566.7" y="240.1" style="fill:#81B040;" width="7.5" height="14.1"/>
	<rect x="566.7" y="216.9" style="fill:#81B040;" width="7.5" height="14.1"/>
	<rect x="566.7" y="193.6" style="fill:#81B040;" width="7.5" height="14.1"/>
	<rect x="566.7" y="170.7" style="fill:#81B040;" width="7.5" height="14.1"/>
	<path style="fill:#81B040;" d="M576,184.8"/>
</g>
<path style="fill:#B6C1C1;" d="M616.1,324.3"/>
<path style="fill:#F6F6EE;" d="M426.1,39.9c-6.2-2.3-11.9,1.5-18.1,1.1c-5.5-0.4-10.8-2.4-16.5-1.6c-2.3,0.3-4.9-2-4.7-5.3
	c0.2-3.1,1.9-5.1,5-5.1c2.5,0,4-1.1,5.3-2.9c0.7-0.9,1.5-2,2.5-2.4c6.4-2.5,13.4-1.2,19.9-3.3c0.6-0.2,1.8,0.2,2.3,0.7
	c3.2,3.5,6.4,7,10.2,10c1.6,1.3,0.8,3.7-0.2,5.6C430.6,39.1,428.5,39.7,426.1,39.9z"/>
<path style="fill:#B6C1C1;" d="M-183.9,324.3"/>
<g>
	<g>
		<g>
			<path style="opacity:0.5;fill:#888A90;" d="M218,409.1c0,0-5.9,5.4-23.3,4c-17.3-1.5-17.3-2-26.2-3c-8.9-1-19.3-3-21.8-3
				c-2.5,0-11.9,1.5-11.9,1.5s-2.5,10.9-11.9,12.9c-9.4,2-12.8-2.3-19.8-3.5c-12.4-2-14.3-12.9-31.4-15.5c-13.3-2-0.4-8.8,8.8-10
				c2-0.3,19.8-5.2,60.8-0.8c22.4,2.4,30.2-2.9,34.6-0.4C180.4,393.7,218,409.1,218,409.1z"/>
			<g>
				<g>
					<path style="fill:#EEE5E2;" d="M182.8,389.1c0,0,31.1,6.5,36.2,15.9c2.9,5.3-17.6,8.4-35.9,5.8c-18.3-2.6-22.7-5.8-24.3-7.4
						c-1.9-1.9-1.7-4.2-1.5-7.6c0.2-3.4,1.6-7,1.6-7S169.8,393.5,182.8,389.1z"/>
					<path style="fill:#B1ADAB;" d="M193.9,409.7c-18.5-0.4-34.6-7.2-36.1-7.9c0.2,0.6,0.6,1.1,1.1,1.6c1.6,1.7,6.1,4.8,24.3,7.4
						c17.6,2.5,37.2-0.3,36.1-5.2C216.7,408.2,210.9,410,193.9,409.7z"/>
				</g>
				<g>
					<path style="fill:#EEE5E2;" d="M102.6,389.5c0,0-9.6,18.8-4.3,25.5c5.3,6.6,18.8,7.4,26.7,4.7c7.9-2.7,5.6-12.4,4.6-17.4
						c-1.5-7.2-2.1-11.3-2.1-11.3S114,397.3,102.6,389.5z"/>
					<path style="fill:#B1ADAB;" d="M125,419.6c4.2-1.5,5.5-4.9,5.7-8.6c-1.5,4-5.9,9.3-19,7.5c-9.6-1.3-13.5-5.1-14.9-8.7
						c0.1,2,0.5,3.8,1.6,5.2C103.5,421.6,117.1,422.4,125,419.6z"/>
				</g>
				<path style="fill:#2C1E1E;" d="M116.8,232.3c0,0-2.4,34.6-7.2,79.5c-4.8,44.9-13.1,85.4-10.3,85.3c8-0.3,9.1-2.6,18.2-1
					c5.6,1,11.1,4.5,12,3.3c0.9-1.3,4.4-47.2,8.6-74c4.2-26.8,9.9-43.2,11.2-43.3c8-0.6,6.8,107.4,7,109.1c0.2,1.7,6.2,4.4,14.7,3.5
					c8.4-0.9,14-4.6,14.7-5.2c0.8-0.6,1.2-46.5,0.9-74.8c-0.3-28.3,0-77.1,0-77.1L116.8,232.3z"/>
				<g>
					<path style="fill:#541518;" d="M129.4,130.7c0,0,6.5-2,14.8-1.8c8.3,0.2,12.1,1.8,12.1,1.8s1,4.2-0.5,8.4
						c-1.5,4.2-7.7,8.4-14,7.9C135.4,146.5,128.4,132.7,129.4,130.7z"/>
					<g>
						<g>
							<g>
								<g>
									<path style="fill:#CC7E4C;" d="M155.2,138.2c-1.1-2.9,0.1-9.3,0.1-9.3s-10.2,2.9-23.2-0.1c0,1.8-0.3,8.8-0.3,8.8
										s0.8,2.4,2,4.1c2.7,3.8,11.8,18.4,14.5,18.8c2.6,0.4,5-9.4,7.2-16.5c0.5-1.5,0.8-3,0.9-4.5
										C155.9,139.1,155.4,138.7,155.2,138.2z"/>
									<path style="fill:#B96A42;" d="M132.3,131.9c0,0,9.1,6,13.8,6c4.7,0,8.7-5.3,8.7-5.3l0.3-1.9c0,0-8,2.4-13.4,2
										c-5.5-0.4-9.6-2.1-9.6-2.1L132.3,131.9z"/>
								</g>
								<g>
									<path style="fill:#CC7E4C;" d="M167.2,92.7c0,0,3.9-5.5,7.7,0.5c2.4,3.9-0.7,13.6-3.8,13.4c-3-0.2-3-0.2-3-0.2L167.2,92.7z
										"/>
									<path style="fill:#A5573A;" d="M170.4,95c0,0,2-2,2.7-1.1c0.7,0.9,0.9,3.2,0.9,3.2s-0.8-2.7-1.3-1.7
										c-0.5,1.1-0.9,4.4-0.5,4.7c0.4,0.3,1.2-0.3,0.5,1.1c-0.7,1.4-2.4,2.6-2.4,2.6L170.4,95z"/>
									<path style="fill:#E2925C;" d="M112.2,108.5c0,0,1.6,12.4,11.8,19.1c10.2,6.6,21.9,7.4,29.9,4c8-3.4,15.1-11.2,16.1-19.3
										c0.8-6.3,0-31.3,0-31.3s-9.6-6.4-23.5-7.4c-13.8-1-36.1,7.4-36.1,7.4l-0.2,11.6c0,0-7.8-2.2-10.4,2
										C97.1,98.9,102.9,114.3,112.2,108.5z"/>
									<path style="fill:#CC7E4C;" d="M134.7,78.1c-20.5,4.1-24.1,8.1-24.1,8.1s4,11.6,11.5,9.8c7.5-1.8,18.8-6.7,30.5-5.2
										c7.8,1,14.4,2.6,17.6,3.7c-0.1-6-0.3-13.6-0.3-13.6s-0.5-0.3-1.3-0.8C161.9,78.2,148.8,75.3,134.7,78.1z"/>
									<path style="fill:#682D1F;" d="M105,92c0,0,4.9,0.8,6.5,4.4c1.6,3.6,1.3,6.8,2.5,5c1.2-1.8,2.9-9,2.5-14.6
										c-0.4-5.6-1.9-7.1-1.9-7.1l-9.4,2.6L105,92z"/>
									<path style="fill:#2870AC;" d="M104.3,87.4c2.6,0.8,21.5-11.6,44.4-9.2c17,1.8,21.8,6.1,22.6,4.9c0.8-1.2,2.7-4.7,1.1-12.9
										c-1.6-8.2-2.4-13.3-4.2-19.5c-2.4-8-15.5-12.6-25.5-13c-10-0.4-26.7,1.4-34.5,15.7C101.1,66.1,101.7,86.6,104.3,87.4z"/>
									<path style="fill:#BF6D43;" d="M109.6,102c0,0,0-4.1-3.9-5.7c-3.2-1.4-3.9,0.6-4.2,1.7c-0.3,1.1,0.9,2.9,0.9,2.9
										s-0.3-3.6,1.1-3.6c1.4,0,2.3,0.8,3,1.7c0.8,0.9,0.9,2.1,0.9,2.1s-1.3-0.3-2.5,0.2c-1.1,0.5-1.9,2.9-1.9,2.9
										s1.1-1.8,3.3-1.7c2.3,0.1,3.5,2.7,3.5,2.7L109.6,102z"/>
									<path style="fill:#C67645;" d="M150.3,98.6c0,0,6.7,6.4,6,9.8c-0.8,3.4-5.6,6.1-10.1,5c-4.5-1.1-6.3-6.6-6.3-6.6
										s2,2,6.6,3.8c3.9,1.5,8.9-1.4,9.1-3.5C155.9,105,150.3,98.6,150.3,98.6z"/>
									<path style="fill:#8B382A;" d="M134.2,115.3c0,0,5.1,3.2,12.2,3c7.1-0.2,10.1-2.7,10.1-2.7s0.3-1.6,0.6-1.2
										c0.3,0.3-0.1,3.6-0.4,3c-0.3-0.5-1.2-0.3-1.2-0.3s-4.3,2.1-9.6,2.1c-5.4,0-11.6-2.7-11.6-2.7s-1.7,1.2-1.3,0.1
										C133.4,115.4,134.1,113.2,134.2,115.3z"/>
									<g>
										<path style="fill:#CC7E4C;" d="M136.8,94.4c0.1,3.9-0.8,6.9-4.4,7.2c-3.7,0.3-4.8-3-4.9-6.8c-0.1-3.9,1.9-7.1,4.4-7.2
											C134.4,87.5,136.6,90.6,136.8,94.4z"/>
										<path style="fill:#E6D2C8;" d="M136.2,94c0.1,3.5-0.7,6.3-3.9,6.5c-3.2,0.3-4.2-2.7-4.4-6.2c-0.1-3.5,1.6-6.4,3.9-6.5
											C134.1,87.7,136.1,90.5,136.2,94z"/>
										<g>
											<ellipse style="fill:#22272B;" cx="131.8" cy="96" rx="3.6" ry="3.8"/>
											<circle style="fill:#1B1418;" cx="131.7" cy="95.7" r="1.3"/>
										</g>
										<circle style="fill:#FFFFFF;" cx="133.6" cy="95" r="0.9"/>
										<path style="fill:#682D1F;" d="M136.9,96c0,0-0.2-5.2-2.9-6.9c-3.7-2.4-6.3,2.4-6.3,2.4s0.3-4,3.2-4.5
											C135.1,86.2,137.2,90.4,136.9,96z"/>
									</g>
									<g>
										<path style="fill:#CC7E4C;" d="M163.5,94.6c0.1,3.9-0.8,6.9-4.4,7.2c-3.7,0.3-4.8-3-4.9-6.8c-0.1-3.9,1.9-7.1,4.4-7.2
											C161.2,87.7,163.4,90.8,163.5,94.6z"/>
										<g>
											<path style="fill:#E6D2C8;" d="M162.9,94c0.1,3.5-0.7,6.3-3.9,6.5c-3.2,0.3-4.2-2.7-4.4-6.2c-0.1-3.5,1.6-6.4,3.9-6.5
												C160.8,87.7,162.8,90.5,162.9,94z"/>
											<g>
												<path style="fill:#22272B;" d="M162,95.9c0,2.1-1.6,3.8-3.6,3.8c-2,0-3.5-1.8-3.5-3.8c0-2.1,1.5-3.7,3.5-3.7
													C160.3,92.2,162,93.9,162,95.9z"/>
												<circle style="fill:#1B1418;" cx="158.3" cy="95.6" r="1.3"/>
											</g>
										</g>
										<circle style="fill:#FFFFFF;" cx="160.3" cy="95" r="0.9"/>
										<path style="fill:#682D1F;" d="M154.4,95.3c0,0,1-6.8,4.2-7.1c3.2-0.3,5,3.8,5,3.8s-0.8-4.7-4.2-5
											C156,86.7,154.4,90.5,154.4,95.3z"/>
									</g>
									<path style="fill:#682D1F;" d="M152.9,87.7c0,0,3.6-2.6,7.2-2.4c3.6,0.2,5.8,4.9,5.8,4.9s0.1-5.1-4.9-6.7
										c-5-1.6-7.5,1.7-7.5,1.7L152.9,87.7z"/>
									<path style="fill:#682D1F;" d="M138.7,88.2c0,0-2.8-3.8-7.2-3.4c-4.4,0.4-6.5,4-6.5,4s1.3-5.3,6.4-5.9
										c5.1-0.6,7.7,2.7,7.7,2.7L138.7,88.2z"/>
									<path style="fill:#3E5E35;" d="M109.6,84.2c-0.4,0.2-0.5,1.3-0.5,1.3s2.1,5.2,9.9,6c7.8,0.8,12.5-4.9,28.9-5.4
										c17.1-0.5,24.4,6.1,26.8,5.1c1.3-0.5,1.6-2.2,1.4-3.3c-0.5-2.7-4-5.6-4-5.6s-11-4.8-25.3-5.2
										C129.4,76.5,112.9,82.6,109.6,84.2z"/>
									<path style="fill:#3AA1CD;" d="M109.6,84.2c0,0,1.6,5.2,9.4,6c7.8,0.8,12.5-4.9,28.9-5.4c17.1-0.5,24.4,6.1,26.8,5.1
										c4.4-1.8-2.6-8.9-2.6-8.9s-11-4.8-25.3-5.2C127.2,75.2,109.6,84.2,109.6,84.2z"/>
									<path style="fill:#8A3F29;" d="M108.1,87.1c0,0-0.9,1.6-0.9,2.9c0,1.4,0.9,2.5,0.9,2.5s-0.5-1.8-0.3-3.1
										C108.1,88.1,108.1,87.1,108.1,87.1z"/>
									<path style="fill:#8A3F29;" d="M110.4,88.1c0,0-0.6,2.1-0.4,3.7c0.2,1.6,1.5,3.5,1.5,3.5s-0.8-3-0.9-4.4
										C110.5,89.6,110.4,88.1,110.4,88.1z"/>
								</g>
							</g>
							<path style="fill:#D18251;" d="M102.7,106.8c0,0,2.5,2.1,5.6,1.7c3.1-0.4,4.5-1.4,4.5-1.4s2.4,11.5,11.1,18.5
								c8.7,6.9,23.3,6.9,30.5,4.3c7.2-2.6,11.8-8.4,11.8-8.4s-6.6,9.6-16.1,11.6c-9.4,2-20.1-0.9-26.7-5.4
								c-9.3-6.4-11.4-19.2-11.4-19.2s-1.5,1.4-3.9,1.3C104.3,109.7,102.7,106.8,102.7,106.8z"/>
						</g>
						<polygon style="fill:#682D1F;" points="170.2,90 170.4,95 171.5,90.5 						"/>
					</g>
				</g>
				<path style="fill:#2870AC;" d="M193.8,162.3c-2.5-4.9-4.9-11.1-5.8-12.8c-3.3-6-8.6-7.1-14.1-9.3c-6.8-2.7-11.3-4.4-12.6-5
					c-1.3-0.6-2.2-2.8-2.8-3.4c-1.1-1.3-2.2-1-2.2-1s0,6.4-1.6,11.1c-1.6,4.6-6.4,15.7-6.4,15.7s-0.3-0.5-0.8-1.3
					c-1.7-3-4.8-9-7.2-12.4c-0.4-0.7-9.3-12.1-10.6-12.8c-1.3-0.7-3.8,3.8-3.9,4.4c-16.8,2.7-29.4,8.9-30.8,17.5
					c-1.1,6.7-2.4,14.3-1.6,25.7c0.8,11.3,3.6,22,3.6,22s5.2-7,11.2-7.6c4.8-0.5,5.7,1,5.9,1.6c0,0,0,0.1,0,0.1c0,0.1,0,0.2,0,0.2
					s0.2,1.2,0.7,3.1c0.4,2.2,0.7,4.5,0.8,6.7c0.3,8.1-0.6,31.3-0.3,33.1c0.3,1.8,6,7.8,9.9,9.6c3.2,1.5,9.3,2.9,20.2,3.3
					c4.3,1.2,22.7,0.9,30.1,0c8.4-1,15.4-1,14.4-7.8c-4.5-31.3-0.5-54.5-0.5-54.5s2.2-3.2,7.8-3.4c5.6-0.2,9.4,1,9.4,1
					S199.5,173.3,193.8,162.3z"/>
				<path style="fill:#3E5E35;" d="M105.6,192.9c8-2.5,13-2.6,12.6,0.7c-0.5,3.8-22.3,10.4-21.3,6.6
					C96.9,200.2,97.6,195.4,105.6,192.9z"/>
				<path style="fill:#3E5E35;" d="M151.2,159.6c0,0,0.9,1.1,0.9,2c0,0.9-0.9,2-0.9,2s-0.3,0-0.5,0c-0.7,0-1.3-0.9-1.3-2
					c0-1.1,0.6-2,1.3-2C151,159.6,151.2,159.6,151.2,159.6z"/>
				<ellipse style="fill:#C0A398;" cx="151.3" cy="161.6" rx="1.3" ry="2"/>
				<path style="fill:#1C85AA;" d="M167.4,146.7c-0.9-2.5-5.3-9.8-5.3-9.8s3.6,6.5,4.6,10.2c1,3.7,1,7.7,0.3,7.4
					c-0.7-0.3-3.1-3.7-5.1-5c-2-1.3-4.3-2.5-4.3-2.5l1.3,2.3c0,0-2.3,1.5-5.1,3.6c-2.2,1.6-5.1,3.6-5.4,5.3c-0.4,1.7,0,11.2,0,11.2
					l1.4-10.7c0.1-0.3,0.3-0.6,0.5-0.8c1.7-2,8.9-7.4,8.9-7.4l0.7-1.3c0,0,2.8,2.2,3.7,4.2c0.9,2,1.4,4.1,2.1,3.5
					c0.7-0.6,0.6-1.6,0.6-1.6s0.9,0.5,1.7-0.4C168.8,154.1,168.3,149.2,167.4,146.7z"/>
				<path style="fill:#2870AC;" d="M162.1,169.4v28.1h-10.4v30h-5.4v23.2l4.2,0.6c5.9,0.3,15,0.2,21.2-0.2v-81.6H162.1z
					 M113.4,241.3c1.5,3.6,7.9,4.3,11.9,6.1c1.5,0.7,3.7,1.4,6.7,1.9c1.5,0.2,2.6,0.3,2.6,0.3l-19.1-24.1
					C115.3,231.7,111.8,237.8,113.4,241.3z"/>
				<path style="fill:#1C85AA;" d="M141.2,151.1c-3.3-2.7-6.6-2.6-6.6-2.6l-0.6-2.7c0,0-1.2,0.8-2.7,2.6c-1.5,1.8-4,6.1-5,7.3
					c-1,1.2-1.6-3.1-1.6-6.8c0-2.4,0.5-7.8,0.8-11.5c-0.6,2.9-1.6,9.2-1.5,12c0.1,3.6,1.4,9.9,2.5,8.5c0.3-0.4,2.7-4.2,3.9-6.1
					c1.3-2,2.8-3.9,2.8-3.9l0.9,2.2c0,0,1.7-1.2,5.7,1.1c4,2.3,6.7,5.5,6.7,5.5l-1.7-2.3C143.9,153.5,142.6,152.3,141.2,151.1z"/>
				<g>
					<g>
						<polygon style="fill:#FFFFFF;" points="160.3,265.3 222.2,264.8 222.5,227.8 210.1,224.4 149,224.4 149,260 						"/>
						<polygon style="fill:#CEC3BF;" points="148.8,224.4 160.4,227.8 222.5,227.8 210.4,224.2 						"/>
						<polygon style="fill:#D5CBC7;" points="148.8,224.4 160.4,227.8 160.4,264.9 149,260 						"/>
					</g>
					<g>
						<polygon style="fill:#FFFFFF;" points="153.5,224.5 162.2,226.9 218.1,226.9 218.1,197.4 207.7,195.4 153.8,195.5 						"/>
						<polygon style="fill:#CEC3BF;" points="153.8,195.5 162.7,197.6 218.1,197.4 207.7,195.4 						"/>
						<polygon style="fill:#D5CBC7;" points="153.8,195.5 162.7,197.6 162.5,226.9 153.5,224.5 						"/>
					</g>
					<g>
						<polygon style="fill:#FFFFFF;" points="169.6,197 207.6,196.8 207.6,166.2 169.4,166.2 						"/>
						<polygon style="fill:#D5CBC7;" points="169.6,166.2 164.3,166.8 164.2,196.2 169.8,197 						"/>
					</g>
				</g>
				<path style="fill:#1C85AA;" d="M114,170.7c0,0,0.6,12.2,1.4,15.9c0.8,3.6,1.4,6,1.4,6s0.6,1.6,0.4,3
					c-0.2,1.4,5.8,20.5,10.8,32.1c5,11.6,14.5,23.1,14.5,23.1l2.9-0.1c0,0-12.4-17.3-18.4-32.4c-6-15.1-8.8-25.9-9-30.3
					c-0.2-4.4,1-12.2,1-12.2l-2.4,8L114,170.7z"/>
				<g>
					<path style="fill:#E2925C;" d="M107.9,193.4c-5,1.1-8.8,4.5-8.8,4.5s0.7,4,5,15.2c4,10.3,27.2,45.3,39.9,53.7
						c10.6,7.1,21.5,7.8,29.2,5.1c7.8-2.7,12.4-7.2,9.7-7.8c-2.7-0.6-10.5,0.9-13.1,1.1c-4.9,0.3-9.4-1-9.4-1s12.6,0.3,10.9-3.3
						c-1.2-2.6-5.8-0.4-8.9-1.6c-9.2-3.4-12.2-1.6-13.5-2.8c-12.8-11.3-27.4-45.3-29.1-50c-2.4-6.9-3.3-13.4-3.3-13.4
						S114.3,191.9,107.9,193.4z"/>
				</g>
				<path style="fill:#CA7B49;" d="M225.5,252.4c1.6,1.1-3.2,2.3-0.7,6.9c1.4,2.6-0.6,6.6-3.1,7.8c-2.5,1.2-6.4,1.7-8.2,1.6
					c-2.2-0.2-3.5-0.9-3.3-1.7c0.1-0.8,0.7-1.1,0.7-1.1s-2.8,1.2-4.4-1.1h15.8v-16.6C222.2,248.2,223.5,251.1,225.5,252.4z"/>
				<path style="fill:#E2925C;" d="M224.3,252c-1.5-0.2-2.8,0.1-4.4,1.3c-1.8,1.2-3,5.5,1.5,4.7c4.5-0.8,4.8-2,5.2-3.2
					C227,253.6,225.8,252.1,224.3,252z"/>
				<path style="fill:#CA7B49;" d="M180.6,264c-0.9,0-3.5,0.1-7,0.6c-4.3,0.6-6,0.6-8.2,0.4c-2.2-0.2-3.4-0.7-3.4-0.7s5-0.1,7.4-1.1
					c2.4-1,2.3-1.5,1.9-2.3c0.1,0.2,0.5,1.4-2.8,1.9c-3.5,0.6-9.1,1.3-9.1,1.3s3.3,2.6,7.9,2.2c4.6-0.4,9.2-1.8,10.2-2
					C178.3,264.2,179.9,264,180.6,264c0.2,0.1,1.2,0.8,0.1,2c-1.2,1.3-6.8,3.2-10.2,3.7c-3.4,0.6-10.8,0.4-10.8,0.4s7.1,1,11,0.5
					c3.9-0.5,9-3.1,9-3.1s0.2,0,0.5,0c-3.1,2.1-7.8,4.6-13.5,5c-10.1,0.6-24.3-7.4-31.7-15.8c-7.4-8.3-27-37.3-30.8-47.8
					c-2.5-6.8-3.5-10.3-3.9-12c-0.7,0.5-1.1,0.9-1.1,0.9s0.7,4,5,15.2c4,10.3,27.2,45.3,39.9,53.7c10.6,7.1,21.5,7.8,29.2,5.1
					c6.3-2.2,10.5-5.6,10.5-7.1C183.6,264.6,183.4,263.1,180.6,264z"/>
				<path style="fill:#B96A42;" d="M155.6,138.7c0,0,0,1.9-2,6.4c-2,4.5-5.3,12.3-5.3,12.3l-1-1.6c0,0,2.3-3.5,5.3-10.4
					c1.5-3.5,2.5-7.8,2.5-7.8L155.6,138.7z"/>
				<path style="fill:#F6D4C0;" d="M220.8,254c0,0,1.7,2.9,1,3.2c-0.7,0.3-2,0.5-2.5-0.6C218.8,255.5,220.8,254,220.8,254z"/>
				<path style="fill:#F6D4C0;" d="M167.9,262.8c0,0-0.7-2.1,0.5-2.3c1.2-0.2,2.9,0.2,3,0.9C171.5,262,167.9,262.8,167.9,262.8z"/>
				<path style="fill:#EBB08E;" d="M177.8,267.3c0,0-0.4-1,0.6-1.5c1-0.5,2.6-0.9,2.6-0.5C181.1,265.7,179.2,267,177.8,267.3z"/>
				<ellipse style="fill:#3E5E35;" cx="151.5" cy="161.1" rx="0.2" ry="0.4"/>
				<ellipse style="fill:#3E5E35;" cx="151.1" cy="162.1" rx="0.2" ry="0.4"/>
				<path style="fill:#EBB08E;" d="M179.6,267.9C179.6,267.9,179.6,267.8,179.6,267.9c0.3-0.1,0.9-0.2,1.4-0.5
					c0.7-0.4,1.6-1.5,1.4-1.6C182.2,265.7,179,267.5,179.6,267.9z"/>
				<g>
					<rect x="204.4" y="253.3" style="fill:#FFFFFF;" width="12.4" height="9.2"/>
					<path style="fill:#2F2A2F;" d="M205.5,261.5h0.4v-7.4h-0.4V261.5z M212.4,261.5h0.3v-7.4h-0.3V261.5z M208.7,261.5h0.4v-7.4
						h-0.4V261.5z M210.9,261.5h0.4v-7.4h-0.4V261.5z M209.6,261.5h0.8v-7.4h-0.8V261.5z M215.1,254.1v7.4h0.4v-7.4H215.1z
						 M214.1,261.5h0.4v-7.4h-0.4V261.5z M206.2,261.5L206.2,261.5l0.1-7.4h-0.1V261.5z M206.9,261.5L206.9,261.5l0.1-7.4h-0.1
						V261.5z M207.4,261.5L207.4,261.5l0.1-7.4h-0.1V261.5z M206.5,261.6L206.5,261.6l0.1-7.4h-0.1V261.6z M213.4,261.6h0.1v-7.4
						h-0.1V261.6z M214.8,261.6h0.1v-7.4h-0.1V261.6z M208.1,261.5L208.1,261.5l0.1-7.4h-0.1V261.5z M212.1,261.5L212.1,261.5
						l0.1-7.4h-0.1V261.5z M210.6,261.5L210.6,261.5l0.1-7.4h-0.1V261.5z"/>
				</g>
				<g>
					<rect x="204.1" y="217" style="fill:#FFFFFF;" width="10.6" height="7.9"/>
					<path style="fill:#2F2A2F;" d="M205,224h0.4v-6.3H205V224z M210.9,224h0.3v-6.3h-0.3V224z M207.7,224h0.4v-6.3h-0.4V224z
						 M209.6,224h0.4v-6.3h-0.4V224z M208.5,224h0.7v-6.3h-0.7V224z M213.3,217.7v6.3h0.4v-6.3H213.3z M212.4,224h0.4v-6.3h-0.4V224
						z M205.6,224L205.6,224l0.1-6.3h-0.1V224z M206.2,224L206.2,224l0.1-6.3h-0.1V224z M206.6,224L206.6,224l0.1-6.3h-0.1V224z
						 M205.9,224.1L205.9,224.1l0.1-6.3h-0.1V224.1z M211.8,224.1L211.8,224.1l0.1-6.3h-0.1V224.1z M213,224.1h0.1v-6.3H213V224.1z
						 M207.3,224L207.3,224l0.1-6.3h-0.1V224z M210.7,224L210.7,224l0.1-6.3h-0.1V224z M209.4,224L209.4,224l0.1-6.3h-0.1V224z"/>
				</g>
				<g>
					<rect x="194.2" y="186.1" style="fill:#FFFFFF;" width="10.6" height="7.9"/>
					<path style="fill:#2F2A2F;" d="M195.1,193.1h0.4v-6.3h-0.4V193.1z M201,193.1h0.3v-6.3H201V193.1z M197.8,193.1h0.4v-6.3h-0.4
						V193.1z M199.7,193.1h0.4v-6.3h-0.4V193.1z M198.5,193.1h0.7v-6.3h-0.7V193.1z M203.3,186.8v6.3h0.4v-6.3H203.3z M202.4,193.1
						h0.4v-6.3h-0.4V193.1z M195.6,193.1L195.6,193.1l0.1-6.3h-0.1V193.1z M196.3,193.1L196.3,193.1l0.1-6.3h-0.1V193.1z
						 M196.7,193.1L196.7,193.1l0.1-6.3h-0.1V193.1z M195.9,193.2L195.9,193.2l0.1-6.3h-0.1V193.2z M201.8,193.2L201.8,193.2
						l0.1-6.3h-0.1V193.2z M203.1,193.2L203.1,193.2l0.1-6.3h-0.1V193.2z M197.3,193.1L197.3,193.1l0.1-6.3h-0.1V193.1z
						 M200.7,193.1L200.7,193.1l0.1-6.3h-0.1V193.1z M199.5,193.1L199.5,193.1l0.1-6.3h-0.1V193.1z"/>
				</g>
			</g>
		</g>
	</g>
	<g>
		<g>
			<g>
				<path style="fill:#04529D;" d="M181.2,251.7c-0.1-3.3,2.2-6.2,4.8-7.1c2.7-1,5.4-0.3,7,1c1.7,1.3,2.4,2.9,2.6,4
					c0.3,1.1,0.2,1.8,0.2,1.8c0,0,0-0.6-0.3-1.7c-0.3-1.1-1.1-2.6-2.7-3.7c-1.6-1.1-4.1-1.7-6.6-0.7c-2.4,0.9-4.4,3.5-4.3,6.5
					c0,3,2.2,5.5,4.6,6.3c2.5,0.9,5,0.2,6.5-1c1.6-1.2,2.3-2.8,2.6-3.9c0.3-1.1,0.2-1.7,0.2-1.7c0,0,0.1,0.6-0.1,1.8
					c-0.2,1.1-0.8,2.8-2.4,4.1c-1.5,1.4-4.2,2.2-6.9,1.4C183.7,257.8,181.3,255,181.2,251.7z"/>
				<path style="fill:#04529D;" d="M192.8,246.4c-1.5,1.2-4.1,1.9-6.5,1c-0.8-0.3-1.7-0.8-2.4-1.4c-0.2,0.1-0.4,0.3-0.6,0.4
					c0.8,0.7,1.8,1.3,2.7,1.6c2.7,0.9,5.4,0,6.9-1.4c0.2-0.1,0.3-0.3,0.5-0.4c-0.1-0.1-0.1-0.2-0.2-0.3
					C193.2,246.2,193,246.3,192.8,246.4z"/>
				<path style="fill:#04529D;" d="M186.5,255.7c2.4-1,5-0.4,6.6,0.7c0.2,0.1,0.3,0.2,0.5,0.3c0.1-0.1,0.2-0.2,0.3-0.2
					c-0.2-0.1-0.3-0.3-0.5-0.4c-1.6-1.3-4.3-2-7-1c-1,0.3-1.9,1-2.7,1.7c0.2,0.1,0.4,0.3,0.6,0.4C184.9,256.5,185.7,256,186.5,255.7
					z"/>
				<path style="fill:#04529D;" d="M192,251.4c0,2.3-0.4,4.4-1.2,5.8c-0.4,0.7-0.8,1.1-1.2,1.3c-0.4,0.2-0.6,0.1-0.6,0.1
					c0,0.1,1-0.2,1.5-1.6c0.5-1.3,0.8-3.4,0.8-5.6c-0.1-2.2-0.4-4.2-1-5.5c-0.6-1.4-1.6-1.6-1.6-1.5c0,0,0.2-0.1,0.6,0.1
					c0.4,0.2,0.9,0.6,1.3,1.3C191.4,247,191.9,249.1,192,251.4z"/>
				<path style="fill:#04529D;" d="M185.6,251.6c0-2.3,0.4-4.4,1.2-5.8c0.4-0.7,0.8-1.1,1.2-1.3c0.4-0.2,0.6-0.1,0.6-0.1
					c0,0-1,0.2-1.5,1.6c-0.5,1.3-0.8,3.4-0.8,5.6c0.1,2.2,0.4,4.2,1,5.5c0.6,1.4,1.6,1.6,1.6,1.5c0,0-0.2,0.1-0.6-0.1
					c-0.4-0.2-0.9-0.6-1.3-1.3C186.2,256,185.7,253.9,185.6,251.6z"/>
				<path style="fill:#04529D;" d="M189.1,251.5c0.1,3.9-0.2,7.1-0.2,7.1s-0.5-3.2-0.6-7.1c-0.1-3.9,0.2-7.1,0.2-7.1
					S189,247.6,189.1,251.5z"/>
				<path style="fill:#04529D;" d="M188.7,251.1c3.9-0.1,7.1,0.2,7.1,0.2s-3.2,0.5-7.1,0.6c-3.9,0.1-7.1-0.2-7.1-0.2
					S184.8,251.2,188.7,251.1z"/>
			</g>
			<g>
				<path style="fill:#F79222;" d="M199.8,256.6c-0.5-2.3-1.9-3.8-3.2-5.1c-0.2-0.2-0.5-0.5-0.7-0.7c0.1,0.5,0,1.1-0.1,1.6
					c1.1,1.2,2.3,2.7,2.6,4.2c0.3,1.4-1.6,1.8-3.4,1.5c-3.7-0.6-7.2-2.3-10.1-4.1c-2.9-1.8-5.4-3.9-6.9-6c-0.8-1-1.3-2.2-1.1-3.1
					c0.2-0.9,1.1-1.3,1.7-1.4c1.4-0.3,2.2-0.1,2.2-0.1c0,0-0.8-0.2-2.2-0.1c-0.7,0.1-1.7,0.4-2.1,1.5c-0.3,1.1,0.2,2.5,1,3.6
					c1.5,2.4,3.9,4.6,6.9,6.7c3,2,6.5,3.9,10.6,4.5c1,0.1,2.1,0.2,3.2-0.2C199.2,259.3,200.1,257.8,199.8,256.6z"/>
			</g>
			<g>
				<path style="fill:#007BBF;" d="M197.6,245c-1.9-0.8-3.6-0.3-5.2,0c-0.1,0-0.2,0.1-0.3,0.1c0.5,0.2,0.9,0.6,1.3,0.9
					c1.3-0.2,2.6-0.3,3.6,0.2c1.2,0.5,0.6,2.2-0.4,3.5c-2.1,2.6-5,4.5-7.6,6c-2.7,1.4-5.3,2.3-7.6,2.5c-1.1,0.1-2.2-0.1-2.8-0.6
					c-0.6-0.6-0.5-1.5-0.3-2.1c0.4-1.2,0.9-1.8,0.9-1.8c0,0-0.5,0.5-1.1,1.7c-0.2,0.6-0.5,1.6,0.2,2.4c0.7,0.8,1.9,1,3.1,1
					c2.4,0,5.2-0.8,8.1-2.2c2.8-1.4,5.8-3.2,8.2-6.2c0.6-0.8,1.1-1.6,1.3-2.6C199.3,246.8,198.6,245.3,197.6,245z"/>
			</g>
		</g>
		<g>
			<path style="fill:#F79222;" d="M189.9,243l0.5-4.9c3.4-1.9,3.6-2.1,4.6-3.2c0.4-0.5,0.7-1.5-1.1-1c-0.2-0.1-1.2-0.3-2,0.6
				l-3.1,1.7l-6.2-0.2l-4.7-0.1c-0.6,0.1-0.8,0-0.9,0.6l5.4,1.2l2,0.9l-2.3,1.3l-1.7-1.1c-0.3-0.1-0.3-0.2-0.5-0.1
				c-0.2,0.1-0.5,0.2-0.5,0.2l0.5,1.5l-1.9-0.3c-0.3-0.1-0.8,0-0.9,0.4l2.6,1.3c-0.4,0.5,0.4,0.5,0.7,0.4l1.4,1
				c0.2,0,0.5-0.1,0.4-0.4l-0.3-0.8c1.1-0.3,3.2-1.1,4.8-1.8l1.5,0.8l0.8,2.5C189.5,243.3,189.7,243.2,189.9,243z"/>
		</g>
	</g>
	<g>
		<g>
			<g>
				<path style="fill:#04529D;" d="M133.4,65.6c-0.1-2.8,1.8-5.2,4-6c2.2-0.9,4.5-0.2,5.9,0.8c1.4,1.1,2,2.4,2.2,3.4
					c0.2,0.9,0.2,1.5,0.2,1.5c0,0,0-0.5-0.3-1.4c-0.3-0.9-0.9-2.2-2.3-3.1c-1.3-1-3.5-1.4-5.5-0.6c-2,0.8-3.7,3-3.6,5.5
					c0,2.5,1.8,4.6,3.9,5.3c2.1,0.7,4.2,0.1,5.5-0.9c1.3-1,1.9-2.3,2.2-3.3c0.2-0.9,0.2-1.5,0.2-1.5c0,0,0.1,0.5-0.1,1.5
					c-0.2,0.9-0.7,2.3-2.1,3.5c-1.3,1.1-3.6,1.9-5.8,1.1C135.4,70.8,133.4,68.4,133.4,65.6z"/>
				<path style="fill:#04529D;" d="M143.1,61.2c-1.3,1-3.4,1.6-5.5,0.9c-0.7-0.2-1.4-0.6-2-1.2c-0.2,0.1-0.3,0.2-0.5,0.3
					c0.7,0.6,1.5,1.1,2.3,1.3c2.3,0.7,4.5,0,5.8-1.1c0.1-0.1,0.3-0.2,0.4-0.4c-0.1-0.1-0.1-0.2-0.2-0.2
					C143.4,61,143.3,61.1,143.1,61.2z"/>
				<path style="fill:#04529D;" d="M137.8,69c2-0.8,4.2-0.4,5.5,0.6c0.1,0.1,0.3,0.2,0.4,0.3c0.1-0.1,0.1-0.1,0.2-0.2
					c-0.1-0.1-0.3-0.2-0.4-0.3c-1.4-1.1-3.7-1.7-5.9-0.8c-0.8,0.3-1.6,0.8-2.2,1.5c0.2,0.1,0.3,0.2,0.5,0.3
					C136.4,69.7,137.1,69.2,137.8,69z"/>
				<path style="fill:#04529D;" d="M142.4,65.4c0,1.9-0.3,3.7-1,4.8c-0.3,0.6-0.7,1-1,1.1c-0.3,0.2-0.5,0.1-0.5,0.1
					c0,0,0.9-0.2,1.3-1.4c0.5-1.1,0.7-2.8,0.6-4.7c-0.1-1.9-0.4-3.6-0.9-4.7c-0.5-1.2-1.4-1.3-1.4-1.3c0,0,0.2,0,0.5,0.1
					c0.3,0.1,0.7,0.5,1.1,1.1C141.9,61.7,142.4,63.5,142.4,65.4z"/>
				<path style="fill:#04529D;" d="M137,65.5c0-1.9,0.3-3.7,1-4.8c0.3-0.6,0.7-1,1-1.1c0.3-0.2,0.5-0.1,0.5-0.1c0,0-0.9,0.2-1.3,1.4
					c-0.5,1.1-0.7,2.8-0.6,4.7c0.1,1.9,0.4,3.6,0.9,4.7c0.5,1.2,1.4,1.3,1.3,1.3c0,0-0.2,0-0.5-0.1c-0.3-0.1-0.7-0.5-1.1-1.1
					C137.6,69.2,137.1,67.5,137,65.5z"/>
				<path style="fill:#04529D;" d="M140,65.5c0.1,3.3-0.2,6-0.2,6s-0.4-2.7-0.5-6c-0.1-3.3,0.2-6,0.2-6S139.9,62.1,140,65.5z"/>
				<path style="fill:#04529D;" d="M139.7,65.2c3.3-0.1,6,0.2,6,0.2s-2.7,0.4-6,0.5c-3.3,0.1-6-0.2-6-0.2S136.4,65.2,139.7,65.2z"/>
			</g>
			<g>
				<path style="fill:#F79222;" d="M149,69.8c-0.4-2-1.6-3.2-2.7-4.3c-0.2-0.2-0.4-0.4-0.6-0.6c0.1,0.5,0,0.9-0.1,1.4
					c0.9,1,2,2.3,2.1,3.5c0.3,1.2-1.3,1.5-2.8,1.3c-3.1-0.5-6-1.9-8.5-3.4c-2.5-1.5-4.5-3.3-5.8-5c-0.6-0.9-1.1-1.8-0.9-2.6
					c0.1-0.8,0.9-1.1,1.4-1.2c1.1-0.2,1.8-0.1,1.8-0.1c0,0-0.7-0.2-1.9-0.1c-0.6,0.1-1.5,0.3-1.8,1.3c-0.3,1,0.2,2.1,0.8,3.1
					c1.3,2,3.3,3.9,5.8,5.6c2.5,1.7,5.5,3.3,8.9,3.8c0.9,0.1,1.8,0.1,2.7-0.2C148.5,72,149.3,70.8,149,69.8z"/>
			</g>
			<g>
				<path style="fill:#007BBF;" d="M147.1,59.9c-1.6-0.7-3.1-0.3-4.4,0c-0.1,0-0.2,0-0.3,0.1c0.4,0.2,0.7,0.5,1.1,0.8
					c1.1-0.2,2.2-0.2,3.1,0.2c1,0.4,0.5,1.8-0.3,2.9c-1.8,2.2-4.2,3.8-6.4,5c-2.3,1.2-4.5,2-6.4,2.1c-0.9,0.1-1.8-0.1-2.3-0.5
					c-0.5-0.5-0.4-1.2-0.2-1.7c0.4-1,0.8-1.5,0.8-1.5c0,0-0.5,0.4-0.9,1.4c-0.2,0.5-0.5,1.3,0.1,2c0.6,0.7,1.6,0.9,2.6,0.9
					c2,0,4.4-0.7,6.8-1.8c2.4-1.2,4.9-2.7,6.9-5.2c0.5-0.6,0.9-1.3,1.1-2.2C148.5,61.5,148,60.3,147.1,59.9z"/>
			</g>
		</g>
		<g>
			<path style="fill:#F79222;" d="M140.7,58.3l0.4-4.2c2.9-1.6,3-1.7,3.9-2.7c0.3-0.5,0.6-1.3-0.9-0.9c-0.2-0.1-1-0.2-1.7,0.5
				l-2.6,1.5l-5.2-0.2l-4-0.1c-0.5,0.1-0.7,0-0.8,0.5l4.6,1l1.7,0.8l-2,1.1l-1.4-0.9c-0.2-0.1-0.3-0.2-0.4-0.1
				c-0.2,0.1-0.4,0.1-0.4,0.1l0.4,1.3l-1.6-0.3c-0.3-0.1-0.7,0-0.8,0.3l2.2,1.1c-0.3,0.4,0.3,0.4,0.5,0.3l1.2,0.8
				c0.2,0,0.4-0.1,0.4-0.4l-0.2-0.7c0.9-0.3,2.7-0.9,4.1-1.5l1.3,0.7l0.7,2.1C140.3,58.6,140.5,58.5,140.7,58.3z"/>
		</g>
	</g>
</g>
<path style="fill:#F6F6EE;" d="M223.5,45.5c-7.6-1.1-14-3.4-20.8-4.2c-4.4-0.5-7.7-4-7.8-9.1c-0.1-4.3,3.2-7.1,9.1-8.2
	c1.2-0.2,2.1-0.4,2.7-1.7c3.2-6.6,9.1-7.1,15.3-6c2.2,0.4,4.3,0.8,6.4,0.6c5.6-0.5,9.8,1.4,12.2,6.5c0.9,1.8,2.7,1.9,4.1,2.4
	c2.9,0.8,5.1,2.5,6.8,4.8c2.5,3.2,1.5,7.3-2,9.3c-0.9,0.5-1.8,0.9-2.8,1.1C238.8,42.3,230.5,42.4,223.5,45.5z"/>
<path style="fill:#F6F6EE;" d="M669.6,34.8c-4.1-3.2-8.4-0.2-13.6,1.4c-6.7,2-14.7,1.5-21.7,0c-4.9-1-9.5-2-14.6-1.5
	c-5.7,0.6-9.1-2.5-9.3-7.3c-0.2-6.1,2.6-9.3,8.9-9.5c3.2-0.1,5-1,6.7-3.9c2.7-4.7,10.3-6.9,15.9-5.6c3.2,0.8,5.9,1.1,9.1-1.2
	c6.8-4.9,15.5-1.7,18.7,6.1c0.7,1.7,1.1,3.1,3.5,3.5c5.5,1.1,8.5,5,7.9,9.2C680.3,31.9,676.9,34.8,669.6,34.8z"/>
<path style="fill:#F6F6EE;" d="M259.8,33.1c-6.1,0.2-9.7-3-14-4.1c-1.8-0.5-2.9-2.6-2.6-4.9c0.3-2.3,1.6-3.5,3.8-4
	c0.6-0.1,1.6-0.2,1.8-0.6c4-7.1,10.5-4.1,15.5-3c3.9,0.8,7.5,4.5,10.6,7.5c2.4,2.3-0.2,5.2-2.1,5.3
	C267.8,29.7,263.3,32.4,259.8,33.1z"/>
<g id="Layer_2">
	<g>
		<polyline style="fill:#81B040;" points="846.6,330.5 846.6,297.2 846.6,293.1 846.6,199.9 800,199.9 800,293.1 800,307.5 
			800,330.5 		"/>
		<rect x="832.6" y="209.2" style="fill:#1D5371;" width="4.7" height="9.3"/>
		<rect x="832.6" y="223.2" style="fill:#1D5371;" width="4.7" height="9.3"/>
		<rect x="832.6" y="237.2" style="fill:#1D5371;" width="4.7" height="9.3"/>
		<rect x="832.6" y="251.2" style="fill:#1D5371;" width="4.7" height="9.3"/>
		<rect x="832.6" y="265.2" style="fill:#1D5371;" width="4.7" height="4.7"/>
		<rect x="818.6" y="209.2" style="fill:#1D5371;" width="9.3" height="9.3"/>
		<rect x="818.6" y="223.2" style="fill:#1D5371;" width="9.3" height="9.3"/>
		<rect x="818.6" y="237.2" style="fill:#1D5371;" width="9.3" height="9.3"/>
		<rect x="818.6" y="251.2" style="fill:#1D5371;" width="9.3" height="9.3"/>
		<rect x="818.6" y="265.2" style="fill:#1D5371;" width="9.3" height="4.7"/>
		<rect x="809.3" y="209.2" style="fill:#1D5371;" width="4.7" height="9.3"/>
		<rect x="809.3" y="223.2" style="fill:#1D5371;" width="4.7" height="9.3"/>
		<rect x="809.3" y="237.2" style="fill:#1D5371;" width="4.7" height="9.3"/>
		<rect x="809.3" y="251.2" style="fill:#1D5371;" width="4.7" height="9.3"/>
		<rect x="809.3" y="265.2" style="fill:#1D5371;" width="4.7" height="4.7"/>
		<polygon style="fill:#1D5371;" points="809.3,274.5 809.3,274.5 837.3,274.5 837.3,279.2 809.3,279.2 		"/>
		<rect x="809.3" y="283.8" style="fill:#1D5371;" width="28" height="4.7"/>
		<rect x="832.6" y="293.4" style="fill:#1D5371;" width="4.7" height="9.3"/>
		<rect x="832.6" y="307.4" style="fill:#1D5371;" width="4.7" height="9.3"/>
		<rect x="818.6" y="293.4" style="fill:#1D5371;" width="9.3" height="9.3"/>
		<rect x="818.6" y="307.4" style="fill:#1D5371;" width="9.3" height="9.3"/>
		<rect x="809.3" y="293.4" style="fill:#1D5371;" width="4.7" height="9.3"/>
		<rect x="809.3" y="307.4" style="fill:#1D5371;" width="4.7" height="9.3"/>
	</g>
</g>
<g>
	<g>
		<path style="fill:#EEE5E2;" d="M672.1,422.4c0,0,2.2,4.8,2.2,6.5c0,1.7-8.2,9.4-8.2,9.4l-5.3-1.7c0,0,2.9-6.2,4.1-9.4
			c0-2.9-0.2-4.9-0.2-4.9L672.1,422.4z"/>
		<path style="fill:#EEE5E2;" d="M705.8,422.7c0,0,3,4.8,3,6.5c0,1.7-8.2,9.4-8.2,9.4l-5.3-1.7c0,0,2.9-6.2,4.1-9.4
			c0-2.9-0.2-4.9-0.2-4.9L705.8,422.7z"/>
		<path style="fill:#2C1E1E;" d="M670.1,331.1l0.7,6.1c0,0-6.5,36.7-6.8,47.7c-0.3,11,0.7,38.4,0.7,38.4l7.5-0.4l2.4-37.1
			c0,0,13.4-37.6,15.4-37.6c2,0,4.4,33.6,5.1,37.9c0.7,4.3,4,37.7,4,37.7l7-0.4c0,0,0.2-35.3,0.5-37.6c0.3-2.3,12.2-54.6,12.2-54.6
			H670.1z"/>
		<path style="fill:#2870AC;" d="M719.8,329.7l3.3-18.3h-45.8c0,0-9,14.6-6.7,21.1c2,5.7,5.2,9.9,21.3,9.9
			C707.6,342.5,717.8,336,719.8,329.7z"/>
	</g>
	<g>
		<g>
			<polygon style="fill:#C4B2A1;" points="797.3,254.8 751.5,240.9 718.9,249.2 742.8,276.4 			"/>
			<g>
				<polygon style="fill:#E1D8CF;" points="782.7,303.8 796.6,254.8 743.5,262.8 742.2,322.9 779,320.6 				"/>
				<path style="fill:#B49373;" d="M742.2,322.9l36.9-2.3l17.5-63.2c0,0-10.3,30.6-25,43.8C756.8,314.4,742.2,322.9,742.2,322.9z"/>
			</g>
		</g>
		<g>
			<polygon style="fill:#4D2F14;" points="821.7,251.4 768.3,263.9 768.5,229.5 822.1,214.2 			"/>
			<polygon style="fill:#683E17;" points="769.2,229.5 693.7,210.4 691.3,250.5 768.4,263.8 			"/>
			<polygon style="fill:#866442;" points="822.1,214.5 744.1,187.3 691.3,211.2 767.6,230.8 			"/>
			<polygon style="fill:#824D1F;" points="770.7,258.6 770.9,244.5 818.9,233.9 818,247.7 			"/>
		</g>
		<g>
			<polygon style="fill:#9B7044;" points="788,166.5 790.3,208.7 730.5,215.3 730.9,170.4 			"/>
			<polygon style="fill:#B49373;" points="683.6,154 731.6,173 730.5,215.3 684,202.4 			"/>
			<polygon style="fill:#C4B2A1;" points="788,166.5 736.4,149.9 687,158.9 731.6,171.5 			"/>
			<polygon style="fill:#866442;" points="741,176.3 741.9,191.3 780.1,188.9 778.9,173.7 			"/>
		</g>
		<g>
			<g>
				<polygon style="fill:#9B7044;" points="598.2,155.3 599.6,208.6 654.4,218.2 654,163.6 				"/>
				<polygon style="fill:#866442;" points="699.1,146.5 652.9,163.6 654,217.5 700.3,200.4 				"/>
				<polygon style="fill:#A48A70;" points="597.9,155.7 649.1,138.3 698.4,146.5 652.2,166.2 				"/>
			</g>
			<polygon style="fill:#866442;" points="601.7,160.7 601.7,173.9 625.5,178.7 625.8,164.5 			"/>
		</g>
		<g>
			<polygon style="fill:#9B7044;" points="608.1,296.5 682.4,324.9 686.6,275.3 608.1,251.1 			"/>
			<polygon style="fill:#824D1F;" points="742.2,322.9 682.4,324.9 686.6,275.7 742.8,276.1 			"/>
			<polygon style="fill:#B49373;" points="611.4,295 612.5,278.9 638.7,285.3 636.3,303.8 			"/>
		</g>
		<g>
			<polygon style="fill:#A48A70;" points="745.1,244.2 707.6,244.6 704.6,289.1 743.2,285.7 			"/>
			<polygon style="fill:#B49373;" points="710.7,283.9 710.7,270 739.8,268.3 738.9,282.1 			"/>
			<g>
				<polygon style="fill:#683E17;" points="707.6,244.6 704.6,289.1 586.9,259.7 583.9,217.3 				"/>
				<path style="fill:#866442;" d="M585.2,233.9l1.7,25.8l69.4,17.1C656.3,276.8,596.4,263.6,585.2,233.9z"/>
			</g>
		</g>
		<polygon style="fill:#9B7044;" points="745.1,244.2 685.4,224 621.5,205.7 583.9,217.3 707.6,244.6 		"/>
		<g>
			<polygon style="fill:#866442;" points="769,197.6 747.5,203 768.3,206.1 790.7,201.2 			"/>
			<polygon style="fill:#9B7044;" points="770.1,235.1 767.8,206.1 790.4,201 792.8,229.2 			"/>
			<polygon style="fill:#824D1F;" points="747.7,203 768.3,206.1 770.1,235.1 748,227.7 			"/>
		</g>
		<g>
			<g>
				<polygon style="fill:#E1D8CF;" points="668.4,173.2 705.3,180.1 670.6,187.5 632.3,181.6 				"/>
				<polygon style="fill:#C4B2A1;" points="670.4,236.6 671.3,187.5 632.7,181.2 631.6,228.9 				"/>
				<polygon style="fill:#A48A70;" points="705,180.1 670.6,187.5 670.4,236.6 707,222 				"/>
			</g>
			<polygon style="fill:#B49373;" points="635.5,189.8 635.2,205.7 667.8,210.1 667.8,193.6 			"/>
		</g>
		<g>
			<g>
				<polygon style="fill:#C4B2A1;" points="597.5,180.9 626.5,186.4 599.2,192.2 569,187.5 				"/>
				<polygon style="fill:#A48A70;" points="599,230.8 599.7,192.2 569.3,187.2 568.4,224.8 				"/>
				<polygon style="fill:#866442;" points="626.2,186.4 599.2,192.2 599,230.8 627.8,219.3 				"/>
			</g>
			<path style="fill:#9B7044;" d="M599,230.8l28.8-11.5l-1.6-33C626.2,186.4,628.7,219,599,230.8z"/>
		</g>
		<g>
			<g>
				<polygon style="fill:#9B7044;" points="719.3,203.3 689.3,210.8 718.2,215.2 749.4,208.4 				"/>
				<polygon style="fill:#866442;" points="720.8,255.6 717.6,215.2 749.1,208.1 752.4,247.3 				"/>
				<polygon style="fill:#824D1F;" points="689.6,210.8 718.2,215.2 720.8,255.6 690,245.3 				"/>
			</g>
			<polygon style="fill:#9B7044;" points="723,249.8 722.2,236.5 746.8,229.5 748,242.1 			"/>
			<path style="fill:#866442;" d="M689.6,210.8l0.4,34.5l30.8,10.2c0,0-14.5-5.8-20.7-18.7S689.6,210.8,689.6,210.8z"/>
		</g>
		<g>
			<polygon style="fill:#B49373;" points="733.5,94.5 801.2,111.3 735.2,132.6 663.9,112.4 			"/>
			<polygon style="fill:#9B7044;" points="735.2,132.6 735.3,175.6 663.9,149.2 664.3,112 			"/>
			<polygon style="fill:#683E17;" points="800.8,111.3 799.7,157.8 735.3,175.6 735.2,132.6 			"/>
			<polygon style="fill:#4D2F14;" points="742.1,138.4 742.7,154.6 795.9,136.9 796.2,119.3 			"/>
			<path style="fill:#866442;" d="M735.2,132.6l0.1,43L690.1,159c0,0,22.9,6.8,31.4,0.6C730.1,153.4,735.2,132.6,735.2,132.6z"/>
		</g>
		<g>
			<g>
				<polygon style="fill:#A48A70;" points="672.8,152.5 690.1,155.7 673.8,159.2 655.7,156.4 				"/>
				<polygon style="fill:#683E17;" points="673.7,182.3 674.2,159.2 655.9,156.2 655.4,178.7 				"/>
				<polygon style="fill:#824D1F;" points="690,155.7 673.8,159.2 673.7,182.3 690.9,175.5 				"/>
			</g>
			<path style="fill:#866442;" d="M673.7,182.3l17.2-6.9l-0.9-19.7c0,0,0.4,6.7-5.2,15C679.3,178.9,673.7,182.3,673.7,182.3z"/>
		</g>
		<g>
			<g>
				<polygon style="fill:#B49373;" points="644.2,111.5 673.3,117 646,122.8 615.8,118.1 				"/>
				<polygon style="fill:#824D1F;" points="645.8,161.4 646.5,122.8 616.1,117.8 615.2,155.4 				"/>
				<polygon style="fill:#866442;" points="673,117 646,122.8 645.8,161.4 674.6,149.9 				"/>
			</g>
			<polygon style="fill:#9B7044;" points="619.3,122.5 618.7,136.3 640.8,139.6 641.1,125.8 			"/>
		</g>
		<g>
			<g>
				<polygon style="fill:#E1D8CF;" points="696.7,51.2 740.7,59.5 699.3,68.3 653.6,61.2 				"/>
				<polygon style="fill:#C4B2A1;" points="699.1,126.9 700.2,68.3 654.1,60.8 652.8,117.7 				"/>
				<polygon style="fill:#A48A70;" points="740.3,59.5 699.3,68.3 699.1,126.9 742.7,109.4 				"/>
			</g>
			<polygon style="fill:#E1D8CF;" points="660.7,72.6 690.1,77 689.8,93.7 659.9,88.7 			"/>
		</g>
		<g>
			<g>
				<polygon style="fill:#B49373;" points="760.7,75.4 789.7,80.9 762.4,86.7 732.2,82 				"/>
				<polygon style="fill:#683E17;" points="762.2,125.4 763,86.7 732.5,81.7 731.6,119.4 				"/>
				<polygon style="fill:#824D1F;" points="789.4,80.9 762.4,86.7 762.2,125.4 791,113.9 				"/>
			</g>
			<polygon style="fill:#866442;" points="766,97.2 766.5,112.5 785.9,108.1 784.5,92.8 			"/>
			<path style="fill:#9B7044;" d="M762.1,125.5l-30.9-6.2l1.2-37.6c0,0,1.1,19,7.9,29.6S762.1,125.5,762.1,125.5z"/>
		</g>
	</g>
	<g>
		<g>
			<path style="fill:#2870AC;" d="M757.5,321.7c0,0-0.9,11.4-9.8,15.7c-8.8,4.3-34.6-22.3-34.6-22.3l5.7-5.7
				c0,0,16.9,13.9,21.6,13.5C745.1,322.5,757.5,321.7,757.5,321.7z"/>
			<path style="fill:#EBBE97;" d="M718.8,309.4c0,0,0.3-5,0.8-7.1c0.5-2.2-3-5.2-3.3-2.3c-0.2,2.8-0.4,6.6-2.1,6.5
				c-1.7-0.1-1.7-8.8-3.8-8.9s-0.1,9.9-0.1,9.9s-3.8-8.9-5.3-7.6c-1.5,1.3,3.3,8,3.3,8s-4.1-3.9-5.1-2.2c-1,1.7,10,9.3,10,9.3
				L718.8,309.4z"/>
		</g>
		<g>
			<path style="fill:#2870AC;" d="M650.4,317.3c-4.5-3.2-1.7-8,2.3-14.1c4-6.1,14.2-14.9,14.2-14.9l5.5,3.6
				C672.3,291.9,660.4,324.2,650.4,317.3z"/>
			<path style="fill:#EBBE97;" d="M668.4,288.9c0,0-2.4-10.1-0.2-11.1c2.2-1,2,4,3.2,5.2c1.2,1.2,6-1.7,8.2-2.7
				c2.2-1,3.5,1.2,2.3,2.4c-1.2,1.2-6.9,2.9-6.9,2.9s9.1-2.2,9.5-0.8c0.4,1.4-6.6,3.3-6.6,3.3s7.6,0.9,7.2,3.2c-0.4,2.3-7-0.1-7-0.1
				s2.9,3.2,1.7,4.3c-1.2,1.2-7.5-3.6-7.5-3.6L668.4,288.9z"/>
		</g>
	</g>
</g>
<g>
</g>
<g>
</g>
<g>
</g>
<g>
</g>
<g>
</g>
<g>
</g>
</svg>
