<?xml version="1.0" encoding="utf-8"?>
<!-- Generator: Adobe Illustrator 17.0.0, SVG Export Plug-In . SVG Version: 6.00 Build 0)  -->
<!DOCTYPE svg PUBLIC "-//W3C//DTD SVG 1.1//EN" "http://www.w3.org/Graphics/SVG/1.1/DTD/svg11.dtd">
<svg version="1.1" id="Layer_1" xmlns="http://www.w3.org/2000/svg" xmlns:xlink="http://www.w3.org/1999/xlink" x="0px" y="0px"
	 width="403.9px" height="100px" viewBox="0 0 403.9 100" style="enable-background:new 0 0 403.9 100;" xml:space="preserve">
<g>
	<path style="fill:#007BBE;" d="M89.4,36.5c2-0.3,4.7-0.6,8-0.6c4.1,0,7.2,1,9.1,2.7c1.8,1.5,2.8,3.9,2.8,6.8c0,2.9-0.9,5.2-2.5,6.9
		c-2.2,2.4-5.8,3.6-9.9,3.6c-1.2,0-2.4,0-3.4-0.3v13h-4.2V36.5z M93.6,52.1c0.9,0.2,2.1,0.3,3.5,0.3c5,0,8.1-2.4,8.1-6.9
		c0-4.3-3-6.3-7.6-6.3c-1.8,0-3.2,0.1-3.9,0.3V52.1z"/>
	<path style="fill:#007BBE;" d="M116.1,58.3l-3.4,10.2h-4.3l11-32.4h5l11,32.4h-4.5l-3.5-10.2H116.1z M126.8,55l-3.2-9.3
		c-0.7-2.1-1.2-4-1.7-5.9h-0.1c-0.5,1.9-1,3.9-1.6,5.9L117,55H126.8z"/>
	<path style="fill:#007BBE;" d="M162.2,67.4c-1.5,0.8-4.6,1.5-8.5,1.5c-9.1,0-16-5.8-16-16.4c0-10.1,6.9-17,16.9-17
		c4,0,6.6,0.9,7.7,1.4l-1,3.4c-1.6-0.8-3.8-1.3-6.5-1.3c-7.6,0-12.6,4.8-12.6,13.3c0,7.9,4.6,13,12.4,13c2.5,0,5.1-0.5,6.8-1.3
		L162.2,67.4z"/>
	<path style="fill:#007BBE;" d="M167.4,36.1h4.2v15.6h0.1c0.9-1.2,1.7-2.4,2.5-3.5l9.9-12.1h5.2l-11.7,13.7l12.6,18.6h-4.9
		l-10.7-15.9l-3.1,3.6v12.3h-4.2V36.1z"/>
	<path style="fill:#007BBE;" d="M199.1,58.3l-3.4,10.2h-4.3l11-32.4h5l11,32.4h-4.5l-3.5-10.2H199.1z M209.7,55l-3.2-9.3
		c-0.7-2.1-1.2-4-1.7-5.9h-0.1c-0.5,1.9-1,3.9-1.6,5.9L200,55H209.7z"/>
	<path style="fill:#007BBE;" d="M247.2,67c-1.9,0.7-5.6,1.8-9.9,1.8c-4.9,0-8.9-1.2-12.1-4.3c-2.8-2.7-4.5-7-4.5-12
		c0-9.6,6.7-16.7,17.5-16.7c3.7,0,6.7,0.8,8.1,1.5l-1,3.4c-1.7-0.8-3.9-1.4-7.2-1.4c-7.9,0-13,4.9-13,13c0,8.2,4.9,13.1,12.5,13.1
		c2.7,0,4.6-0.4,5.6-0.9v-9.6h-6.6v-3.4h10.7V67z"/>
	<path style="fill:#007BBE;" d="M270.3,53.3h-12.6V65h14v3.5h-18.2V36.1H271v3.5h-13.3v10.2h12.6V53.3z"/>
	<path style="fill:#007BBE;" d="M291.5,36.1v13.5h15.6V36.1h4.2v32.4h-4.2V53.3h-15.6v15.2h-4.2V36.1H291.5z"/>
	<path style="fill:#007BBE;" d="M335.4,53.3h-12.6V65h14v3.5h-18.2V36.1h17.5v3.5h-13.3v10.2h12.6V53.3z"/>
	<path style="fill:#007BBE;" d="M342.3,36.5c2.1-0.4,5.1-0.7,8-0.7c4.5,0,7.3,0.8,9.4,2.6c1.6,1.4,2.5,3.6,2.5,6.1
		c0,4.3-2.7,7.1-6.1,8.3v0.1c2.5,0.9,4,3.2,4.8,6.5c1.1,4.5,1.8,7.6,2.5,8.9H359c-0.5-0.9-1.2-3.7-2.2-7.7c-1-4.5-2.7-6.1-6.5-6.3
		h-3.9v14h-4.2V36.5z M346.4,51.3h4.3c4.5,0,7.3-2.4,7.3-6.1c0-4.2-3-6-7.4-6c-2,0-3.5,0.2-4.1,0.4V51.3z"/>
	<path style="fill:#007BBE;" d="M395.9,52c0,11.1-6.8,17-15,17c-8.5,0-14.5-6.6-14.5-16.4c0-10.3,6.4-17,15-17
		C390.2,35.6,395.9,42.4,395.9,52z M370.8,52.5c0,6.9,3.7,13.1,10.3,13.1c6.6,0,10.4-6.1,10.4-13.4c0-6.4-3.4-13.2-10.3-13.2
		C374.2,39,370.8,45.4,370.8,52.5z"/>
</g>
<path style="fill:#FF9800;" d="M73,79.4H20.7c-1.8,0-3.3-1.5-3.3-3.3V23.9c0-1.8,1.5-3.3,3.3-3.3H73c1.8,0,3.3,1.5,3.3,3.3v52.3
	C76.3,77.9,74.8,79.4,73,79.4z"/>
<rect x="42" y="20.6" style="fill:#FFB74D;" width="9.8" height="11.4"/>
<g>
	<g>
		<g>
			<path style="fill:#F2F2F2;" d="M38.8,61.5c-0.1-3.9,2.5-7.3,5.7-8.4c3.1-1.2,6.4-0.3,8.3,1.2c2,1.5,2.8,3.4,3.1,4.7
				c0.3,1.3,0.2,2.1,0.2,2.1c0,0,0-0.8-0.4-2c-0.4-1.3-1.3-3.1-3.2-4.4c-1.9-1.3-4.9-2-7.7-0.8c-2.8,1.1-5.2,4.2-5,7.7
				c0.1,3.5,2.6,6.5,5.4,7.4c2.9,1,5.9,0.2,7.7-1.2c1.9-1.4,2.7-3.3,3-4.6c0.3-1.3,0.3-2.1,0.3-2c0,0,0.1,0.7-0.1,2.1
				c-0.2,1.3-1,3.3-2.9,4.9c-1.8,1.6-5,2.6-8.2,1.6C41.7,68.7,38.9,65.4,38.8,61.5z"/>
			<path style="fill:#F2F2F2;" d="M52.5,55.3c-1.8,1.4-4.8,2.3-7.7,1.2c-1-0.3-2-0.9-2.8-1.7c-0.2,0.1-0.5,0.3-0.7,0.5
				c1,0.9,2.1,1.5,3.2,1.9c3.2,1,6.4,0,8.2-1.6c0.2-0.2,0.4-0.3,0.5-0.5c-0.1-0.1-0.2-0.2-0.2-0.3C52.9,54.9,52.7,55.1,52.5,55.3z"
				/>
			<path style="fill:#F2F2F2;" d="M45.1,66.2c2.8-1.2,5.9-0.5,7.7,0.8c0.2,0.1,0.4,0.3,0.5,0.4c0.1-0.1,0.2-0.2,0.3-0.3
				c-0.2-0.2-0.4-0.3-0.6-0.5c-1.9-1.5-5.1-2.4-8.3-1.2c-1.1,0.4-2.2,1.1-3.2,2.1c0.3,0.1,0.4,0.3,0.7,0.4
				C43.1,67.2,44.1,66.5,45.1,66.2z"/>
			<path style="fill:#F2F2F2;" d="M51.5,61.2c0.1,2.7-0.5,5.2-1.4,6.8c-0.4,0.8-1,1.3-1.4,1.6c-0.5,0.2-0.8,0.1-0.8,0.2
				c0,0.1,1.2-0.2,1.8-1.9c0.6-1.6,0.9-4,0.9-6.6c-0.1-2.6-0.5-5-1.2-6.5c-0.7-1.7-1.9-1.9-1.9-1.8c0,0,0.3-0.1,0.8,0.1
				c0.5,0.2,1,0.7,1.5,1.5C50.8,56,51.4,58.4,51.5,61.2z"/>
			<path style="fill:#F2F2F2;" d="M44,61.4c-0.1-2.7,0.5-5.2,1.4-6.8c0.4-0.8,1-1.3,1.4-1.6c0.5-0.2,0.8-0.1,0.8-0.2
				c0-0.1-1.2,0.2-1.8,1.9c-0.6,1.6-0.9,4-0.9,6.6c0.1,2.6,0.5,5,1.2,6.5c0.7,1.7,1.9,1.9,1.9,1.8c0,0-0.3,0.1-0.8-0.1
				c-0.5-0.2-1-0.7-1.5-1.5C44.7,66.5,44,64.1,44,61.4z"/>
			<path style="fill:#F2F2F2;" d="M48.1,61.2c0.1,4.6-0.2,8.4-0.2,8.4s-0.5-3.8-0.7-8.4c-0.1-4.6,0.2-8.4,0.2-8.4S48,56.6,48.1,61.2
				z"/>
			<path style="fill:#F2F2F2;" d="M47.7,60.8c9.1-0.2,10.6,0.4,8.4,0.2c0,0-3.8,0.5-8.4,0.7c-4.6,0.1-8.4-0.2-8.4-0.2
				S43,60.9,47.7,60.8z"/>
		</g>
		<g>
			<path style="fill:#F2F2F2;" d="M60.7,67.3c-0.6-2.7-2.3-4.4-3.8-6c-0.3-0.3-0.6-0.5-0.9-0.8c0.1,0.6,0,1.3-0.1,1.9
				c1.3,1.4,2.7,3.2,3,5c0.4,1.7-1.8,2.1-4,1.8c-4.3-0.7-8.4-2.7-11.9-4.8c-3.4-2.2-6.3-4.6-8.2-7c-0.9-1.2-1.5-2.6-1.3-3.6
				c0.2-1.1,1.2-1.5,2-1.7c1.6-0.3,2.6-0.1,2.6-0.2c0,0-0.9-0.3-2.6-0.1c-0.8,0.1-2,0.4-2.5,1.8c-0.4,1.4,0.3,2.9,1.1,4.3
				c1.8,2.8,4.7,5.5,8.1,7.9C46,68,50.1,70.3,55,71c1.2,0.1,2.5,0.2,3.7-0.3C60,70.4,61.1,68.7,60.7,67.3z"/>
		</g>
		<g>
			<path style="fill:#F2F2F2;" d="M58.1,53.5c-2.3-0.9-4.3-0.4-6.1,0c-0.1,0-0.2,0.1-0.4,0.1c0.5,0.3,1,0.7,1.5,1.1
				c1.5-0.2,3.1-0.3,4.3,0.2c1.4,0.6,0.7,2.5-0.5,4.1c-2.5,3.1-5.9,5.4-9,7.1c-3.2,1.7-6.3,2.8-8.9,3c-1.3,0.1-2.6-0.1-3.3-0.8
				c-0.7-0.7-0.5-1.7-0.3-2.4c0.5-1.4,1.1-2.1,1.1-2.1c0,0-0.6,0.6-1.3,2c-0.3,0.7-0.6,1.8,0.2,2.9c0.8,1,2.3,1.2,3.7,1.2
				c2.9,0,6.2-1,9.5-2.6c3.3-1.6,6.9-3.8,9.7-7.3c0.7-0.9,1.3-1.9,1.5-3.1C60.1,55.6,59.3,53.9,58.1,53.5z"/>
		</g>
	</g>
	<g>
		<path style="fill:#F2F2F2;" d="M49.1,51.2l0.6-5.8c4-2.3,4.2-2.4,5.4-3.8c0.4-0.6,0.9-1.8-1.3-1.2c-0.2-0.1-1.4-0.3-2.3,0.7
			l-3.7,2l-7.3-0.3l-5.6-0.1c-0.7,0.1-1,0-1.1,0.7l6.4,1.5l2.4,1.1l-2.7,1.5l-2-1.3c-0.3-0.2-0.4-0.2-0.6-0.1
			c-0.2,0.1-0.6,0.2-0.6,0.2l0.6,1.8L35,47.6c-0.4-0.1-0.9,0-1.1,0.4l3.1,1.6c-0.4,0.6,0.5,0.5,0.8,0.4l1.6,1.2
			c0.3,0,0.6-0.2,0.5-0.5l-0.3-1c1.3-0.4,3.8-1.3,5.7-2.1l1.8,1l1,2.9C48.5,51.6,48.8,51.4,49.1,51.2z"/>
	</g>
</g>
<g>
	<rect x="57.5" y="36.9" style="fill:#B86D00;" width="14.7" height="1.6"/>
	<rect x="67.3" y="28.8" style="fill:#B86D00;" width="3.3" height="6.5"/>
	<polygon style="fill:#B86D00;" points="68.9,25.5 65.7,30.4 72.2,30.4 	"/>
	<rect x="59.1" y="28.8" style="fill:#B86D00;" width="3.3" height="6.5"/>
	<polygon style="fill:#B86D00;" points="60.8,25.5 57.5,30.4 64,30.4 	"/>
</g>
<g>
	<path style="fill:#999999;" d="M315.8,82.3c0-0.4,0-1,0-1.5v-7h1v3.6h0c0.4-0.6,1-1.1,2-1.1c1.4,0,2.5,1.2,2.4,3
		c0,2.1-1.3,3.1-2.6,3.1c-0.8,0-1.5-0.3-1.9-1.1h0l0,1H315.8z M316.9,80c0,0.1,0,0.3,0,0.4c0.2,0.7,0.8,1.2,1.6,1.2
		c1.1,0,1.8-0.9,1.8-2.2c0-1.2-0.6-2.2-1.7-2.2c-0.7,0-1.4,0.5-1.6,1.3c0,0.1-0.1,0.3-0.1,0.4V80z"/>
	<path style="fill:#999999;" d="M323,76.5l1.3,3.4c0.1,0.4,0.3,0.8,0.4,1.2h0c0.1-0.3,0.2-0.8,0.4-1.2l1.2-3.4h1.1l-1.6,4.1
		c-0.8,2-1.3,3-2,3.6c-0.5,0.5-1,0.6-1.3,0.7l-0.3-0.9c0.3-0.1,0.6-0.3,0.9-0.5c0.3-0.2,0.6-0.6,0.9-1.2c0-0.1,0.1-0.2,0.1-0.3
		c0-0.1,0-0.1-0.1-0.3l-2.1-5.3H323z"/>
	<path style="fill:#999999;" d="M331.7,82.3l-2.1-8.1h1.1l1,4.1c0.2,1,0.5,2,0.6,2.8h0c0.1-0.8,0.4-1.8,0.7-2.8l1.1-4.1h1.1l1,4.1
		c0.2,1,0.4,1.9,0.6,2.8h0c0.2-0.9,0.4-1.8,0.6-2.8l1.1-4.1h1.1l-2.3,8.1h-1.1l-1-4.2c-0.3-1-0.4-1.8-0.5-2.6h0
		c-0.1,0.8-0.3,1.6-0.6,2.6l-1.2,4.2H331.7z"/>
	<path style="fill:#999999;" d="M340.7,79.6c0,1.4,0.9,2,2,2c0.8,0,1.2-0.1,1.6-0.3l0.2,0.8c-0.4,0.2-1,0.4-1.9,0.4
		c-1.8,0-2.9-1.2-2.9-2.9s1-3.1,2.7-3.1c1.9,0,2.4,1.7,2.4,2.7c0,0.2,0,0.4,0,0.5H340.7z M343.8,78.9c0-0.7-0.3-1.7-1.5-1.7
		c-1.1,0-1.5,1-1.6,1.7H343.8z"/>
	<path style="fill:#999999;" d="M346.1,82.3c0-0.4,0-1,0-1.5v-7h1v3.6h0c0.4-0.6,1-1.1,2-1.1c1.4,0,2.5,1.2,2.4,3
		c0,2.1-1.3,3.1-2.6,3.1c-0.8,0-1.5-0.3-1.9-1.1h0l0,1H346.1z M347.2,80c0,0.1,0,0.3,0,0.4c0.2,0.7,0.8,1.2,1.6,1.2
		c1.1,0,1.8-0.9,1.8-2.2c0-1.2-0.6-2.2-1.7-2.2c-0.7,0-1.4,0.5-1.6,1.3c0,0.1-0.1,0.3-0.1,0.4V80z"/>
	<path style="fill:#999999;" d="M355.4,81.1c0.5,0.3,1.2,0.5,1.9,0.5c1.1,0,1.7-0.6,1.7-1.4c0-0.8-0.4-1.2-1.5-1.6
		c-1.3-0.5-2.1-1.2-2.1-2.3c0-1.3,1-2.2,2.6-2.2c0.8,0,1.4,0.2,1.8,0.4l-0.3,0.9c-0.3-0.1-0.8-0.4-1.5-0.4c-1.1,0-1.5,0.7-1.5,1.2
		c0,0.8,0.5,1.1,1.6,1.6c1.4,0.5,2.1,1.2,2.1,2.4c0,1.2-0.9,2.3-2.8,2.3c-0.8,0-1.6-0.2-2.1-0.5L355.4,81.1z"/>
	<path style="fill:#999999;" d="M366.8,79.4c0,2.1-1.5,3.1-2.9,3.1c-1.6,0-2.8-1.2-2.8-3c0-1.9,1.3-3.1,2.9-3.1
		C365.6,76.4,366.8,77.6,366.8,79.4z M362.2,79.4c0,1.3,0.7,2.2,1.8,2.2c1,0,1.8-0.9,1.8-2.3c0-1-0.5-2.2-1.7-2.2
		C362.7,77.2,362.2,78.3,362.2,79.4z"/>
	<path style="fill:#999999;" d="M373,80.8c0,0.6,0,1.1,0,1.6h-0.9l-0.1-0.9h0c-0.3,0.5-0.9,1.1-1.9,1.1c-0.9,0-2-0.5-2-2.5v-3.4h1.1
		v3.2c0,1.1,0.3,1.8,1.3,1.8c0.7,0,1.2-0.5,1.4-1c0.1-0.2,0.1-0.3,0.1-0.5v-3.6h1.1V80.8z"/>
	<path style="fill:#999999;" d="M374.7,78.3c0-0.7,0-1.3,0-1.8h0.9l0,1.1h0c0.3-0.8,0.9-1.3,1.6-1.3c0.1,0,0.2,0,0.3,0v1
		c-0.1,0-0.2,0-0.4,0c-0.7,0-1.3,0.6-1.4,1.4c0,0.1,0,0.3,0,0.5v3.1h-1V78.3z"/>
	<path style="fill:#999999;" d="M382.7,82.1c-0.3,0.1-0.9,0.3-1.7,0.3c-1.8,0-2.9-1.2-2.9-3c0-1.8,1.2-3.1,3.1-3.1
		c0.6,0,1.2,0.2,1.5,0.3l-0.2,0.8c-0.3-0.1-0.6-0.3-1.2-0.3c-1.3,0-2.1,1-2.1,2.2c0,1.3,0.9,2.2,2,2.2c0.6,0,1-0.2,1.3-0.3
		L382.7,82.1z"/>
	<path style="fill:#999999;" d="M384.4,79.6c0,1.4,0.9,2,2,2c0.8,0,1.2-0.1,1.6-0.3l0.2,0.8c-0.4,0.2-1,0.4-1.9,0.4
		c-1.8,0-2.9-1.2-2.9-2.9s1-3.1,2.7-3.1c1.9,0,2.4,1.7,2.4,2.7c0,0.2,0,0.4,0,0.5H384.4z M387.5,78.9c0-0.7-0.3-1.7-1.5-1.7
		c-1.1,0-1.5,1-1.6,1.7H387.5z"/>
</g>
<g>
</g>
<g>
</g>
<g>
</g>
<g>
</g>
<g>
</g>
<g>
</g>
<g>
</g>
<g>
</g>
<g>
</g>
<g>
</g>
<g>
</g>
<g>
</g>
<g>
</g>
<g>
</g>
<g>
</g>
</svg>
