<?xml version="1.0" encoding="utf-8"?>
<!-- Generator: Adobe Illustrator 17.0.0, SVG Export Plug-In . SVG Version: 6.00 Build 0)  -->
<!DOCTYPE svg PUBLIC "-//W3C//DTD SVG 1.1//EN" "http://www.w3.org/Graphics/SVG/1.1/DTD/svg11.dtd">
<svg version="1.1" id="Capa_1" xmlns="http://www.w3.org/2000/svg" xmlns:xlink="http://www.w3.org/1999/xlink" x="0px" y="0px"
	 width="841.9px" height="595.3px" viewBox="0 0 841.9 595.3" style="enable-background:new 0 0 841.9 595.3;" xml:space="preserve"
	>
<radialGradient id="SVGID_1_" cx="441.7497" cy="285.4572" r="567.0658" gradientUnits="userSpaceOnUse">
	<stop  offset="0" style="stop-color:#5AA1D8"/>
	<stop  offset="0.47" style="stop-color:#2C8DCC"/>
	<stop  offset="1" style="stop-color:#007BC2"/>
</radialGradient>
<rect x="0" y="0" style="fill:url(#SVGID_1_);" width="841.9" height="595.3"/>
<g>
	<g>
		<defs>
			<path id="SVGID_2_" d="M441.9,122.9c-23.4,10.9-43.6,27.5-58.8,48c2.4-0.3,5-0.5,7.5-0.7c16.4-20.7,38.4-37,63.6-46.3
				C462.1,121.7,452.2,117.9,441.9,122.9z M432,123c10.3-6.4-9.3-8.6-27.5,4.6c-16.9,12.9-31.1,29-42.2,47.2
				c4.8-1.2,9.9-2.3,15.4-3.1C391.8,151.5,410.2,134.7,432,123z M374.3,176.4c-5.4,1-10.4,2.2-15,3.5c-13.2,23.8-21,51-21,80.2
				c0,5.3,0.3,10.4,0.8,15.5c0.9,6.2,11.6,7.2,10.6-2.3c-0.3-4-0.6-8-0.6-12.1C349,229.9,358.4,200.9,374.3,176.4z M379.8,175.6
				c-16.7,24.4-26.6,53.9-26.6,85.7c0,4.3,0.3,8.5,0.6,12.6c0.8,5.9,6.5,5.9,6.3,1.8c-0.6-5.1-0.9-10.3-0.9-15.6
				c0-32,10.4-61.4,28-85.4C384.7,174.9,382.2,175.2,379.8,175.6z M580,407.4c23.4-10.9,43.6-27.5,58.8-48c-2.4,0.3-5,0.5-7.5,0.6
				c-16.4,20.7-38.4,37-63.6,46.3C561.4,407.7,562.1,414.5,580,407.4z M642.1,354.7c1.5-2.2,11.2-15.1,7.2-17.2
				c-3.6-1.9-8.3,8-11.7,14c-1.1,2-1.9,4-3,4.1C637.2,355.4,639.6,355,642.1,354.7z"/>
		</defs>
		<clipPath id="SVGID_3_">
			<use xlink:href="#SVGID_2_"  style="overflow:visible;"/>
		</clipPath>
	</g>
</g>
<g>
	<g>
		<g>
			<path style="opacity:0.5;fill:#888A90;" d="M240.1,489.3c0,0-7.6,6.9-29.6,5c-22.1-1.9-22.1-2.5-33.4-3.8
				c-11.3-1.3-24.6-3.8-27.7-3.8c-3.2,0-15.1,1.9-15.1,1.9s-3.2,13.9-15.1,16.4c-12,2.5-16.3-3-25.2-4.4
				c-15.8-2.5-18.2-16.4-39.9-19.8c-16.9-2.6-0.5-11.2,11.2-12.7c2.6-0.3,25.2-6.6,77.3-1c28.5,3.1,38.4-3.7,44.1-0.5
				C192.2,469.7,240.1,489.3,240.1,489.3z"/>
			<g>
				<g>
					<path style="fill:#EEE5E2;" d="M195.3,463.8c0,0,39.6,8.2,46,20.2c3.6,6.7-22.4,10.7-45.6,7.4c-23.2-3.3-28.9-7.3-31-9.5
						c-2.4-2.4-2.1-5.4-1.8-9.7c0.3-4.3,2-8.9,2-8.9S178.7,469.5,195.3,463.8z"/>
					<path style="fill:#B1ADAB;" d="M209.3,490c-23.5-0.5-44-9.2-46-10.1c0.3,0.7,0.7,1.4,1.4,2c2.1,2.1,7.7,6.2,31,9.5
						c22.4,3.2,47.4-0.4,45.9-6.6C238.4,488.2,231,490.5,209.3,490z"/>
				</g>
				<g>
					<path style="fill:#EEE5E2;" d="M93.2,464.4c0,0-12.2,24-5.5,32.4c6.7,8.4,23.9,9.4,34,6c10-3.4,7.1-15.7,5.8-22.1
						c-1.9-9.2-2.7-14.4-2.7-14.4S107.7,474.3,93.2,464.4z"/>
					<path style="fill:#B1ADAB;" d="M121.7,502.7c5.4-1.9,7-6.3,7.2-11c-1.9,5.1-7.4,11.9-24.2,9.5c-12.2-1.7-17.2-6.5-19-11.1
						c0.1,2.6,0.7,4.9,2,6.6C94.4,505.2,111.6,506.2,121.7,502.7z"/>
				</g>
				<path style="fill:#2C1E1E;" d="M111.3,264.3c0,0-3.1,44.1-9.2,101.2C95.9,422.6,85.4,474.2,89,474.1c10.2-0.4,11.6-3.3,23.2-1.3
					c7.1,1.2,14.1,5.8,15.3,4.2c1.2-1.6,5.6-60.1,11-94.2c5.4-34.1,12.6-54.9,14.2-55.1c10.2-0.8,8.7,136.7,9,138.9
					c0.3,2.2,8,5.6,18.7,4.5c10.7-1.2,17.8-5.9,18.7-6.6c1-0.7,1.5-59.1,1.1-95.1c-0.4-36,0-98.1,0-98.1L111.3,264.3z"/>
				<g>
					<path style="fill:#541518;" d="M127.3,135.1c0,0,8.3-2.5,18.9-2.3c10.5,0.2,15.4,2.3,15.4,2.3s1.2,5.4-0.7,10.7
						c-1.9,5.4-9.8,10.7-17.8,10C135,155.1,126,137.6,127.3,135.1z"/>
					<g>
						<g>
							<g>
								<g>
									<path style="fill:#CC7E4C;" d="M160.2,144.6c-1.3-3.7,0.2-11.9,0.2-11.9s-12.9,3.7-29.6-0.1c0.1,2.3-0.4,11.2-0.4,11.2
										s1,3.1,2.6,5.2c3.4,4.9,15.1,23.4,18.4,23.9c3.3,0.5,6.4-12,9.2-20.9c0.6-1.9,1-3.9,1.2-5.8
										C161,145.7,160.4,145.2,160.2,144.6z"/>
									<path style="fill:#B96A42;" d="M131,136.6c0,0,11.5,7.6,17.5,7.6c6,0,11.1-6.7,11.1-6.7l0.4-2.5c0,0-10.1,3.1-17.1,2.6
										c-7-0.5-12.2-2.7-12.2-2.7L131,136.6z"/>
								</g>
								<g>
									<path style="fill:#CC7E4C;" d="M175.4,86.6c0,0,5-7,9.8,0.7c3.1,5-0.9,17.4-4.8,17.1c-3.9-0.2-3.9-0.2-3.9-0.2L175.4,86.6z
										"/>
									<path style="fill:#A5573A;" d="M179.5,89.6c0,0,2.6-2.6,3.4-1.4c0.9,1.2,1.1,4,1.1,4s-1-3.4-1.6-2.1
										c-0.6,1.3-1.1,5.6-0.6,5.9c0.5,0.4,1.5-0.4,0.6,1.3c-0.9,1.7-3.1,3.3-3.1,3.3L179.5,89.6z"/>
									<path style="fill:#E2925C;" d="M105.4,106.7c0,0,2,15.8,15.1,24.3c13,8.4,27.8,9.5,38.1,5.1c10.2-4.3,19.2-14.3,20.4-24.5
										c1-8,0-39.8,0-39.8s-12.3-8.2-29.9-9.5c-17.6-1.3-46,9.5-46,9.5l-0.3,14.8c0,0-10-2.8-13.3,2.6
										C86.2,94.5,93.6,114.2,105.4,106.7z"/>
									<path style="fill:#CC7E4C;" d="M134.1,68.1c-26.1,5.2-30.7,10.3-30.7,10.3s5,14.8,14.6,12.5c9.6-2.3,23.9-8.5,38.9-6.6
										c10,1.3,18.3,3.3,22.5,4.7c-0.1-7.7-0.4-17.3-0.4-17.3s-0.6-0.4-1.7-1C168.7,68.2,152,64.6,134.1,68.1z"/>
									<path style="fill:#682D1F;" d="M96.2,85.8c0,0,6.2,1,8.3,5.6c2,4.6,1.7,8.7,3.2,6.4c1.5-2.3,3.7-11.5,3.2-18.6
										c-0.5-7.2-2.5-9-2.5-9l-12,3.3L96.2,85.8z"/>
									<path style="fill:#2870AC;" d="M95.4,79.9c3.3,1,27.3-14.8,56.4-11.8c21.6,2.3,27.7,7.8,28.7,6.3c1-1.5,3.4-6,1.4-16.5
										c-2-10.5-3-17-5.4-24.8C173.6,23,157,17.1,144.2,16.6c-12.8-0.5-34,1.8-43.9,19.9C91.3,52.8,92.1,78.9,95.4,79.9z"/>
									<path style="fill:#BF6D43;" d="M102.1,98.4c0,0,0-5.2-5-7.3c-4.1-1.7-5,0.8-5.4,2.1c-0.4,1.3,1.2,3.6,1.2,3.6
										s-0.4-4.6,1.3-4.6c1.7,0,2.9,1,3.8,2.1c1,1.1,1.1,2.7,1.1,2.7s-1.7-0.4-3.2,0.3c-1.4,0.6-2.4,3.7-2.4,3.7s1.3-2.3,4.2-2.1
										c2.9,0.2,4.4,3.4,4.4,3.4L102.1,98.4z"/>
									<path style="fill:#C67645;" d="M154,94.2c0,0,8.6,8.1,7.6,12.5c-1,4.3-7.2,7.8-12.9,6.4c-5.7-1.4-8.1-8.4-8.1-8.4
										s2.5,2.6,8.5,4.8c5,1.9,11.3-1.7,11.6-4.4C161.1,102.3,154,94.2,154,94.2z"/>
									<path style="fill:#8B382A;" d="M133.5,115.3c0,0,6.5,4.1,15.6,3.9c9.1-0.2,12.8-3.4,12.8-3.4s0.3-2,0.8-1.5
										c0.4,0.4-0.1,4.5-0.6,3.9c-0.4-0.7-1.5-0.4-1.5-0.4s-5.4,2.7-12.3,2.7c-6.8,0-14.8-3.4-14.8-3.4s-2.2,1.5-1.7,0.1
										C132.4,115.6,133.2,112.7,133.5,115.3z"/>
									<g>
										<path style="fill:#CC7E4C;" d="M136.7,88.8c0.2,4.9-1,8.7-5.7,9.1c-4.7,0.4-6.1-3.8-6.3-8.7c-0.2-4.9,2.4-9,5.7-9.1
											C133.7,80,136.5,83.9,136.7,88.8z"/>
										<path style="fill:#E6D2C8;" d="M135.9,88.4c0.2,4.5-0.8,8-5,8.3c-4.1,0.3-5.4-3.4-5.6-7.9c-0.2-4.5,2.1-8.2,5-8.3
											C133.3,80.3,135.8,83.9,135.9,88.4z"/>
										<g>
											<ellipse style="fill:#22272B;" cx="130.3" cy="90.9" rx="4.6" ry="4.8"/>
											<circle style="fill:#1B1418;" cx="130.3" cy="90.5" r="1.6"/>
										</g>
										<circle style="fill:#FFFFFF;" cx="132.6" cy="89.6" r="1.1"/>
										<path style="fill:#682D1F;" d="M136.8,90.8c0,0-0.3-6.6-3.7-8.8c-4.8-3.1-8.1,3.1-8.1,3.1s0.4-5.1,4.1-5.7
											C134.6,78.4,137.2,83.7,136.8,90.8z"/>
									</g>
									<g>
										<path style="fill:#CC7E4C;" d="M170.7,89.1c0.2,4.9-1,8.7-5.7,9.1c-4.7,0.4-6.1-3.8-6.3-8.7c-0.2-4.9,2.4-9,5.7-9.1
											C167.7,80.3,170.5,84.2,170.7,89.1z"/>
										<g>
											<path style="fill:#E6D2C8;" d="M169.9,88.4c0.2,4.5-0.8,8-5,8.3c-4.1,0.3-5.4-3.4-5.6-7.9c-0.2-4.5,2.1-8.2,5-8.3
												C167.3,80.3,169.8,83.9,169.9,88.4z"/>
											<g>
												<path style="fill:#22272B;" d="M168.8,90.8c0,2.7-2.1,4.8-4.6,4.8c-2.5,0-4.5-2.2-4.5-4.9c0-2.7,2-4.7,4.5-4.7
													C166.7,86,168.8,88.1,168.8,90.8z"/>
												<circle style="fill:#1B1418;" cx="164.1" cy="90.4" r="1.6"/>
											</g>
										</g>
										<circle style="fill:#FFFFFF;" cx="166.6" cy="89.6" r="1.1"/>
										<path style="fill:#682D1F;" d="M159.1,90c0,0,1.2-8.6,5.4-9c4.1-0.4,6.4,4.8,6.4,4.8s-1-5.9-5.4-6.3
											C161.2,79,159.1,83.8,159.1,90z"/>
									</g>
									<path style="fill:#682D1F;" d="M157.2,80.3c0,0,4.6-3.3,9.2-3.1c4.6,0.3,7.4,6.3,7.4,6.3s0.1-6.5-6.3-8.6
										c-6.4-2-9.5,2.1-9.5,2.1L157.2,80.3z"/>
									<path style="fill:#682D1F;" d="M139.1,80.9c0,0-3.6-4.9-9.2-4.3c-5.6,0.5-8.3,5.1-8.3,5.1s1.7-6.8,8.2-7.5
										c6.5-0.8,9.7,3.5,9.7,3.5L139.1,80.9z"/>
									<path style="fill:#3E5E35;" d="M102.1,75.8c-0.5,0.3-0.6,1.6-0.6,1.6s2.7,6.6,12.6,7.6c10,1,16-6.3,36.8-6.9
										c21.7-0.6,31.1,7.7,34.2,6.4c1.6-0.7,2.1-2.8,1.8-4.2c-0.6-3.5-5.1-7.1-5.1-7.1s-14.1-6.1-32.2-6.6
										C127.4,66,106.4,73.8,102.1,75.8z"/>
									<path style="fill:#3AA1CD;" d="M102.1,75.8c0,0,2,6.6,12,7.7c10,1,16-6.3,36.8-6.9c21.7-0.6,31.1,7.7,34.2,6.5
										c5.6-2.3-3.3-11.3-3.3-11.3s-14.1-6.1-32.2-6.6C124.5,64.3,102.1,75.8,102.1,75.8z"/>
									<path style="fill:#8A3F29;" d="M100.2,79.5c0,0-1.1,2-1.1,3.8c0,1.8,1.1,3.2,1.1,3.2s-0.6-2.2-0.3-3.9
										C100.2,80.8,100.2,79.5,100.2,79.5z"/>
									<path style="fill:#8A3F29;" d="M103.1,80.8c0,0-0.8,2.7-0.5,4.7c0.3,2,1.9,4.5,1.9,4.5s-1-3.8-1.1-5.6
										C103.2,82.6,103.1,80.8,103.1,80.8z"/>
								</g>
							</g>
							<path style="fill:#D18251;" d="M93.4,104.6c0,0,3.2,2.7,7.2,2.2c4-0.5,5.7-1.8,5.7-1.8s3.1,14.7,14.2,23.5
								c11.1,8.8,29.6,8.8,38.8,5.5c9.2-3.3,15.1-10.7,15.1-10.7s-8.4,12.2-20.5,14.8c-12,2.6-25.5-1.1-33.9-6.9
								c-11.9-8.1-14.6-24.4-14.6-24.4s-1.9,1.7-5,1.7C95.4,108.3,93.4,104.6,93.4,104.6z"/>
						</g>
						<polygon style="fill:#682D1F;" points="179.2,83.2 179.5,89.6 180.9,83.8 						"/>
					</g>
				</g>
				<path style="fill:#2870AC;" d="M209.3,175.2c-3.2-6.2-6.2-14.1-7.4-16.3c-4.2-7.6-10.9-9-18-11.8c-8.6-3.4-14.3-5.6-16-6.4
					c-1.7-0.8-2.8-3.5-3.5-4.3c-1.4-1.6-2.9-1.3-2.9-1.3s0,8.2-2,14.1c-2,5.9-8.2,19.9-8.2,19.9s-0.4-0.6-1.1-1.7
					c-2.2-3.9-6.1-11.5-9.2-15.8c-0.5-0.8-11.8-15.4-13.5-16.3c-1.7-0.9-4.8,4.9-5,5.6c-21.4,3.4-37.4,11.3-39.2,22.2
					c-1.4,8.5-3,18.2-2,32.7c1,14.4,4.6,28,4.6,28s6.6-8.9,14.3-9.7c6.1-0.6,7.3,1.2,7.5,2c0,0,0,0.1,0,0.1c0,0.1,0,0.2,0,0.2
					s0.3,1.5,0.9,4c0.5,2.8,0.9,5.7,1,8.5c0.4,10.3-0.8,39.8-0.4,42.1c0.4,2.3,7.7,10,12.6,12.3c4,1.9,11.8,3.7,25.7,4.2
					c5.5,1.5,28.9,1.2,38.3,0.1c10.7-1.3,19.6-1.3,18.4-10c-5.7-39.8-0.6-69.4-0.6-69.4s2.8-4.1,10-4.3c7.2-0.3,12,1.3,12,1.3
					S216.5,189.2,209.3,175.2z"/>
				<path style="fill:#3E5E35;" d="M97.1,214.2c10.2-3.2,16.5-3.3,16,0.9c-0.6,4.9-28.4,13.2-27.1,8.4
					C86,223.5,86.9,217.4,97.1,214.2z"/>
				<path style="fill:#3E5E35;" d="M155.1,171.8c0,0,1.2,1.4,1.2,2.6c0,1.1-1.1,2.6-1.1,2.6s-0.4,0-0.6,0c-0.9,0-1.7-1.1-1.7-2.6
					c0-1.4,0.7-2.6,1.7-2.6C154.8,171.8,155.1,171.8,155.1,171.8z"/>
				<path style="fill:#C0A398;" d="M156.8,174.4c0,1.4-0.7,2.6-1.7,2.6c-0.9,0-1.7-1.1-1.7-2.6c0-1.4,0.7-2.6,1.7-2.6
					C156.1,171.8,156.8,173,156.8,174.4z"/>
				<path style="fill:#1C85AA;" d="M175.6,155.4c-1.2-3.2-6.8-12.5-6.8-12.5s4.6,8.3,5.9,13c1.3,4.7,1.3,9.8,0.4,9.5
					c-0.9-0.4-4-4.7-6.5-6.4c-2.6-1.7-5.5-3.2-5.5-3.2l1.7,2.9c0,0-2.9,1.9-6.5,4.6c-2.8,2.1-6.4,4.6-6.9,6.8
					c-0.4,2.2,0,14.3,0,14.3l1.8-13.7c0.2-0.4,0.4-0.8,0.6-1c2.2-2.6,11.4-9.5,11.4-9.5l0.9-1.7c0,0,3.6,2.8,4.7,5.4
					c1.2,2.6,1.8,5.2,2.7,4.5c0.9-0.8,0.8-2,0.8-2s1.2,0.6,2.2-0.5C177.4,164.7,176.8,158.6,175.6,155.4z"/>
				<path style="fill:#2870AC;" d="M168.9,184.3v35.8h-13.2v38.1h-6.9v29.5l5.4,0.7c7.6,0.4,19.1,0.3,27-0.3V184.3H168.9z
					 M106.9,275.8c1.9,4.5,10.1,5.4,15.1,7.7c1.9,0.9,4.6,1.8,8.5,2.5c2,0.2,3.3,0.3,3.3,0.3l-24.3-30.6
					C109.3,263.6,104.9,271.2,106.9,275.8z"/>
				<path style="fill:#1C85AA;" d="M142.3,161c-4.2-3.4-8.4-3.3-8.4-3.3l-0.8-3.4c0,0-1.5,1-3.4,3.3c-1.9,2.3-5.1,7.8-6.4,9.3
					c-1.3,1.5-2-4-2-8.7c0-3,0.6-9.9,1.1-14.6c-0.8,3.7-2.1,11.7-2,15.2c0.1,4.6,1.8,12.6,3.2,10.9c0.4-0.5,3.5-5.4,5-7.8
					c1.6-2.6,3.6-5,3.6-5l1.2,2.8c0,0,2.2-1.5,7.3,1.4c5.1,2.9,8.6,7,8.6,7l-2.1-3C145.7,164,144.1,162.5,142.3,161z"/>
				<g>
					<g>
						<polygon style="fill:#FFFFFF;" points="166.7,306.4 245.4,305.7 245.7,258.6 230,254.3 152.2,254.3 152.3,299.6 						"/>
						<polygon style="fill:#CEC3BF;" points="152.1,254.2 166.8,258.6 245.7,258.6 230.4,254 						"/>
						<polygon style="fill:#D5CBC7;" points="152.1,254.2 166.8,258.6 166.8,305.9 152.3,299.6 						"/>
					</g>
					<g>
						<polygon style="fill:#FFFFFF;" points="158,254.4 169.1,257.5 240.2,257.5 240.2,219.9 227,217.3 158.3,217.5 						"/>
						<polygon style="fill:#CEC3BF;" points="158.3,217.5 169.7,220.2 240.2,219.9 227,217.3 						"/>
						<polygon style="fill:#D5CBC7;" points="158.3,217.5 169.7,220.2 169.4,257.5 158,254.4 						"/>
					</g>
					<g>
						<polygon style="fill:#FFFFFF;" points="178.5,219.3 226.8,219.1 226.8,180.2 178.3,180.2 						"/>
						<polygon style="fill:#D5CBC7;" points="178.4,180.2 171.7,180.9 171.7,218.3 178.7,219.3 						"/>
					</g>
				</g>
				<path style="fill:#1C85AA;" d="M107.7,185.9c0,0,0.8,15.6,1.8,20.2c1,4.6,1.8,7.7,1.8,7.7s0.8,2,0.5,3.8
					c-0.3,1.8,7.4,26.1,13.8,40.9c6.4,14.8,18.4,29.4,18.4,29.4l3.7-0.2c0,0-15.7-22-23.4-41.2c-7.7-19.2-11.2-33-11.5-38.6
					c-0.3-5.6,1.3-15.6,1.3-15.6l-3.1,10.2L107.7,185.9z"/>
				<g>
					<path style="fill:#E2925C;" d="M100,214.8c-6.3,1.5-11.2,5.7-11.2,5.7s0.9,5.1,6.3,19.4c5,13.2,34.6,57.6,50.7,68.4
						c13.5,9,27.3,9.9,37.2,6.5c9.9-3.4,15.8-9.2,12.3-10c-3.4-0.8-13.3,1.2-16.7,1.4c-6.3,0.4-11.9-1.3-11.9-1.3s16,0.4,13.8-4.2
						c-1.5-3.3-7.4-0.5-11.3-2c-11.7-4.3-15.5-2-17.2-3.5c-16.3-14.4-34.9-57.6-37-63.6c-3.1-8.8-4.2-17.1-4.2-17.1
						S108.1,212.9,100,214.8z"/>
				</g>
				<path style="fill:#CA7B49;" d="M249.7,289.9c2.1,1.4-4,2.9-0.9,8.8c1.8,3.3-0.7,8.4-4,9.9c-3.2,1.5-8.1,2.2-10.5,2
					c-2.8-0.2-4.4-1.2-4.2-2.2c0.2-1,0.8-1.4,0.8-1.4s-3.6,1.6-5.7-1.4h20.1v-21.2C245.4,284.6,247.1,288.2,249.7,289.9z"/>
				<path style="fill:#E2925C;" d="M248.1,289.3c-1.9-0.2-3.5,0.2-5.7,1.6c-2.3,1.6-3.8,7,1.9,5.9c5.7-1.1,6.1-2.6,6.6-4
					C251.5,291.5,250.1,289.5,248.1,289.3z"/>
				<path style="fill:#CA7B49;" d="M192.5,304.6c-1.2,0-4.5,0.1-8.9,0.7c-5.5,0.8-7.6,0.8-10.5,0.5c-2.9-0.3-4.3-0.9-4.3-0.9
					s6.4-0.1,9.4-1.3c3-1.2,2.9-1.9,2.4-3c0.1,0.2,0.6,1.8-3.5,2.5c-4.5,0.7-11.6,1.6-11.6,1.6s4.2,3.3,10,2.9
					c5.8-0.4,11.7-2.2,13-2.5C189.5,304.9,191.6,304.7,192.5,304.6c0.3,0.2,1.6,1,0.2,2.5c-1.5,1.6-8.7,4-13,4.7
					c-4.3,0.7-13.8,0.6-13.8,0.6s9,1.2,14,0.6c5-0.6,11.5-3.9,11.5-3.9s0.3,0,0.6,0c-3.9,2.7-10,5.9-17.1,6.3
					c-12.9,0.8-30.9-9.5-40.4-20.1c-9.4-10.6-34.4-47.5-39.2-60.8c-3.2-8.6-4.5-13.1-5-15.3c-0.9,0.7-1.5,1.1-1.5,1.1
					s0.9,5.1,6.3,19.4c5,13.2,34.6,57.6,50.7,68.4c13.5,9,27.3,9.9,37.2,6.5c8-2.8,13.4-7.1,13.3-9
					C196.3,305.4,196,303.6,192.5,304.6z"/>
				<path style="fill:#B96A42;" d="M160.6,145.2c0,0-0.1,2.4-2.5,8.2c-2.5,5.7-6.7,15.7-6.7,15.7l-1.3-2c0,0,2.9-4.4,6.8-13.2
					c1.9-4.4,3.2-10,3.2-10L160.6,145.2z"/>
				<path style="fill:#F6D4C0;" d="M243.6,291.9c0,0,2.1,3.6,1.2,4c-0.9,0.4-2.6,0.6-3.2-0.8C241.1,293.8,243.6,291.9,243.6,291.9z"
					/>
				<path style="fill:#F6D4C0;" d="M176.3,303.1c0,0-0.9-2.6,0.6-2.9c1.5-0.3,3.6,0.2,3.8,1.1C180.9,302.2,176.3,303.1,176.3,303.1z
					"/>
				<path style="fill:#EBB08E;" d="M189,308.9c0,0-0.4-1.3,0.8-1.9c1.2-0.6,3.3-1.1,3.3-0.6C193.1,306.9,190.8,308.5,189,308.9z"/>
				<ellipse style="fill:#3E5E35;" cx="155.5" cy="173.7" rx="0.3" ry="0.4"/>
				<ellipse style="fill:#3E5E35;" cx="154.9" cy="174.9" rx="0.3" ry="0.4"/>
				<path style="fill:#EBB08E;" d="M191.2,309.6C191.2,309.6,191.2,309.6,191.2,309.6c0.4-0.1,1.1-0.2,1.8-0.6c0.9-0.5,2-1.9,1.8-2
					C194.5,306.8,190.5,309.1,191.2,309.6z"/>
				<g>
					<rect x="222.8" y="291" style="fill:#FFFFFF;" width="15.7" height="11.8"/>
					<path style="fill:#2F2A2F;" d="M224.2,301.4h0.5v-9.4h-0.5V301.4z M233,301.4h0.4v-9.4H233V301.4z M228.2,301.4h0.5v-9.4h-0.5
						V301.4z M231,301.4h0.5v-9.4H231V301.4z M229.3,301.4h1v-9.4h-1V301.4z M236.4,292.1v9.4h0.5v-9.4H236.4z M235.1,301.4h0.5
						v-9.4h-0.5V301.4z M225,301.4h0.1v-9.4H225V301.4z M225.9,301.4h0.1v-9.4h-0.1V301.4z M226.6,301.4h0.1v-9.4h-0.1V301.4z
						 M225.4,301.6h0.1v-9.4h-0.1V301.6z M234.2,301.6h0.2v-9.4h-0.2V301.6z M236,301.6h0.1v-9.4H236V301.6z M227.5,301.4h0.1v-9.4
						h-0.1V301.4z M232.6,301.4h0.1v-9.4h-0.1V301.4z M230.7,301.4h0.1v-9.4h-0.1V301.4z"/>
				</g>
				<g>
					<rect x="222.4" y="244.8" style="fill:#FFFFFF;" width="13.5" height="10.1"/>
					<path style="fill:#2F2A2F;" d="M223.6,253.7h0.5v-8h-0.5V253.7z M231.1,253.7h0.4v-8h-0.4V253.7z M227,253.7h0.5v-8H227V253.7z
						 M229.4,253.7h0.5v-8h-0.5V253.7z M228,253.7h0.9v-8H228V253.7z M234,245.7v8h0.5v-8H234z M232.9,253.7h0.5v-8h-0.5V253.7z
						 M224.3,253.7h0.1v-8h-0.1V253.7z M225.1,253.7h0.1v-8h-0.1V253.7z M225.6,253.7h0.1v-8h-0.1V253.7z M224.6,253.8h0.1v-8h-0.1
						V253.8z M232.1,253.8h0.1v-8h-0.1V253.8z M233.7,253.8h0.1v-8h-0.1V253.8z M226.4,253.7h0.1v-8h-0.1V253.7z M230.7,253.7h0.1
						v-8h-0.1V253.7z M229.2,253.7h0.1v-8h-0.1V253.7z"/>
				</g>
				<g>
					<rect x="209.7" y="205.5" style="fill:#FFFFFF;" width="13.5" height="10.1"/>
					<path style="fill:#2F2A2F;" d="M210.9,214.5h0.5v-8h-0.5V214.5z M218.5,214.5h0.4v-8h-0.4V214.5z M214.4,214.5h0.5v-8h-0.5
						V214.5z M216.8,214.5h0.5v-8h-0.5V214.5z M215.3,214.5h0.9v-8h-0.9V214.5z M221.4,206.4v8h0.5v-8H221.4z M220.2,214.5h0.5v-8
						h-0.5V214.5z M211.6,214.5h0.1v-8h-0.1V214.5z M212.4,214.5h0.1v-8h-0.1V214.5z M213,214.5h0.1v-8H213V214.5z M212,214.6h0.1
						v-8H212V214.6z M219.5,214.6h0.1v-8h-0.1V214.6z M221.1,214.6h0.1v-8h-0.1V214.6z M213.8,214.5h0.1v-8h-0.1V214.5z
						 M218.1,214.5h0.1v-8h-0.1V214.5z M216.5,214.5h0.1v-8h-0.1V214.5z"/>
				</g>
			</g>
		</g>
	</g>
	<g>
		<g>
			<g>
				<path style="fill:#04529D;" d="M193.3,289c-0.1-4.2,2.7-7.9,6.1-9.1c3.4-1.3,6.9-0.3,8.9,1.3c2.1,1.6,3,3.7,3.4,5.1
					c0.3,1.4,0.2,2.2,0.3,2.2c0,0,0-0.8-0.4-2.2c-0.4-1.4-1.4-3.3-3.5-4.7c-2-1.5-5.3-2.2-8.3-0.9c-3,1.2-5.6,4.5-5.4,8.3
					c0.1,3.8,2.8,7,5.9,8c3.1,1.1,6.3,0.2,8.3-1.3c2-1.5,2.9-3.5,3.3-4.9c0.3-1.4,0.3-2.2,0.3-2.2c0,0,0.1,0.8-0.2,2.2
					c-0.3,1.4-1.1,3.5-3.1,5.3c-2,1.7-5.4,2.8-8.8,1.7C196.4,296.7,193.4,293.2,193.3,289z"/>
				<path style="fill:#04529D;" d="M208.1,282.3c-1.9,1.6-5.2,2.4-8.3,1.3c-1.1-0.4-2.1-1-3-1.8c-0.3,0.2-0.5,0.3-0.7,0.5
					c1,1,2.2,1.7,3.5,2c3.4,1.1,6.9,0,8.8-1.7c0.2-0.2,0.4-0.4,0.6-0.5c-0.1-0.1-0.2-0.2-0.3-0.4C208.5,282,208.3,282.1,208.1,282.3
					z"/>
				<path style="fill:#04529D;" d="M200,294.1c3.1-1.3,6.3-0.5,8.3,0.9c0.2,0.1,0.4,0.3,0.6,0.4c0.1-0.1,0.2-0.2,0.3-0.3
					c-0.2-0.2-0.4-0.4-0.6-0.5c-2.1-1.6-5.5-2.6-8.9-1.3c-1.2,0.4-2.4,1.2-3.4,2.2c0.3,0.1,0.5,0.3,0.8,0.5
					C198,295.1,199,294.5,200,294.1z"/>
				<path style="fill:#04529D;" d="M207,288.7c0.1,2.9-0.5,5.6-1.5,7.3c-0.5,0.9-1.1,1.4-1.6,1.7c-0.5,0.2-0.8,0.2-0.8,0.2
					c0,0.1,1.3-0.2,1.9-2.1c0.7-1.7,1-4.3,1-7.1c-0.1-2.8-0.5-5.4-1.3-7c-0.7-1.8-2.1-2-2-2c0,0,0.3-0.1,0.8,0.1
					c0.5,0.2,1.1,0.8,1.6,1.6C206.2,283.1,206.9,285.7,207,288.7z"/>
				<path style="fill:#04529D;" d="M198.8,288.9c-0.1-2.9,0.5-5.6,1.5-7.3c0.5-0.9,1.1-1.4,1.6-1.7c0.5-0.2,0.8-0.2,0.8-0.2
					c0-0.1-1.3,0.2-1.9,2.1c-0.7,1.7-1,4.3-1,7.1c0.1,2.8,0.5,5.4,1.3,7c0.7,1.8,2.1,2,2,2c0,0-0.3,0.1-0.8-0.1
					c-0.5-0.2-1.1-0.8-1.6-1.6C199.6,294.5,198.9,291.8,198.8,288.9z"/>
				<path style="fill:#04529D;" d="M203.3,288.8c0.1,5-0.2,9.1-0.2,9.1s-0.6-4.1-0.7-9.1c-0.1-5,0.2-9.1,0.2-9.1
					S203.2,283.7,203.3,288.8z"/>
				<path style="fill:#04529D;" d="M202.8,288.3c5-0.1,9.1,0.2,9.1,0.2s-4.1,0.6-9.1,0.7c-5,0.1-9.1-0.2-9.1-0.2
					S197.8,288.4,202.8,288.3z"/>
			</g>
			<g>
				<path style="fill:#F79222;" d="M216.9,295.2c-0.6-3-2.5-4.8-4-6.5c-0.3-0.3-0.6-0.6-0.9-0.9c0.2,0.7,0,1.4-0.1,2.1
					c1.4,1.5,3,3.5,3.2,5.3c0.4,1.8-2,2.3-4.3,2c-4.7-0.7-9.1-2.9-12.8-5.2c-3.7-2.3-6.8-4.9-8.8-7.6c-1-1.3-1.6-2.8-1.4-3.9
					c0.2-1.2,1.3-1.6,2.2-1.8c1.7-0.4,2.8-0.1,2.8-0.2c0,0.1-1-0.3-2.8-0.1c-0.8,0.1-2.2,0.4-2.7,1.9c-0.4,1.5,0.3,3.1,1.2,4.6
					c1.9,3,5,5.9,8.8,8.5c3.8,2.5,8.3,5,13.5,5.8c1.3,0.1,2.7,0.2,4-0.3C216.2,298.6,217.3,296.8,216.9,295.2z"/>
			</g>
			<g>
				<path style="fill:#007BBF;" d="M214.1,280.4c-2.5-1-4.6-0.4-6.6,0c-0.1,0-0.3,0.1-0.4,0.1c0.6,0.3,1.1,0.8,1.6,1.2
					c1.6-0.3,3.3-0.4,4.6,0.2c1.5,0.6,0.8,2.7-0.5,4.4c-2.7,3.4-6.3,5.8-9.7,7.6c-3.4,1.8-6.8,3-9.6,3.2c-1.4,0.1-2.8-0.1-3.5-0.8
					c-0.8-0.8-0.6-1.9-0.4-2.6c0.5-1.6,1.2-2.3,1.1-2.3c0,0-0.7,0.6-1.4,2.2c-0.3,0.7-0.7,2,0.2,3.1c0.9,1,2.4,1.3,4,1.3
					c3.1,0,6.6-1,10.3-2.8c3.6-1.8,7.4-4.1,10.4-7.9c0.7-1,1.4-2,1.7-3.4C216.2,282.7,215.4,280.9,214.1,280.4z"/>
			</g>
		</g>
		<g>
			<path style="fill:#F79222;" d="M204.4,277.9l0.6-6.3c4.3-2.4,4.6-2.6,5.8-4.1c0.5-0.7,1-1.9-1.4-1.3c-0.3-0.1-1.5-0.4-2.5,0.8
				l-4,2.2l-7.9-0.3l-6-0.1c-0.7,0.1-1,0-1.2,0.8l6.9,1.6l2.6,1.1l-3,1.6l-2.2-1.4c-0.4-0.2-0.4-0.2-0.7-0.2
				c-0.3,0.1-0.6,0.2-0.6,0.2l0.7,1.9l-2.5-0.4c-0.4-0.1-1,0-1.2,0.5l3.3,1.7c-0.5,0.6,0.5,0.6,0.8,0.5l1.8,1.3
				c0.3,0,0.7-0.2,0.6-0.6l-0.4-1.1c1.4-0.4,4.1-1.4,6.2-2.2l2,1.1l1.1,3.2C203.8,278.4,204.1,278.2,204.4,277.9z"/>
		</g>
	</g>
	<g>
		<g>
			<g>
				<path style="fill:#04529D;" d="M132.4,52.2c-0.1-3.6,2.3-6.6,5.1-7.6c2.8-1.1,5.8-0.3,7.5,1.1c1.8,1.4,2.6,3.1,2.8,4.3
					c0.3,1.2,0.2,1.9,0.2,1.9c0,0,0-0.7-0.3-1.8c-0.3-1.1-1.2-2.8-2.9-4c-1.7-1.2-4.4-1.8-7-0.8c-2.6,1-4.7,3.8-4.6,7
					c0.1,3.2,2.3,5.9,4.9,6.7c2.6,0.9,5.3,0.2,7-1.1c1.7-1.3,2.5-3,2.7-4.1c0.3-1.2,0.2-1.9,0.3-1.9c0,0,0.1,0.7-0.1,1.9
					c-0.2,1.2-0.9,3-2.6,4.4c-1.7,1.5-4.5,2.4-7.4,1.5C135,58.7,132.4,55.8,132.4,52.2z"/>
				<path style="fill:#04529D;" d="M144.8,46.5c-1.6,1.3-4.3,2.1-7,1.1c-0.9-0.3-1.8-0.8-2.5-1.5c-0.2,0.1-0.4,0.3-0.6,0.4
					c0.9,0.8,1.9,1.4,2.9,1.7c2.9,0.9,5.8,0,7.4-1.5c0.2-0.1,0.3-0.3,0.5-0.5c-0.1-0.1-0.2-0.2-0.2-0.3
					C145.1,46.3,145,46.4,144.8,46.5z"/>
				<path style="fill:#04529D;" d="M138,56.4c2.6-1.1,5.3-0.5,7,0.8c0.2,0.1,0.3,0.2,0.5,0.4c0.1-0.1,0.2-0.2,0.3-0.2
					c-0.2-0.2-0.3-0.3-0.5-0.4c-1.7-1.4-4.7-2.2-7.5-1.1c-1,0.4-2,1-2.9,1.9c0.2,0.1,0.4,0.3,0.6,0.4
					C136.3,57.4,137.1,56.8,138,56.4z"/>
				<path style="fill:#04529D;" d="M143.9,51.9c0.1,2.5-0.4,4.7-1.2,6.2c-0.4,0.7-0.9,1.2-1.3,1.4c-0.4,0.2-0.7,0.1-0.7,0.1
					c0,0.1,1.1-0.2,1.6-1.7c0.6-1.4,0.9-3.6,0.8-6c-0.1-2.4-0.4-4.5-1.1-5.9c-0.6-1.5-1.7-1.7-1.7-1.7c0,0,0.3-0.1,0.7,0.1
					c0.4,0.2,0.9,0.7,1.4,1.3C143.2,47.2,143.8,49.4,143.9,51.9z"/>
				<path style="fill:#04529D;" d="M137,52.1c-0.1-2.5,0.4-4.7,1.2-6.2c0.4-0.7,0.9-1.2,1.3-1.4c0.4-0.2,0.7-0.1,0.7-0.1
					c0-0.1-1.1,0.2-1.6,1.7c-0.6,1.4-0.9,3.6-0.8,6c0.1,2.4,0.4,4.5,1.1,5.9c0.6,1.5,1.7,1.7,1.7,1.7c0,0-0.3,0.1-0.7-0.1
					c-0.4-0.2-0.9-0.7-1.4-1.3C137.7,56.8,137.1,54.5,137,52.1z"/>
				<path style="fill:#04529D;" d="M140.8,52c0.1,4.2-0.2,7.7-0.2,7.7s-0.5-3.4-0.6-7.6c-0.1-4.2,0.2-7.7,0.2-7.7
					S140.7,47.8,140.8,52z"/>
				<path style="fill:#04529D;" d="M140.4,51.6c4.2-0.1,7.7,0.2,7.7,0.2s-3.4,0.5-7.6,0.6c-4.2,0.1-7.7-0.2-7.7-0.2
					S136.2,51.7,140.4,51.6z"/>
			</g>
			<g>
				<path style="fill:#F79222;" d="M152.3,57.4c-0.5-2.5-2.1-4-3.4-5.4c-0.3-0.3-0.5-0.5-0.8-0.7c0.1,0.6,0,1.2-0.1,1.8
					c1.2,1.3,2.5,2.9,2.7,4.5c0.3,1.5-1.7,1.9-3.6,1.7c-3.9-0.6-7.7-2.5-10.8-4.4c-3.1-2-5.8-4.1-7.4-6.4c-0.8-1.1-1.4-2.3-1.2-3.3
					c0.2-1,1.1-1.4,1.8-1.5c1.5-0.3,2.3-0.1,2.3-0.1c0,0-0.8-0.3-2.4-0.1c-0.7,0.1-1.9,0.4-2.2,1.6c-0.3,1.2,0.3,2.6,1,3.9
					c1.6,2.5,4.2,5,7.4,7.1c3.2,2.1,7,4.2,11.4,4.9c1.1,0.1,2.3,0.2,3.4-0.2C151.6,60.3,152.6,58.7,152.3,57.4z"/>
			</g>
			<g>
				<path style="fill:#007BBF;" d="M149.9,45c-2.1-0.8-3.9-0.4-5.6,0c-0.1,0-0.2,0.1-0.3,0.1c0.5,0.3,0.9,0.6,1.4,1
					c1.3-0.2,2.8-0.3,3.9,0.2c1.3,0.5,0.7,2.3-0.4,3.7c-2.3,2.8-5.3,4.9-8.2,6.4c-2.9,1.5-5.7,2.5-8.1,2.7c-1.2,0.1-2.3-0.1-3-0.7
					c-0.6-0.6-0.5-1.6-0.3-2.2c0.4-1.3,1-1.9,1-1.9c0,0-0.6,0.5-1.2,1.8c-0.3,0.6-0.6,1.7,0.2,2.6c0.8,0.9,2.1,1.1,3.3,1.1
					c2.6,0,5.6-0.9,8.6-2.3c3-1.5,6.3-3.5,8.8-6.6c0.6-0.8,1.2-1.7,1.4-2.8C151.7,46.9,151,45.4,149.9,45z"/>
			</g>
		</g>
		<g>
			<path style="fill:#F79222;" d="M141.7,42.9l0.5-5.3c3.7-2.1,3.8-2.2,4.9-3.5c0.4-0.6,0.8-1.6-1.2-1.1c-0.2-0.1-1.3-0.3-2.1,0.6
				l-3.3,1.9l-6.6-0.2l-5.1-0.1c-0.6,0.1-0.9,0-1,0.6l5.8,1.3l2.2,1l-2.5,1.4l-1.8-1.2c-0.3-0.1-0.3-0.2-0.5-0.1
				c-0.2,0.1-0.5,0.2-0.5,0.2l0.6,1.6l-2.1-0.4c-0.3-0.1-0.8,0-1,0.4l2.8,1.4c-0.4,0.5,0.4,0.5,0.7,0.4l1.5,1.1
				c0.3,0,0.6-0.2,0.5-0.5l-0.3-0.9c1.2-0.3,3.4-1.2,5.2-1.9l1.7,0.9l0.9,2.7C141.2,43.2,141.5,43.1,141.7,42.9z"/>
		</g>
	</g>
</g>
<g>
	<g>
		<g>
			<g>
				<path style="fill:#F1EFF1;" d="M453.4,152c0,1.6-0.8,2.8-2.1,2.8c-0.6,0-1-0.3-1.4-0.7l-0.1,0.6H449v-7.4l0.9-0.1v2.9
					c0.4-0.5,0.8-0.8,1.5-0.8C452.6,149.3,453.4,150.3,453.4,152z M452.4,152c0-1.5-0.5-2-1.2-2c-0.6,0-1,0.4-1.2,0.8v2.5
					c0.3,0.4,0.7,0.7,1.2,0.7C451.9,154.1,452.4,153.5,452.4,152z"/>
				<path style="fill:#F1EFF1;" d="M457,154.7c-0.4,1.1-1,1.9-2.4,2.1l-0.1-0.7c1.1-0.2,1.4-0.6,1.7-1.4h-0.3l-1.8-5.3h1l1.4,4.6
					l1.4-4.6h0.9L457,154.7z"/>
			</g>
		</g>
		<g>
			<path style="display:none;fill:#FFFFFF;" d="M490,172.1c-10,0-20,0-30.1,0c-0.3,0-0.3-0.1-0.3-0.3c0-9.7,0-19.4,0-29
				c0-0.3,0.1-0.3,0.3-0.3c20,0,40.1,0,60.1,0c0.3,0,0.3,0.1,0.3,0.3c0,9.7,0,19.4,0,29c0,0.3-0.1,0.3-0.3,0.3
				C510,172.1,500,172.1,490,172.1z"/>
			<path style="fill:#0E509F;" d="M462.2,153.8c0-0.1-0.1-0.2-0.1-0.3c0-0.2,0-0.4-0.1-0.5c0-0.2-0.1-0.3-0.1-0.5c0-0.2,0-0.3,0-0.5
				c0,0,0-0.1,0-0.1c0-0.2-0.1-0.3-0.1-0.5c0-0.2,0-0.3,0-0.5c0-0.1,0-0.1,0-0.2c0,0,0,0,0-0.1c0-0.3-0.1-0.5-0.1-0.8
				c0-0.1,0-0.2,0-0.2c0.1-0.2-0.1-0.4-0.1-0.6c0-0.1-0.1-0.2,0-0.3c0.6-0.1,1.2-0.1,1.8,0c0.1,0.1,0.2,0.2,0.2,0.3
				c0,0.2,0,0.3,0.1,0.5c0,0.1,0,0.3,0,0.4c0,0.1,0,0.3,0.1,0.4c0,0.1,0,0.2,0,0.3c0,0.1,0,0.3,0.1,0.4c0,0,0,0.1,0,0.1
				c0,0,0,0.1,0,0.1c0,0,0,0,0-0.1c0-0.1,0-0.3,0-0.4c0,0,0-0.1,0-0.1c0-0.1,0-0.1,0-0.2c0-0.1,0-0.3,0.1-0.4c0-0.2,0-0.3,0-0.5
				c0-0.1,0-0.1,0-0.2c0-0.2,0-0.4,0.1-0.6c0.4-0.1,0.9-0.2,1.3,0c0.1,0.1,0,0.2,0.1,0.3c0,0.1,0,0.2,0,0.3c0,0.1,0,0.2,0.1,0.3
				c0,0.1,0,0.3,0,0.4c0,0,0,0.1,0,0.1c0.1,0.1,0.1,0.2,0.1,0.3c0,0,0,0.1,0,0.1c0,0.1,0,0.3,0,0.4c0,0.1,0,0.1,0,0.2c0,0,0,0.1,0,0
				c0,0,0,0,0-0.1c0-0.1,0-0.3,0-0.4c0-0.1,0-0.1,0-0.2c0-0.1,0-0.1,0-0.2c0.1-0.2,0.1-0.3,0.1-0.5c0,0,0,0,0-0.1c0-0.1,0-0.2,0-0.3
				c0.1-0.2,0.1-0.3,0-0.5c0-0.1,0-0.2,0.1-0.3c0.6-0.1,1.2-0.1,1.9,0c0.1,0.1,0.1,0.3,0.1,0.5c0,0.2,0,0.3,0,0.5
				c0,0.2-0.1,0.3-0.1,0.5c0,0,0,0.1,0,0.1c-0.1,0.2,0,0.3,0,0.5c-0.1,0.2,0,0.5-0.1,0.7c0,0.1,0,0.1,0,0.2c0,0.1,0,0.2,0,0.3
				c-0.1,0.1,0,0.3-0.1,0.5c0,0.1,0,0.3,0,0.4c0,0.1,0,0.2-0.1,0.3c0,0.1,0,0.2,0,0.3c0,0.1,0,0.1-0.1,0.2c0,0.1,0,0.1,0,0.2
				c0,0.1,0,0.2,0,0.3c-0.1,0.1,0,0.3-0.1,0.5c0,0.1,0,0.3,0,0.4c0,0.1,0,0.2-0.1,0.3c0,0.1,0,0.2,0,0.3c0,0.1,0,0.2-0.1,0.3
				c-0.1,0.2,0,0.4-0.2,0.5c-0.5,0.1-1,0-1.6,0c-0.2,0-0.2-0.2-0.2-0.3c0-0.1,0-0.2-0.1-0.3c0-0.1,0-0.2,0-0.3
				c0-0.1-0.1-0.3-0.1-0.4c0-0.1,0-0.2,0-0.3c0-0.1,0-0.1-0.1-0.2c0-0.1,0-0.2-0.1-0.3c0,0-0.1,0-0.1-0.1c0-0.1,0-0.1,0-0.1
				c0,0,0,0,0-0.1c0,0,0,0,0,0c0,0,0,0,0,0c0,0,0,0,0,0.1c0,0,0,0,0,0.1c0,0,0,0.1,0,0.1c0,0.1-0.1,0.2-0.1,0.3c0,0.1,0,0.1,0,0.2
				c-0.1,0.1,0,0.3,0,0.4c0,0.2-0.1,0.4-0.1,0.6c0,0,0,0.1,0,0.1c-0.1,0.1,0,0.3-0.1,0.4l0,0c-0.2,0.2-0.5,0.1-0.7,0.1
				c-0.2,0-0.5,0-0.7,0c-0.1,0-0.3,0-0.4-0.2c-0.1-0.3-0.1-0.6-0.1-0.9c0-0.1,0-0.2,0-0.3c0-0.1,0-0.2,0-0.3c0-0.1,0-0.2,0-0.3
				c0,0,0,0,0-0.1c0-0.1,0-0.3-0.1-0.4C462.2,154,462.3,153.9,462.2,153.8z"/>
			<path style="fill:#0E509F;" d="M477.5,149.1c0.2-0.2,0.5-0.3,0.8-0.4c0.1,0,0.1-0.1,0.2-0.1c0.1,0,0.2,0,0.3,0
				c0.1,0,0.3,0,0.4,0.1c0.1,0,0.2,0,0.2,0.1c0.2,0,0.3,0.1,0.5,0.2c0.2,0,0.3,0.1,0.4,0.2c0,0,0.1,0.1,0.1,0.1
				c0.1,0.1,0.2,0.2,0.3,0.3c0.1,0.1,0.1,0.2,0.2,0.3c0,0.1,0.1,0.2,0.1,0.3c0.1,0.2,0,0.4,0.1,0.6c0,0.1,0,0.2,0,0.3l0,0
				c-0.1,0.1-0.1,0.1-0.2,0.1c-0.1,0-0.3-0.1-0.4,0c-0.2,0-0.5,0-0.7,0.1c-0.1,0-0.3,0-0.4,0c0,0-0.1,0-0.1,0c0,0-0.1,0-0.1,0
				c-0.1-0.1-0.1-0.2-0.2-0.3c0,0,0,0-0.1,0c0,0,0,0,0,0.1c0.1,0.1,0.1,0.2,0.2,0.2c0,0,0,0,0.1,0.1c0,0,0,0.1,0,0.1
				c0.1,0.2,0.4,0.3,0.6,0.5c0.2,0.1,0.4,0.3,0.6,0.4c0.1,0.1,0.2,0.2,0.3,0.3c0,0,0,0,0,0.1c0,0,0,0.1,0.1,0.1c0,0,0.1,0.1,0.1,0.1
				c0,0,0,0.1,0.1,0.1c0.1,0.2,0.1,0.3,0.2,0.5c0.1,0.1,0.1,0.2,0.1,0.3c0,0.2,0,0.5,0,0.7c0,0.1,0,0.2-0.1,0.2
				c-0.2,0.7-0.5,1.3-1.1,1.6c0,0-0.1,0-0.1,0.1c-0.1,0-0.1,0.1-0.2,0.1c-0.1,0.1-0.3,0.1-0.4,0.1c-0.2,0-0.5,0-0.7,0
				c-0.2,0-0.4,0-0.5-0.1c-0.1,0-0.2-0.1-0.3-0.1c-0.1,0-0.1-0.1-0.2-0.1c-0.5-0.2-0.7-0.7-0.8-1.2c-0.1-0.1-0.1-0.3-0.1-0.5
				c0-0.1,0-0.1,0-0.2c0-0.1,0-0.3-0.1-0.4c0-0.1,0-0.3,0.1-0.4l0,0c0-0.1,0.1-0.1,0.2-0.1c0.1,0,0.3,0,0.4,0c0.2,0,0.5,0,0.7-0.1
				c0.1,0,0.2,0,0.3,0c0.2,0.1,0.2,0.2,0.2,0.4c0,0.1,0,0.3,0.1,0.4c0.1,0.1,0.1,0.2,0.3,0.1c0.1-0.1,0-0.1,0-0.1
				c-0.1-0.2-0.3-0.3-0.4-0.5c-0.1-0.1-0.1-0.2-0.2-0.2c-0.1,0-0.2,0-0.2-0.1c-0.4-0.4-0.9-0.7-1.1-1.2c-0.1-0.2-0.2-0.3-0.2-0.5
				c-0.1-0.1,0-0.2-0.1-0.3c-0.2-0.3,0-0.6,0-0.9c0-0.1,0-0.1,0.1-0.1c0.1,0,0-0.1,0-0.1c0.2-0.2,0.2-0.5,0.4-0.6
				C477.2,149.3,477.4,149.2,477.5,149.1z"/>
			<path style="fill:#0E509F;" d="M474.4,150.2c0.3,0.1,0.6,0.4,0.7,0.7c0.1,0.1,0.1,0.3,0.2,0.4c0,0.1,0,0.1,0,0.2
				c0,0.1,0.1,0.3,0.1,0.4c0,0.9,0,1.8,0,2.7c0,0.2-0.1,0.3-0.1,0.5c0,0.2-0.1,0.4-0.1,0.6c-0.1,0.1-0.1,0.2-0.2,0.3
				c0,0,0,0.1-0.1,0.1c-0.1,0.1-0.1,0.1-0.2,0.2c-0.3,0.2-0.6,0.2-1,0l0,0c-0.1,0-0.2,0-0.3,0c-0.5,0.2-1,0.2-1.5,0l0,0
				c-0.1-0.1-0.1-0.2-0.1-0.4c0-0.6,0-1.1,0-1.7c0-1.8,0-3.6,0-5.4c0-0.2,0-0.3,0.1-0.5l0,0c0.1-0.1,0.3-0.1,0.5-0.1
				c0.3,0,0.7,0,1,0c0,0,0.1,0,0.1,0.1c0.1,0.4,0,0.9,0,1.3c0,0.1,0,0.3,0,0.4c0.1,0.1,0.1,0,0.2,0c0,0,0.1,0,0.1,0
				C474.1,150.1,474.2,150.2,474.4,150.2z"/>
			<path style="fill:#0E509F;" d="M481.6,155.7c0-0.1,0-0.1-0.1-0.2c-0.1-0.1-0.1-0.2-0.1-0.3c-0.1-0.4-0.1-0.8-0.1-1.3
				c0-0.8,0-1.6,0-2.4c0-0.1,0-0.1,0-0.2c0.1-0.3,0.2-0.6,0.6-0.8c0.1,0,0.1-0.1,0.1-0.1c0.1-0.1,0.2-0.2,0.4-0.1
				c0.1-0.1,0.3-0.1,0.4-0.1c0.1,0,0.3,0,0.4,0c0.1,0,0.2,0.1,0.4,0.1c0,0,0.1,0,0.1,0.1c0.4,0,0.6,0.2,0.8,0.5c0,0,0,0.1,0.1,0.1
				c0,0,0.1,0.1,0.1,0.1c0,0,0,0.1,0.1,0.1c0,0.1,0.1,0.1,0.1,0.2c0.1,0.2,0.1,0.3,0.1,0.5c0,1.1,0,2.1,0,3.2
				c-0.1,0.1-0.1,0.3-0.2,0.5c0,0.1,0,0.1,0,0.2c-0.1,0.1-0.2,0.2-0.3,0.4c-0.2,0.1-0.3,0.3-0.5,0.3c-0.1,0.1-0.2,0.1-0.4,0.2
				c-0.1,0-0.2,0-0.4,0.1c-0.1,0-0.3,0-0.4,0c-0.2-0.1-0.3,0-0.5-0.1c-0.2-0.1-0.5-0.2-0.7-0.4C481.7,155.9,481.6,155.8,481.6,155.7
				z"/>
			<path style="fill:#0E509F;" d="M485.7,156.4c-0.2-0.1-0.4-0.4-0.5-0.6c0-0.1,0-0.1,0-0.2c-0.1-0.5,0-1,0-1.4c0-1.1,0-2.2,0-3.3
				c0-0.2,0-0.4,0.1-0.5c0.5-0.1,0.9-0.1,1.4,0c0.1,0.1,0.1,0.3,0.1,0.5c0,1.2,0,2.4,0,3.6c0,0,0,0.1,0.1,0.1l0,0
				c0.2-0.1,0.1-0.2,0.1-0.4c0-1.1,0-2.2,0-3.4c0-0.1,0-0.3,0.1-0.4c0.5-0.1,1-0.1,1.5,0c0.1,0.1,0.1,0.2,0.1,0.3c0,1.9,0,3.8,0,5.6
				c0,0.1,0,0.2,0,0.2c-0.1,0.2-0.3,0.1-0.5,0.1c-0.3,0-0.5,0-0.8,0c-0.1,0-0.2,0-0.2-0.1c-0.1-0.2-0.2-0.1-0.3-0.1l0,0
				c-0.1,0.1-0.2,0.1-0.3,0.2c-0.1,0-0.1,0-0.2,0.1c-0.1,0-0.3,0-0.4-0.1C485.9,156.5,485.8,156.5,485.7,156.4
				C485.8,156.4,485.7,156.4,485.7,156.4z"/>
			<path style="fill:#0E509F;" d="M496.8,150.3C496.8,150.3,496.8,150.3,496.8,150.3c0.4-0.1,0.6-0.1,0.9,0c0.1,0,0.1,0.1,0.2,0.1
				c0,0,0.1,0,0.1,0.1c0.1,0.1,0.2,0.1,0.4,0.2c0.1,0.1,0.2,0.2,0.3,0.3c0,0,0.1,0.1,0.1,0.1c0.1,0.1,0.1,0.2,0.2,0.3
				c0,0.1,0.1,0.2,0.1,0.4c0,0.1,0.1,0.2,0.1,0.3c0,0.3,0,0.5,0,0.8c0,0,0,0.1-0.1,0.1c0,0-0.1,0-0.1,0c-0.4,0-0.9,0-1.3,0
				c-0.3,0-0.4,0.1-0.4,0.3c0,0.4,0,0.8,0,1.2c0,0.1,0,0.2,0.1,0.1c0,0,0-0.1,0-0.1c0-0.2-0.1-0.5,0.1-0.7c0.2,0,0.5,0,0.7,0
				c0.2,0.1,0.5-0.1,0.8,0.1c0,0,0,0,0.1,0.1c0.1,0.3,0,0.5,0.1,0.8c0,0.2,0,0.4-0.1,0.5c0,0.1,0,0.2-0.1,0.3c0,0,0,0.1-0.1,0.1
				c-0.1,0.3-0.4,0.5-0.7,0.6c-0.1,0.1-0.3,0.1-0.4,0.1c0,0,0,0-0.1,0c-0.3,0.1-0.6,0.1-0.9,0c-0.1,0-0.1,0-0.2,0
				c-0.1-0.1-0.3-0.1-0.4-0.2l0,0c-0.1-0.1-0.2-0.1-0.3-0.2c-0.1-0.1-0.1-0.2-0.2-0.3c0,0,0-0.1,0-0.1c0,0,0,0-0.1-0.1
				c0,0,0-0.1,0-0.1c-0.1-0.1-0.1-0.3-0.2-0.5c0-0.1-0.1-0.3-0.1-0.4c0-0.9,0-1.9,0-2.8c0,0,0,0,0-0.1c0,0,0-0.1,0-0.1
				c0.1-0.1,0-0.3,0.1-0.4c0.1-0.3,0.2-0.6,0.6-0.7C496.3,150.4,496.5,150.3,496.8,150.3z"/>
			<path style="fill:#0E509F;" d="M471.5,151.3c0,0.1,0.1,0.2,0.1,0.3c0,0.2,0,0.3,0.1,0.4c0,0.3,0.1,0.5-0.1,0.8
				c-0.2,0.1-0.5,0.1-0.7,0.1c-0.3,0-0.7,0-1,0c0,0-0.1,0-0.1,0.1c-0.1,0.3,0,0.7,0,1c0,0.2,0,0.4,0,0.5c0.1,0.2,0.2,0.1,0.2-0.1
				c0-0.2-0.1-0.5,0.1-0.7c0.2-0.1,0.4,0,0.7,0c0.1,0,0.3,0,0.4,0c0.2,0,0.3,0,0.5,0.1c0.1,0.4,0,0.8,0,1.1c0,0.1,0,0.1-0.1,0.2
				c0,0,0,0.1-0.1,0.1c-0.1,0.4-0.3,0.7-0.7,0.8c0,0-0.1,0-0.1,0.1l0,0c-0.1,0.1-0.3,0.2-0.5,0.2c0,0-0.1,0-0.1,0
				c-0.3,0.1-0.7,0-1,0c-0.4-0.2-0.9-0.5-1-1c-0.1-0.2-0.2-0.3-0.2-0.5c0,0,0-0.1,0-0.1c0-1,0-2.1,0-3.1c0,0,0,0,0-0.1
				c0-0.1,0.1-0.2,0.1-0.4c0-0.1,0-0.1,0.1-0.2c0.1-0.1,0.2-0.2,0.3-0.4c0.2-0.2,0.4-0.3,0.7-0.4c0.1-0.1,0.3,0,0.4-0.1
				c0.1,0,0.3,0,0.4,0c0.1,0,0.2,0.1,0.3,0.1c0.1,0,0.3,0.1,0.4,0.1C471,150.6,471.2,150.9,471.5,151.3
				C471.4,151.3,471.4,151.3,471.5,151.3z"/>
			<path style="fill:#0E509F;" d="M492.5,150.4c0,0,0.1,0,0.1,0c0.1-0.1,0.2-0.1,0.3-0.1c0.1,0,0.2-0.1,0.3-0.1c0.1,0,0.2,0,0.4,0
				c0.2,0.1,0.4,0.1,0.5,0.1c0.4,0.2,0.7,0.5,0.9,0.9c0.1,0.2,0.1,0.4,0.2,0.6c0,0.1,0,0.1,0,0.2c0,0.2,0,0.4,0,0.6
				c0,0.1-0.1,0.1-0.1,0.2c-0.1,0-0.1,0-0.2,0.1c-0.2,0-0.4,0-0.6,0.1c-0.3,0-0.5,0.1-0.7-0.1c0,0-0.1-0.1-0.1-0.1
				c-0.1-0.2,0-0.5-0.1-0.7c-0.1,0-0.1,0-0.1,0.1c0,0.8,0,1.7,0,2.5c0,0,0,0,0,0c0,0,0,0,0.1,0c0-0.2,0-0.5,0.1-0.7
				c0,0,0.1-0.1,0.1-0.1c0.1,0,0.2,0,0.2,0c0.2,0.1,0.5,0,0.7,0c0.2,0,0.4,0,0.5,0c0.1,0,0.1,0.1,0.1,0.1c0.1,0.2,0,0.4,0.1,0.5
				c0,0.1,0,0.2,0,0.2c-0.1,0.1,0,0.2-0.1,0.4c0,0.2,0,0.3-0.2,0.4c0,0,0,0,0,0.1c0,0,0,0.1-0.1,0.1c0,0,0,0,0,0.1
				c0,0,0,0.1-0.1,0.1c-0.1,0.1-0.2,0.3-0.4,0.4c0,0-0.1,0-0.1,0.1c-0.1,0.1-0.2,0.1-0.3,0.2c-0.1,0.1-0.3,0-0.4,0.2
				c-0.1,0-0.3,0-0.4,0c-0.1-0.1-0.3,0-0.4-0.1c-0.2,0-0.3-0.2-0.4-0.2c-0.1-0.2-0.3-0.3-0.4-0.4c0,0,0-0.1-0.1-0.1c0,0,0-0.1,0-0.1
				c-0.1,0-0.1-0.1-0.1-0.2c-0.1-0.1-0.1-0.3-0.1-0.5c0-0.1,0-0.2,0-0.2c0-0.9,0-1.8,0-2.8c0-0.1,0-0.2,0.1-0.3l0,0
				c0-0.1,0-0.3,0.1-0.4c0-0.3,0.3-0.4,0.4-0.5C492.4,150.6,492.4,150.5,492.5,150.4z"/>
			<path style="fill:#0E509F;" d="M490.8,152.3c-0.1,0.1-0.1,0.1-0.1,0.2c0,0.1,0,0.3,0,0.4c0,1,0,2,0,3c0,0.2,0,0.4-0.1,0.5
				c-0.5,0.1-1.1,0.1-1.6,0c-0.1-0.1-0.1-0.2-0.1-0.3c0-1.9,0-3.8,0-5.7c0-0.1,0-0.2,0-0.2c0.1-0.1,0.2-0.1,0.4-0.1
				c0.4,0,0.7,0,1.1,0c0.2,0,0.2,0.3,0.4,0.1c0-0.1,0.1-0.1,0.2-0.1c0.2-0.1,0.4-0.1,0.5,0.1c0.1,0.5,0,1,0,1.5c0,0,0,0.1-0.1,0.1
				c-0.1,0.1-0.2,0.1-0.3,0.1C491,152,490.9,152.1,490.8,152.3z"/>
			<path style="fill:#FBE2C6;" d="M471.6,152.9c0-0.3,0-0.6,0-0.8c0-0.1,0-0.1,0.1-0.1c0.1-0.1,0.1-0.2,0.1-0.4c0-0.9,0-1.7,0-2.6
				c0-0.1-0.1-0.3,0.2-0.4c0,2.6,0,5.3,0,7.9c-0.2,0-0.2-0.2-0.2-0.3c0-0.9,0-1.9,0-2.8C471.7,153.2,471.8,153,471.6,152.9
				C471.6,152.9,471.6,152.9,471.6,152.9z"/>
			<path style="fill:#FBE2C6;" d="M484.9,155.1c0.1-0.9,0-1.8,0-2.7c0-0.2,0-0.4,0-0.7c0,0,0,0,0,0c0,0,0-0.1,0.1-0.1
				c0.1-0.3,0-0.6,0.1-0.9c0-0.1-0.1-0.3,0.1-0.3c0.1,0.1,0.1,0.2,0.1,0.3c0,1.5,0,3,0,4.6c0,0.1,0,0.2-0.1,0.3
				c-0.1-0.1,0-0.3-0.1-0.4C485,155.1,484.9,155.1,484.9,155.1z"/>
			<path style="fill:#DAC4AB;" d="M497.2,154.6c-0.1-0.5,0-1,0-1.6c0-0.2,0.1-0.2,0.3-0.2c0.5,0,1,0,1.5,0c-0.1,0.2-0.2,0.1-0.3,0.1
				c-0.4,0-0.8,0-1.3,0c0,0,0,0.1,0,0c0,0,0,0,0,0c0.5,0,1-0.1,1.6,0c-0.4,0.1-0.8,0-1.2,0.1c-0.2,0-0.3,0-0.5,0
				c-0.1,0.3,0,0.6,0,0.9C497.4,154.2,497.6,154.5,497.2,154.6z"/>
			<path style="fill:#F9CA8F;" d="M488.6,150.2c0.1,0.1,0.1,0.2,0.1,0.3c0,1.9,0,3.8,0,5.7c0,0.1,0,0.2-0.1,0.3c0,0,0,0,0-0.1
				C488.6,154.4,488.6,152.3,488.6,150.2C488.6,150.3,488.6,150.3,488.6,150.2z"/>
			<path style="fill:#F9CA8F;" d="M488.9,156.5c-0.1-0.1-0.1-0.2-0.1-0.3c0-1.9,0-3.8,0-5.6c0-0.1,0-0.2,0.1-0.3c0,0,0,0,0,0.1
				C489,152.3,489,154.4,488.9,156.5C488.9,156.4,488.9,156.5,488.9,156.5z"/>
			<path style="fill:#F9BE77;" d="M485.2,155.6c0-1.7,0-3.5,0-5.2c0,0,0,0,0,0c0.1,0.1,0,0.2,0,0.4c0,1.5,0,3.1,0,4.6
				c0,0.1,0,0.3,0,0.4c0,0,0,0.1,0,0.1C485.2,155.7,485.2,155.6,485.2,155.6z"/>
			<path style="fill:#C2D3E7;" d="M485.3,155.7c-0.1-0.1-0.1-0.3-0.1-0.4c0-1.7,0-3.3,0-5c0,0,0,0,0-0.1c0,0,0.1,0,0.1,0
				c0,0.6,0,1.2,0,1.8C485.3,153.2,485.3,154.5,485.3,155.7z"/>
			<path style="fill:#F9CB92;" d="M495.1,152.7c0,0,0.1-0.1,0.1-0.1c0.1-0.2,0.1-0.4,0-0.7c0,0,0-0.1,0-0.1c0-0.1,0-0.1,0.1-0.1
				c0.1,0.1,0.1,0,0.1,0c0,0,0,0,0,0c0.1,0.8,0,1.5,0,2.3c0,0.2,0,0.3,0,0.5c0,0,0,0.1,0,0.1c-0.1,0.1-0.2,0-0.2-0.1
				c0-0.2,0-0.4,0-0.6c0,0-0.1,0-0.1-0.1c0-0.1,0-0.1,0-0.1c0.2-0.3,0.1-0.7,0-1C495.2,152.8,495.1,152.8,495.1,152.7z"/>
			<path style="fill:#F9CA90;" d="M471.6,152.9c-0.1,0.2-0.2,0.1-0.3,0.1c-0.3,0-0.6,0-0.8,0c-0.6,0-0.6,0-0.6,0.6
				c0,0.3,0.1,0.6-0.1,0.9c-0.1-0.5-0.1-1.1,0-1.6l0,0C470.4,152.9,471,152.9,471.6,152.9z"/>
			<path style="fill:#F8CA91;" d="M465.5,148.8c-0.4-0.2-0.9-0.2-1.3,0c0,0-0.1,0-0.1,0c0-0.1,0.1-0.2,0.2-0.2c0.4,0,0.9-0.1,1.3,0
				c0,0,0.1,0.1,0.1,0.1C465.6,148.8,465.5,148.9,465.5,148.8z"/>
			<path style="fill:#C2D3E6;" d="M487.1,150.3c0,1.3,0,2.6,0,3.9c0,0.1,0.1,0.4-0.2,0.3c0,0,0.1,0,0.1-0.1c0.1-0.9,0-1.7,0-2.6
				C487,151.3,486.9,150.8,487.1,150.3L487.1,150.3C487,150.2,487.1,150.2,487.1,150.3z"/>
			<path style="fill:#E5EAF0;" d="M481.1,154.7c0-0.1,0-0.1,0-0.2c0-0.1,0.1-0.2,0.1-0.3c0-0.2,0-0.3,0-0.5c0,0-0.1,0-0.1,0
				c0-0.1,0-0.2,0-0.3c0.2,0,0.1-0.2,0.1-0.3c0-0.5-0.1-0.9,0.1-1.4c0.1,0.1,0.1,0.2,0.1,0.3c0,0.9,0,1.8,0,2.7c0,0.1,0,0.2-0.1,0.3
				C481.2,154.9,481.3,154.7,481.1,154.7z"/>
			<path style="fill:#F9CC95;" d="M490.7,152.8c0-0.1,0-0.2,0.1-0.3c0.1,0,0.1,0.1,0.1,0.2c0,1.2,0,2.3,0,3.5c0,0.1,0,0.2-0.1,0.3
				c-0.1-0.1-0.1-0.3-0.1-0.4c0-1,0-2,0-3C490.6,152.9,490.7,152.9,490.7,152.8z"/>
			<path style="fill:#C1D2E7;" d="M486.8,154.4c-0.1-0.1-0.1-0.2-0.1-0.4c0-1.3,0-2.5,0-3.8c0,0,0.1,0,0.1,0c0,0,0,0,0,0.1
				c0.1,0.4,0,0.8,0,1.2c0,0.8,0,1.7,0,2.5C486.8,154.2,486.9,154.3,486.8,154.4z"/>
			<path style="fill:#F7AE57;" d="M486.8,154.4c0-1.4,0-2.7,0-4.1c0.1,0,0.1,0.1,0.1,0.2C486.9,151.8,486.9,153.1,486.8,154.4
				C486.8,154.4,486.8,154.4,486.8,154.4z"/>
			<path style="fill:#F7AE57;" d="M487,150.3c0,1.3,0,2.5,0,3.8c0,0.1,0,0.2-0.1,0.3c0-1.3,0-2.6,0-3.9
				C486.9,150.4,486.9,150.3,487,150.3z"/>
			<path style="fill:#FBE2C6;" d="M475.3,154.8c0-0.9,0-1.9,0-2.8c0,0,0,0,0-0.1c0,0,0-0.1,0.1-0.1c0.1,0.1,0,0.3,0.1,0.4
				c-0.1,0.7,0,1.4,0,2.2c0,0.2,0,0.4-0.1,0.6C475.3,154.9,475.3,154.8,475.3,154.8z"/>
			<path style="fill:#F9CC95;" d="M471.9,156.5c0.4,0,0.7,0,1.1,0c0.2,0,0.3,0,0.4-0.2c0.1-0.2,0.2,0.1,0.3,0.1
				c-0.5,0.3-1,0.2-1.6,0.2C472,156.6,471.9,156.6,471.9,156.5z"/>
			<path style="fill:#F9CA8D;" d="M463.5,148.7c-0.6,0-1.3,0-1.9,0c0,0,0-0.1,0-0.1c0,0,0.1,0,0.1,0c0.6,0,1.2,0,1.8,0
				C463.5,148.6,463.5,148.7,463.5,148.7C463.5,148.7,463.5,148.7,463.5,148.7z"/>
			<path style="fill:#F9CA8F;" d="M481.3,155c0-1.1,0-2.2,0-3.3c0-0.1-0.1-0.3,0.1-0.4c0,0,0.1,0,0,0.1c-0.1,0.8,0,1.6,0,2.4
				c0,0.4,0.1,0.9,0,1.3C481.3,155.1,481.3,155,481.3,155z"/>
			<path style="fill:#CAD9EA;" d="M481.3,155.1c0-1.1,0-2.2,0-3.3c0-0.1,0-0.3,0.1-0.4c0,1.3,0,2.5,0,3.8c0,0,0,0-0.1,0
				C481.4,155.2,481.4,155.2,481.3,155.1z"/>
			<path style="fill:#EECBA3;" d="M462.5,156.3c0.1,0.1,0.3,0.1,0.4,0.1c0.5,0,1,0,1.4,0c0,0.1-0.1,0.1-0.2,0.1c-0.4,0-0.9,0-1.3,0
				C462.6,156.6,462.5,156.5,462.5,156.3C462.5,156.3,462.5,156.3,462.5,156.3z"/>
			<path style="fill:#FFFFFF;" d="M489,156.5c0.5,0,1.1,0,1.6,0c0,0,0,0,0.1,0c0,0,0,0,0,0c0,0.1-0.1,0.1-0.2,0.1c-0.5,0-1,0-1.4,0
				C489,156.6,488.9,156.6,489,156.5C488.9,156.5,488.9,156.5,489,156.5C488.9,156.4,489,156.4,489,156.5z"/>
			<path style="fill:#F9CA90;" d="M490.7,152.9c0.1,0.1,0.1,0.2,0.1,0.4c0,1,0,2.1,0,3.1c0,0,0,0-0.1,0.1c0,0,0,0,0,0
				c-0.1-0.3,0-0.5,0-0.8c0-0.8,0-1.6,0-2.4C490.6,153.2,490.6,153,490.7,152.9z"/>
			<path style="fill:#FFFFFF;" d="M465.4,156.5c0.5,0.1,1.1-0.1,1.6,0.1c0,0,0,0.1-0.1,0.1c-0.5,0-1.1,0.1-1.6,0
				C465.3,156.5,465.3,156.5,465.4,156.5z"/>
			<path style="fill:#C2D3E7;" d="M467.9,151.7c0.1,0.1,0.1,0.1,0.1,0.2c0,1,0,2,0,3c-0.2,0-0.1-0.2-0.1-0.3
				C467.9,153.7,467.9,152.7,467.9,151.7C467.9,151.7,467.9,151.7,467.9,151.7z"/>
			<path style="fill:#FFFFFF;" d="M487.2,156.4c0.4,0,0.9,0,1.3,0c0,0,0.1,0,0.1,0c0,0,0,0,0,0c0,0,0,0.1-0.1,0.1
				C488.1,156.6,487.6,156.7,487.2,156.4C487.1,156.5,487.2,156.4,487.2,156.4z"/>
			<path style="fill:#F9CA8F;" d="M467.9,151.7c0,1,0,2,0,3c0,0,0,0-0.1,0c0-0.9,0-1.8,0-2.7C467.9,151.9,467.8,151.8,467.9,151.7z"
				/>
			<path style="fill:#F7AF57;" d="M491.6,154.6c0-0.9,0-1.7,0-2.6c0.1,0,0.1,0,0.1,0C491.7,152.8,491.7,153.7,491.6,154.6
				C491.7,154.6,491.7,154.6,491.6,154.6z"/>
			<path style="fill:#F9CC95;" d="M491.7,152C491.6,152,491.6,152,491.7,152c-0.1,0-0.2,0-0.2,0.1c0,0-0.1,0-0.1-0.1c0,0,0,0,0.1,0
				c0.1-0.5,0-1,0-1.5c0,0,0-0.1,0-0.1c0.2,0.3,0,0.6,0.1,1c0,0.1-0.1,0.3,0.2,0.3c0,0.1-0.1,0.2-0.1,0.3
				C491.7,151.9,491.7,151.9,491.7,152z"/>
			<path style="fill:#E4D2BC;" d="M468,151.2c0.1,0.1,0,0.2-0.1,0.4c0,0-0.1,0-0.1,0c-0.1,0-0.1,0-0.1-0.1c0-0.3,0.1-0.5,0.1-0.8
				c0.1,0,0.1,0,0.1,0.1c0,0.1-0.1,0.3,0,0.4C467.9,151.4,468,151.3,468,151.2z"/>
			<path style="fill:#F7C890;" d="M473.7,150.3c0,0.1-0.1,0.1-0.1,0.2c-0.2-0.1-0.1-0.2-0.1-0.3c0-0.5,0-1,0-1.5c0,0,0,0,0,0
				c0,0,0.1-0.1,0.1,0c0.1,0.5,0,0.9,0.1,1.4C473.6,150.1,473.5,150.2,473.7,150.3z"/>
			<path style="fill:#F9C88E;" d="M475.5,154.4c-0.1-0.5,0-0.9-0.1-1.4c0-0.2-0.1-0.5,0.1-0.8C475.5,153,475.5,153.7,475.5,154.4z"
				/>
			<path style="fill:#D5CFCA;" d="M461.7,149.6c0,0.4,0.2,0.7,0.1,1.1c-0.1-0.3-0.2-0.5-0.2-0.8
				C461.6,149.8,461.5,149.7,461.7,149.6C461.7,149.6,461.7,149.6,461.7,149.6z"/>
			<path style="fill:#E0C5A5;" d="M469.1,156.5c0.3-0.1,0.7,0,1,0C469.7,156.7,469.4,156.6,469.1,156.5z"/>
			<path style="fill:#EFE9E3;" d="M473.7,156.4c0.3,0,0.7,0.1,1,0C474.5,156.7,474,156.7,473.7,156.4z"/>
			<path style="fill:#E1C29D;" d="M476.7,150.4c0.1,0.3-0.1,0.6,0,0.9c0,0,0,0.1,0,0.1C476.4,151,476.5,150.7,476.7,150.4z"/>
			<path style="fill:#FBE2C6;" d="M497.2,154.6c0.2-0.2,0.1-0.4,0.1-0.6c0-0.3-0.1-0.7,0.1-1c0,0.3,0,0.5,0,0.8
				c0.1,0.3,0,0.6,0.1,0.8C497.3,154.8,497.3,154.8,497.2,154.6z"/>
			<path style="fill:#F9CA8F;" d="M466.1,148.7C466.1,148.7,466.1,148.6,466.1,148.7c0.7-0.1,1.3-0.1,1.9-0.1c0,0,0.1,0.1,0.1,0.1
				c0,0-0.1,0-0.1,0C467.3,148.7,466.7,148.7,466.1,148.7C466.1,148.7,466.1,148.7,466.1,148.7z"/>
			<path style="fill:#EFF3F7;" d="M471.6,152.9c-0.6,0-1.2,0-1.8,0c0.4-0.1,0.8,0,1.2,0C471.2,152.9,471.4,152.9,471.6,152.9
				C471.6,152.9,471.6,152.9,471.6,152.9C471.6,152.9,471.6,152.9,471.6,152.9z"/>
			<path style="fill:#FFFFFF;" d="M499.1,154.9c0-0.3,0-0.6,0-0.9c0.1,0,0.1,0,0.1,0.1c0,0.3,0.1,0.6,0,0.9
				C499.1,155,499.1,154.9,499.1,154.9z"/>
			<path style="fill:#FFFFFF;" d="M468,148.6c-0.6,0-1.2,0-1.8,0C466.8,148.5,467.4,148.5,468,148.6z"/>
			<path style="fill:#FFFFFF;" d="M463.5,148.6c-0.6,0-1.2,0-1.8,0C462.2,148.5,462.9,148.5,463.5,148.6z"/>
			<path style="fill:#F8BB72;" d="M499,153c-0.5,0-1.1,0-1.6,0c0.5-0.1,1.1,0,1.6-0.1c0,0,0,0,0.1,0C499.1,152.9,499.1,153,499,153
				C499.1,153,499,153,499,153z"/>
			<path style="fill:#C2D3E7;" d="M469.8,152.9c0,0.5,0,1.1,0,1.6c0,0,0,0.1,0,0.1c0,0,0,0.1,0,0.1
				C469.7,154.1,469.6,153.5,469.8,152.9z"/>
			<path style="fill:#FBE2C5;" d="M473.5,148.5C473.5,148.6,473.4,148.6,473.5,148.5c-0.6,0-1.1,0-1.6,0c0,0,0-0.1,0-0.1
				c0.5-0.1,1,0,1.5-0.1C473.4,148.4,473.5,148.5,473.5,148.5z"/>
			<path style="fill:#F9CD99;" d="M499.1,153c0,0,0-0.1,0-0.1c0,0,0,0,0,0c0.1-0.3,0.1-0.6,0-0.9c0-0.1,0-0.2,0-0.3c0,0,0,0,0,0
				C499.3,152,499.3,152.8,499.1,153z"/>
			<path style="fill:#FBE2C6;" d="M490.5,150.3c-0.5,0-1,0-1.5,0c0,0-0.1,0-0.1,0c0,0,0,0,0,0c0,0,0-0.1,0-0.1
				C489.5,150.1,490,150.1,490.5,150.3c0-0.1,0.1,0,0.1,0C490.6,150.3,490.6,150.3,490.5,150.3z"/>
			<path style="fill:#F9CC95;" d="M497.7,150.2c-0.3,0-0.6,0.1-0.8,0C497.1,150,497.4,150.1,497.7,150.2z"/>
			<path style="fill:#FBE2C6;" d="M487.1,150.3C487.1,150.3,487,150.3,487.1,150.3C487,150.2,487,150.2,487.1,150.3
				c0.4-0.1,0.9-0.1,1.5-0.1c0,0,0,0,0.1,0.1c0,0,0,0,0,0c0,0-0.1,0-0.1,0C488.1,150.3,487.6,150.3,487.1,150.3z"/>
			<path style="fill:#F9CA8F;" d="M490.5,150.2c-0.5,0-1.1,0-1.6,0C489.5,150.1,490,150.1,490.5,150.2z"/>
			<path style="fill:#FBE2C6;" d="M486.8,150.3C486.8,150.3,486.7,150.3,486.8,150.3c-0.5,0-1,0-1.5,0c0,0-0.1,0-0.1,0
				c0,0,0,0,0-0.1C485.7,150.1,486.2,150.1,486.8,150.3C486.7,150.2,486.8,150.2,486.8,150.3z"/>
			<path style="fill:#F9CA90;" d="M488.6,150.2c-0.5,0-1,0-1.5,0C487.5,150.1,488,150.1,488.6,150.2z"/>
			<path style="fill:#F9CC95;" d="M483.4,150.3c-0.2,0-0.3,0-0.5,0c-0.1,0-0.2,0.1-0.2-0.1c0.3-0.1,0.6-0.1,0.8,0c0,0,0,0.1,0,0.1
				C483.5,150.3,483.4,150.3,483.4,150.3z"/>
			<path style="fill:#F9CD99;" d="M496.8,156.5c0.3,0,0.6,0,0.9,0C497.4,156.6,497.1,156.7,496.8,156.5z"/>
			<path style="fill:#FFFCF7;" d="M462.5,156.3C462.5,156.3,462.5,156.3,462.5,156.3c-0.2-0.2-0.1-0.5-0.2-0.7
				c0.1-0.1,0-0.2,0.1-0.2C462.5,155.7,462.6,156,462.5,156.3z"/>
			<path style="fill:#F9C88E;" d="M486.7,150.2c-0.5,0-1,0-1.5,0C485.7,150.1,486.2,150.1,486.7,150.2z"/>
			<path style="fill:#F9C88E;" d="M473.4,148.4c-0.5,0.1-1,0-1.5,0.1C472.4,148.3,472.9,148.4,473.4,148.4z"/>
			<path style="fill:#BFCFE5;" d="M471.6,155.1c-0.1-0.2,0-0.5,0-0.8c0-0.1,0-0.3,0-0.4c0,0,0.1,0,0.1,0c0,0,0,0.1,0,0.1
				c-0.1,0.2,0,0.5-0.1,0.7C471.7,154.9,471.7,155,471.6,155.1z"/>
			<path style="fill:#F9CB92;" d="M479.3,148.8c-0.1,0-0.2,0-0.4-0.1c-0.1,0-0.2-0.1-0.4,0c-0.1,0-0.1,0-0.2,0
				c0.3-0.2,0.6-0.2,0.9-0.1C479.3,148.7,479.3,148.7,479.3,148.8z"/>
			<path style="fill:#FBDDB8;" d="M467.2,155.4c0-0.1,0-0.2,0-0.3c0.1,0,0.1,0,0.1,0.1c-0.1,0.3,0,0.6-0.2,0.8
				c-0.1-0.1-0.1-0.1,0-0.2C467.2,155.7,467.2,155.5,467.2,155.4z"/>
			<path style="fill:#FFFAF5;" d="M464,150.5c0,0.1,0,0.1,0,0.2c-0.1,0-0.1,0-0.2,0c0,0,0,0-0.1,0c0-0.1,0-0.2,0-0.3
				c0-0.1-0.1-0.2,0.1-0.1C463.8,150.2,463.8,150.3,464,150.5C463.9,150.4,463.9,150.4,464,150.5z"/>
			<path style="fill:#F7F9FB;" d="M464.5,156c0-0.2,0.1-0.4,0.1-0.6c0.2,0,0.1,0.1,0.1,0.2c-0.1,0.2,0,0.4-0.1,0.6
				C464.5,156.1,464.5,156,464.5,156z"/>
			<path style="fill:#FBDDB8;" d="M467.4,153.7c0,0,0-0.1,0.1-0.1c0.1-0.1,0-0.2,0-0.3c0-0.1,0-0.2,0-0.3c0.1,0,0.1,0,0.1,0.1
				c-0.1,0.2,0,0.5-0.1,0.7C467.5,153.8,467.4,153.8,467.4,153.7z"/>
			<path style="fill:#FABF79;" d="M469.8,154.7C469.8,154.7,469.8,154.7,469.8,154.7c0.2-0.1,0.1-0.3,0.2-0.4c0-0.2-0.1-0.4,0.1-0.5
				c0,0,0,0,0,0.1c0,0.3,0,0.5,0,0.8C469.9,154.8,469.9,154.8,469.8,154.7z"/>
			<path style="fill:#FFFFFF;" d="M496.8,150.3c-0.2,0.1-0.4,0.2-0.6,0.3C496.3,150.3,496.5,150.2,496.8,150.3z"/>
			<path style="fill:#FAD7AF;" d="M475.2,155.8c-0.1-0.2,0.1-0.4,0.1-0.6c0,0,0-0.1,0.1-0.1C475.4,155.4,475.4,155.6,475.2,155.8z"
				/>
			<path style="fill:#F9CB94;" d="M476.6,153.6c0,0.1,0,0.3,0,0.4c0,0.1,0,0.1,0,0.2c0,0-0.1,0-0.1,0
				C476.5,154,476.4,153.8,476.6,153.6z"/>
			<path style="fill:#F8FAFD;" d="M478.5,156.5c0.3,0,0.5,0,0.8,0c0,0,0,0.1,0,0.1C479.1,156.5,478.8,156.6,478.5,156.5
				C478.5,156.5,478.5,156.5,478.5,156.5C478.5,156.5,478.5,156.5,478.5,156.5z"/>
			<path style="fill:#FBCF9B;" d="M479.3,151.2c0.1,0,0.3,0,0.4,0c0,0,0.1,0,0.1,0c0.1,0,0.1,0,0.1,0.1c-0.2,0.1-0.4,0.1-0.6,0.1
				C479.3,151.4,479.3,151.3,479.3,151.2C479.3,151.3,479.3,151.3,479.3,151.2z"/>
			<path style="fill:#FAC07B;" d="M468,155c0,0.2,0.1,0.3,0.1,0.5c-0.2-0.1-0.2-0.3-0.2-0.4C467.9,155,467.9,155,468,155z"/>
			<path style="fill:#FCFCFB;" d="M499,153.9c-0.3,0-0.5,0-0.8,0c0,0,0-0.1,0-0.1c0.1,0,0.1,0,0.2,0c0.1,0,0.2,0,0.3,0
				C498.9,153.8,499,153.8,499,153.9z"/>
			<path style="fill:#FBE2C4;" d="M491.5,150.3C491.5,150.3,491.5,150.3,491.5,150.3C491.5,150.4,491.5,150.4,491.5,150.3
				c-0.2-0.1-0.4,0.1-0.6,0C491.1,150.1,491.3,150.1,491.5,150.3z"/>
			<path style="fill:#E6E5E6;" d="M495.3,151.7C495.2,151.8,495.2,151.8,495.3,151.7c-0.1-0.1-0.2-0.3-0.2-0.5
				C495.3,151.4,495.3,151.5,495.3,151.7z"/>
			<path style="fill:#FFFFFF;" d="M492,155.7c0.2,0.1,0.3,0.2,0.4,0.4C492.2,156.1,492,156,492,155.7z"/>
			<path style="fill:#FBDFC0;" d="M483,156.5c0.1,0,0.3,0,0.4,0c0,0,0.1,0,0.1,0.1c-0.2,0.1-0.4,0.1-0.6,0
				C482.9,156.5,482.9,156.5,483,156.5z"/>
			<path style="fill:#F5DEC4;" d="M478,153.3c0.1,0,0.2,0,0.2,0.1c0,0.1,0,0.1,0,0.2c-0.1,0-0.2,0-0.3,0c0,0,0,0,0,0
				c-0.1,0-0.1,0-0.2-0.1C477.8,153.3,477.9,153.4,478,153.3z"/>
			<path style="fill:#FFFFFF;" d="M493.2,156.5c0.1,0,0.3-0.1,0.4,0.1c0,0,0.1,0,0.1,0c-0.2,0.1-0.4,0.1-0.6,0
				C493.1,156.5,493.1,156.5,493.2,156.5C493.2,156.5,493.2,156.5,493.2,156.5z"/>
			<path style="fill:#FAC380;" d="M477.5,149.1c-0.1,0.2-0.2,0.3-0.4,0.4C477.2,149.3,477.3,149.1,477.5,149.1z"/>
			<path style="fill:#F8B768;" d="M467.6,152.5c0-0.2-0.1-0.3,0-0.5c0.1,0,0.1,0.1,0.1,0.1C467.7,152.3,467.8,152.4,467.6,152.5
				C467.6,152.5,467.6,152.5,467.6,152.5z"/>
			<path style="fill:#F9CD99;" d="M464,148.8c0,0,0.1,0,0.1,0c0,0.2,0,0.3-0.1,0.5C463.9,149.2,464,149,464,148.8z"/>
			<path style="fill:#FAE5CB;" d="M466,150.4c0,0.1,0,0.1,0,0.2c0,0-0.1,0-0.1,0c0-0.1-0.1-0.1-0.2-0.1c0-0.1,0-0.2,0-0.3
				c0.1,0,0.1,0,0.2,0C466,150.2,466,150.3,466,150.4z"/>
			<path style="fill:#F8B768;" d="M467.3,154.7c0-0.2-0.1-0.3,0-0.5c0.1,0,0.1,0.1,0.1,0.1C467.4,154.5,467.5,154.6,467.3,154.7
				C467.3,154.7,467.3,154.7,467.3,154.7z"/>
			<path style="fill:#D9C3AA;" d="M471.6,154c0,0-0.1,0-0.1,0c-0.1,0-0.3,0-0.4-0.1c0,0,0,0,0-0.1c0,0,0.1,0,0.2-0.1
				C471.4,153.8,471.6,153.8,471.6,154z"/>
			<path style="fill:#DFBB90;" d="M462.1,152.9c0.1,0.2,0.1,0.3,0,0.5c-0.2-0.1,0-0.3-0.1-0.4C462,152.9,462.1,152.9,462.1,152.9z"
				/>
			<path style="fill:#F9C88D;" d="M474.4,150.2c-0.2,0-0.4,0-0.5,0C474,150,474.2,150.1,474.4,150.2z"/>
			<path style="fill:#F9C07C;" d="M499.1,154.9c0.1,0,0.1,0.1,0.1,0.2c0,0.1,0.1,0.3-0.1,0.3C499,155.2,499,155,499.1,154.9z"/>
			<path style="fill:#D5CFCA;" d="M467.9,150.2c-0.1-0.2,0-0.3,0-0.5c0.1,0,0.1,0,0.1,0.1C468,149.9,468,150,467.9,150.2z"/>
			<path style="fill:#FAC17C;" d="M494.1,150.3c-0.2,0.1-0.3,0-0.5-0.1c0-0.1,0-0.1,0.1-0.1C493.9,150.2,494,150.2,494.1,150.3z"/>
			<path style="fill:#E0E6EE;" d="M481.1,151c-0.1-0.2-0.1-0.4-0.1-0.7c0.2,0.1,0.1,0.3,0.1,0.4C481.2,150.8,481.2,150.9,481.1,151z
				"/>
			<path style="fill:#E3C39D;" d="M497.7,156.5c0.1-0.1,0.3-0.2,0.4-0.1C498.1,156.5,497.9,156.5,497.7,156.5z"/>
			<path style="fill:#F8BC72;" d="M463.5,148.7C463.5,148.7,463.5,148.7,463.5,148.7c0.2,0.1,0.2,0.3,0.1,0.4c-0.1,0,0-0.1-0.1-0.1
				C463.5,148.9,463.5,148.8,463.5,148.7z"/>
			<path style="fill:#FFFFFF;" d="M486,156.5c0.1,0,0.3,0,0.4,0c0,0,0.1,0.1,0.1,0.1C486.3,156.6,486.1,156.7,486,156.5z"/>
			<path style="fill:#FBE2C5;" d="M470,150.3c-0.2,0-0.3,0-0.5,0c0,0-0.1,0-0.1-0.1C469.6,150.1,469.8,150.1,470,150.3
				C470,150.2,470,150.2,470,150.3z"/>
			<path style="fill:#C7D1DE;" d="M495,155.6c0-0.2,0-0.3,0.1-0.4c0,0,0.1,0,0.1,0C495.2,155.3,495.2,155.5,495,155.6z"/>
			<path style="fill:#FBE2C6;" d="M493.7,150.2C493.7,150.2,493.7,150.2,493.7,150.2c-0.2,0.1-0.4,0.1-0.5,0.1c0,0-0.1,0-0.1-0.1
				C493.3,150.1,493.5,150.1,493.7,150.2z"/>
			<path style="fill:#F8B96D;" d="M468,149.7c0,0-0.1,0-0.1-0.1c0-0.1,0-0.3,0.1-0.4c0,0,0,0,0.1,0
				C468.1,149.4,468.1,149.6,468,149.7z"/>
			<path style="fill:#F8B86B;" d="M465.6,149.7c-0.1-0.1,0-0.2,0-0.3c0.1-0.1-0.1-0.3,0.1-0.3c0,0.2,0,0.3,0,0.5
				C465.7,149.7,465.6,149.7,465.6,149.7z"/>
			<path style="fill:#D5CFCA;" d="M498.2,153.9C498.2,153.9,498.2,153.9,498.2,153.9c-0.2,0.1-0.5,0.1-0.7,0.1c0,0-0.1,0-0.1,0
				c0,0,0-0.1,0-0.1l0,0c0.1-0.1,0.3,0,0.4,0c0.1,0,0.1,0,0.2,0C498.1,153.8,498.2,153.8,498.2,153.9z"/>
			<path style="fill:#FBCC96;" d="M464.8,154.4C464.9,154.4,464.9,154.4,464.8,154.4c0.1,0.1,0.1,0.1,0,0.1
				c-0.1,0.1-0.1,0.2-0.2,0.3C464.5,154.6,464.7,154.5,464.8,154.4C464.8,154.3,464.8,154.3,464.8,154.4z"/>
			<path style="fill:#FFFFFF;" d="M480.4,149.2c-0.2,0-0.3-0.1-0.4-0.2C480.3,148.8,480.3,149.1,480.4,149.2z"/>
			<path style="fill:#F8B96D;" d="M462.1,152.9c0,0-0.1,0.1-0.1,0.1c0-0.2,0-0.3-0.1-0.5c0,0,0-0.1,0-0.1c0,0,0.1,0,0.1,0
				C462.1,152.6,462.1,152.8,462.1,152.9z"/>
			<path style="fill:#C2D3E7;" d="M470.8,153.9c-0.2,0-0.5,0-0.7,0c0,0,0-0.1,0-0.1c0.1,0,0.2,0,0.3,0c0.1-0.1,0.2,0,0.3-0.1
				C470.8,153.8,470.8,153.9,470.8,153.9z"/>
			<path style="fill:#F8B769;" d="M467.6,152.5C467.6,152.5,467.6,152.5,467.6,152.5c0.1,0.2,0.1,0.3,0.1,0.5c0,0-0.1,0-0.1-0.1
				C467.5,152.8,467.5,152.6,467.6,152.5z"/>
			<path style="fill:#C5D4E8;" d="M477.9,153.5c-0.2,0.1-0.5,0.1-0.7,0c0,0,0,0,0,0c0,0,0,0,0,0c0.1,0,0.2,0,0.3-0.1
				C477.6,153.5,477.8,153.4,477.9,153.5L477.9,153.5z"/>
			<path style="fill:#F9BF79;" d="M475.3,151.4c-0.1-0.1-0.1-0.3-0.1-0.4c0.2,0,0.2,0.2,0.2,0.4
				C475.4,151.4,475.3,151.4,475.3,151.4z"/>
			<path style="fill:#FFFAF5;" d="M465.6,149.7c0,0,0.1,0,0.1-0.1c0.1,0.2,0.1,0.3,0,0.5C465.5,150,465.6,149.8,465.6,149.7z"/>
			<path style="fill:#F8B769;" d="M467.3,154.7C467.3,154.7,467.3,154.7,467.3,154.7c0.1,0.2,0.1,0.3,0.1,0.5c0,0-0.1,0-0.1-0.1
				C467.2,155,467.2,154.8,467.3,154.7z"/>
			<path style="fill:#E1C5A5;" d="M469.4,150.2C469.4,150.2,469.4,150.2,469.4,150.2c-0.1,0.2-0.2,0.2-0.3,0.1
				C469.1,150.1,469.3,150.2,469.4,150.2z"/>
			<path style="fill:#F7B25E;" d="M497.5,153.9C497.5,153.9,497.5,153.9,497.5,153.9c0,0.3,0.1,0.6,0,0.9c0,0,0,0,0,0
				C497.3,154.4,497.4,154.1,497.5,153.9C497.4,153.9,497.4,153.9,497.5,153.9z"/>
			<path style="fill:#F8B768;" d="M461.9,151.4c0,0.2,0,0.3,0.1,0.5c0,0-0.1,0.1-0.1,0.1c0-0.2,0-0.3-0.1-0.5
				C461.8,151.4,461.8,151.4,461.9,151.4C461.9,151.4,461.9,151.4,461.9,151.4z"/>
			<path style="fill:#F8BA6D;" d="M467.9,150.8c0,0-0.1,0-0.1-0.1c0-0.1-0.1-0.3,0.1-0.4C467.9,150.5,467.9,150.6,467.9,150.8z"/>
			<path style="fill:#F9BE77;" d="M464.7,155.5c0-0.1-0.1-0.1-0.1-0.2c0-0.1-0.1-0.3,0.1-0.4C464.7,155.2,464.7,155.4,464.7,155.5z"
				/>
			<path style="fill:#FFFFFF;" d="M499.1,151.6C499.1,151.7,499.1,151.7,499.1,151.6c-0.1-0.1-0.1-0.2-0.2-0.3c0-0.1,0-0.1,0.1-0.1
				C499.1,151.4,499.2,151.5,499.1,151.6z"/>
			<path style="fill:#F9BF7A;" d="M461.8,151.4C461.8,151.4,461.8,151.4,461.8,151.4c0-0.2-0.2-0.4,0-0.7c0.1,0,0.1,0.1,0,0.1
				C461.9,151,461.9,151.2,461.8,151.4z"/>
			<path style="fill:#FFFFFF;" d="M490.8,152.3c0-0.3,0.1-0.3,0.3-0.3c0,0.1-0.1,0.1-0.1,0.2C491,152.2,490.9,152.2,490.8,152.3z"/>
			<path style="fill:#FFFFFF;" d="M470.6,150.4c-0.1,0.1-0.3,0-0.4-0.1c-0.1-0.1,0.1-0.1,0.1-0.1
				C470.4,150.3,470.6,150.2,470.6,150.4z"/>
			<path style="fill:#F9C07B;" d="M495.6,151.2c0,0.1,0,0.3-0.1,0.4C495.4,151.4,495.4,151.3,495.6,151.2z"/>
			<path style="fill:#FAC07B;" d="M476.7,154.5c0,0.2,0.1,0.3,0.1,0.5c-0.2,0-0.1-0.2-0.1-0.3C476.6,154.5,476.6,154.5,476.7,154.5z
				"/>
			<path style="fill:#FAC483;" d="M491.7,154.9c0,0.2,0.1,0.3,0.1,0.5c-0.2-0.1-0.1-0.2-0.1-0.3C491.6,155,491.6,154.9,491.7,154.9z
				"/>
			<path style="fill:#F9BE77;" d="M484.9,155.1c0,0,0.1,0,0.1,0.1c0,0.1,0,0.3-0.2,0.3C484.9,155.3,484.9,155.2,484.9,155.1z"/>
			<path style="fill:#F9BF79;" d="M465.1,155.3c0,0.1,0,0.3,0.1,0.4c0,0-0.1,0.1-0.1,0.1c0-0.1,0-0.3-0.1-0.4
				C465,155.3,465,155.3,465.1,155.3C465.1,155.2,465.1,155.2,465.1,155.3z"/>
			<path style="fill:#D9D4CD;" d="M461.7,149.6L461.7,149.6C461.7,149.6,461.6,149.6,461.7,149.6c0-0.2-0.2-0.3-0.2-0.4
				c0,0,0-0.2,0.1-0.1C461.7,149.2,461.7,149.4,461.7,149.6z"/>
			<path style="fill:#FFF7F0;" d="M484.6,156c0-0.2,0.1-0.3,0.3-0.4C484.9,155.8,484.7,155.9,484.6,156z"/>
			<path style="fill:#F9C687;" d="M465.4,156.5c0,0,0,0.1-0.1,0.1c-0.1-0.1-0.1-0.2-0.2-0.3c0-0.1,0-0.1,0.1-0.1
				C465.3,156.3,465.3,156.4,465.4,156.5z"/>
			<path style="fill:#F4F7FA;" d="M463.6,149.9c0-0.1,0-0.3,0-0.4c0-0.1-0.1-0.2,0.1-0.1c0.1,0.1,0.1,0.1,0.1,0.2
				C463.7,149.7,463.7,149.8,463.6,149.9C463.7,149.9,463.7,149.9,463.6,149.9z"/>
			<path style="fill:#F9C07B;" d="M487.2,156.4C487.2,156.5,487.2,156.5,487.2,156.4c-0.2,0-0.2-0.2-0.4-0.1
				C487.1,156,487.1,156.3,487.2,156.4z"/>
			<path style="fill:#E0C29F;" d="M483.7,156.4c0.1,0,0.2-0.1,0.3-0.1c0,0.2-0.2,0.2-0.3,0.2C483.7,156.5,483.7,156.4,483.7,156.4z"
				/>
			<path style="fill:#FAC584;" d="M470.2,156.5c0.1-0.1,0.3-0.2,0.5-0.2C470.5,156.5,470.4,156.6,470.2,156.5z"/>
			<path style="fill:#F9CD99;" d="M464,149.5c0,0.2,0,0.3,0,0.5c0,0,0,0-0.1,0C463.9,149.9,463.9,149.7,464,149.5z"/>
			<path style="fill:#F9BE77;" d="M479.3,156.6c0,0,0-0.1,0-0.1c0.1,0,0.2-0.1,0.4-0.1C479.6,156.6,479.4,156.5,479.3,156.6z"/>
			<path style="fill:#FDF2E3;" d="M480.8,149.7c-0.1-0.1-0.2-0.2-0.2-0.4C480.7,149.4,480.8,149.5,480.8,149.7
				C480.8,149.6,480.8,149.7,480.8,149.7z"/>
			<path style="fill:#EAEBEC;" d="M493.7,156.6C493.7,156.6,493.7,156.5,493.7,156.6c0-0.2,0.2-0.2,0.4-0.2
				C494,156.5,493.8,156.5,493.7,156.6z"/>
			<path style="fill:#FDF2E3;" d="M480.8,149.7C480.8,149.7,480.8,149.6,480.8,149.7c0.2,0,0.3,0.1,0.2,0.3
				C480.8,150,480.8,149.8,480.8,149.7z"/>
			<path style="fill:#F9CA8F;" d="M471.6,154.8c0-0.2-0.1-0.5,0.1-0.7C471.6,154.3,471.7,154.5,471.6,154.8z"/>
			<path style="fill:#F8B96E;" d="M461.9,151.9c0,0,0.1,0,0.1-0.1c0,0,0,0,0,0.1c0,0.2,0.1,0.4,0,0.5c0,0,0,0,0,0
				C461.9,152.3,461.9,152.1,461.9,151.9z"/>
			<path style="fill:#FFFFFF;" d="M468.4,150.7c0,0.2-0.1,0.3-0.3,0.4C468.1,150.8,468.2,150.8,468.4,150.7z"/>
			<path style="fill:#FAC585;" d="M466.1,148.8c0,0.1,0,0.2,0,0.2c0,0,0,0.1-0.1,0.1c-0.1-0.2-0.1-0.3,0.1-0.4c0,0,0,0,0,0
				C466.1,148.7,466.1,148.8,466.1,148.8z"/>
			<path style="fill:#FCE9D4;" d="M495.9,156c0.2,0,0.3,0.1,0.3,0.2C496,156.4,496,156.2,495.9,156z"/>
			<path style="fill:#F8B86C;" d="M491.7,154.9c-0.1,0-0.1,0.1-0.1,0.1c-0.1-0.2-0.1-0.3-0.1-0.5c0,0,0,0,0,0c0.1,0,0,0.1,0.1,0.1
				C491.7,154.8,491.7,154.8,491.7,154.9z"/>
			<path style="fill:#F8BB73;" d="M480.6,152.6c-0.1,0-0.2-0.1-0.3-0.3C480.5,152.3,480.6,152.4,480.6,152.6z"/>
			<path style="fill:#F8BD75;" d="M495.2,155.1C495.2,155.1,495.2,155.1,495.2,155.1c-0.1-0.1-0.1-0.2,0-0.4c0.1-0.1,0.1,0,0.1,0.1
				C495.3,154.9,495.3,155.1,495.2,155.1z"/>
			<path style="fill:#F8BE79;" d="M471.7,151.9c0,0.1,0,0.1-0.1,0.1c-0.1-0.1-0.1-0.2,0-0.4C471.7,151.7,471.7,151.8,471.7,151.9z"
				/>
			<path style="fill:#F9CB93;" d="M466,149.6c0,0.1,0,0.2-0.1,0.3C465.8,149.7,465.9,149.6,466,149.6
				C466,149.5,466.1,149.5,466,149.6z"/>
			<path style="fill:#FFFFFF;" d="M491.9,151.2c0,0.1,0,0.3-0.1,0.4C491.7,151.4,491.7,151.2,491.9,151.2z"/>
			<path style="fill:#FFFFFF;" d="M481.6,155.7c0.1,0.1,0.2,0.2,0.2,0.4C481.7,156,481.5,155.9,481.6,155.7z"/>
			<path style="fill:#F8B769;" d="M467.6,151.5c0.1,0,0.1,0,0.1,0.1c0,0.1,0,0.2,0,0.3c-0.2,0,0-0.2-0.1-0.2
				C467.7,151.7,467.6,151.6,467.6,151.5z"/>
			<path style="fill:#F8B667;" d="M461.6,149c0,0-0.1,0.1-0.1,0.1c0-0.2-0.1-0.4,0.1-0.5c0,0,0,0.1,0,0.1
				C461.5,148.9,461.6,149,461.6,149z"/>
			<path style="fill:#F8BD75;" d="M465,155.3C465,155.3,465,155.3,465,155.3c0-0.1-0.1-0.2-0.1-0.4c-0.1-0.1-0.1-0.1,0.1-0.1
				c0,0,0,0.1,0,0.1C465,155,465.1,155.2,465,155.3z"/>
			<path style="fill:#C2D3E7;" d="M466,149.6C466,149.5,466,149.5,466,149.6c-0.1-0.2,0-0.3,0-0.5c0,0,0,0,0.1-0.1
				C466.1,149.2,466.1,149.4,466,149.6z"/>
			<path style="fill:#FFFFFF;" d="M493,150.3c-0.1,0-0.2,0.1-0.4,0.1c0-0.1,0.1-0.2,0.2-0.2C492.9,150.2,493,150.2,493,150.3z"/>
			<path style="fill:#DDC4A9;" d="M490.5,150.3c0,0,0.1,0,0.1,0c0.1,0,0.1,0.1,0.2,0.1c0,0.1,0,0.2-0.1,0.1
				C490.6,150.5,490.5,150.4,490.5,150.3z"/>
			<path style="fill:#EEECEA;" d="M492.5,150.4c0,0.2-0.1,0.2-0.3,0.2C492.3,150.5,492.4,150.4,492.5,150.4z"/>
			<path style="fill:#F8BC72;" d="M496.3,156.3c0.1,0.1,0.3,0,0.4,0.2C496.4,156.5,496.3,156.4,496.3,156.3z"/>
			<path style="fill:#F8BA6D;" d="M467.4,153.7c0,0,0.1,0,0.1,0c0,0.1,0,0.3,0,0.4c-0.2,0-0.1-0.2-0.1-0.2
				C467.4,153.9,467.4,153.8,467.4,153.7z"/>
			<path style="fill:#F9BE77;" d="M478.5,156.5C478.5,156.5,478.5,156.5,478.5,156.5c-0.2,0.1-0.4,0.1-0.5-0.1
				C478.2,156.4,478.4,156.5,478.5,156.5z"/>
			<path style="fill:#FDF2E3;" d="M499,151.2C499,151.3,499,151.3,499,151.2c-0.2,0-0.2-0.1-0.2-0.3C498.9,151,499,151.1,499,151.2z
				"/>
			<path style="fill:#FAD2A1;" d="M480.9,151.2c0.1,0,0.1,0,0.2,0c-0.1,0.2-0.3,0.2-0.5,0.1C480.7,151.2,480.9,151.2,480.9,151.2z"
				/>
			<path style="fill:#FADEBB;" d="M495.3,154.8c0,0-0.1,0-0.1-0.1c0-0.1,0-0.1,0-0.2c0,0,0,0,0.1,0c0,0.1,0.1,0.1,0.1,0.1
				c0.1,0.1,0.1,0.1,0,0.2C495.4,154.8,495.3,154.8,495.3,154.8z"/>
			<path style="fill:#FAC17D;" d="M465,154.8c-0.1,0-0.1,0.1-0.1,0.1c-0.1-0.1-0.1-0.3-0.1-0.4c0,0,0-0.1,0-0.1
				C465,154.5,465,154.6,465,154.8z"/>
			<path style="fill:#F8B768;" d="M464,150C464,150,464,150,464,150c0,0.1,0,0.3,0,0.4c0,0-0.1,0-0.1-0.1
				C463.9,150.3,463.8,150.1,464,150z"/>
			<path style="fill:#FFFFFF;" d="M486.5,156.4c0.1,0,0.2-0.1,0.4-0.1c0,0.1,0,0.2-0.2,0.2C486.6,156.5,486.5,156.5,486.5,156.4z"/>
			<path style="fill:#F4F2F2;" d="M468.1,149.3C468,149.3,468,149.3,468.1,149.3c-0.1-0.2-0.1-0.4-0.1-0.5l0,0c0,0,0,0,0.1,0
				c0,0,0,0,0,0C468.1,148.9,468.1,149,468.1,149.3C468.1,149.2,468.1,149.2,468.1,149.3z"/>
			<path style="fill:#DFBB90;" d="M462.3,154.1c0,0.1,0.1,0.3,0,0.4C462.1,154.4,462.2,154.2,462.3,154.1
				C462.2,154.1,462.2,154,462.3,154.1z"/>
			<path style="fill:#FAC380;" d="M470.3,150.2c0,0-0.1,0.1-0.1,0.1c-0.1,0-0.2,0-0.2,0c0,0,0-0.1,0.1-0.1
				C470.1,150.2,470.2,150.2,470.3,150.2z"/>
			<path style="fill:#F9CD99;" d="M491,152.1c0-0.1,0.1-0.1,0.1-0.2c0.1,0,0.1,0,0.2-0.1c0,0,0,0.1,0.1,0.1
				C491.3,152,491.2,152.1,491,152.1z"/>
			<path style="fill:#BCCDE4;" d="M466,150.4c0-0.1,0-0.1-0.1-0.1c0.1-0.1,0.1-0.2,0.1-0.4C466.1,150.1,466,150.2,466,150.4z"/>
			<path style="fill:#F8BB72;" d="M479.3,148.8c0,0,0-0.1,0-0.1c0.1,0,0.3-0.1,0.2,0.1C479.5,148.8,479.4,148.8,479.3,148.8z"/>
			<path style="fill:#DDBA95;" d="M481.4,155.3C481.4,155.3,481.4,155.3,481.4,155.3c0.1,0.1,0.2,0.2,0.1,0.3
				C481.3,155.5,481.3,155.4,481.4,155.3z"/>
			<path style="fill:#F8BC72;" d="M476.7,154.5c0,0-0.1,0.1-0.1,0.1c-0.1-0.1-0.1-0.3-0.1-0.4c0,0,0,0,0.1,0c0.1,0,0,0.1,0.1,0.1
				C476.7,154.4,476.7,154.4,476.7,154.5z"/>
			<path style="fill:#F8BA6D;" d="M462.3,154.6c0.1,0.1,0,0.2,0.1,0.3c0,0.1,0.1,0.2-0.1,0.2C462.3,154.9,462.2,154.7,462.3,154.6z"
				/>
			<path style="fill:#FBE2C6;" d="M498.7,150.9c-0.1-0.1-0.3-0.2-0.3-0.3C498.5,150.6,498.6,150.7,498.7,150.9z"/>
			<path style="fill:#F9C88E;" d="M476.8,153.6c0,0-0.1,0-0.1,0c0.1-0.3,0.2-0.2,0.4-0.1C477,153.6,476.8,153.5,476.8,153.6z"/>
			<path style="fill:#F9CA8F;" d="M481.1,151c0-0.1,0-0.2,0-0.2c0,0,0,0,0.1,0c0.1,0.1,0,0.2,0,0.3c0,0-0.1,0-0.1,0.1
				C481.1,151.1,481.1,151,481.1,151z"/>
			<path style="fill:#F8BD76;" d="M468.1,149.2c0-0.2,0-0.3,0-0.5C468.2,148.9,468.2,149,468.1,149.2z"/>
			<path style="fill:#F8B86B;" d="M465.5,148.8c0,0,0.1,0,0.1-0.1c0,0.1,0,0.1,0,0.2c0,0.1,0,0.1-0.1,0.1
				C465.5,149,465.5,148.9,465.5,148.8z"/>
			<path style="fill:#F9F8F7;" d="M465.5,149C465.5,149,465.6,149,465.5,149c0.1,0,0.1,0,0.1,0.1c-0.1,0.1,0,0.2-0.1,0.3
				C465.5,149.3,465.5,149.2,465.5,149z"/>
			<path style="fill:#C2D3E7;" d="M463.7,149.3c0,0-0.1,0.1-0.1,0.1c-0.1-0.1-0.1-0.3,0-0.4c0.1,0,0.1,0.1,0.1,0.1
				C463.6,149.2,463.7,149.3,463.7,149.3z"/>
			<path style="fill:#F8B86B;" d="M463.7,149.9c0-0.1,0-0.2,0.1-0.3c0,0.2,0,0.3,0,0.5C463.6,150,463.6,150,463.7,149.9z"/>
			<path style="fill:#E6E8EB;" d="M482.7,150.2c0.1,0.1,0.1,0.1,0.2,0.1c-0.1,0.1-0.3,0.1-0.4,0.1
				C482.5,150.2,482.6,150.2,482.7,150.2z"/>
			<path style="fill:#F9C07B;" d="M493,150.3c-0.1,0-0.1,0-0.2-0.1c0.1,0,0.1,0,0.2,0c0.1,0,0.1,0,0.1,0.1
				C493.1,150.3,493.1,150.3,493,150.3z"/>
			<path style="fill:#FFFFFF;" d="M467.4,153.9c0.1,0,0,0.2,0.1,0.2c0,0.1,0,0.2-0.1,0.2c0-0.1,0-0.1-0.1-0.1
				C467.3,154.1,467.4,154,467.4,153.9z"/>
			<path style="fill:#FAC07C;" d="M483.7,156.4c0,0,0,0.1,0,0.1c-0.1,0-0.2,0-0.3,0c0,0,0,0-0.1-0.1
				C483.5,156.5,483.6,156.4,483.7,156.4z"/>
			<path style="fill:#F9C88D;" d="M483,156.5c0,0.1-0.1,0.1-0.1,0.1c-0.1,0-0.2,0-0.3-0.1C482.7,156.5,482.8,156.5,483,156.5z"/>
			<path style="fill:#FABF7A;" d="M465,155.8c0,0,0.1,0,0.1-0.1c0,0.1,0,0.2,0,0.3c0,0.1,0.1,0.2-0.1,0.1
				C465.1,156,465.1,155.9,465,155.8z"/>
			<path style="fill:#FFFFFF;" d="M477.5,156.1c0.1,0,0.2,0,0.2,0.1C477.6,156.4,477.6,156.2,477.5,156.1z"/>
			<path style="fill:#D5CDC5;" d="M475.4,155.1c0,0-0.1,0-0.1,0.1c0-0.2,0-0.3,0.1-0.4c0,0.1,0,0.2,0,0.2
				C475.4,155,475.4,155.1,475.4,155.1z"/>
			<path style="fill:#F8B769;" d="M462.4,155.4c0,0.1,0,0.2-0.1,0.2c0-0.1,0-0.3,0-0.4c0-0.1,0-0.1,0.1-0.1
				C462.4,155.2,462.4,155.3,462.4,155.4z"/>
			<path style="fill:#FFFFFF;" d="M467.7,151.7c0.1,0,0,0.2,0.1,0.2c0,0.1,0,0.2-0.1,0.2c0-0.1,0-0.1-0.1-0.1
				C467.6,151.9,467.6,151.8,467.7,151.7z"/>
			<path style="fill:#F8FAFD;" d="M495.4,154.8c0-0.1,0-0.1,0-0.2c0,0,0,0,0,0c0,0,0,0,0.1,0c0,0.1,0,0.3,0,0.4
				C495.4,155,495.4,154.9,495.4,154.8z"/>
			<path style="fill:#FFFFFC;" d="M476.8,153.6c0.1-0.1,0.2-0.1,0.3-0.1c0.1,0,0.1-0.1,0.2,0c0,0,0,0,0,0.1
				C477,153.6,476.9,153.6,476.8,153.6z"/>
			<path style="fill:#E0E6EE;" d="M476.7,151.3C476.7,151.3,476.7,151.3,476.7,151.3c0.1,0,0.1,0.2,0.1,0.3
				C476.5,151.6,476.7,151.4,476.7,151.3z"/>
			<path style="fill:#F9BE77;" d="M464.5,156c0.1,0,0.1,0.1,0.1,0.1c0,0.1,0,0.2-0.1,0.3C464.4,156.3,464.4,156.1,464.5,156
				L464.5,156z"/>
			<path style="fill:#F9CA8F;" d="M470.4,153.8c-0.1,0-0.2,0-0.4,0c0,0,0,0-0.1,0c0,0,0,0,0,0C470.1,153.7,470.3,153.8,470.4,153.8z
				"/>
			<path style="fill:#F9CA8F;" d="M477.9,153.5c-0.1,0-0.3,0.1-0.4-0.1c0.1,0,0.1,0,0.2,0C477.7,153.4,477.8,153.4,477.9,153.5z"/>
			<path style="fill:#F9C88E;" d="M471.2,153.8c0,0-0.1,0-0.1,0.1c-0.1,0-0.2,0.1-0.3-0.1C471,153.8,471.1,153.8,471.2,153.8z"/>
			<path style="fill:#C2D3E7;" d="M463.7,149.9c0,0.1,0,0.1,0.1,0.1c0,0,0,0,0,0.1c0,0-0.1,0.1-0.1,0.1
				C463.6,150.1,463.6,150,463.7,149.9C463.6,149.9,463.7,149.9,463.7,149.9z"/>
			<path style="fill:#FFFFFF;" d="M462.4,155.1C462.4,155.2,462.3,155.2,462.4,155.1c-0.1,0-0.1,0-0.1-0.1c0.1,0,0.1-0.1,0.1-0.2
				C462.5,154.9,462.4,155,462.4,155.1z"/>
			<path style="fill:#F8BB71;" d="M468,155c0,0-0.1,0-0.1,0.1c0-0.1,0-0.2,0-0.3c0,0,0,0,0.1,0C467.9,154.8,467.9,154.9,468,155
				C468,154.9,468,155,468,155z"/>
			<path style="fill:#F8BB71;" d="M475.4,151.8C475.4,151.8,475.4,151.9,475.4,151.8c-0.1,0-0.1-0.1-0.1-0.2c0-0.1,0-0.2,0.1-0.2
				C475.4,151.6,475.4,151.7,475.4,151.8z"/>
			<path style="fill:#F8B564;" d="M498.2,153.9c-0.1,0-0.1,0-0.2-0.1c0.1,0,0.3-0.1,0.4,0.1C498.4,153.9,498.3,153.9,498.2,153.9z"
				/>
			<path style="fill:#FDFDFC;" d="M480.9,151.2c-0.1,0.1-0.2,0.1-0.3,0.1c0,0-0.1,0-0.1,0c0,0,0,0-0.1,0c0,0,0-0.1,0-0.1
				C480.6,151.2,480.8,151.2,480.9,151.2z"/>
			<path style="fill:#DBD8D4;" d="M492.8,156.4c0.2,0,0.3,0,0.4,0.1c0,0,0,0,0,0C493.1,156.5,493,156.5,492.8,156.4
				C492.8,156.5,492.8,156.4,492.8,156.4z"/>
			<path style="fill:#E6E8EB;" d="M485,151.7c-0.1-0.1-0.1-0.3-0.1-0.4c0,0,0,0.1,0.1,0.1C485,151.5,485,151.6,485,151.7L485,151.7z
				"/>
			<path style="fill:#F6F3EE;" d="M464.5,156c0,0.1,0,0.3,0,0.4c0,0-0.1,0-0.1,0.1C464.4,156.3,464.4,156.2,464.5,156z"/>
			<path style="fill:#FFFDFA;" d="M470.8,153.8c0.1,0.1,0.2,0,0.3,0.1c0,0,0,0,0,0.1c-0.1,0-0.2,0-0.4,0
				C470.7,153.9,470.7,153.8,470.8,153.8C470.8,153.8,470.8,153.8,470.8,153.8z"/>
			<path style="fill:#F9BE76;" d="M492.8,156.5c0.1,0,0.3,0,0.4,0c0,0.1-0.1,0.1-0.1,0.1C493,156.5,492.9,156.6,492.8,156.5z"/>
			<path style="fill:#F9C88C;" d="M497.9,153.8c-0.1,0-0.3,0-0.4,0C497.6,153.7,497.7,153.8,497.9,153.8z"/>
			<path style="fill:#F7B360;" d="M480.5,151.2C480.5,151.2,480.5,151.2,480.5,151.2c-0.1,0.1-0.2,0.1-0.4,0.1c0,0,0-0.1,0-0.1
				C480.3,151.2,480.4,151.2,480.5,151.2z"/>
			<path style="fill:#F7F9FB;" d="M462.3,154.1C462.2,154.1,462.2,154.1,462.3,154.1c-0.2-0.1,0-0.2-0.1-0.3
				C462.3,153.8,462.3,154,462.3,154.1z"/>
			<path style="fill:#F9BE76;" d="M485,151.7c0-0.1,0-0.2,0-0.3c0.1,0,0.1,0.1,0.1,0.2C485,151.6,485,151.7,485,151.7z"/>
			<path style="fill:#FFFCF7;" d="M475.4,151.5c-0.1,0-0.1,0.1-0.1,0.1c0,0,0,0-0.1,0c0-0.1,0-0.1,0-0.2c0,0,0.1-0.1,0.1-0.1
				C475.4,151.4,475.4,151.4,475.4,151.5z"/>
			<path style="fill:#F9CA8F;" d="M480.1,151.3C480.1,151.3,480.1,151.3,480.1,151.3c-0.1,0.1-0.1,0.1-0.2,0.1c0,0-0.1,0-0.1-0.1
				C479.9,151.2,480,151.2,480.1,151.3z"/>
			<path style="fill:#FFF8F0;" d="M465.1,156.1c0.1,0,0.1-0.1,0.1-0.1c0.1,0,0.1,0.1,0.1,0.2c0,0-0.1,0-0.1,0.1
				C465.1,156.2,465.1,156.2,465.1,156.1z"/>
			<path style="fill:#F8BC72;" d="M486.5,156.4c0.1,0,0.2,0,0.2,0.1c-0.1,0-0.1,0-0.2,0C486.5,156.5,486.5,156.5,486.5,156.4
				C486.5,156.5,486.5,156.4,486.5,156.4L486.5,156.4z"/>
			<path style="fill:#FFFFFF;" d="M481.2,151.1c0-0.1,0-0.2,0-0.3C481.3,150.9,481.3,151,481.2,151.1z"/>
			<path style="fill:#DEC5A8;" d="M482.1,150.5c0,0.1,0,0.2-0.1,0.1C481.9,150.5,482,150.5,482.1,150.5z"/>
			<path style="fill:#F8BB72;" d="M483.5,150.2C483.5,150.2,483.5,150.2,483.5,150.2c0.1,0,0.3-0.1,0.3,0.1c0,0,0,0,0,0
				C483.7,150.3,483.6,150.3,483.5,150.2z"/>
			<path style="fill:#FFFFFF;" d="M498,150.4c-0.1,0-0.1,0-0.1-0.1C497.9,150.3,498,150.3,498,150.4z"/>
			<path style="fill:#FFFFFF;" d="M471.5,155.5c0-0.1,0-0.1,0.1-0.1C471.5,155.4,471.5,155.4,471.5,155.5z"/>
			<path style="fill:#FFFFFF;" d="M476.8,150.1c0.1,0.1,0.1,0.1,0,0.1C476.8,150.2,476.8,150.1,476.8,150.1z"/>
			<path style="fill:#FDF2E3;" d="M494.4,156.3C494.4,156.2,494.4,156.2,494.4,156.3C494.5,156.2,494.4,156.2,494.4,156.3z"/>
			<path style="fill:#FDF2E3;" d="M494.9,155.8C494.8,155.8,494.9,155.8,494.9,155.8C494.9,155.8,494.9,155.8,494.9,155.8z"/>
			<path style="fill:#FFF7F0;" d="M484.7,150.9C484.6,150.9,484.6,150.9,484.7,150.9C484.6,150.8,484.6,150.9,484.7,150.9z"/>
			<path style="fill:#FDF2E3;" d="M495.7,155.7C495.7,155.7,495.7,155.7,495.7,155.7C495.7,155.7,495.7,155.8,495.7,155.7
				C495.7,155.8,495.7,155.7,495.7,155.7z"/>
			<path style="fill:#FDF7F0;" d="M479.3,151.3C479.3,151.3,479.3,151.4,479.3,151.3C479.3,151.4,479.3,151.4,479.3,151.3
				C479.2,151.4,479.2,151.3,479.3,151.3C479.2,151.3,479.2,151.3,479.3,151.3C479.3,151.3,479.3,151.3,479.3,151.3z"/>
			<path style="fill:#FFFFFF;" d="M479.9,156.3C479.9,156.3,479.9,156.3,479.9,156.3C479.9,156.3,479.9,156.3,479.9,156.3z"/>
			<path style="fill:#FDF2E3;" d="M484.8,151.1C484.8,151.1,484.7,151.1,484.8,151.1C484.8,151.1,484.8,151.1,484.8,151.1z"/>
			<path style="fill:#FFFFFF;" d="M471.5,151.3C471.4,151.3,471.4,151.3,471.5,151.3C471.4,151.3,471.4,151.3,471.5,151.3z"/>
			<path style="fill:#FFF7F0;" d="M491.9,155.6C491.9,155.6,491.9,155.6,491.9,155.6C491.9,155.6,491.9,155.6,491.9,155.6
				C491.9,155.6,491.9,155.6,491.9,155.6z"/>
			<path style="fill:#FFF7F0;" d="M485.7,156.4C485.7,156.4,485.8,156.4,485.7,156.4C485.8,156.4,485.8,156.4,485.7,156.4
				C485.8,156.4,485.7,156.4,485.7,156.4z"/>
			<path style="fill:#FFF7F0;" d="M495.6,155.6C495.6,155.6,495.7,155.6,495.6,155.6C495.7,155.6,495.7,155.6,495.6,155.6
				C495.6,155.6,495.6,155.6,495.6,155.6z"/>
			<path style="fill:#FFF7F0;" d="M480.7,152.7C480.7,152.7,480.6,152.7,480.7,152.7C480.7,152.7,480.7,152.7,480.7,152.7z"/>
			<path style="fill:#FFF7F0;" d="M480.9,152.9C480.8,152.9,480.8,152.9,480.9,152.9C480.8,152.9,480.8,152.9,480.9,152.9z"/>
			<path style="fill:#FFF7F0;" d="M498.9,155.7C498.9,155.6,498.9,155.6,498.9,155.7C498.9,155.6,498.9,155.7,498.9,155.7z"/>
			<path style="fill:#FFFFFF;" d="M470.7,156.3C470.7,156.3,470.7,156.3,470.7,156.3C470.7,156.3,470.7,156.3,470.7,156.3z"/>
			<path style="fill:#FFF7F0;" d="M474.9,156.2C474.9,156.1,474.9,156.1,474.9,156.2C475,156.1,474.9,156.2,474.9,156.2z"/>
			<path style="fill:#FFFFFF;" d="M494.9,155.7C494.9,155.6,495,155.6,494.9,155.7C495,155.6,495,155.7,494.9,155.7z"/>
			<path style="fill:#EFF3F7;" d="M468,148.7C468,148.7,468,148.7,468,148.7c-0.5,0-1.1,0-1.6,0c-0.1,0-0.2,0-0.3,0.1
				c0,0,0-0.1,0-0.1C466.7,148.7,467.4,148.7,468,148.7z"/>
			<path style="fill:#F9CB93;" d="M465.7,150.5c0.2-0.2,0.2,0,0.3,0.1c0,0,0,0.1-0.1,0.1c0,0-0.1,0-0.1,0
				C465.7,150.7,465.7,150.7,465.7,150.5C465.7,150.6,465.7,150.6,465.7,150.5z"/>
			<path style="fill:#F8B564;" d="M465.7,151.2c0-0.1,0-0.1,0-0.2c0-0.1,0-0.2,0.1-0.2c0.2,0.1,0.1,0.2,0.1,0.4l0,0
				C465.8,151.3,465.8,151.3,465.7,151.2z"/>
			<path style="fill:#C2D3E7;" d="M464,150.7c0,0.1,0,0.3,0,0.4c0,0-0.1,0-0.1-0.1c0,0,0-0.1,0-0.1c-0.1-0.1-0.1-0.1,0-0.2
				C463.8,150.8,463.9,150.7,464,150.7z"/>
			<path style="fill:#BCCDE4;" d="M465.9,151.2c0-0.1,0.1-0.3-0.1-0.4c0,0,0-0.1,0-0.1c0,0,0,0,0.1,0
				C466,150.9,465.9,151.1,465.9,151.2z"/>
			<path style="fill:#EFEAE6;" d="M463.8,151.1C463.9,151.1,463.9,151.2,463.8,151.1c0.1,0.2,0.1,0.3,0,0.4
				C463.7,151.3,463.7,151.2,463.8,151.1z"/>
			<path style="fill:#FAC583;" d="M464,150.7c0,0-0.1,0.1-0.1,0.1c-0.2,0-0.1-0.1-0.1-0.2C463.9,150.4,463.9,150.6,464,150.7
				C464,150.7,464,150.7,464,150.7z"/>
			<path style="fill:#C7D6E9;" d="M463.7,150.6c0,0.1,0,0.2,0.1,0.2c0,0.1,0,0.1,0,0.2C463.6,150.9,463.7,150.7,463.7,150.6
				C463.7,150.6,463.7,150.6,463.7,150.6z"/>
			<path style="fill:#C2D3E7;" d="M465.8,150.7c0,0,0,0.1,0,0.1c-0.1,0-0.1,0.1-0.1,0.2c-0.1-0.1-0.1-0.3-0.1-0.4
				C465.7,150.7,465.8,150.7,465.8,150.7z"/>
			<path style="fill:#E9EBEE;" d="M462,152.5c0-0.2,0-0.4,0-0.5C462.1,152.1,462.1,152.3,462,152.5C462,152.5,462,152.5,462,152.5z"
				/>
			<path style="fill:#F4F2F2;" d="M461.8,151.4c0-0.2,0-0.4,0-0.6C461.9,151,461.9,151.2,461.8,151.4
				C461.9,151.4,461.9,151.4,461.8,151.4z"/>
			<path style="fill:#D6DBE3;" d="M464.8,153.9C464.8,153.9,464.7,153.9,464.8,153.9c-0.1-0.1-0.1-0.2,0-0.2c0,0,0.1,0,0.1,0.1
				C464.9,153.9,464.9,153.9,464.8,153.9z"/>
			<path style="fill:#DEDFE4;" d="M465.7,151.2c0,0,0.1,0,0.1,0c0,0.1,0,0.2-0.1,0.2C465.7,151.4,465.7,151.3,465.7,151.2z"/>
			<path style="fill:#FFFFFF;" d="M465,155.3c0-0.1,0-0.2,0-0.4C465.1,155,465.1,155.2,465,155.3C465.1,155.3,465,155.3,465,155.3z"
				/>
			<path style="fill:#F4F2F2;" d="M467.5,153.2c0,0.1,0.1,0.2,0,0.3C467.4,153.5,467.4,153.3,467.5,153.2z"/>
			<path style="fill:#F4F2F2;" d="M467.2,155.4c0,0.1,0.1,0.2,0,0.3C467.1,155.6,467.1,155.5,467.2,155.4z"/>
			<path style="fill:#F9C789;" d="M464.8,154.4C464.8,154.4,464.8,154.4,464.8,154.4C464.8,154.3,464.8,154.3,464.8,154.4
				c-0.1-0.1,0-0.1,0-0.2l0,0c0,0,0,0,0.1,0C464.9,154.3,464.9,154.3,464.8,154.4z"/>
			<path style="fill:#F7B15E;" d="M464.9,154.2C464.8,154.2,464.8,154.2,464.9,154.2c0,0-0.1-0.1,0-0.1
				C464.9,154.1,464.9,154.2,464.9,154.2z"/>
			<path style="fill:#F9B464;" d="M464.8,154.2C464.8,154.2,464.8,154.3,464.8,154.2C464.7,154.2,464.8,154.2,464.8,154.2z"/>
			<path style="fill:#FDF7F2;" d="M478.9,154.4c-0.2,0.2-0.3,0-0.4-0.1c-0.1-0.1,0-0.3-0.1-0.4c0-0.1,0-0.1,0.1-0.2
				c0.2,0.1,0.4,0.3,0.4,0.5C478.9,154.2,478.9,154.3,478.9,154.4z"/>
			<path style="fill:#FDF5ED;" d="M479.2,151.3c-0.2,0-0.2-0.2-0.3-0.3c0-0.1,0-0.2,0.2-0.1C479.2,151,479.2,151.1,479.2,151.3
				C479.2,151.3,479.2,151.3,479.2,151.3z"/>
			<path style="fill:#DBE3EF;" d="M478.5,153.6c0,0.1,0,0.1,0,0.2c0,0,0,0.1-0.1,0.1c-0.1-0.1,0-0.3-0.1-0.4c0-0.1,0-0.1,0-0.2
				C478.3,153.4,478.5,153.5,478.5,153.6z"/>
			<path style="fill:#BCCDE4;" d="M481.1,153.7C481.1,153.7,481.1,153.7,481.1,153.7c0.2,0.2,0,0.4,0.1,0.6c0,0.1-0.1,0.1-0.1,0.2
				C481.1,154.2,481.1,154,481.1,153.7z"/>
			<path style="fill:#D1D1CF;" d="M480.1,151.3c-0.1,0-0.2,0-0.4,0c0,0-0.1,0-0.1,0c0.3-0.1,0.5-0.1,0.8-0.1c0,0,0,0,0,0.1
				C480.4,151.2,480.3,151.2,480.1,151.3z"/>
			<path style="fill:#FAC380;" d="M478.4,153.9c0,0,0.1-0.1,0.1-0.1c0.1,0.1,0.1,0.3,0.1,0.4C478.4,154.2,478.4,154,478.4,153.9z"/>
			<path style="fill:#E0DDD8;" d="M479,150.9c-0.1,0-0.1,0.1-0.2,0.1c-0.1-0.1,0-0.2,0-0.2C479,150.7,479,150.8,479,150.9z"/>
			<path style="fill:#FABF7B;" d="M478.9,154.4c0-0.1,0-0.2,0-0.2C479,154.2,479,154.2,478.9,154.4z"/>
			<path style="fill:#FFFAF5;" d="M478.6,148.7c0.1-0.1,0.2-0.1,0.4,0C478.8,148.7,478.7,148.7,478.6,148.7z"/>
			<path style="fill:#BACCE4;" d="M476.7,154.4c0,0,0-0.1-0.1-0.1c0-0.1,0-0.2,0-0.2C476.7,154.1,476.7,154.2,476.7,154.4z"/>
			<path style="fill:#FDF2E3;" d="M479.2,151.3C479.2,151.3,479.2,151.3,479.2,151.3c0.1-0.1,0.1-0.1,0.1-0.1
				C479.3,151.3,479.3,151.3,479.2,151.3C479.2,151.3,479.2,151.3,479.2,151.3C479.2,151.3,479.2,151.3,479.2,151.3
				C479.2,151.3,479.2,151.3,479.2,151.3z"/>
			<path style="fill:#F8BB73;" d="M479.2,151.3C479.2,151.3,479.3,151.3,479.2,151.3C479.3,151.2,479.3,151.2,479.2,151.3
				C479.3,151.3,479.3,151.3,479.2,151.3C479.3,151.3,479.3,151.3,479.2,151.3z"/>
			<path style="fill:#F8BC72;" d="M473.7,154.8C473.7,154.8,473.7,154.8,473.7,154.8c-0.1,0-0.1-0.1-0.1-0.1c0-0.8,0-1.6,0-2.4
				c0,0.7,0,1.4,0,2c0,0.1,0,0.3,0,0.4c-0.1,0-0.1-0.1-0.1-0.1c0-0.9,0-1.7,0-2.6c0.1-0.2,0.1-0.1,0.2,0c0.1,0.2,0,0.3,0,0.5
				C473.7,153.3,473.8,154,473.7,154.8z"/>
			<path style="fill:#C1D2E5;" d="M473.6,154.7c0,0,0,0.1,0,0.1c-0.2,0-0.2-0.1-0.2-0.2c0-0.9,0-1.7,0-2.6c0,0,0,0,0-0.1
				c0,0.8,0,1.6,0,2.4C473.5,154.5,473.5,154.6,473.6,154.7C473.6,154.7,473.6,154.7,473.6,154.7z"/>
			<path style="fill:#C1D2E5;" d="M473.7,154.8c0-0.9,0-1.8,0-2.8c0,0,0.1,0.1,0.1,0.1C473.8,153,473.8,153.8,473.7,154.8
				C473.8,154.7,473.7,154.8,473.7,154.8z"/>
			<path style="fill:#C1D2E7;" d="M473.4,148.6c0.2,0.5,0,0.9,0.1,1.4c0,0.1,0,0.3,0.1,0.4c-0.2,0.2-0.2,0-0.2-0.1
				C473.4,149.8,473.4,149.2,473.4,148.6z"/>
			<path style="fill:#BACCE4;" d="M475.3,151.6C475.3,151.6,475.3,151.6,475.3,151.6c0.1,0.1,0.1,0.2,0.1,0.3c0,0,0,0,0,0.1
				C475.3,151.8,475.3,151.7,475.3,151.6z"/>
			<path style="fill:#DBC0A0;" d="M483.1,154.7c-0.2-0.1-0.1-0.2-0.1-0.3c0-0.7,0-1.4,0-2.1c0-0.2,0-0.4,0.3-0.3
				c0.1,0.8,0,1.6,0,2.4c0,0.1,0,0.1-0.1,0.1c-0.1-0.1-0.1-0.2-0.1-0.4c0-0.7,0-1.3,0-2c0,0,0,0,0,0.1c0,0.8,0,1.5,0,2.3
				C483.2,154.6,483.1,154.7,483.1,154.7z"/>
			<path style="fill:#C2D2E6;" d="M483.2,154.6c0.1-0.2,0.1-0.4,0.1-0.5c0-0.7,0-1.3,0-2c0.1,0,0.1,0.1,0.1,0.2c0,0.8,0,1.5,0,2.3
				c0,0.1,0,0.3-0.2,0.2c0,0,0,0,0,0C483.2,154.7,483.1,154.6,483.2,154.6z"/>
			<path style="fill:#E0E6EE;" d="M483.5,150.2c0.1,0,0.2,0,0.2,0.1c-0.1,0-0.3,0-0.4-0.1C483.4,150.3,483.5,150.2,483.5,150.2z"/>
			<path style="fill:#C2D3E7;" d="M488.5,150.3C488.6,150.3,488.6,150.3,488.5,150.3c0.1,2.1,0.1,4.1,0.1,6.2c0,0-0.1,0-0.1,0
				c0-1.5,0-2.9,0-4.4C488.6,151.5,488.5,150.9,488.5,150.3z"/>
			<path style="fill:#C2D3E7;" d="M495.5,154.6C495.5,154.6,495.4,154.6,495.5,154.6c-0.1-1-0.1-1.9-0.1-2.9c0.1,0,0.1,0.1,0.1,0.2
				C495.5,152.8,495.5,153.7,495.5,154.6z"/>
			<path style="fill:#FAD9B2;" d="M497.5,152.3c-0.1,0.1-0.2,0.1-0.2-0.1c0-0.2-0.1-0.3,0-0.5c0.1-0.1,0.2-0.1,0.2,0
				C497.5,151.9,497.5,152.1,497.5,152.3z"/>
			<path style="fill:#FFFFFF;" d="M499.1,151.9c0.1,0.3,0.1,0.6,0,0.9C499.1,152.5,499.1,152.2,499.1,151.9z"/>
			<path style="fill:#FAFAF9;" d="M497.5,154.7c0-0.3,0-0.5,0-0.8c0,0,0,0,0.1,0C497.5,154.2,497.6,154.5,497.5,154.7z"/>
			<path style="fill:#F7FAFC;" d="M497.5,152.3c0-0.2,0-0.4,0-0.6C497.6,151.9,497.6,152.1,497.5,152.3z"/>
			<path style="fill:#FBE2C6;" d="M469.9,151.7c0.2,0.2,0.2,0.4,0,0.6C469.8,152.1,469.7,151.9,469.9,151.7z"/>
			<path style="fill:#F9C88B;" d="M469.9,151.7c0,0.2,0,0.4,0,0.6c0,0-0.1,0-0.1,0c-0.1-0.2-0.1-0.4,0-0.6
				C469.8,151.7,469.9,151.7,469.9,151.7z"/>
			<path style="fill:#EEECEA;" d="M470,153.9C470,153.9,470,153.9,470,153.9C470,153.9,470,153.9,470,153.9c0,0.3,0.1,0.6,0,0.8
				C470,154.4,470,154.1,470,153.9z"/>
			<path style="fill:#C1D2E7;" d="M469.8,151.7c0,0.2,0,0.4,0,0.6C469.6,152.1,469.6,151.9,469.8,151.7z"/>
			<path style="fill:#FFFFFF;" d="M495.2,152.8c0.1,0,0.1-0.1,0.1,0.1c0,0.3,0,0.6,0,0.9c0,0.1-0.1,0.1-0.1,0c-0.1,0-0.1,0-0.2,0
				c-0.1,0-0.2,0-0.3,0c0,0-0.1,0-0.1,0c-0.1,0-0.3,0-0.4,0c-0.2,0-0.3-0.2-0.5,0c0,0,0,0-0.1,0c-0.1,0-0.1,0.1-0.2,0.1
				c-0.1-0.4-0.1-0.8,0-1.2c0,0,0.1,0,0.1,0l0,0c0,0.1,0.1,0.1,0.2,0.1c0.1,0,0.3,0,0.4,0c0.1,0,0.2,0,0.3-0.1c0.1,0,0.2,0,0.2,0
				C494.9,152.8,495.1,152.8,495.2,152.8z"/>
			<path style="fill:#F9C88D;" d="M493.5,152.7c-0.1,0.4-0.1,0.8,0,1.2c0.1,0.3,0,0.5,0,0.8c0,0.1,0,0.2-0.2,0.1c-0.1-1,0-1.9,0-2.9
				c0-0.1,0.1-0.1,0.1-0.1C493.6,152.1,493.6,152.4,493.5,152.7z"/>
			<path style="fill:#C4D2E5;" d="M491.7,154.7c-0.1,0-0.1-0.1-0.1-0.1c0-0.9,0-1.7,0-2.6c0-0.1,0-0.1,0-0.2c0.1,0,0.1,0.1,0.1,0.2
				C491.7,152.9,491.7,153.8,491.7,154.7z"/>
			<path style="fill:#FAE3C7;" d="M493.4,151.9c0,1,0,1.9,0,2.9c-0.1-0.1-0.1-0.1-0.1-0.2c0-0.8,0-1.7,0-2.5
				C493.3,152,493.3,151.9,493.4,151.9z"/>
			<path style="fill:#F4F3F3;" d="M493.8,152.9c-0.2,0.1-0.2,0.1-0.2-0.1c0.2,0.2,0.5,0,0.8,0.1c0.1,0,0.2,0,0.2,0.1
				c-0.1,0.1-0.2,0-0.4,0.1C494.1,152.8,493.9,153,493.8,152.9z"/>
			<path style="fill:#D5CFCA;" d="M494.6,152.9c-0.1,0-0.2,0-0.2-0.1c0.2-0.1,0.4-0.1,0.6-0.1c0,0.1-0.1,0.1-0.2,0.1
				C494.7,152.8,494.6,152.9,494.6,152.9z"/>
			<path style="fill:#F9CB92;" d="M493.7,153.9c0.2-0.3,0.4-0.1,0.6,0c-0.1,0.1-0.3,0.1-0.4,0C493.8,153.9,493.7,153.9,493.7,153.9z
				"/>
			<path style="fill:#FBE2C6;" d="M493.5,152.7c0-0.3,0-0.6,0-0.9C493.7,152.1,493.6,152.4,493.5,152.7
				C493.6,152.7,493.5,152.7,493.5,152.7z"/>
			<path style="fill:#C5D4E8;" d="M493.8,153.9c0.1,0,0.3,0,0.4,0c0.1-0.1,0.2,0,0.3-0.1c0,0,0,0.1,0,0.1
				C494.3,153.9,494.1,153.9,493.8,153.9z"/>
			<path style="fill:#FCE3C7;" d="M493.5,154.7c0-0.3,0-0.5,0-0.8c0,0,0.1,0,0.1-0.1C493.5,154.1,493.7,154.4,493.5,154.7z"/>
			<path style="fill:#FFFDFA;" d="M494.6,153.9c0,0,0-0.1,0-0.1c0,0,0.1,0,0.1,0c0.1,0.1,0.3,0.1,0.4,0c0,0,0.1,0,0.1,0.1
				c0,0-0.1,0.1-0.1,0.1C494.9,153.9,494.8,153.9,494.6,153.9z"/>
			<path style="fill:#FFFFFF;" d="M495.2,151.9c0.1,0.2,0.1,0.4,0,0.7C495.2,152.4,495.2,152.2,495.2,151.9z"/>
			<path style="fill:#F8BB72;" d="M494.8,152.8c0.1,0,0.2,0,0.2-0.1c0,0,0.1,0,0.1,0c0,0,0,0,0.1,0.1
				C495.1,152.9,494.9,152.9,494.8,152.8z"/>
			<path style="fill:#FFFDFA;" d="M495.3,154.6C495.2,154.6,495.2,154.6,495.3,154.6c-0.1-0.2-0.1-0.4-0.1-0.6
				C495.4,154.2,495.2,154.4,495.3,154.6z"/>
			<path style="fill:#C2D3E7;" d="M488.9,150.3C488.9,150.3,489,150.3,488.9,150.3c0.1,0.7,0.1,1.3,0.1,2c0,1.4,0,2.8,0,4.2
				c0,0-0.1,0-0.1,0C488.9,154.4,488.9,152.3,488.9,150.3z"/>
			<path style="fill:#E0E8F1;" d="M490.7,152.9c0,1.2,0,2.4,0,3.5c0,0-0.1,0-0.1,0c0.1-0.6,0-1.3,0-1.9c0-0.6-0.1-1.2,0-1.7
				C490.7,152.9,490.7,152.9,490.7,152.9z"/>
			<path style="fill:#FFFFFF;" d="M491.5,150.3C491.5,150.3,491.5,150.3,491.5,150.3c0.1,0.4,0.1,0.8,0.1,1.3c0,0.1,0,0.2-0.1,0.3
				C491.5,151.4,491.5,150.8,491.5,150.3z"/>
			<path style="fill:#F8BB72;" d="M481.2,154.3c-0.1-0.2,0-0.4-0.1-0.6C481.3,153.9,481.2,154.1,481.2,154.3z"/>
			<path style="fill:#FFFFFF;" d="M473.6,154.7L473.6,154.7C473.6,154.7,473.6,154.7,473.6,154.7c0-0.9,0-1.7,0-2.6c0,0,0,0,0,0
				C473.6,153,473.6,153.9,473.6,154.7z"/>
			<path style="fill:#FFFFFF;" d="M483.2,154.6c0,0,0,0.1-0.1,0.1c0-0.8,0-1.7,0-2.5c0,0,0,0,0.1,0
				C483.2,153,483.2,153.8,483.2,154.6z"/>
			<path style="fill:#F9C78B;" d="M495.1,153.8c-0.1,0.1-0.3,0.1-0.4,0C494.8,153.8,494.9,153.8,495.1,153.8z"/>
			<path style="fill:#F9CB91;" d="M493.8,152.9c0.1,0,0.3-0.1,0.4,0.1C494.1,152.9,493.9,153,493.8,152.9z"/>
		</g>
	</g>
	<g>
		<g>
			<path style="fill:#FFFFFF;" d="M332.4,121.7c0,5.5-4,7.8-9.3,7.8H320v9h-3v-24.1h6.2C328.9,114.3,332.4,116.6,332.4,121.7z
				 M329.2,121.7c0-3.7-2.4-5.1-6.1-5.1H320V127h3.1C326.7,127,329.2,125.9,329.2,121.7z"/>
			<path style="fill:#FFFFFF;" d="M345.8,132.2h-9.4l-1.9,6.2h-3.1l7.8-24.1h3.9l7.8,24.1h-3.2L345.8,132.2z M345.1,129.7l-3.9-12.9
				l-3.9,12.9H345.1z"/>
			<path style="fill:#FFFFFF;" d="M368.7,116.2l-1.6,2c-1.5-1.2-3-1.8-4.7-1.8c-3.8,0-6.9,2.6-6.9,10c0,7.1,3,9.9,6.9,9.9
				c2.3,0,3.8-1,5.2-2l1.5,2c-1.3,1.4-3.6,2.7-6.8,2.7c-5.8,0-10-4.4-10-12.5c0-8.2,4.5-12.5,10-12.5
				C365.1,113.8,366.8,114.7,368.7,116.2z"/>
			<path style="fill:#FFFFFF;" d="M376.4,138.4h-3v-24.1h3V138.4z M380,125.3l10,13.1h-3.8l-9.8-12.9l9.4-11.2h3.5L380,125.3z"/>
			<path style="fill:#FFFFFF;" d="M404.7,132.2h-9.4l-1.9,6.2h-3.1l7.8-24.1h3.9l7.8,24.1h-3.2L404.7,132.2z M403.9,129.7l-3.9-12.9
				l-3.9,12.9H403.9z"/>
			<path style="fill:#FFFFFF;" d="M428.5,116.4l-1.8,1.9c-1.7-1.3-3.2-1.9-5.3-1.9c-3.5,0-7.1,2.7-7.1,9.9c0,7.1,2.5,10,6.8,10
				c1.7,0,3.3-0.4,4.7-1.2v-7.5h-4.4l-0.4-2.5h7.8v11.6c-2.2,1.3-4.7,2.1-7.9,2.1c-6,0-9.9-4.2-9.9-12.5c0-8.2,4.9-12.5,10.3-12.5
				C424.5,113.8,426.5,114.8,428.5,116.4z"/>
			<path style="fill:#FFFFFF;" d="M447.2,116.7h-9.5v8.1h8.2v2.5h-8.2v8.6h10.1v2.5h-13.1v-24.1h12.9L447.2,116.7z"/>
			<path style="fill:#FFFFFF;" d="M476.2,127h-10.5v11.4h-3v-24.1h3v10.2h10.5v-10.2h3.1v24.1h-3.1V127z"/>
			<path style="fill:#FFFFFF;" d="M499,116.7h-9.5v8.1h8.2v2.5h-8.2v8.6h10.1v2.5h-13.1v-24.1h12.9L499,116.7z"/>
			<path style="fill:#FFFFFF;" d="M512,128h-4v10.4h-3v-24.1h6.2c6,0,9.1,2.3,9.1,6.8c0,3.4-1.8,5.4-5.3,6.5l6.5,10.9h-3.6L512,128z
				 M511.6,125.7c3.5,0,5.5-1.3,5.5-4.6c0-3.1-1.8-4.4-5.9-4.4H508v9H511.6z"/>
			<path style="fill:#FFFFFF;" d="M544.4,126.4c0,8-4.1,12.5-10.1,12.5c-6,0-10.1-4.3-10.1-12.4c0-8,4.1-12.6,10.1-12.6
				C540.3,113.8,544.4,118.2,544.4,126.4z M527.4,126.4c0,7,2.8,9.9,6.9,9.9c4.2,0,6.9-2.9,6.9-9.9c0-7.1-2.6-10-6.9-10
				C530.1,116.4,527.4,119.3,527.4,126.4z"/>
		</g>
	</g>
	<g>
		<g>
			<g>
				<g>
					<g>
						<path style="fill:#BB976C;" d="M329.4,134.1c0.3,0.4,0.3,0.9-0.1,1.2l-28.5,25.8c-0.4,0.3-0.9,0.3-1.2-0.1l-26.2-31.1
							c-0.3-0.4-0.3-0.9,0.1-1.2L302,103c0.4-0.3,0.9-0.3,1.2,0.1L329.4,134.1z"/>
					</g>
					<g>
						<path style="fill:#9E784D;" d="M294.7,108.4c0.3,0.4,0.3,0.9-0.1,1.2l-20.7,18.8c-0.4,0.3-0.9,0.3-1.2-0.1l-11-13.1
							c-0.3-0.4-0.3-0.9,0.1-1.2l20.7-18.8c0.4-0.3,0.9-0.3,1.2,0.1L294.7,108.4z"/>
					</g>
					<g>
						<path style="fill:#BB976C;" d="M294.2,108c0.3,0.4,0.3,0.9-0.1,1.2L273.4,128c-0.4,0.3-0.9,0.3-1.2-0.1l-11-13.1
							c-0.3-0.4-0.3-0.9,0.1-1.2L282,94.8c0.4-0.3,0.9-0.3,1.2,0.1L294.2,108z"/>
					</g>
				</g>
			</g>
			<g>
				<polygon style="fill:#FFFFFF;" points="326.5,135 321.4,139.8 318,135.8 323.1,131 				"/>
				<path style="fill:#2F2A2F;" d="M321.5,138.9l0.2-0.2l-2.7-3.2l-0.2,0.2L321.5,138.9z M324.3,136.2l0.1-0.1l-2.7-3.2l-0.1,0.1
					L324.3,136.2z M322.8,137.7l0.2-0.2l-2.7-3.2l-0.2,0.2L322.8,137.7z M323.7,136.8l0.2-0.2l-2.7-3.2l-0.2,0.2L323.7,136.8z
					 M323.1,137.3l0.3-0.3l-2.7-3.2l-0.3,0.3L323.1,137.3z M322.7,132l2.7,3.2l0.2-0.2l-2.7-3.2L322.7,132z M325,135.6l0.2-0.2
					l-2.7-3.2l-0.2,0.2L325,135.6z M321.7,138.6L321.7,138.6l-2.7-3.2l0,0L321.7,138.6z M322,138.4L322,138.4l-2.7-3.2l0,0
					L322,138.4z M322.2,138.2L322.2,138.2l-2.7-3.2l0,0L322.2,138.2z M321.9,138.6L321.9,138.6l-2.7-3.2l0,0L321.9,138.6z
					 M324.7,135.9L324.7,135.9l-2.7-3.2l0,0L324.7,135.9z M325.3,135.4L325.3,135.4l-2.7-3.2l0,0L325.3,135.4z M322.6,137.9
					L322.6,137.9l-2.7-3.2l0,0L322.6,137.9z M324.2,136.4L324.2,136.4l-2.7-3.2l0,0L324.2,136.4z M323.6,136.9L323.6,136.9l-2.7-3.2
					l0,0L323.6,136.9z"/>
			</g>
		</g>
		<g>
			<g>
				<g>
					<path style="fill:#04529D;" d="M292,136.5c-0.1-3.4,2.1-6.3,4.7-7.3c2.6-1,5.3-0.3,6.9,1c1.6,1.3,2.3,3,2.6,4.1
						c0.3,1.1,0.2,1.8,0.2,1.8c0,0,0-0.7-0.3-1.8c-0.3-1.1-1.1-2.6-2.7-3.8c-1.6-1.2-4.1-1.7-6.4-0.7c-2.3,0.9-4.3,3.6-4.2,6.6
						c0,3,2.1,5.6,4.5,6.4c2.4,0.9,4.9,0.2,6.4-1.1c1.6-1.2,2.2-2.8,2.5-3.9c0.3-1.1,0.2-1.8,0.2-1.8c0,0,0.1,0.6-0.1,1.8
						c-0.2,1.1-0.8,2.8-2.4,4.2c-1.5,1.4-4.2,2.3-6.8,1.4C294.4,142.6,292,139.8,292,136.5z"/>
					<path style="fill:#04529D;" d="M303.4,131.1c-1.5,1.2-4,1.9-6.4,1.1c-0.8-0.3-1.6-0.8-2.3-1.4c-0.2,0.1-0.4,0.3-0.6,0.4
						c0.8,0.8,1.7,1.3,2.7,1.6c2.7,0.9,5.3,0,6.8-1.4c0.2-0.1,0.3-0.3,0.4-0.4c-0.1-0.1-0.1-0.2-0.2-0.3
						C303.7,130.8,303.5,131,303.4,131.1z"/>
					<path style="fill:#04529D;" d="M297.2,140.5c2.4-1,4.9-0.4,6.4,0.7c0.2,0.1,0.3,0.2,0.4,0.3c0.1-0.1,0.2-0.2,0.3-0.2
						c-0.2-0.1-0.3-0.3-0.5-0.4c-1.6-1.3-4.3-2-6.9-1c-1,0.3-1.9,1-2.6,1.8c0.2,0.1,0.4,0.3,0.6,0.4
						C295.6,141.4,296.4,140.8,297.2,140.5z"/>
					<path style="fill:#04529D;" d="M302.5,136.2c0,2.3-0.4,4.5-1.1,5.9c-0.4,0.7-0.8,1.2-1.2,1.3c-0.4,0.2-0.6,0.1-0.6,0.1
						c0,0.1,1-0.2,1.5-1.6c0.5-1.4,0.8-3.4,0.7-5.7c-0.1-2.3-0.4-4.3-1-5.6c-0.5-1.4-1.6-1.6-1.6-1.6c0,0,0.2-0.1,0.6,0.1
						c0.4,0.2,0.9,0.6,1.3,1.3C301.9,131.7,302.5,133.8,302.5,136.2z"/>
					<path style="fill:#04529D;" d="M296.3,136.3c0-2.3,0.4-4.5,1.1-5.9c0.4-0.7,0.8-1.2,1.2-1.3c0.4-0.2,0.6-0.1,0.6-0.1
						c0-0.1-1,0.2-1.5,1.6c-0.5,1.4-0.8,3.4-0.7,5.7c0.1,2.2,0.4,4.3,1,5.6c0.5,1.4,1.6,1.6,1.6,1.6c0,0-0.2,0.1-0.6-0.1
						c-0.4-0.2-0.9-0.6-1.3-1.3C296.9,140.8,296.3,138.7,296.3,136.3z"/>
					<path style="fill:#04529D;" d="M299.7,136.3c0.1,4-0.2,7.3-0.2,7.3s-0.4-3.2-0.5-7.3c-0.1-4,0.2-7.3,0.2-7.3
						S299.6,132.2,299.7,136.3z"/>
					<path style="fill:#04529D;" d="M299.4,135.9c3.9-0.1,7,0.2,7,0.2s-3.1,0.5-7,0.6c-3.9,0.1-7-0.2-7-0.2S295.5,136,299.4,135.9z"
						/>
				</g>
				<g>
					<path style="fill:#F79222;" d="M310.2,141.4c-0.5-2.4-1.9-3.8-3.1-5.2c-0.2-0.2-0.5-0.5-0.7-0.7c0.1,0.5,0,1.1-0.1,1.7
						c1.1,1.2,2.3,2.8,2.5,4.3c0.3,1.5-1.5,1.8-3.3,1.6c-3.6-0.6-7-2.3-9.9-4.2c-2.9-1.9-5.3-3.9-6.8-6.1c-0.7-1.1-1.3-2.2-1.1-3.1
						c0.2-0.9,1-1.3,1.7-1.5c1.3-0.3,2.1-0.1,2.1-0.1c0,0-0.8-0.3-2.2-0.1c-0.7,0.1-1.7,0.4-2.1,1.5c-0.3,1.2,0.2,2.5,0.9,3.7
						c1.5,2.4,3.9,4.7,6.8,6.8c2.9,2,6.4,4,10.4,4.6c1,0.1,2.1,0.2,3.1-0.2C309.6,144.1,310.5,142.7,310.2,141.4z"/>
				</g>
				<g>
					<path style="fill:#007BBF;" d="M308,129.6c-1.9-0.8-3.6-0.3-5.1,0c-0.1,0-0.2,0.1-0.3,0.1c0.4,0.3,0.8,0.6,1.2,0.9
						c1.2-0.2,2.6-0.3,3.6,0.2c1.2,0.5,0.6,2.2-0.4,3.5c-2.1,2.7-4.9,4.6-7.5,6.1c-2.6,1.4-5.2,2.4-7.4,2.6
						c-1.1,0.1-2.1-0.1-2.7-0.7c-0.6-0.6-0.5-1.5-0.3-2.1c0.4-1.2,0.9-1.8,0.9-1.8c0,0-0.5,0.5-1.1,1.8c-0.2,0.6-0.5,1.6,0.2,2.5
						c0.7,0.8,1.9,1.1,3.1,1.1c2.4,0,5.1-0.8,7.9-2.2c2.8-1.4,5.7-3.3,8-6.3c0.6-0.8,1.1-1.6,1.3-2.7C309.7,131.4,309,130,308,129.6
						z"/>
				</g>
			</g>
			<g>
				<path style="fill:#F79222;" d="M300.5,127.6l0.5-5c3.3-1.9,3.5-2.1,4.5-3.3c0.4-0.6,0.7-1.6-1.1-1.1c-0.2-0.1-1.2-0.3-1.9,0.6
					l-3.1,1.8l-6.1-0.2l-4.7-0.1c-0.6,0.1-0.8,0-0.9,0.6l5.3,1.3l2,0.9l-2.3,1.3l-1.7-1.1c-0.3-0.1-0.3-0.2-0.5-0.1
					c-0.2,0.1-0.5,0.2-0.5,0.2l0.5,1.6l-1.9-0.4c-0.3-0.1-0.8,0-0.9,0.4l2.6,1.4c-0.4,0.5,0.4,0.5,0.6,0.4l1.4,1
					c0.2,0,0.5-0.1,0.4-0.5l-0.3-0.9c1.1-0.3,3.1-1.1,4.8-1.8l1.5,0.8l0.8,2.5C300,127.9,300.3,127.8,300.5,127.6z"/>
			</g>
		</g>
	</g>
</g>
<g>
</g>
<g>
</g>
<g>
</g>
<g>
</g>
<g>
</g>
<g>
</g>
</svg>
