<?xml version="1.0" encoding="utf-8"?>
<!-- Generator: Adobe Illustrator 17.0.0, SVG Export Plug-In . SVG Version: 6.00 Build 0)  -->
<!DOCTYPE svg PUBLIC "-//W3C//DTD SVG 1.1//EN" "http://www.w3.org/Graphics/SVG/1.1/DTD/svg11.dtd">
<svg version="1.1" id="Layer_1" xmlns="http://www.w3.org/2000/svg" xmlns:xlink="http://www.w3.org/1999/xlink" x="0px" y="0px"
	 width="560px" height="960px" viewBox="0 0 560 960" enable-background="new 0 0 560 960" xml:space="preserve">
<rect y="-2" fill="#2980B9" width="560" height="979"/>
<g>
	<path fill="#FFFFFF" d="M132.69,472.651c1.512-0.252,3.491-0.469,6.011-0.469c3.095,0,5.363,0.721,6.803,2.017
		c1.332,1.151,2.124,2.915,2.124,5.075c0,2.195-0.648,3.923-1.872,5.184c-1.656,1.764-4.355,2.663-7.416,2.663
		c-0.936,0-1.799-0.036-2.52-0.216v9.719h-3.131V472.651z M135.821,484.35c0.684,0.18,1.548,0.252,2.592,0.252
		c3.779,0,6.083-1.836,6.083-5.184c0-3.203-2.268-4.751-5.723-4.751c-1.368,0-2.412,0.107-2.952,0.252V484.35z"/>
	<path fill="#FFFFFF" d="M160.445,496.624l-0.252-2.195h-0.108c-0.972,1.367-2.844,2.591-5.327,2.591
		c-3.528,0-5.328-2.483-5.328-5.003c0-4.212,3.744-6.516,10.475-6.479v-0.359c0-1.44-0.396-4.032-3.959-4.032
		c-1.62,0-3.312,0.505-4.535,1.296l-0.72-2.087c1.44-0.937,3.528-1.548,5.724-1.548c5.327,0,6.623,3.635,6.623,7.127v6.515
		c0,1.512,0.072,2.988,0.288,4.176H160.445z M159.977,487.733c-3.456-0.072-7.379,0.54-7.379,3.923c0,2.052,1.368,3.024,2.988,3.024
		c2.268,0,3.708-1.44,4.211-2.916c0.108-0.324,0.18-0.684,0.18-1.008V487.733z"/>
	<path fill="#FFFFFF" d="M180.568,495.977c-0.828,0.432-2.664,1.008-5.003,1.008c-5.255,0-8.675-3.563-8.675-8.892
		c0-5.363,3.672-9.251,9.359-9.251c1.872,0,3.528,0.469,4.392,0.9l-0.72,2.447c-0.756-0.432-1.943-0.827-3.671-0.827
		c-3.996,0-6.155,2.951-6.155,6.587c0,4.031,2.592,6.515,6.047,6.515c1.8,0,2.988-0.468,3.888-0.863L180.568,495.977z"/>
	<path fill="#FFFFFF" d="M187.41,487.193h0.072c0.432-0.612,1.044-1.368,1.548-1.979l5.111-6.012h3.816l-6.731,7.163l7.667,10.259
		h-3.852l-6.011-8.351l-1.62,1.8v6.551h-3.132v-25.557h3.132V487.193z"/>
	<path fill="#FFFFFF" d="M211.456,496.624l-0.252-2.195h-0.108c-0.972,1.367-2.844,2.591-5.327,2.591
		c-3.528,0-5.328-2.483-5.328-5.003c0-4.212,3.744-6.516,10.475-6.479v-0.359c0-1.44-0.396-4.032-3.959-4.032
		c-1.62,0-3.312,0.505-4.535,1.296l-0.72-2.087c1.44-0.937,3.528-1.548,5.724-1.548c5.327,0,6.623,3.635,6.623,7.127v6.515
		c0,1.512,0.072,2.988,0.288,4.176H211.456z M210.988,487.733c-3.456-0.072-7.379,0.54-7.379,3.923c0,2.052,1.368,3.024,2.988,3.024
		c2.268,0,3.708-1.44,4.211-2.916c0.108-0.324,0.18-0.684,0.18-1.008V487.733z"/>
	<path fill="#FFFFFF" d="M234.171,479.202c-0.072,1.26-0.144,2.664-0.144,4.787v10.115c0,3.995-0.792,6.443-2.483,7.955
		c-1.692,1.584-4.14,2.088-6.335,2.088c-2.087,0-4.391-0.504-5.795-1.44l0.792-2.411c1.152,0.72,2.952,1.367,5.111,1.367
		c3.24,0,5.616-1.691,5.616-6.083v-1.943h-0.072c-0.972,1.619-2.844,2.915-5.543,2.915c-4.319,0-7.415-3.671-7.415-8.495
		c0-5.902,3.852-9.25,7.847-9.25c3.023,0,4.679,1.583,5.436,3.023h0.072l0.144-2.628H234.171z M230.896,486.077
		c0-0.54-0.036-1.008-0.18-1.439c-0.576-1.836-2.124-3.348-4.427-3.348c-3.024,0-5.184,2.556-5.184,6.587
		c0,3.42,1.728,6.264,5.147,6.264c1.944,0,3.708-1.225,4.392-3.24c0.18-0.54,0.252-1.151,0.252-1.691V486.077z"/>
	<path fill="#FFFFFF" d="M241.049,488.489c0.072,4.283,2.808,6.047,5.975,6.047c2.268,0,3.636-0.396,4.823-0.899l0.54,2.268
		c-1.116,0.504-3.023,1.08-5.795,1.08c-5.363,0-8.567-3.528-8.567-8.783c0-5.256,3.096-9.395,8.171-9.395
		c5.688,0,7.199,5.003,7.199,8.207c0,0.647-0.072,1.151-0.108,1.476H241.049z M250.335,486.222c0.036-2.016-0.828-5.147-4.392-5.147
		c-3.204,0-4.607,2.951-4.859,5.147H250.335z"/>
	<path fill="#FFFFFF" d="M268.192,472.363v24.261h-3.131v-24.261H268.192z"/>
	<path fill="#FFFFFF" d="M273.124,493.385c0.936,0.611,2.592,1.26,4.175,1.26c2.304,0,3.384-1.152,3.384-2.592
		c0-1.512-0.9-2.34-3.24-3.204c-3.131-1.115-4.607-2.844-4.607-4.931c0-2.808,2.268-5.111,6.011-5.111
		c1.764,0,3.311,0.504,4.284,1.079l-0.792,2.304c-0.685-0.432-1.944-1.008-3.563-1.008c-1.872,0-2.916,1.08-2.916,2.376
		c0,1.439,1.044,2.088,3.312,2.952c3.023,1.151,4.571,2.663,4.571,5.255c0,3.06-2.376,5.22-6.515,5.22
		c-1.908,0-3.672-0.469-4.896-1.188L273.124,493.385z"/>
	<path fill="#FFFFFF" d="M287.38,493.385c0.936,0.611,2.592,1.26,4.175,1.26c2.304,0,3.384-1.152,3.384-2.592
		c0-1.512-0.899-2.34-3.239-3.204c-3.132-1.115-4.607-2.844-4.607-4.931c0-2.808,2.268-5.111,6.011-5.111
		c1.764,0,3.312,0.504,4.284,1.079l-0.792,2.304c-0.685-0.432-1.944-1.008-3.563-1.008c-1.872,0-2.916,1.08-2.916,2.376
		c0,1.439,1.044,2.088,3.312,2.952c3.023,1.151,4.571,2.663,4.571,5.255c0,3.06-2.376,5.22-6.515,5.22
		c-1.908,0-3.672-0.469-4.896-1.188L287.38,493.385z"/>
	<path fill="#FFFFFF" d="M316.646,491.873c0,1.8,0.036,3.383,0.144,4.751h-2.808l-0.18-2.844h-0.072
		c-0.827,1.404-2.663,3.239-5.759,3.239c-2.735,0-6.012-1.512-6.012-7.631v-10.187h3.168v9.646c0,3.312,1.008,5.544,3.888,5.544
		c2.124,0,3.6-1.477,4.176-2.88c0.18-0.468,0.287-1.044,0.287-1.62v-10.69h3.168V491.873z"/>
	<path fill="#FFFFFF" d="M323.667,488.489c0.072,4.283,2.808,6.047,5.976,6.047c2.268,0,3.636-0.396,4.823-0.899l0.54,2.268
		c-1.116,0.504-3.023,1.08-5.796,1.08c-5.363,0-8.566-3.528-8.566-8.783c0-5.256,3.096-9.395,8.171-9.395
		c5.688,0,7.199,5.003,7.199,8.207c0,0.647-0.072,1.151-0.108,1.476H323.667z M332.954,486.222c0.036-2.016-0.828-5.147-4.392-5.147
		c-3.204,0-4.607,2.951-4.859,5.147H332.954z"/>
	<path fill="#FFFFFF" d="M368.124,485.97c-0.18-3.384-0.396-7.451-0.36-10.475h-0.107c-0.828,2.843-1.836,5.867-3.06,9.215
		l-4.284,11.771h-2.375l-3.924-11.555c-1.151-3.42-2.123-6.552-2.808-9.431h-0.071c-0.072,3.023-0.252,7.091-0.469,10.727
		l-0.647,10.402h-2.987l1.691-24.261h3.995l4.14,11.734c1.008,2.987,1.836,5.651,2.447,8.171h0.108
		c0.612-2.447,1.476-5.111,2.556-8.171l4.319-11.734h3.996l1.512,24.261h-3.06L368.124,485.97z"/>
	<path fill="#FFFFFF" d="M386.377,496.624l-0.252-2.195h-0.108c-0.972,1.367-2.843,2.591-5.327,2.591
		c-3.527,0-5.327-2.483-5.327-5.003c0-4.212,3.743-6.516,10.475-6.479v-0.359c0-1.44-0.396-4.032-3.959-4.032
		c-1.62,0-3.312,0.505-4.536,1.296l-0.72-2.087c1.44-0.937,3.527-1.548,5.724-1.548c5.327,0,6.623,3.635,6.623,7.127v6.515
		c0,1.512,0.072,2.988,0.288,4.176H386.377z M385.909,487.733c-3.456-0.072-7.379,0.54-7.379,3.923c0,2.052,1.367,3.024,2.987,3.024
		c2.268,0,3.708-1.44,4.212-2.916c0.107-0.324,0.18-0.684,0.18-1.008V487.733z"/>
	<path fill="#FFFFFF" d="M394.082,483.918c0-1.8-0.036-3.276-0.145-4.716h2.808l0.181,2.88h0.071c0.864-1.656,2.88-3.275,5.76-3.275
		c2.411,0,6.155,1.439,6.155,7.415v10.402h-3.168v-10.043c0-2.808-1.044-5.147-4.031-5.147c-2.088,0-3.708,1.477-4.247,3.24
		c-0.145,0.396-0.217,0.936-0.217,1.476v10.475h-3.167V483.918z"/>
	<path fill="#FFFFFF" d="M423.708,496.624l-0.252-2.195h-0.108c-0.972,1.367-2.843,2.591-5.327,2.591
		c-3.527,0-5.327-2.483-5.327-5.003c0-4.212,3.743-6.516,10.475-6.479v-0.359c0-1.44-0.396-4.032-3.959-4.032
		c-1.62,0-3.312,0.505-4.536,1.296l-0.72-2.087c1.44-0.937,3.527-1.548,5.724-1.548c5.327,0,6.623,3.635,6.623,7.127v6.515
		c0,1.512,0.072,2.988,0.288,4.176H423.708z M423.24,487.733c-3.456-0.072-7.379,0.54-7.379,3.923c0,2.052,1.367,3.024,2.987,3.024
		c2.268,0,3.708-1.44,4.212-2.916c0.107-0.324,0.18-0.684,0.18-1.008V487.733z"/>
	<path fill="#FFFFFF" d="M446.423,479.202c-0.072,1.26-0.144,2.664-0.144,4.787v10.115c0,3.995-0.792,6.443-2.484,7.955
		c-1.691,1.584-4.139,2.088-6.335,2.088c-2.088,0-4.392-0.504-5.795-1.44l0.792-2.411c1.151,0.72,2.951,1.367,5.111,1.367
		c3.239,0,5.615-1.691,5.615-6.083v-1.943h-0.072c-0.972,1.619-2.844,2.915-5.543,2.915c-4.319,0-7.415-3.671-7.415-8.495
		c0-5.902,3.852-9.25,7.847-9.25c3.023,0,4.68,1.583,5.436,3.023h0.071l0.145-2.628H446.423z M443.147,486.077
		c0-0.54-0.036-1.008-0.18-1.439c-0.576-1.836-2.124-3.348-4.428-3.348c-3.023,0-5.184,2.556-5.184,6.587
		c0,3.42,1.728,6.264,5.147,6.264c1.943,0,3.708-1.225,4.392-3.24c0.18-0.54,0.252-1.151,0.252-1.691V486.077z"/>
	<path fill="#FFFFFF" d="M453.301,488.489c0.072,4.283,2.808,6.047,5.976,6.047c2.268,0,3.635-0.396,4.823-0.899l0.54,2.268
		c-1.116,0.504-3.024,1.08-5.796,1.08c-5.363,0-8.566-3.528-8.566-8.783c0-5.256,3.096-9.395,8.171-9.395
		c5.688,0,7.199,5.003,7.199,8.207c0,0.647-0.072,1.151-0.108,1.476H453.301z M462.588,486.222c0.035-2.016-0.828-5.147-4.392-5.147
		c-3.204,0-4.607,2.951-4.859,5.147H462.588z"/>
	<path fill="#FFFFFF" d="M469.573,484.638c0-2.052-0.036-3.815-0.145-5.436h2.771l0.108,3.42h0.144
		c0.792-2.34,2.7-3.815,4.824-3.815c0.359,0,0.611,0.035,0.899,0.107v2.988c-0.324-0.072-0.647-0.108-1.08-0.108
		c-2.231,0-3.815,1.691-4.247,4.067c-0.072,0.432-0.145,0.936-0.145,1.476v9.287h-3.131V484.638z"/>
</g>
<g>
	<path fill="#F1C40F" d="M132.56,466.571l-2.396-9.441h1.289l1.121,4.777c0.28,1.176,0.532,2.353,0.7,3.264h0.028
		c0.154-0.938,0.448-2.06,0.771-3.278l1.261-4.763h1.275l1.148,4.791c0.266,1.12,0.518,2.241,0.658,3.235h0.028
		c0.196-1.036,0.462-2.087,0.756-3.264l1.247-4.763h1.247l-2.675,9.441h-1.275l-1.19-4.917c-0.294-1.204-0.49-2.129-0.616-3.081
		h-0.028c-0.168,0.938-0.378,1.862-0.729,3.081l-1.345,4.917H132.56z"/>
	<path fill="#F1C40F" d="M143.045,463.405c0.028,1.667,1.092,2.354,2.325,2.354c0.882,0,1.415-0.154,1.877-0.351l0.21,0.883
		c-0.434,0.196-1.176,0.42-2.255,0.42c-2.087,0-3.334-1.372-3.334-3.417c0-2.046,1.205-3.656,3.18-3.656
		c2.213,0,2.802,1.947,2.802,3.193c0,0.252-0.028,0.448-0.042,0.574H143.045z M146.659,462.523c0.014-0.785-0.322-2.003-1.709-2.003
		c-1.247,0-1.793,1.148-1.891,2.003H146.659z"/>
	<path fill="#F1C40F" d="M149.316,466.571c0.028-0.462,0.056-1.148,0.056-1.751v-8.194h1.219v4.258h0.028
		c0.435-0.756,1.219-1.246,2.312-1.246c1.681,0,2.872,1.4,2.857,3.46c0,2.423-1.527,3.628-3.04,3.628
		c-0.98,0-1.765-0.379-2.27-1.275h-0.042l-0.056,1.121H149.316z M150.591,463.853c0,0.154,0.028,0.309,0.056,0.448
		c0.238,0.854,0.953,1.443,1.849,1.443c1.289,0,2.059-1.051,2.059-2.605c0-1.359-0.701-2.521-2.017-2.521
		c-0.841,0-1.625,0.574-1.877,1.513c-0.028,0.14-0.07,0.309-0.07,0.504V463.853z"/>
	<path fill="#F1C40F" d="M160.18,465.086c0.546,0.336,1.345,0.616,2.185,0.616c1.247,0,1.975-0.658,1.975-1.611
		c0-0.882-0.504-1.387-1.779-1.877c-1.541-0.546-2.494-1.345-2.494-2.676c0-1.471,1.219-2.563,3.054-2.563
		c0.967,0,1.667,0.224,2.087,0.462l-0.336,0.994c-0.308-0.168-0.938-0.448-1.793-0.448c-1.289,0-1.779,0.771-1.779,1.415
		c0,0.883,0.574,1.316,1.877,1.821c1.597,0.616,2.409,1.387,2.409,2.773c0,1.456-1.079,2.717-3.306,2.717
		c-0.911,0-1.905-0.266-2.409-0.602L160.18,465.086z"/>
	<path fill="#F1C40F" d="M173.427,463.125c0,2.508-1.737,3.601-3.375,3.601c-1.835,0-3.25-1.345-3.25-3.488
		c0-2.27,1.485-3.6,3.362-3.6C172.111,459.637,173.427,461.052,173.427,463.125z M168.048,463.195c0,1.485,0.854,2.605,2.059,2.605
		c1.177,0,2.059-1.106,2.059-2.634c0-1.148-0.574-2.604-2.031-2.604C168.679,460.562,168.048,461.907,168.048,463.195z"/>
	<path fill="#F1C40F" d="M180.651,464.722c0,0.7,0.014,1.316,0.056,1.849h-1.092l-0.07-1.106h-0.028
		c-0.322,0.546-1.037,1.261-2.241,1.261c-1.064,0-2.339-0.589-2.339-2.97v-3.964h1.233v3.754c0,1.288,0.392,2.157,1.513,2.157
		c0.826,0,1.401-0.574,1.625-1.121c0.07-0.182,0.112-0.406,0.112-0.63v-4.16h1.233V464.722z"/>
	<path fill="#F1C40F" d="M182.692,461.907c0-0.799-0.014-1.485-0.056-2.115h1.079l0.042,1.33h0.056
		c0.308-0.91,1.051-1.484,1.877-1.484c0.14,0,0.238,0.014,0.35,0.042v1.162c-0.126-0.027-0.252-0.042-0.42-0.042
		c-0.869,0-1.485,0.659-1.653,1.583c-0.028,0.168-0.056,0.364-0.056,0.574v3.614h-1.219V461.907z"/>
	<path fill="#F1C40F" d="M191.962,466.319c-0.322,0.168-1.036,0.392-1.947,0.392c-2.045,0-3.376-1.387-3.376-3.459
		c0-2.088,1.429-3.601,3.642-3.601c0.729,0,1.373,0.183,1.709,0.351l-0.28,0.952c-0.294-0.168-0.756-0.322-1.429-0.322
		c-1.555,0-2.396,1.148-2.396,2.563c0,1.569,1.009,2.535,2.354,2.535c0.7,0,1.163-0.182,1.513-0.336L191.962,466.319z"/>
	<path fill="#F1C40F" d="M194.004,463.405c0.028,1.667,1.093,2.354,2.325,2.354c0.882,0,1.415-0.154,1.877-0.351l0.21,0.883
		c-0.434,0.196-1.176,0.42-2.255,0.42c-2.087,0-3.334-1.372-3.334-3.417c0-2.046,1.205-3.656,3.18-3.656
		c2.213,0,2.802,1.947,2.802,3.193c0,0.252-0.028,0.448-0.042,0.574H194.004z M197.618,462.523c0.014-0.785-0.322-2.003-1.709-2.003
		c-1.247,0-1.793,1.148-1.891,2.003H197.618z"/>
</g>
<g>
	<path fill="#F1C40F" d="M88.079,499.321c-4.648-7.75-9.192-15.565-14.002-23.213c-1.663-2.643-1.433-3.948,1.39-5.453
		c8.949-4.77,17.817-9.7,26.592-14.783c2.519-1.459,3.719-1.096,5.131,1.367c4.127,7.199,8.445,14.289,12.771,21.372
		c1.199,1.964,1.848,3.35-0.855,4.776c-9.933,5.242-19.759,10.685-29.626,16.052C88.97,499.899,88.503,499.86,88.079,499.321z"/>
	<path fill="#F1C40F" d="M88.079,499.321c0.467,0.04,0.933,0.079,1.4,0.119c1.779,2.873,3.727,3.11,6.75,1.322
		c8.24-4.872,16.693-9.386,25.09-13.988c1.654-0.906,3.734-2.874,5.097-0.048c1.098,2.279-1.348,3.074-2.868,3.934
		c-8.174,4.626-16.362,9.231-24.596,13.747c-2.006,1.1-3.438,1.992-3.519,4.826c-0.119,4.211-2.733,7.141-6.842,8.416
		c-3.529,1.095-6.673,0.014-9.067-2.567c-2.9-3.126-3.643-6.925-1.289-10.65c1.256-1.988,0.696-3.3-0.284-4.973
		c-6.239-10.647-12.433-21.322-18.607-32.007c-0.972-1.682-1.754-3.311-4.171-1.876c-1.29,0.766-2.587,0.328-3.25-1.046
		c-0.749-1.552,0.517-2.312,1.51-3.123c4.71-3.844,5.617-3.702,8.602,1.456c6.551,11.318,13.192,22.587,19.556,34.009
		C83.262,499.873,85.032,500.835,88.079,499.321z"/>
	<path fill="#FFFFFF" d="M91.312,493.557c-1.693,0.036-2.059-1.142-2.608-2.04c-2.015-3.298-3.985-6.624-5.974-9.938
		c-4.377-7.291-4.245-7.07,2.94-11.393c3.388-2.039,4.987-1.555,6.646,1.848c1.687,3.463,4.011,6.611,5.804,10.029
		c1.028,1.961,4.147,4.193,2.379,6.006C98.033,490.597,94.284,491.873,91.312,493.557z"/>
	<path fill="#FCF8F5" d="M106.746,484.948c-1.989,0.034-2.328-1.424-2.964-2.454c-2.121-3.438-4.163-6.925-6.228-10.397
		c-3.698-6.219-2.492-8.988,4.503-10.95c1.437-0.403,2.019,0.038,2.626,1.047c3.122,5.195,6.228,10.399,9.369,15.582
		c0.742,1.224,1.169,2.346-0.387,3.241C111.284,482.388,108.887,483.734,106.746,484.948z"/>
	<path fill="#FCF8F5" d="M85.836,504.566c3.12-0.005,4.899,1.633,5.017,4.294c0.125,2.802-1.989,4.503-4.591,4.538
		c-2.553,0.035-4.711-1.387-4.751-4.337C81.472,506.162,83.344,504.842,85.836,504.566z"/>
</g>
<g>
</g>
<g>
</g>
<g>
</g>
<g>
</g>
<g>
</g>
<g>
</g>
<g>
</g>
<g>
</g>
<g>
</g>
<g>
</g>
<g>
</g>
<g>
</g>
<g>
</g>
<g>
</g>
<g>
</g>
</svg>
