<?xml version="1.0" encoding="utf-8"?>
<!-- Generator: Adobe Illustrator 17.0.0, SVG Export Plug-In . SVG Version: 6.00 Build 0)  -->
<!DOCTYPE svg PUBLIC "-//W3C//DTD SVG 1.1//EN" "http://www.w3.org/Graphics/SVG/1.1/DTD/svg11.dtd">
<svg version="1.1" xmlns="http://www.w3.org/2000/svg" xmlns:xlink="http://www.w3.org/1999/xlink" x="0px" y="0px" width="800px"
	 height="800px" viewBox="0 0 800 800" enable-background="new 0 0 800 800" xml:space="preserve">
<g id="Background">
	
		<radialGradient id="SVGID_1_" cx="584.1592" cy="315.202" r="568.6229" gradientTransform="matrix(-1.0021 0 0 -0.9923 1169.7867 628.0898)" gradientUnits="userSpaceOnUse">
		<stop  offset="0.0686" style="stop-color:#C6E5E2"/>
		<stop  offset="0.137" style="stop-color:#9ED0D3"/>
		<stop  offset="0.2605" style="stop-color:#5BADBA"/>
		<stop  offset="0.3642" style="stop-color:#2A93A7"/>
		<stop  offset="0.4427" style="stop-color:#0B839C"/>
		<stop  offset="0.4869" style="stop-color:#007E97"/>
		<stop  offset="0.5238" style="stop-color:#046E86"/>
		<stop  offset="0.5987" style="stop-color:#0B536A"/>
		<stop  offset="0.6789" style="stop-color:#113F53"/>
		<stop  offset="0.7659" style="stop-color:#153043"/>
		<stop  offset="0.8645" style="stop-color:#17283A"/>
		<stop  offset="1" style="stop-color:#182537"/>
	</radialGradient>
	<rect y="-0.197" fill="url(#SVGID_1_)" width="801" height="800.197"/>
	<rect y="748.71" width="801" height="51.29"/>
</g>
<g id="Objects">
	<g>
		
			<radialGradient id="SVGID_2_" cx="385.7094" cy="338.6947" r="84.2357" gradientTransform="matrix(1.4302 0 0 1.4382 -85.1327 -140.5094)" gradientUnits="userSpaceOnUse">
			<stop  offset="0" style="stop-color:#FFFFFF"/>
			<stop  offset="0.0814" style="stop-color:#FCFDFD"/>
			<stop  offset="0.1468" style="stop-color:#F2F6F5"/>
			<stop  offset="0.2066" style="stop-color:#E1EAE8"/>
			<stop  offset="0.2631" style="stop-color:#C9DAD7"/>
			<stop  offset="0.3173" style="stop-color:#AAC5C0"/>
			<stop  offset="0.369" style="stop-color:#85ABA4"/>
			<stop  offset="0.4121" style="stop-color:#609288"/>
			<stop  offset="0.4751" style="stop-color:#4E776F"/>
			<stop  offset="0.5883" style="stop-color:#324D47"/>
			<stop  offset="0.6984" style="stop-color:#1C2B28"/>
			<stop  offset="0.8031" style="stop-color:#0D1312"/>
			<stop  offset="0.9" style="stop-color:#030505"/>
			<stop  offset="0.9818" style="stop-color:#000000"/>
		</radialGradient>
		<path opacity="0.7" fill="url(#SVGID_2_)" d="M586.986,346.603c0,66.906-53.943,121.143-120.475,121.143
			c-66.538,0-120.48-54.237-120.48-121.143c0-66.911,53.942-121.146,120.48-121.146
			C533.043,225.457,586.986,279.692,586.986,346.603z"/>
		<g opacity="0.3">
			
				<radialGradient id="SVGID_3_" cx="498.9634" cy="128.6945" r="268.6945" gradientTransform="matrix(0.6691 0 0 0.7032 100.6712 265.1448)" gradientUnits="userSpaceOnUse">
				<stop  offset="0.1" style="stop-color:#000000"/>
				<stop  offset="0.1124" style="stop-color:#080602"/>
				<stop  offset="0.1617" style="stop-color:#231B08"/>
				<stop  offset="0.2184" style="stop-color:#392C0D"/>
				<stop  offset="0.2846" style="stop-color:#4A3910"/>
				<stop  offset="0.3664" style="stop-color:#554213"/>
				<stop  offset="0.4812" style="stop-color:#5C4815"/>
				<stop  offset="0.8" style="stop-color:#5E4915"/>
				<stop  offset="1" style="stop-color:#000000"/>
			</radialGradient>
			<path opacity="0.25" fill="url(#SVGID_3_)" d="M254.735,355.643c0,104.347,80.494,188.936,179.794,188.936
				c99.293,0,179.791-91.3,179.791-188.936c0-104.348-80.496-188.937-179.791-188.937
				C335.229,166.706,254.735,251.295,254.735,355.643z"/>
			
				<radialGradient id="SVGID_4_" cx="551.2692" cy="200.9857" r="8.9561" gradientTransform="matrix(0.6691 0 0 0.7032 100.6712 265.1448)" gradientUnits="userSpaceOnUse">
				<stop  offset="0" style="stop-color:#D4E194"/>
				<stop  offset="0.0595" style="stop-color:#AFBA7A"/>
				<stop  offset="0.1365" style="stop-color:#868F5E"/>
				<stop  offset="0.2195" style="stop-color:#626845"/>
				<stop  offset="0.3076" style="stop-color:#44482F"/>
				<stop  offset="0.4021" style="stop-color:#2B2E1E"/>
				<stop  offset="0.5056" style="stop-color:#181911"/>
				<stop  offset="0.6225" style="stop-color:#0A0B07"/>
				<stop  offset="0.7643" style="stop-color:#020302"/>
				<stop  offset="1" style="stop-color:#000000"/>
			</radialGradient>
			<path fill="url(#SVGID_4_)" d="M463.533,406.477c0,3.479,2.678,6.299,5.99,6.299c3.309,0,5.994-2.82,5.994-6.299
				c0-3.477-2.686-6.297-5.994-6.297C466.211,400.18,463.533,403,463.533,406.477z"/>
			
				<radialGradient id="SVGID_5_" cx="515.3742" cy="151.3719" r="179.1293" gradientTransform="matrix(0.6691 0 0 0.7032 100.6712 265.1448)" gradientUnits="userSpaceOnUse">
				<stop  offset="0" style="stop-color:#220000"/>
				<stop  offset="0.73" style="stop-color:#984023"/>
				<stop  offset="1" style="stop-color:#220000"/>
			</radialGradient>
			<path opacity="0.15" fill="url(#SVGID_5_)" d="M325.647,371.59c0,69.566,53.665,125.957,119.858,125.957
				c66.204,0,119.864-56.391,119.864-125.957c0-69.564-53.66-125.959-119.864-125.959
				C379.312,245.632,325.647,302.027,325.647,371.59z"/>
			
				<radialGradient id="SVGID_6_" cx="515.3709" cy="151.374" r="89.5639" gradientTransform="matrix(0.6691 0 0 0.7032 100.6712 265.1448)" gradientUnits="userSpaceOnUse">
				<stop  offset="0.15" style="stop-color:#FFFFFF"/>
				<stop  offset="0.2094" style="stop-color:#E5D3D3"/>
				<stop  offset="0.2904" style="stop-color:#C49C9E"/>
				<stop  offset="0.3605" style="stop-color:#AD7477"/>
				<stop  offset="0.416" style="stop-color:#9E5C5F"/>
				<stop  offset="0.45" style="stop-color:#995356"/>
				<stop  offset="0.5718" style="stop-color:#6B3335"/>
				<stop  offset="0.6936" style="stop-color:#431718"/>
				<stop  offset="0.7905" style="stop-color:#2B0606"/>
				<stop  offset="0.85" style="stop-color:#220000"/>
				<stop  offset="0.8573" style="stop-color:#260201"/>
				<stop  offset="0.8648" style="stop-color:#330704"/>
				<stop  offset="0.8725" style="stop-color:#471009"/>
				<stop  offset="0.8802" style="stop-color:#641D0F"/>
				<stop  offset="0.888" style="stop-color:#8A2E18"/>
				<stop  offset="0.8958" style="stop-color:#B74223"/>
				<stop  offset="0.9" style="stop-color:#D34E29"/>
				<stop  offset="0.9025" style="stop-color:#C84927"/>
				<stop  offset="0.9142" style="stop-color:#9C361C"/>
				<stop  offset="0.9263" style="stop-color:#772514"/>
				<stop  offset="0.9389" style="stop-color:#58180C"/>
				<stop  offset="0.952" style="stop-color:#400D07"/>
				<stop  offset="0.9659" style="stop-color:#2F0603"/>
				<stop  offset="0.9811" style="stop-color:#250101"/>
				<stop  offset="1" style="stop-color:#220000"/>
			</radialGradient>
			<ellipse opacity="0.5" fill="url(#SVGID_6_)" cx="445.506" cy="371.59" rx="59.93" ry="62.979"/>
			
				<radialGradient id="SVGID_7_" cx="515.3721" cy="151.3737" r="74.6379" gradientTransform="matrix(0.6691 0 0 0.7032 100.6712 265.1448)" gradientUnits="userSpaceOnUse">
				<stop  offset="0.15" style="stop-color:#FFFFFF"/>
				<stop  offset="0.2824" style="stop-color:#C2C2C2"/>
				<stop  offset="0.4253" style="stop-color:#888888"/>
				<stop  offset="0.5636" style="stop-color:#575757"/>
				<stop  offset="0.6936" style="stop-color:#313131"/>
				<stop  offset="0.8134" style="stop-color:#161616"/>
				<stop  offset="0.9192" style="stop-color:#060606"/>
				<stop  offset="1" style="stop-color:#000000"/>
			</radialGradient>
			<ellipse fill="url(#SVGID_7_)" cx="445.507" cy="371.59" rx="49.943" ry="52.483"/>
			<polyline fill="none" points="363.659,377.912 439.637,369.077 515.615,360.241 439.637,369.077 431.232,289.232 
				439.637,369.077 448.043,448.921 439.637,369.077 266.902,480.184 439.637,369.077 612.373,257.968 439.637,369.077 
				333.91,187.555 439.637,369.077 545.365,550.597 439.637,369.077 364.871,413.126 439.637,369.077 514.404,325.028 
				439.637,369.077 397.72,290.505 439.637,369.077 481.555,447.647 439.637,369.077 217.016,561.735 439.637,369.077 
				662.258,176.418 439.637,369.077 256.306,135.127 439.637,369.077 622.971,603.023 439.637,369.077 416.685,372.198 
				439.637,369.077 462.592,365.954 439.637,369.077 440.141,314.251 439.637,369.077 442.608,393.197 439.637,369.077 
				230.689,398.984 439.637,369.077 648.588,339.17 439.637,369.077 411.178,149.494 439.637,369.077 468.096,588.659 
				439.637,369.077 367.259,384.11 439.637,369.077 512.018,354.044 439.637,369.077 425.335,293.013 439.637,369.077 
				453.94,445.141 439.637,369.077 375.801,378.139 439.637,369.077 503.477,360.014 439.637,369.077 431.015,301.992 
				439.637,369.077 448.262,436.163 439.637,369.077 415.601,436.049 439.637,369.077 463.672,302.104 439.637,369.077 
				375.904,343.818 439.637,369.077 503.373,394.336 439.637,369.077 434.727,393.061 439.637,369.077 444.547,345.092 
				439.637,369.077 416.811,363.916 439.637,369.077 462.461,374.235 439.637,369.077 411.31,433.609 439.637,369.077 
				467.969,304.546 439.637,369.077 378.23,339.307 439.637,369.077 501.043,398.846 439.637,369.077 296.56,613.309 
				439.637,369.077 582.715,124.842 439.637,369.077 207.229,218.719 439.637,369.077 672.049,519.433 439.637,369.077 
				387.531,648.248 439.637,369.077 491.742,89.906 439.637,369.077 173.982,314.321 439.637,369.077 705.297,423.832 
				439.637,369.077 401.409,534.415 439.637,369.077 477.867,203.739 439.637,369.077 282.304,328.906 439.637,369.077 
				596.973,409.25 439.637,369.077 192.208,480.908 439.637,369.077 687.07,257.246 439.637,369.077 333.218,109.058 
				439.637,369.077 546.057,629.098 			"/>
			
				<text transform="matrix(0.7196 -0.6227 0.6544 0.7562 427.6358 379.4638)" font-family="'MyriadPro-Regular'" font-size="10.859"> </text>
			
				<text transform="matrix(0.7196 -0.6227 0.6544 0.7562 429.2788 378.0419)" font-family="'MyriadPro-Regular'" font-size="10.859"> </text>
			
				<text transform="matrix(0.7196 -0.6227 0.6544 0.7562 430.9517 376.5946)" font-family="'MyriadPro-Regular'" font-size="10.859"> </text>
			
				<text transform="matrix(0.7196 -0.6227 0.6544 0.7562 432.5933 375.1732)" font-family="'MyriadPro-Regular'" font-size="10.859"> </text>
			
				<radialGradient id="SVGID_8_" cx="504.0331" cy="135.7018" r="31.5757" gradientTransform="matrix(0.6691 0 0 0.7032 100.6712 265.1448)" gradientUnits="userSpaceOnUse">
				<stop  offset="0.1" style="stop-color:#000000"/>
				<stop  offset="0.1294" style="stop-color:#000B0E"/>
				<stop  offset="0.2466" style="stop-color:#00313F"/>
				<stop  offset="0.3668" style="stop-color:#005269"/>
				<stop  offset="0.4881" style="stop-color:#006D8B"/>
				<stop  offset="0.6109" style="stop-color:#0082A6"/>
				<stop  offset="0.7357" style="stop-color:#0091B9"/>
				<stop  offset="0.8637" style="stop-color:#009AC4"/>
				<stop  offset="1" style="stop-color:#009DC8"/>
			</radialGradient>
			<path fill="url(#SVGID_8_)" d="M416.792,360.571c0,12.261,9.461,22.203,21.127,22.203c11.671,0,21.129-9.942,21.129-22.203
				c0-12.262-9.458-22.204-21.129-22.204C426.253,338.367,416.792,348.309,416.792,360.571z"/>
			
				<radialGradient id="SVGID_9_" cx="534.4184" cy="177.7062" r="33.3574" gradientTransform="matrix(0.6691 0 0 0.7032 100.6712 265.1448)" gradientUnits="userSpaceOnUse">
				<stop  offset="0.1" style="stop-color:#47193D"/>
				<stop  offset="0.1657" style="stop-color:#3D1534"/>
				<stop  offset="0.3648" style="stop-color:#220C1D"/>
				<stop  offset="0.5683" style="stop-color:#0F050D"/>
				<stop  offset="0.7773" style="stop-color:#040103"/>
				<stop  offset="1" style="stop-color:#000000"/>
			</radialGradient>
			<path fill="url(#SVGID_9_)" d="M435.931,390.108c0,12.954,9.994,23.457,22.323,23.457c12.322,0,22.316-10.502,22.316-23.457
				c0-12.955-9.994-23.457-22.316-23.457C445.925,366.651,435.931,377.153,435.931,390.108z"/>
			
				<radialGradient id="SVGID_10_" cx="511.7754" cy="146.3992" r="38.9718" gradientTransform="matrix(0.6691 0 0 0.7032 100.6712 265.1448)" gradientUnits="userSpaceOnUse">
				<stop  offset="0.1" style="stop-color:#000000"/>
				<stop  offset="0.1467" style="stop-color:#0B0606"/>
				<stop  offset="0.3089" style="stop-color:#2D1A1A"/>
				<stop  offset="0.4746" style="stop-color:#482929"/>
				<stop  offset="0.643" style="stop-color:#5B3434"/>
				<stop  offset="0.8159" style="stop-color:#663B3B"/>
				<stop  offset="1" style="stop-color:#6A3D3D"/>
			</radialGradient>
			<ellipse fill="url(#SVGID_10_)" cx="443.1" cy="368.092" rx="26.076" ry="27.406"/>
		</g>
	</g>
	<g>
		
			<radialGradient id="SVGID_11_" cx="394.5231" cy="320.8121" r="183.4311" gradientTransform="matrix(1.0771 0 0 1.0771 -47.8618 -14.6795)" gradientUnits="userSpaceOnUse">
			<stop  offset="0.0686" style="stop-color:#007E97;stop-opacity:0.4"/>
			<stop  offset="0.1162" style="stop-color:#027891;stop-opacity:0.4306"/>
			<stop  offset="0.5195" style="stop-color:#0E4B60;stop-opacity:0.6904"/>
			<stop  offset="0.8268" style="stop-color:#152F42;stop-opacity:0.8885"/>
			<stop  offset="1" style="stop-color:#182537"/>
		</radialGradient>
		<path opacity="0.8" fill="url(#SVGID_11_)" d="M447.752,210.727c0,0-52.566,56.071-113.31,43.222
			c-60.744-12.85-143.683-44.391-196.249,44.389c0,0,50.23-64.248,84.107-43.806c33.876,20.443,5.84,92.868,51.398,117.399
			c45.558,24.531,87.098-1.063,113.31,15.186c49.285,30.553,25.376,88.679,25.376,88.679s45.996-32.358,127.996-124.358
			c23.689-26.579,75.584-126.687,75.584-165.238c0,0-34.656-3.508-90.921,15.183C468.779,220.073,447.752,210.727,447.752,210.727z"
			/>
		<g>
			<path d="M571.533,106.662c0,0-8.068-15.153-11.356-17.318c-3.286-2.164-44.332-7.422-53.001-5.876
				c-8.665,1.547-15.539-0.28-15.539-0.28l16.211,12.442c0,0-19.241,5.418-20.138,5.095c-0.896-0.324,25.64,10.577,27.433,17.072
				c1.794,6.494,1.794,12.371,1.794,12.371l-3.289,2.164c0,0-0.946,4.15-0.298,9.896c0.103,0.921,2.69,5.876,3.885,6.804
				c1.195,0.928,2.804,29.207,1.494,32.472c-4.172,10.399-21.532,12.792-21.532,12.792s-16.207,2.785-24.383,1.372
				c-9.314-1.61-26.841,6.236-31.992,14.912c-5.152,8.676-7.592,17.623-7.592,17.623s-11.658,31.992-17.081,41.753
				c-5.422,9.761,5.694,27.112,5.694,31.179c0,4.067,2.982,9.49,4.609,10.032c1.627,0.542,7.049-1.898,9.489-1.898
				c2.44,0,14.369,0.542,17.894-2.17c3.525-2.711,12.201-13.285,12.201-13.285s8.947,16.81,10.574,23.587
				c1.626,6.778,2.439,30.094,2.439,30.094s-2.259,49.796-2.259,57.749c0,7.953,2.17,16.629,3.616,21.69
				c1.445,5.061,3.613,78.083,22.412,112.787l2.169,25.305c0,0,9.398,21.689,13.013,31.813
				c3.616,10.12,18.799,95.433,13.738,108.446c-5.061,13.014-25.306,27.474-25.306,27.474s-22.412,0-27.473,5.061
				c-5.062,5.063-7.232,13.739-7.232,13.739h113.511c0,0-3.616-24.584-11.568-43.38c-7.953-18.799-15.183-38.319-7.229-67.962
				c7.952-29.642,7.952-41.934-0.724-68.684c-8.676-26.751-9.398-60.731-9.398-60.731s35.428,57.116,38.318,66.514
				c2.892,9.4-1.446,36.873,14.46,59.287c15.905,22.412,18.074,36.87,20.966,49.161c2.893,12.293-0.724,39.767,0,46.995
				c0.724,7.231-5.785,17.352-4.337,29.644h61.454c0,0,1.445-6.507,0-14.46c-1.445-7.953-5.784-9.398-16.629-41.21
				c-10.845-31.813-13.735-24.583-15.905-49.164c-2.17-24.582-1.108-39.225-4-56.576c-2.894-17.352-18.413-33.798-35.042-75.008
				c-16.629-41.21-5.061-59.284-12.29-94.711c-7.231-35.427-22.496-42.483-34.704-65.069c-14.46-26.751,3.614-57.839,3.614-57.839
				s25.306-29.642,31.813-34.704c6.507-5.062,34.703-22.413,44.102-33.257c9.399-10.845,15.184-36.873-13.736-62.9
				c0,0-5.215-5.254-36.872,0.723c-8.555,1.615-21.12,0.185-22.713-2.29c0,0-3.17-13.252-3.17-18.923c0-5.671,1-9.37,1-9.37
				s2.146-6.164,2.861-8.63c0.713-2.466,0.237-8.384,0.237-8.384l-4.288-4.191L571.533,106.662z"/>
			<path fill="#007E97" d="M621.389,255.223c0,0-60.732,31.45-66.516,36.511c-5.783,5.061-24.942,7.23-30.366,8.315
				c-5.422,1.084-9.759,0.723-10.481-5.423c-0.724-6.145-17.353-19.52-27.112-32.173c0,0,23.858,22.051,26.027,23.497
				c2.169,1.446,6.145-1.446,6.145-1.446s-5.395,7.885-1.445,11.929c3.949,4.044,16.157,1.445,30.365-3.977
				C562.214,287.035,621.389,255.223,621.389,255.223z"/>
			<path fill="#007E97" d="M569.334,147.043l-2.089,21.471c0,0-15.538,12.783-19.524,15.669c-3.985,2.886-14.149,6.185-18.532,2.475
				l-8.367-19.173c0,0,5.911,12.583,9.961,16.699c4.049,4.116,11.97,1.547,22.498-6.322c6.628-4.953,12.399-10.781,12.399-10.781
				s3.67-22.575,4.559-26.193c1.512-6.152-2.79-7.422-2.79-7.422s5.287-2.082,5.977,5.359"/>
			<path fill="#007E97" d="M494.504,393.314l14.098,34.896c0,0,9.761-0.193,14.099,5.23c4.337,5.422,22.411,70.208,45.909,97.462
				c0,0-29.643-59.505-41.572-92.039C515.108,406.328,510.252,432.525,494.504,393.314z"/>
		</g>
		<path fill="#007E97" d="M491.637,83.187c0,0,17.107,13.368,25.311,15.529c8.204,2.162,18.983,9.817,19.691,10.498
			c0,0-5.371-5.558-17.007-11.886C512.816,93.619,502.576,90.814,491.637,83.187z"/>
		<path fill="#007E97" d="M487.71,100.724c0,0,21.778,11.423,30.73,12.349c8.95,0.926,15.218-1.08,18.2,0.926
			c0,0-3.965-2.871-11.487-3.087C509.041,110.448,487.71,100.724,487.71,100.724z"/>
	</g>
	<g>
		<g>
			<g>
				<path fill="#2D4F9D" d="M515.647,248.976c-0.068-7.146,4.978-13.217,10.699-15.062c5.773-2.033,11.593-0.298,14.997,2.536
					c3.529,2.831,4.969,6.381,5.466,8.746c0.496,2.416,0.307,3.786,0.355,3.781c-0.046,0.011,0.035-1.377-0.602-3.718
					c-0.63-2.299-2.236-5.641-5.707-8.171c-3.355-2.538-8.82-3.896-14.047-1.898c-5.186,1.843-9.611,7.367-9.553,13.788
					c-0.059,6.42,4.367,11.944,9.553,13.786c5.226,2,10.692,0.641,14.047-1.899c3.471-2.528,5.078-5.872,5.707-8.169
					c0.637-2.342,0.556-3.727,0.602-3.718c-0.048-0.006,0.141,1.362-0.355,3.779c-0.497,2.366-1.937,5.914-5.466,8.747
					c-3.403,2.834-9.223,4.568-14.997,2.535C520.625,262.189,515.577,256.121,515.647,248.976z"/>
				<path fill="#2D4F9D" d="M540.855,238.267c-3.355,2.539-8.82,3.898-14.047,1.899c-1.808-0.641-3.521-1.731-4.986-3.148
					c-0.435,0.261-0.862,0.547-1.269,0.853c1.697,1.652,3.698,2.894,5.793,3.573c5.773,2.032,11.593,0.296,14.997-2.539
					c0.359-0.284,0.69-0.58,1.006-0.882c-0.155-0.187-0.291-0.399-0.414-0.619C541.597,237.699,541.241,237.987,540.855,238.267z"/>
				<path fill="#2D4F9D" d="M526.808,257.785c5.226-2.001,10.692-0.641,14.047,1.897c0.338,0.247,0.651,0.501,0.955,0.761
					c0.191-0.177,0.384-0.339,0.573-0.484c-0.327-0.31-0.669-0.619-1.04-0.917c-3.403-2.834-9.223-4.566-14.997-2.535
					c-2.115,0.683-4.134,1.942-5.839,3.618c0.467,0.262,0.801,0.59,1.269,0.852C523.252,259.538,524.984,258.432,526.808,257.785z"
					/>
				<path fill="#2D4F9D" d="M538.791,248.976c-0.02,4.964-1.115,9.48-2.815,12.32c-0.833,1.421-1.842,2.402-2.699,2.775
					c-0.865,0.368-1.39,0.223-1.381,0.261c-0.027,0.109,2.24-0.342,3.365-3.403c1.25-2.845,1.902-7.196,1.921-11.953
					c-0.02-4.76-0.672-9.107-1.921-11.953c-1.124-3.063-3.391-3.51-3.365-3.404c-0.009,0.039,0.516-0.106,1.381,0.261
					c0.858,0.375,1.867,1.355,2.699,2.774C537.676,239.498,538.771,244.01,538.791,248.976z"/>
				<path fill="#2D4F9D" d="M525.001,248.976c0.022-4.967,1.117-9.478,2.816-12.322c0.833-1.42,1.842-2.4,2.701-2.775
					c0.864-0.367,1.389-0.222,1.379-0.261c0.026-0.106-2.241,0.341-3.363,3.404c-1.249,2.846-1.902,7.194-1.922,11.953
					c0.02,4.757,0.673,9.108,1.922,11.953c1.122,3.061,3.39,3.512,3.363,3.403c0.01-0.038-0.514,0.108-1.379-0.261
					c-0.858-0.374-1.868-1.355-2.701-2.775C526.118,258.456,525.023,253.94,525.001,248.976z"/>
				<path fill="#2D4F9D" d="M532.611,248.976c0,8.481-0.802,15.356-0.802,15.356s-0.807-6.875-0.807-15.356
					c0-8.482,0.807-15.358,0.807-15.358S532.611,240.494,532.611,248.976z"/>
				<path fill="#2D4F9D" d="M531.808,248.171c8.481,0,15.356,0.805,15.356,0.805s-6.875,0.804-15.356,0.804
					c-8.482,0-15.358-0.804-15.358-0.804S523.327,248.171,531.808,248.171z"/>
			</g>
			<g>
				<path fill="#DF912F" d="M555.304,260.507c-0.911-5.036-3.947-8.187-6.565-11.093c-0.506-0.523-1.016-1.021-1.525-1.508
					c0.242,1.165-0.008,2.352-0.259,3.535c2.33,2.666,4.837,6.01,5.257,9.173c0.616,3.125-3.448,3.823-7.336,3.142
					c-7.886-1.411-15.273-5.352-21.443-9.327c-6.166-4.08-11.341-8.613-14.547-13.21c-1.583-2.265-2.626-4.719-2.233-6.652
					c0.431-1.961,2.335-2.707,3.715-2.99c2.928-0.52,4.697-0.077,4.678-0.161c0.002,0.087-1.679-0.572-4.788-0.359
					c-1.439,0.159-3.753,0.662-4.596,3.148c-0.707,2.451,0.373,5.324,1.883,7.861c3.115,5.176,8.236,10.183,14.491,14.696
					c6.305,4.395,13.767,8.725,22.6,10.328c2.217,0.309,4.509,0.45,6.834-0.289C553.881,266.19,555.896,263.149,555.304,260.507z"/>
			</g>
			<g>
				<path fill="#177ABF" d="M551.133,235.341c-4.119-1.786-7.829-0.936-11.168-0.301c-0.224,0.053-0.445,0.112-0.668,0.167
					c0.97,0.555,1.822,1.333,2.67,2.06c2.709-0.381,5.666-0.471,7.823,0.593c2.58,1.068,1.224,4.658-1.062,7.415
					c-4.659,5.582-10.951,9.508-16.708,12.443c-5.83,2.882-11.539,4.751-16.391,5.009c-2.387,0.133-4.669-0.259-5.908-1.539
					c-1.244-1.321-0.915-3.209-0.489-4.453c0.966-2.597,2.103-3.783,2.031-3.811c0.065,0.043-1.194,1.053-2.465,3.64
					c-0.546,1.227-1.239,3.32,0.199,5.235c1.475,1.787,4.083,2.359,6.638,2.418c5.235,0.101,11.266-1.487,17.457-4.222
					c6.126-2.835,12.737-6.623,17.971-12.867c1.25-1.613,2.408-3.37,2.932-5.591C554.654,239.312,553.346,236.186,551.133,235.341z"
					/>
			</g>
		</g>
		<g>
			<path fill="#DF912F" d="M534.799,230.722l1.275-10.607c7.439-3.932,7.803-4.245,10.053-6.7c0.802-1.156,1.692-3.251-2.338-2.285
				c-0.448-0.237-2.601-0.702-4.272,1.196l-6.805,3.548l-13.307-0.836l-10.186-0.485c-1.216,0.125-1.745,0.037-1.999,1.247
				l11.573,2.94l4.333,2.045l-5.078,2.639l-3.584-2.464c-0.6-0.316-0.634-0.431-1.093-0.289c-0.46,0.14-1.031,0.318-1.031,0.318
				l1.027,3.32l-4.152-0.847c-0.678-0.166-1.665-0.112-2.023,0.752l5.581,3.038c-0.837,1.044,0.813,1.004,1.385,0.827l2.945,2.224
				c0.512,0.03,1.135-0.287,0.967-0.927l-0.566-1.833c2.442-0.629,6.928-2.144,10.519-3.507l3.277,1.872l1.668,5.382
				C533.76,231.421,534.353,231.111,534.799,230.722z"/>
		</g>
	</g>
	<g>
		<path fill="#C6E5E2" d="M26.973,520.435c3.024-0.504,6.984-0.936,12.025-0.936c6.192,0,10.729,1.44,13.609,4.032
			c2.665,2.304,4.249,5.833,4.249,10.153c0,4.393-1.296,7.849-3.744,10.369c-3.313,3.528-8.713,5.328-14.833,5.328
			c-1.872,0-3.6-0.072-5.041-0.432v19.442h-6.264V520.435z M33.237,543.836c1.368,0.36,3.097,0.504,5.185,0.504
			c7.561,0,12.169-3.672,12.169-10.369c0-6.409-4.536-9.505-11.449-9.505c-2.736,0-4.825,0.216-5.905,0.504V543.836z"/>
		<path fill="#C6E5E2" d="M82.487,568.391l-0.504-4.393h-0.216c-1.944,2.736-5.688,5.185-10.657,5.185
			c-7.057,0-10.657-4.969-10.657-10.009c0-8.425,7.489-13.033,20.954-12.961v-0.72c0-2.88-0.792-8.065-7.921-8.065
			c-3.24,0-6.625,1.008-9.073,2.592l-1.44-4.176c2.88-1.872,7.057-3.096,11.449-3.096c10.657,0,13.25,7.272,13.25,14.257v13.033
			c0,3.024,0.144,5.977,0.576,8.353H82.487z M81.551,550.605c-6.913-0.144-14.761,1.08-14.761,7.849
			c0,4.104,2.736,6.048,5.977,6.048c4.536,0,7.417-2.88,8.424-5.832c0.216-0.648,0.36-1.368,0.36-2.017V550.605z"/>
		<path fill="#C6E5E2" d="M122.735,567.095c-1.656,0.864-5.329,2.016-10.009,2.016c-10.513,0-17.354-7.128-17.354-17.785
			c0-10.729,7.345-18.506,18.722-18.506c3.744,0,7.057,0.937,8.785,1.8l-1.44,4.896c-1.512-0.864-3.889-1.656-7.345-1.656
			c-7.993,0-12.313,5.905-12.313,13.177c0,8.064,5.184,13.033,12.097,13.033c3.601,0,5.977-0.937,7.777-1.729L122.735,567.095z"/>
		<path fill="#C6E5E2" d="M136.414,549.525h0.144c0.864-1.224,2.088-2.736,3.096-3.96l10.225-12.025h7.632l-13.465,14.329
			l15.337,20.522h-7.705l-12.025-16.706l-3.24,3.6v13.105h-6.265v-51.125h6.265V549.525z"/>
		<path fill="#C6E5E2" d="M184.509,568.391l-0.504-4.393h-0.216c-1.944,2.736-5.688,5.185-10.657,5.185
			c-7.057,0-10.657-4.969-10.657-10.009c0-8.425,7.489-13.033,20.954-12.961v-0.72c0-2.88-0.792-8.065-7.921-8.065
			c-3.24,0-6.625,1.008-9.073,2.592l-1.44-4.176c2.88-1.872,7.057-3.096,11.449-3.096c10.657,0,13.25,7.272,13.25,14.257v13.033
			c0,3.024,0.144,5.977,0.576,8.353H184.509z M183.573,550.605c-6.913-0.144-14.761,1.08-14.761,7.849
			c0,4.104,2.736,6.048,5.977,6.048c4.536,0,7.417-2.88,8.424-5.832c0.216-0.648,0.36-1.368,0.36-2.017V550.605z"/>
		<path fill="#C6E5E2" d="M229.942,533.539c-0.144,2.521-0.288,5.329-0.288,9.577v20.234c0,7.992-1.584,12.889-4.969,15.913
			c-3.384,3.168-8.28,4.176-12.673,4.176c-4.176,0-8.785-1.008-11.593-2.88l1.584-4.824c2.304,1.44,5.904,2.736,10.225,2.736
			c6.481,0,11.233-3.385,11.233-12.169v-3.889h-0.144c-1.944,3.24-5.688,5.833-11.089,5.833c-8.641,0-14.833-7.345-14.833-16.994
			c0-11.809,7.705-18.505,15.697-18.505c6.048,0,9.361,3.168,10.873,6.048h0.144l0.288-5.256H229.942z M223.389,547.293
			c0-1.08-0.072-2.016-0.36-2.88c-1.152-3.672-4.249-6.697-8.857-6.697c-6.048,0-10.369,5.113-10.369,13.177
			c0,6.84,3.456,12.529,10.297,12.529c3.888,0,7.417-2.448,8.785-6.48c0.36-1.08,0.504-2.304,0.504-3.384V547.293z"/>
		<path fill="#C6E5E2" d="M243.691,552.117c0.144,8.568,5.617,12.097,11.953,12.097c4.537,0,7.272-0.792,9.649-1.8l1.08,4.536
			c-2.232,1.009-6.049,2.16-11.593,2.16c-10.729,0-17.137-7.057-17.137-17.569s6.192-18.793,16.345-18.793
			c11.377,0,14.401,10.009,14.401,16.417c0,1.296-0.144,2.304-0.216,2.952H243.691z M262.269,547.581
			c0.072-4.033-1.656-10.297-8.785-10.297c-6.409,0-9.217,5.904-9.721,10.297H262.269z"/>
		<path fill="#C6E5E2" d="M297.978,519.858v20.306h23.474v-20.306h6.336v48.532h-6.336v-22.754h-23.474v22.754h-6.264v-48.532
			H297.978z"/>
		<path fill="#C6E5E2" d="M341.969,552.117c0.144,8.568,5.617,12.097,11.953,12.097c4.537,0,7.272-0.792,9.649-1.8l1.08,4.536
			c-2.232,1.009-6.049,2.16-11.593,2.16c-10.729,0-17.137-7.057-17.137-17.569s6.192-18.793,16.345-18.793
			c11.377,0,14.401,10.009,14.401,16.417c0,1.296-0.144,2.304-0.216,2.952H341.969z M360.547,547.581
			c0.072-4.033-1.656-10.297-8.785-10.297c-6.409,0-9.217,5.904-9.721,10.297H360.547z"/>
		<path fill="#C6E5E2" d="M374.512,544.413c0-4.104-0.072-7.633-0.288-10.873h5.544l0.216,6.841h0.288
			c1.584-4.681,5.4-7.633,9.649-7.633c0.72,0,1.224,0.072,1.8,0.216v5.977c-0.648-0.144-1.296-0.216-2.16-0.216
			c-4.464,0-7.633,3.384-8.497,8.137c-0.144,0.864-0.288,1.872-0.288,2.952v18.578h-6.265V544.413z"/>
		<path fill="#C6E5E2" d="M428.875,550.677c0,12.889-8.929,18.505-17.353,18.505c-9.433,0-16.706-6.912-16.706-17.93
			c0-11.665,7.633-18.505,17.281-18.505C422.106,532.747,428.875,540.02,428.875,550.677z M401.225,551.037
			c0,7.633,4.392,13.394,10.584,13.394c6.049,0,10.585-5.688,10.585-13.538c0-5.904-2.952-13.393-10.441-13.393
			C404.465,537.5,401.225,544.413,401.225,551.037z"/>
	</g>
	<g>
		<path fill="#DF912F" d="M26.352,507.391l-4.559-17.18h2.332l2.613,11.262c0.281,1.18,0.523,2.352,0.727,3.516
			c0.438-1.836,0.695-2.895,0.773-3.176l3.27-11.602h2.742l2.461,8.695c0.617,2.156,1.063,4.184,1.336,6.082
			c0.219-1.086,0.504-2.332,0.855-3.738l2.695-11.039h2.285l-4.711,17.18H36.98l-3.621-13.09c-0.305-1.094-0.484-1.766-0.539-2.016
			c-0.18,0.789-0.348,1.461-0.504,2.016l-3.645,13.09H26.352z"/>
		<path fill="#DF912F" d="M53.82,503.383l2.18,0.27c-0.344,1.273-0.98,2.262-1.91,2.965s-2.117,1.055-3.563,1.055
			c-1.82,0-3.264-0.561-4.33-1.682s-1.6-2.693-1.6-4.717c0-2.094,0.539-3.719,1.617-4.875s2.477-1.734,4.195-1.734
			c1.664,0,3.023,0.566,4.078,1.699s1.582,2.727,1.582,4.781c0,0.125-0.004,0.313-0.012,0.563h-9.281
			c0.078,1.367,0.465,2.414,1.16,3.141s1.563,1.09,2.602,1.09c0.773,0,1.434-0.203,1.98-0.609S53.5,504.273,53.82,503.383z
			 M46.895,499.973h6.949c-0.094-1.047-0.359-1.832-0.797-2.355c-0.672-0.813-1.543-1.219-2.613-1.219
			c-0.969,0-1.783,0.324-2.443,0.973S46.965,498.887,46.895,499.973z"/>
		<path fill="#DF912F" d="M60.594,507.391h-1.957v-17.18h2.109v6.129c0.891-1.117,2.027-1.676,3.41-1.676
			c0.766,0,1.49,0.154,2.174,0.463s1.246,0.742,1.688,1.301s0.787,1.232,1.037,2.021s0.375,1.633,0.375,2.531
			c0,2.133-0.527,3.781-1.582,4.945s-2.32,1.746-3.797,1.746c-1.469,0-2.621-0.613-3.457-1.84V507.391z M60.57,501.074
			c0,1.492,0.203,2.57,0.609,3.234c0.664,1.086,1.563,1.629,2.695,1.629c0.922,0,1.719-0.4,2.391-1.201s1.008-1.994,1.008-3.58
			c0-1.625-0.322-2.824-0.967-3.598s-1.424-1.16-2.338-1.16c-0.922,0-1.719,0.4-2.391,1.201S60.57,499.559,60.57,501.074z"/>
		<path fill="#DF912F" d="M78.16,501.871l2.145-0.188c0.102,0.859,0.338,1.564,0.709,2.115s0.947,0.996,1.729,1.336
			s1.66,0.51,2.637,0.51c0.867,0,1.633-0.129,2.297-0.387s1.158-0.611,1.482-1.061s0.486-0.939,0.486-1.471
			c0-0.539-0.156-1.01-0.469-1.412s-0.828-0.74-1.547-1.014c-0.461-0.18-1.48-0.459-3.059-0.838s-2.684-0.736-3.316-1.072
			c-0.82-0.43-1.432-0.963-1.834-1.6s-0.604-1.35-0.604-2.139c0-0.867,0.246-1.678,0.738-2.432s1.211-1.326,2.156-1.717
			s1.996-0.586,3.152-0.586c1.273,0,2.396,0.205,3.369,0.615s1.721,1.014,2.244,1.811s0.805,1.699,0.844,2.707l-2.18,0.164
			c-0.117-1.086-0.514-1.906-1.189-2.461s-1.674-0.832-2.994-0.832c-1.375,0-2.377,0.252-3.006,0.756s-0.943,1.111-0.943,1.822
			c0,0.617,0.223,1.125,0.668,1.523c0.438,0.398,1.58,0.807,3.428,1.225s3.115,0.783,3.803,1.096c1,0.461,1.738,1.045,2.215,1.752
			s0.715,1.521,0.715,2.443c0,0.914-0.262,1.775-0.785,2.584s-1.275,1.438-2.256,1.887s-2.084,0.674-3.311,0.674
			c-1.555,0-2.857-0.227-3.908-0.68s-1.875-1.135-2.473-2.045S78.191,503.019,78.16,501.871z"/>
		<path fill="#DF912F" d="M93.887,501.168c0-2.305,0.641-4.012,1.922-5.121c1.07-0.922,2.375-1.383,3.914-1.383
			c1.711,0,3.109,0.561,4.195,1.682s1.629,2.67,1.629,4.646c0,1.602-0.24,2.861-0.721,3.779s-1.18,1.631-2.098,2.139
			s-1.92,0.762-3.006,0.762c-1.742,0-3.15-0.559-4.225-1.676S93.887,503.269,93.887,501.168z M96.055,501.168
			c0,1.594,0.348,2.787,1.043,3.58s1.57,1.189,2.625,1.189c1.047,0,1.918-0.398,2.613-1.195s1.043-2.012,1.043-3.645
			c0-1.539-0.35-2.705-1.049-3.498s-1.568-1.189-2.607-1.189c-1.055,0-1.93,0.395-2.625,1.184S96.055,499.574,96.055,501.168z"/>
		<path fill="#DF912F" d="M116.176,507.391v-1.828c-0.969,1.406-2.285,2.109-3.949,2.109c-0.734,0-1.42-0.141-2.057-0.422
			s-1.109-0.635-1.418-1.061s-0.525-0.947-0.65-1.564c-0.086-0.414-0.129-1.07-0.129-1.969v-7.711h2.109v6.902
			c0,1.102,0.043,1.844,0.129,2.227c0.133,0.555,0.414,0.99,0.844,1.307s0.961,0.475,1.594,0.475s1.227-0.162,1.781-0.486
			s0.947-0.766,1.178-1.324s0.346-1.369,0.346-2.432v-6.668h2.109v12.445H116.176z"/>
		<path fill="#DF912F" d="M121.344,507.391v-12.445h1.898v1.887c0.484-0.883,0.932-1.465,1.342-1.746s0.861-0.422,1.354-0.422
			c0.711,0,1.434,0.227,2.168,0.68l-0.727,1.957c-0.516-0.305-1.031-0.457-1.547-0.457c-0.461,0-0.875,0.139-1.242,0.416
			s-0.629,0.662-0.785,1.154c-0.234,0.75-0.352,1.57-0.352,2.461v6.516H121.344z"/>
		<path fill="#DF912F" d="M137.48,502.832l2.074,0.27c-0.227,1.43-0.807,2.549-1.74,3.357s-2.08,1.213-3.439,1.213
			c-1.703,0-3.072-0.557-4.107-1.67s-1.553-2.709-1.553-4.787c0-1.344,0.223-2.52,0.668-3.527s1.123-1.764,2.033-2.268
			s1.9-0.756,2.971-0.756c1.352,0,2.457,0.342,3.316,1.025s1.41,1.654,1.652,2.912l-2.051,0.316
			c-0.195-0.836-0.541-1.465-1.037-1.887s-1.096-0.633-1.799-0.633c-1.063,0-1.926,0.381-2.59,1.143s-0.996,1.967-0.996,3.615
			c0,1.672,0.32,2.887,0.961,3.645s1.477,1.137,2.508,1.137c0.828,0,1.52-0.254,2.074-0.762S137.332,503.887,137.48,502.832z"/>
		<path fill="#DF912F" d="M149.879,503.383l2.18,0.27c-0.344,1.273-0.98,2.262-1.91,2.965s-2.117,1.055-3.563,1.055
			c-1.82,0-3.264-0.561-4.33-1.682s-1.6-2.693-1.6-4.717c0-2.094,0.539-3.719,1.617-4.875s2.477-1.734,4.195-1.734
			c1.664,0,3.023,0.566,4.078,1.699s1.582,2.727,1.582,4.781c0,0.125-0.004,0.313-0.012,0.563h-9.281
			c0.078,1.367,0.465,2.414,1.16,3.141s1.563,1.09,2.602,1.09c0.773,0,1.434-0.203,1.98-0.609S149.559,504.273,149.879,503.383z
			 M142.953,499.973h6.949c-0.094-1.047-0.359-1.832-0.797-2.355c-0.672-0.813-1.543-1.219-2.613-1.219
			c-0.969,0-1.783,0.324-2.443,0.973S143.023,498.887,142.953,499.973z"/>
	</g>
	<g>
		<path fill="#FFFFFF" d="M333.352,782.354v-17.18h6.48c1.141,0,2.012,0.055,2.613,0.164c0.844,0.141,1.551,0.408,2.121,0.803
			s1.029,0.947,1.377,1.658s0.521,1.492,0.521,2.344c0,1.461-0.465,2.697-1.395,3.709s-2.609,1.518-5.039,1.518h-4.406v6.984
			H333.352z M335.625,773.343h4.441c1.469,0,2.512-0.273,3.129-0.82s0.926-1.316,0.926-2.309c0-0.719-0.182-1.334-0.545-1.846
			s-0.842-0.85-1.436-1.014c-0.383-0.102-1.09-0.152-2.121-0.152h-4.395V773.343z"/>
		<path fill="#FFFFFF" d="M357.211,780.819c-0.781,0.664-1.533,1.133-2.256,1.406s-1.498,0.41-2.326,0.41
			c-1.367,0-2.418-0.334-3.152-1.002s-1.102-1.521-1.102-2.561c0-0.609,0.139-1.166,0.416-1.67s0.641-0.908,1.09-1.213
			s0.955-0.535,1.518-0.691c0.414-0.109,1.039-0.215,1.875-0.316c1.703-0.203,2.957-0.445,3.762-0.727
			c0.008-0.289,0.012-0.473,0.012-0.551c0-0.859-0.199-1.465-0.598-1.816c-0.539-0.477-1.34-0.715-2.402-0.715
			c-0.992,0-1.725,0.174-2.197,0.521s-0.822,0.963-1.049,1.846l-2.063-0.281c0.188-0.883,0.496-1.596,0.926-2.139
			s1.051-0.961,1.863-1.254s1.754-0.439,2.824-0.439c1.063,0,1.926,0.125,2.59,0.375s1.152,0.564,1.465,0.943
			s0.531,0.857,0.656,1.436c0.07,0.359,0.105,1.008,0.105,1.945v2.813c0,1.961,0.045,3.201,0.135,3.721s0.268,1.018,0.533,1.494
			h-2.203C357.414,781.917,357.273,781.405,357.211,780.819z M357.035,776.108c-0.766,0.313-1.914,0.578-3.445,0.797
			c-0.867,0.125-1.48,0.266-1.84,0.422s-0.637,0.385-0.832,0.686s-0.293,0.635-0.293,1.002c0,0.563,0.213,1.031,0.639,1.406
			s1.049,0.563,1.869,0.563c0.813,0,1.535-0.178,2.168-0.533s1.098-0.842,1.395-1.459c0.227-0.477,0.34-1.18,0.34-2.109V776.108z"/>
		<path fill="#FFFFFF" d="M370.559,777.796l2.074,0.27c-0.227,1.43-0.807,2.549-1.74,3.357s-2.08,1.213-3.439,1.213
			c-1.703,0-3.072-0.557-4.107-1.67s-1.553-2.709-1.553-4.787c0-1.344,0.223-2.52,0.668-3.527s1.123-1.764,2.033-2.268
			s1.9-0.756,2.971-0.756c1.352,0,2.457,0.342,3.316,1.025s1.41,1.654,1.652,2.912l-2.051,0.316
			c-0.195-0.836-0.541-1.465-1.037-1.887s-1.096-0.633-1.799-0.633c-1.063,0-1.926,0.381-2.59,1.143s-0.996,1.967-0.996,3.615
			c0,1.672,0.32,2.887,0.961,3.645s1.477,1.137,2.508,1.137c0.828,0,1.52-0.254,2.074-0.762S370.41,778.851,370.559,777.796z"/>
		<path fill="#FFFFFF" d="M374.449,782.354v-17.18h2.109v9.797l4.992-5.063h2.73l-4.758,4.617l5.238,7.828h-2.602l-4.113-6.363
			l-1.488,1.43v4.934H374.449z"/>
		<path fill="#FFFFFF" d="M394.559,780.819c-0.781,0.664-1.533,1.133-2.256,1.406s-1.498,0.41-2.326,0.41
			c-1.367,0-2.418-0.334-3.152-1.002s-1.102-1.521-1.102-2.561c0-0.609,0.139-1.166,0.416-1.67s0.641-0.908,1.09-1.213
			s0.955-0.535,1.518-0.691c0.414-0.109,1.039-0.215,1.875-0.316c1.703-0.203,2.957-0.445,3.762-0.727
			c0.008-0.289,0.012-0.473,0.012-0.551c0-0.859-0.199-1.465-0.598-1.816c-0.539-0.477-1.34-0.715-2.402-0.715
			c-0.992,0-1.725,0.174-2.197,0.521s-0.822,0.963-1.049,1.846l-2.063-0.281c0.188-0.883,0.496-1.596,0.926-2.139
			s1.051-0.961,1.863-1.254s1.754-0.439,2.824-0.439c1.063,0,1.926,0.125,2.59,0.375s1.152,0.564,1.465,0.943
			s0.531,0.857,0.656,1.436c0.07,0.359,0.105,1.008,0.105,1.945v2.813c0,1.961,0.045,3.201,0.135,3.721s0.268,1.018,0.533,1.494
			h-2.203C394.762,781.917,394.621,781.405,394.559,780.819z M394.383,776.108c-0.766,0.313-1.914,0.578-3.445,0.797
			c-0.867,0.125-1.48,0.266-1.84,0.422s-0.637,0.385-0.832,0.686s-0.293,0.635-0.293,1.002c0,0.563,0.213,1.031,0.639,1.406
			s1.049,0.563,1.869,0.563c0.813,0,1.535-0.178,2.168-0.533s1.098-0.842,1.395-1.459c0.227-0.477,0.34-1.18,0.34-2.109V776.108z"/>
		<path fill="#FFFFFF" d="M399.398,783.386l2.051,0.305c0.086,0.633,0.324,1.094,0.715,1.383c0.523,0.391,1.238,0.586,2.145,0.586
			c0.977,0,1.73-0.195,2.262-0.586s0.891-0.938,1.078-1.641c0.109-0.43,0.16-1.332,0.152-2.707c-0.922,1.086-2.07,1.629-3.445,1.629
			c-1.711,0-3.035-0.617-3.973-1.852s-1.406-2.715-1.406-4.441c0-1.188,0.215-2.283,0.645-3.287s1.053-1.779,1.869-2.326
			s1.775-0.82,2.877-0.82c1.469,0,2.68,0.594,3.633,1.781v-1.5h1.945v10.758c0,1.938-0.197,3.311-0.592,4.119
			s-1.02,1.447-1.875,1.916s-1.908,0.703-3.158,0.703c-1.484,0-2.684-0.334-3.598-1.002S399.367,784.729,399.398,783.386z
			 M401.145,775.909c0,1.633,0.324,2.824,0.973,3.574s1.461,1.125,2.438,1.125c0.969,0,1.781-0.373,2.438-1.119
			s0.984-1.916,0.984-3.51c0-1.523-0.338-2.672-1.014-3.445s-1.49-1.16-2.443-1.16c-0.938,0-1.734,0.381-2.391,1.143
			S401.145,774.409,401.145,775.909z"/>
		<path fill="#FFFFFF" d="M421.652,778.347l2.18,0.27c-0.344,1.273-0.98,2.262-1.91,2.965s-2.117,1.055-3.563,1.055
			c-1.82,0-3.264-0.561-4.33-1.682s-1.6-2.693-1.6-4.717c0-2.094,0.539-3.719,1.617-4.875s2.477-1.734,4.195-1.734
			c1.664,0,3.023,0.566,4.078,1.699s1.582,2.727,1.582,4.781c0,0.125-0.004,0.313-0.012,0.563h-9.281
			c0.078,1.367,0.465,2.414,1.16,3.141s1.563,1.09,2.602,1.09c0.773,0,1.434-0.203,1.98-0.609S421.332,779.237,421.652,778.347z
			 M414.727,774.936h6.949c-0.094-1.047-0.359-1.832-0.797-2.355c-0.672-0.813-1.543-1.219-2.613-1.219
			c-0.969,0-1.783,0.324-2.443,0.973S414.797,773.851,414.727,774.936z"/>
		<path fill="#FFFFFF" d="M433.805,782.354v-17.18h2.273v17.18H433.805z"/>
		<path fill="#FFFFFF" d="M438.973,778.64l2.086-0.328c0.117,0.836,0.443,1.477,0.979,1.922s1.283,0.668,2.244,0.668
			c0.969,0,1.688-0.197,2.156-0.592s0.703-0.857,0.703-1.389c0-0.477-0.207-0.852-0.621-1.125c-0.289-0.188-1.008-0.426-2.156-0.715
			c-1.547-0.391-2.619-0.729-3.217-1.014s-1.051-0.68-1.359-1.184s-0.463-1.061-0.463-1.67c0-0.555,0.127-1.068,0.381-1.541
			s0.6-0.865,1.037-1.178c0.328-0.242,0.775-0.447,1.342-0.615s1.174-0.252,1.822-0.252c0.977,0,1.834,0.141,2.572,0.422
			s1.283,0.662,1.635,1.143s0.594,1.123,0.727,1.928l-2.063,0.281c-0.094-0.641-0.365-1.141-0.814-1.5s-1.084-0.539-1.904-0.539
			c-0.969,0-1.66,0.16-2.074,0.48s-0.621,0.695-0.621,1.125c0,0.273,0.086,0.52,0.258,0.738c0.172,0.227,0.441,0.414,0.809,0.563
			c0.211,0.078,0.832,0.258,1.863,0.539c1.492,0.398,2.533,0.725,3.123,0.979s1.053,0.623,1.389,1.107s0.504,1.086,0.504,1.805
			c0,0.703-0.205,1.365-0.615,1.986s-1.002,1.102-1.775,1.441s-1.648,0.51-2.625,0.51c-1.617,0-2.85-0.336-3.697-1.008
			S439.207,779.96,438.973,778.64z"/>
		<path fill="#FFFFFF" d="M450.973,778.64l2.086-0.328c0.117,0.836,0.443,1.477,0.979,1.922s1.283,0.668,2.244,0.668
			c0.969,0,1.688-0.197,2.156-0.592s0.703-0.857,0.703-1.389c0-0.477-0.207-0.852-0.621-1.125c-0.289-0.188-1.008-0.426-2.156-0.715
			c-1.547-0.391-2.619-0.729-3.217-1.014s-1.051-0.68-1.359-1.184s-0.463-1.061-0.463-1.67c0-0.555,0.127-1.068,0.381-1.541
			s0.6-0.865,1.037-1.178c0.328-0.242,0.775-0.447,1.342-0.615s1.174-0.252,1.822-0.252c0.977,0,1.834,0.141,2.572,0.422
			s1.283,0.662,1.635,1.143s0.594,1.123,0.727,1.928l-2.063,0.281c-0.094-0.641-0.365-1.141-0.814-1.5s-1.084-0.539-1.904-0.539
			c-0.969,0-1.66,0.16-2.074,0.48s-0.621,0.695-0.621,1.125c0,0.273,0.086,0.52,0.258,0.738c0.172,0.227,0.441,0.414,0.809,0.563
			c0.211,0.078,0.832,0.258,1.863,0.539c1.492,0.398,2.533,0.725,3.123,0.979s1.053,0.623,1.389,1.107s0.504,1.086,0.504,1.805
			c0,0.703-0.205,1.365-0.615,1.986s-1.002,1.102-1.775,1.441s-1.648,0.51-2.625,0.51c-1.617,0-2.85-0.336-3.697-1.008
			S451.207,779.96,450.973,778.64z"/>
		<path fill="#FFFFFF" d="M471.973,782.354v-1.828c-0.969,1.406-2.285,2.109-3.949,2.109c-0.734,0-1.42-0.141-2.057-0.422
			s-1.109-0.635-1.418-1.061s-0.525-0.947-0.65-1.564c-0.086-0.414-0.129-1.07-0.129-1.969v-7.711h2.109v6.902
			c0,1.102,0.043,1.844,0.129,2.227c0.133,0.555,0.414,0.99,0.844,1.307s0.961,0.475,1.594,0.475s1.227-0.162,1.781-0.486
			s0.947-0.766,1.178-1.324s0.346-1.369,0.346-2.432v-6.668h2.109v12.445H471.973z"/>
		<path fill="#FFFFFF" d="M485.684,778.347l2.18,0.27c-0.344,1.273-0.98,2.262-1.91,2.965s-2.117,1.055-3.563,1.055
			c-1.82,0-3.264-0.561-4.33-1.682s-1.6-2.693-1.6-4.717c0-2.094,0.539-3.719,1.617-4.875s2.477-1.734,4.195-1.734
			c1.664,0,3.023,0.566,4.078,1.699s1.582,2.727,1.582,4.781c0,0.125-0.004,0.313-0.012,0.563h-9.281
			c0.078,1.367,0.465,2.414,1.16,3.141s1.563,1.09,2.602,1.09c0.773,0,1.434-0.203,1.98-0.609S485.363,779.237,485.684,778.347z
			 M478.758,774.936h6.949c-0.094-1.047-0.359-1.832-0.797-2.355c-0.672-0.813-1.543-1.219-2.613-1.219
			c-0.969,0-1.783,0.324-2.443,0.973S478.828,773.851,478.758,774.936z"/>
		<path fill="#FFFFFF" d="M489.668,778.64l2.086-0.328c0.117,0.836,0.443,1.477,0.979,1.922s1.283,0.668,2.244,0.668
			c0.969,0,1.688-0.197,2.156-0.592s0.703-0.857,0.703-1.389c0-0.477-0.207-0.852-0.621-1.125c-0.289-0.188-1.008-0.426-2.156-0.715
			c-1.547-0.391-2.619-0.729-3.217-1.014s-1.051-0.68-1.359-1.184s-0.463-1.061-0.463-1.67c0-0.555,0.127-1.068,0.381-1.541
			s0.6-0.865,1.037-1.178c0.328-0.242,0.775-0.447,1.342-0.615s1.174-0.252,1.822-0.252c0.977,0,1.834,0.141,2.572,0.422
			s1.283,0.662,1.635,1.143s0.594,1.123,0.727,1.928l-2.063,0.281c-0.094-0.641-0.365-1.141-0.814-1.5s-1.084-0.539-1.904-0.539
			c-0.969,0-1.66,0.16-2.074,0.48s-0.621,0.695-0.621,1.125c0,0.273,0.086,0.52,0.258,0.738c0.172,0.227,0.441,0.414,0.809,0.563
			c0.211,0.078,0.832,0.258,1.863,0.539c1.492,0.398,2.533,0.725,3.123,0.979s1.053,0.623,1.389,1.107s0.504,1.086,0.504,1.805
			c0,0.703-0.205,1.365-0.615,1.986s-1.002,1.102-1.775,1.441s-1.648,0.51-2.625,0.51c-1.617,0-2.85-0.336-3.697-1.008
			S489.902,779.96,489.668,778.64z"/>
		<path fill="#FFFFFF" d="M509.379,782.354v-17.18h3.422l4.066,12.164c0.375,1.133,0.648,1.98,0.82,2.543
			c0.195-0.625,0.5-1.543,0.914-2.754l4.113-11.953h3.059v17.18h-2.191v-14.379l-4.992,14.379h-2.051l-4.969-14.625v14.625H509.379z
			"/>
		<path fill="#FFFFFF" d="M537.293,780.819c-0.781,0.664-1.533,1.133-2.256,1.406s-1.498,0.41-2.326,0.41
			c-1.367,0-2.418-0.334-3.152-1.002s-1.102-1.521-1.102-2.561c0-0.609,0.139-1.166,0.416-1.67s0.641-0.908,1.09-1.213
			s0.955-0.535,1.518-0.691c0.414-0.109,1.039-0.215,1.875-0.316c1.703-0.203,2.957-0.445,3.762-0.727
			c0.008-0.289,0.012-0.473,0.012-0.551c0-0.859-0.199-1.465-0.598-1.816c-0.539-0.477-1.34-0.715-2.402-0.715
			c-0.992,0-1.725,0.174-2.197,0.521s-0.822,0.963-1.049,1.846l-2.063-0.281c0.188-0.883,0.496-1.596,0.926-2.139
			s1.051-0.961,1.863-1.254s1.754-0.439,2.824-0.439c1.063,0,1.926,0.125,2.59,0.375s1.152,0.564,1.465,0.943
			s0.531,0.857,0.656,1.436c0.07,0.359,0.105,1.008,0.105,1.945v2.813c0,1.961,0.045,3.201,0.135,3.721s0.268,1.018,0.533,1.494
			h-2.203C537.496,781.917,537.355,781.405,537.293,780.819z M537.117,776.108c-0.766,0.313-1.914,0.578-3.445,0.797
			c-0.867,0.125-1.48,0.266-1.84,0.422s-0.637,0.385-0.832,0.686s-0.293,0.635-0.293,1.002c0,0.563,0.213,1.031,0.639,1.406
			s1.049,0.563,1.869,0.563c0.813,0,1.535-0.178,2.168-0.533s1.098-0.842,1.395-1.459c0.227-0.477,0.34-1.18,0.34-2.109V776.108z"/>
		<path fill="#FFFFFF" d="M542.52,782.354v-12.445h1.898v1.77c0.914-1.367,2.234-2.051,3.961-2.051c0.75,0,1.439,0.135,2.068,0.404
			s1.1,0.623,1.412,1.061s0.531,0.957,0.656,1.559c0.078,0.391,0.117,1.074,0.117,2.051v7.652h-2.109v-7.57
			c0-0.859-0.082-1.502-0.246-1.928s-0.455-0.766-0.873-1.02s-0.908-0.381-1.471-0.381c-0.898,0-1.674,0.285-2.326,0.855
			s-0.979,1.652-0.979,3.246v6.797H542.52z"/>
		<path fill="#FFFFFF" d="M563.988,780.819c-0.781,0.664-1.533,1.133-2.256,1.406s-1.498,0.41-2.326,0.41
			c-1.367,0-2.418-0.334-3.152-1.002s-1.102-1.521-1.102-2.561c0-0.609,0.139-1.166,0.416-1.67s0.641-0.908,1.09-1.213
			s0.955-0.535,1.518-0.691c0.414-0.109,1.039-0.215,1.875-0.316c1.703-0.203,2.957-0.445,3.762-0.727
			c0.008-0.289,0.012-0.473,0.012-0.551c0-0.859-0.199-1.465-0.598-1.816c-0.539-0.477-1.34-0.715-2.402-0.715
			c-0.992,0-1.725,0.174-2.197,0.521s-0.822,0.963-1.049,1.846l-2.063-0.281c0.188-0.883,0.496-1.596,0.926-2.139
			s1.051-0.961,1.863-1.254s1.754-0.439,2.824-0.439c1.063,0,1.926,0.125,2.59,0.375s1.152,0.564,1.465,0.943
			s0.531,0.857,0.656,1.436c0.07,0.359,0.105,1.008,0.105,1.945v2.813c0,1.961,0.045,3.201,0.135,3.721s0.268,1.018,0.533,1.494
			h-2.203C564.191,781.917,564.051,781.405,563.988,780.819z M563.813,776.108c-0.766,0.313-1.914,0.578-3.445,0.797
			c-0.867,0.125-1.48,0.266-1.84,0.422s-0.637,0.385-0.832,0.686s-0.293,0.635-0.293,1.002c0,0.563,0.213,1.031,0.639,1.406
			s1.049,0.563,1.869,0.563c0.813,0,1.535-0.178,2.168-0.533s1.098-0.842,1.395-1.459c0.227-0.477,0.34-1.18,0.34-2.109V776.108z"/>
		<path fill="#FFFFFF" d="M568.828,783.386l2.051,0.305c0.086,0.633,0.324,1.094,0.715,1.383c0.523,0.391,1.238,0.586,2.145,0.586
			c0.977,0,1.73-0.195,2.262-0.586s0.891-0.938,1.078-1.641c0.109-0.43,0.16-1.332,0.152-2.707c-0.922,1.086-2.07,1.629-3.445,1.629
			c-1.711,0-3.035-0.617-3.973-1.852s-1.406-2.715-1.406-4.441c0-1.188,0.215-2.283,0.645-3.287s1.053-1.779,1.869-2.326
			s1.775-0.82,2.877-0.82c1.469,0,2.68,0.594,3.633,1.781v-1.5h1.945v10.758c0,1.938-0.197,3.311-0.592,4.119
			s-1.02,1.447-1.875,1.916s-1.908,0.703-3.158,0.703c-1.484,0-2.684-0.334-3.598-1.002S568.797,784.729,568.828,783.386z
			 M570.574,775.909c0,1.633,0.324,2.824,0.973,3.574s1.461,1.125,2.438,1.125c0.969,0,1.781-0.373,2.438-1.119
			s0.984-1.916,0.984-3.51c0-1.523-0.338-2.672-1.014-3.445s-1.49-1.16-2.443-1.16c-0.938,0-1.734,0.381-2.391,1.143
			S570.574,774.409,570.574,775.909z"/>
		<path fill="#FFFFFF" d="M591.082,778.347l2.18,0.27c-0.344,1.273-0.98,2.262-1.91,2.965s-2.117,1.055-3.563,1.055
			c-1.82,0-3.264-0.561-4.33-1.682s-1.6-2.693-1.6-4.717c0-2.094,0.539-3.719,1.617-4.875s2.477-1.734,4.195-1.734
			c1.664,0,3.023,0.566,4.078,1.699s1.582,2.727,1.582,4.781c0,0.125-0.004,0.313-0.012,0.563h-9.281
			c0.078,1.367,0.465,2.414,1.16,3.141s1.563,1.09,2.602,1.09c0.773,0,1.434-0.203,1.98-0.609S590.762,779.237,591.082,778.347z
			 M584.156,774.936h6.949c-0.094-1.047-0.359-1.832-0.797-2.355c-0.672-0.813-1.543-1.219-2.613-1.219
			c-0.969,0-1.783,0.324-2.443,0.973S584.227,773.851,584.156,774.936z"/>
		<path fill="#FFFFFF" d="M595.91,782.354v-12.445h1.887v1.746c0.391-0.609,0.91-1.1,1.559-1.471s1.387-0.557,2.215-0.557
			c0.922,0,1.678,0.191,2.268,0.574s1.006,0.918,1.248,1.605c0.984-1.453,2.266-2.18,3.844-2.18c1.234,0,2.184,0.342,2.848,1.025
			s0.996,1.736,0.996,3.158v8.543h-2.098v-7.84c0-0.844-0.068-1.451-0.205-1.822s-0.385-0.67-0.744-0.896s-0.781-0.34-1.266-0.34
			c-0.875,0-1.602,0.291-2.18,0.873s-0.867,1.514-0.867,2.795v7.23h-2.109v-8.086c0-0.938-0.172-1.641-0.516-2.109
			s-0.906-0.703-1.688-0.703c-0.594,0-1.143,0.156-1.646,0.469s-0.869,0.77-1.096,1.371s-0.34,1.469-0.34,2.602v6.457H595.91z"/>
		<path fill="#FFFFFF" d="M624.422,778.347l2.18,0.27c-0.344,1.273-0.98,2.262-1.91,2.965s-2.117,1.055-3.563,1.055
			c-1.82,0-3.264-0.561-4.33-1.682s-1.6-2.693-1.6-4.717c0-2.094,0.539-3.719,1.617-4.875s2.477-1.734,4.195-1.734
			c1.664,0,3.023,0.566,4.078,1.699s1.582,2.727,1.582,4.781c0,0.125-0.004,0.313-0.012,0.563h-9.281
			c0.078,1.367,0.465,2.414,1.16,3.141s1.563,1.09,2.602,1.09c0.773,0,1.434-0.203,1.98-0.609S624.102,779.237,624.422,778.347z
			 M617.496,774.936h6.949c-0.094-1.047-0.359-1.832-0.797-2.355c-0.672-0.813-1.543-1.219-2.613-1.219
			c-0.969,0-1.783,0.324-2.443,0.973S617.566,773.851,617.496,774.936z"/>
		<path fill="#FFFFFF" d="M629.25,782.354v-12.445h1.898v1.77c0.914-1.367,2.234-2.051,3.961-2.051c0.75,0,1.439,0.135,2.068,0.404
			s1.1,0.623,1.412,1.061s0.531,0.957,0.656,1.559c0.078,0.391,0.117,1.074,0.117,2.051v7.652h-2.109v-7.57
			c0-0.859-0.082-1.502-0.246-1.928s-0.455-0.766-0.873-1.02s-0.908-0.381-1.471-0.381c-0.898,0-1.674,0.285-2.326,0.855
			s-0.979,1.652-0.979,3.246v6.797H629.25z"/>
		<path fill="#FFFFFF" d="M647.203,780.468l0.305,1.863c-0.594,0.125-1.125,0.188-1.594,0.188c-0.766,0-1.359-0.121-1.781-0.363
			s-0.719-0.561-0.891-0.955s-0.258-1.225-0.258-2.49v-7.16h-1.547v-1.641h1.547v-3.082l2.098-1.266v4.348h2.121v1.641h-2.121v7.277
			c0,0.602,0.037,0.988,0.111,1.16s0.195,0.309,0.363,0.41s0.408,0.152,0.721,0.152C646.512,780.55,646.82,780.522,647.203,780.468z
			"/>
		<path fill="#FFFFFF" d="M655.934,782.354v-12.445h1.887v1.746c0.391-0.609,0.91-1.1,1.559-1.471s1.387-0.557,2.215-0.557
			c0.922,0,1.678,0.191,2.268,0.574s1.006,0.918,1.248,1.605c0.984-1.453,2.266-2.18,3.844-2.18c1.234,0,2.184,0.342,2.848,1.025
			s0.996,1.736,0.996,3.158v8.543h-2.098v-7.84c0-0.844-0.068-1.451-0.205-1.822s-0.385-0.67-0.744-0.896s-0.781-0.34-1.266-0.34
			c-0.875,0-1.602,0.291-2.18,0.873s-0.867,1.514-0.867,2.795v7.23h-2.109v-8.086c0-0.938-0.172-1.641-0.516-2.109
			s-0.906-0.703-1.688-0.703c-0.594,0-1.143,0.156-1.646,0.469s-0.869,0.77-1.096,1.371s-0.34,1.469-0.34,2.602v6.457H655.934z"/>
		<path fill="#FFFFFF" d="M684.047,780.819c-0.781,0.664-1.533,1.133-2.256,1.406s-1.498,0.41-2.326,0.41
			c-1.367,0-2.418-0.334-3.152-1.002s-1.102-1.521-1.102-2.561c0-0.609,0.139-1.166,0.416-1.67s0.641-0.908,1.09-1.213
			s0.955-0.535,1.518-0.691c0.414-0.109,1.039-0.215,1.875-0.316c1.703-0.203,2.957-0.445,3.762-0.727
			c0.008-0.289,0.012-0.473,0.012-0.551c0-0.859-0.199-1.465-0.598-1.816c-0.539-0.477-1.34-0.715-2.402-0.715
			c-0.992,0-1.725,0.174-2.197,0.521s-0.822,0.963-1.049,1.846l-2.063-0.281c0.188-0.883,0.496-1.596,0.926-2.139
			s1.051-0.961,1.863-1.254s1.754-0.439,2.824-0.439c1.063,0,1.926,0.125,2.59,0.375s1.152,0.564,1.465,0.943
			s0.531,0.857,0.656,1.436c0.07,0.359,0.105,1.008,0.105,1.945v2.813c0,1.961,0.045,3.201,0.135,3.721s0.268,1.018,0.533,1.494
			h-2.203C684.25,781.917,684.109,781.405,684.047,780.819z M683.871,776.108c-0.766,0.313-1.914,0.578-3.445,0.797
			c-0.867,0.125-1.48,0.266-1.84,0.422s-0.637,0.385-0.832,0.686s-0.293,0.635-0.293,1.002c0,0.563,0.213,1.031,0.639,1.406
			s1.049,0.563,1.869,0.563c0.813,0,1.535-0.178,2.168-0.533s1.098-0.842,1.395-1.459c0.227-0.477,0.34-1.18,0.34-2.109V776.108z"/>
		<path fill="#FFFFFF" d="M697.348,782.354v-1.57c-0.789,1.234-1.949,1.852-3.48,1.852c-0.992,0-1.904-0.273-2.736-0.82
			s-1.477-1.311-1.934-2.291s-0.686-2.107-0.686-3.381c0-1.242,0.207-2.369,0.621-3.381s1.035-1.787,1.863-2.326
			s1.754-0.809,2.777-0.809c0.75,0,1.418,0.158,2.004,0.475s1.063,0.729,1.43,1.236v-6.164h2.098v17.18H697.348z M690.68,776.143
			c0,1.594,0.336,2.785,1.008,3.574s1.465,1.184,2.379,1.184c0.922,0,1.705-0.377,2.35-1.131s0.967-1.904,0.967-3.451
			c0-1.703-0.328-2.953-0.984-3.75s-1.465-1.195-2.426-1.195c-0.938,0-1.721,0.383-2.35,1.148S690.68,774.495,690.68,776.143z"/>
		<path fill="#FFFFFF" d="M711.141,778.347l2.18,0.27c-0.344,1.273-0.98,2.262-1.91,2.965s-2.117,1.055-3.563,1.055
			c-1.82,0-3.264-0.561-4.33-1.682s-1.6-2.693-1.6-4.717c0-2.094,0.539-3.719,1.617-4.875s2.477-1.734,4.195-1.734
			c1.664,0,3.023,0.566,4.078,1.699s1.582,2.727,1.582,4.781c0,0.125-0.004,0.313-0.012,0.563h-9.281
			c0.078,1.367,0.465,2.414,1.16,3.141s1.563,1.09,2.602,1.09c0.773,0,1.434-0.203,1.98-0.609S710.82,779.237,711.141,778.347z
			 M704.215,774.936h6.949c-0.094-1.047-0.359-1.832-0.797-2.355c-0.672-0.813-1.543-1.219-2.613-1.219
			c-0.969,0-1.783,0.324-2.443,0.973S704.285,773.851,704.215,774.936z"/>
		<path fill="#FFFFFF" d="M721.793,778.64l2.086-0.328c0.117,0.836,0.443,1.477,0.979,1.922s1.283,0.668,2.244,0.668
			c0.969,0,1.688-0.197,2.156-0.592s0.703-0.857,0.703-1.389c0-0.477-0.207-0.852-0.621-1.125c-0.289-0.188-1.008-0.426-2.156-0.715
			c-1.547-0.391-2.619-0.729-3.217-1.014s-1.051-0.68-1.359-1.184s-0.463-1.061-0.463-1.67c0-0.555,0.127-1.068,0.381-1.541
			s0.6-0.865,1.037-1.178c0.328-0.242,0.775-0.447,1.342-0.615s1.174-0.252,1.822-0.252c0.977,0,1.834,0.141,2.572,0.422
			s1.283,0.662,1.635,1.143s0.594,1.123,0.727,1.928l-2.063,0.281c-0.094-0.641-0.365-1.141-0.814-1.5s-1.084-0.539-1.904-0.539
			c-0.969,0-1.66,0.16-2.074,0.48s-0.621,0.695-0.621,1.125c0,0.273,0.086,0.52,0.258,0.738c0.172,0.227,0.441,0.414,0.809,0.563
			c0.211,0.078,0.832,0.258,1.863,0.539c1.492,0.398,2.533,0.725,3.123,0.979s1.053,0.623,1.389,1.107s0.504,1.086,0.504,1.805
			c0,0.703-0.205,1.365-0.615,1.986s-1.002,1.102-1.775,1.441s-1.648,0.51-2.625,0.51c-1.617,0-2.85-0.336-3.697-1.008
			S722.027,779.96,721.793,778.64z"/>
		<path fill="#FFFFFF" d="M734.648,767.601v-2.426h2.109v2.426H734.648z M734.648,782.354v-12.445h2.109v12.445H734.648z"/>
		<path fill="#FFFFFF" d="M739.969,782.354v-12.445h1.887v1.746c0.391-0.609,0.91-1.1,1.559-1.471s1.387-0.557,2.215-0.557
			c0.922,0,1.678,0.191,2.268,0.574s1.006,0.918,1.248,1.605c0.984-1.453,2.266-2.18,3.844-2.18c1.234,0,2.184,0.342,2.848,1.025
			s0.996,1.736,0.996,3.158v8.543h-2.098v-7.84c0-0.844-0.068-1.451-0.205-1.822s-0.385-0.67-0.744-0.896s-0.781-0.34-1.266-0.34
			c-0.875,0-1.602,0.291-2.18,0.873s-0.867,1.514-0.867,2.795v7.23h-2.109v-8.086c0-0.938-0.172-1.641-0.516-2.109
			s-0.906-0.703-1.688-0.703c-0.594,0-1.143,0.156-1.646,0.469s-0.869,0.77-1.096,1.371s-0.34,1.469-0.34,2.602v6.457H739.969z"/>
		<path fill="#FFFFFF" d="M759.961,787.124v-17.215h1.922v1.617c0.453-0.633,0.965-1.107,1.535-1.424s1.262-0.475,2.074-0.475
			c1.063,0,2,0.273,2.813,0.82s1.426,1.318,1.84,2.314s0.621,2.088,0.621,3.275c0,1.273-0.229,2.42-0.686,3.439
			s-1.121,1.801-1.992,2.344s-1.787,0.814-2.748,0.814c-0.703,0-1.334-0.148-1.893-0.445s-1.018-0.672-1.377-1.125v6.059H759.961z
			 M761.871,776.202c0,1.602,0.324,2.785,0.973,3.551s1.434,1.148,2.355,1.148c0.938,0,1.74-0.396,2.408-1.189
			s1.002-2.021,1.002-3.686c0-1.586-0.326-2.773-0.979-3.563s-1.432-1.184-2.338-1.184c-0.898,0-1.693,0.42-2.385,1.26
			S761.871,774.601,761.871,776.202z"/>
		<path fill="#FFFFFF" d="M773.262,782.354v-17.18h2.109v17.18H773.262z"/>
		<path fill="#FFFFFF" d="M787.16,778.347l2.18,0.27c-0.344,1.273-0.98,2.262-1.91,2.965s-2.117,1.055-3.563,1.055
			c-1.82,0-3.264-0.561-4.33-1.682s-1.6-2.693-1.6-4.717c0-2.094,0.539-3.719,1.617-4.875s2.477-1.734,4.195-1.734
			c1.664,0,3.023,0.566,4.078,1.699s1.582,2.727,1.582,4.781c0,0.125-0.004,0.313-0.012,0.563h-9.281
			c0.078,1.367,0.465,2.414,1.16,3.141s1.563,1.09,2.602,1.09c0.773,0,1.434-0.203,1.98-0.609S786.84,779.237,787.16,778.347z
			 M780.234,774.936h6.949c-0.094-1.047-0.359-1.832-0.797-2.355c-0.672-0.813-1.543-1.219-2.613-1.219
			c-0.969,0-1.783,0.324-2.443,0.973S780.305,773.851,780.234,774.936z"/>
	</g>
</g>
</svg>
