<?xml version="1.0" encoding="utf-8"?>
<!-- Generator: Adobe Illustrator 17.0.0, SVG Export Plug-In . SVG Version: 6.00 Build 0)  -->
<!DOCTYPE svg PUBLIC "-//W3C//DTD SVG 1.1//EN" "http://www.w3.org/Graphics/SVG/1.1/DTD/svg11.dtd">
<svg version="1.1" id="Layer_1" xmlns="http://www.w3.org/2000/svg" xmlns:xlink="http://www.w3.org/1999/xlink" x="0px" y="0px"
	 width="293.3px" height="84.5px" viewBox="0 0 293.3 84.5" style="enable-background:new 0 0 293.3 84.5;" xml:space="preserve">
<g>
	<g>
		<g>
			<path style="fill:#2570AB;" d="M75.4,37.2c0,5.5-4,7.8-9.3,7.8H63v9h-3V29.8h6.2C71.9,29.8,75.4,32.1,75.4,37.2z M72.2,37.2
				c0-3.7-2.4-5.1-6.1-5.1H63v10.3H66C69.7,42.5,72.2,41.4,72.2,37.2z"/>
			<path style="fill:#2570AB;" d="M88.8,47.7h-9.4l-1.9,6.2h-3.1l7.8-24.1h3.9l7.8,24.1h-3.2L88.8,47.7z M88.1,45.2l-3.9-12.9
				l-3.9,12.9H88.1z"/>
			<path style="fill:#2570AB;" d="M111.7,31.7l-1.6,2c-1.5-1.2-3-1.8-4.7-1.8c-3.8,0-6.9,2.6-6.9,10c0,7.1,3,9.9,6.9,9.9
				c2.3,0,3.8-1,5.2-2l1.5,2c-1.3,1.4-3.6,2.7-6.8,2.7c-5.8,0-10-4.4-10-12.5c0-8.2,4.5-12.5,10-12.5
				C108.1,29.3,109.8,30.2,111.7,31.7z"/>
			<path style="fill:#2570AB;" d="M119.4,53.9h-3V29.8h3V53.9z M123,40.8l10,13.1h-3.8L119.5,41l9.4-11.2h3.5L123,40.8z"/>
			<path style="fill:#2570AB;" d="M147.7,47.7h-9.4l-1.9,6.2h-3.1l7.8-24.1h3.9l7.8,24.1h-3.2L147.7,47.7z M146.9,45.2L143,32.3
				l-3.9,12.9H146.9z"/>
			<path style="fill:#2570AB;" d="M171.5,31.9l-1.8,1.9c-1.7-1.3-3.2-1.9-5.3-1.9c-3.5,0-7.1,2.7-7.1,9.9c0,7.1,2.5,10,6.8,10
				c1.7,0,3.3-0.4,4.7-1.2v-7.5h-4.4l-0.4-2.5h7.8v11.6c-2.2,1.3-4.7,2.1-7.9,2.1c-6,0-9.9-4.2-9.9-12.5c0-8.2,4.9-12.5,10.3-12.5
				C167.5,29.3,169.5,30.3,171.5,31.9z"/>
			<path style="fill:#2570AB;" d="M190.2,32.2h-9.5v8.1h8.2v2.5h-8.2v8.6h10.1v2.5h-13.1V29.8h12.9L190.2,32.2z"/>
			<path style="fill:#2570AB;" d="M219.2,42.5h-10.5v11.4h-3V29.8h3v10.2h10.5V29.8h3.1v24.1h-3.1V42.5z"/>
			<path style="fill:#2570AB;" d="M242,32.2h-9.5v8.1h8.2v2.5h-8.2v8.6h10.1v2.5h-13.1V29.8h12.9L242,32.2z"/>
			<path style="fill:#2570AB;" d="M255,43.5h-4v10.4h-3V29.8h6.2c6,0,9.1,2.3,9.1,6.8c0,3.4-1.8,5.4-5.3,6.5l6.5,10.9h-3.6L255,43.5
				z M254.6,41.2c3.5,0,5.5-1.3,5.5-4.6c0-3.1-1.8-4.4-5.9-4.4H251v9H254.6z"/>
			<path style="fill:#2570AB;" d="M287.4,41.9c0,8-4.1,12.5-10.1,12.5c-6,0-10.1-4.3-10.1-12.4c0-8,4.1-12.6,10.1-12.6
				C283.3,29.3,287.4,33.7,287.4,41.9z M270.4,41.9c0,7,2.8,9.9,6.9,9.9c4.2,0,6.9-2.9,6.9-9.9s-2.6-10-6.9-10
				C273.1,31.9,270.4,34.8,270.4,41.9z"/>
		</g>
	</g>
	<g>
		<g>
			<g>
				<g>
					<g>
						<path style="fill:#BA956C;" d="M72.4,49.6c0.3,0.4,0.3,0.9-0.1,1.2L43.8,76.7c-0.4,0.3-0.9,0.3-1.2-0.1L16.4,45.6
							c-0.3-0.4-0.3-0.9,0.1-1.2L45,18.5c0.4-0.3,0.9-0.3,1.2,0.1L72.4,49.6z"/>
					</g>
					<g>
						<path style="fill:#9D784D;" d="M37.7,23.9c0.3,0.4,0.3,0.9-0.1,1.2L16.9,43.9c-0.4,0.3-0.9,0.3-1.2-0.1l-11-13.1
							c-0.3-0.4-0.3-0.9,0.1-1.2l20.7-18.8c0.4-0.3,0.9-0.3,1.2,0.1L37.7,23.9z"/>
					</g>
					<g>
						<path style="fill:#BA956C;" d="M37.2,23.5c0.3,0.4,0.3,0.9-0.1,1.2L16.4,43.5c-0.4,0.3-0.9,0.3-1.2-0.1l-11-13.1
							c-0.3-0.4-0.3-0.9,0.1-1.2L25,10.3c0.4-0.3,0.9-0.3,1.2,0.1L37.2,23.5z"/>
					</g>
				</g>
			</g>
			<g>
				<polygon style="fill:#FFFFFF;" points="69.5,50.5 64.4,55.3 61,51.3 66.1,46.5 				"/>
				<path style="fill:#2E2A2E;" d="M64.5,54.4l0.2-0.2l-2.7-3.2l-0.2,0.2L64.5,54.4z M67.3,51.7l0.1-0.1l-2.7-3.2l-0.1,0.1
					L67.3,51.7z M65.8,53.2l0.2-0.2l-2.7-3.2L63,50L65.8,53.2z M66.7,52.3l0.2-0.2L64.1,49L64,49.2L66.7,52.3z M66.1,52.8l0.3-0.3
					l-2.7-3.2l-0.3,0.3L66.1,52.8z M65.7,47.5l2.7,3.2l0.2-0.2l-2.7-3.2L65.7,47.5z M68,51.1l0.2-0.2l-2.7-3.2l-0.2,0.2L68,51.1z
					 M64.7,54.1L64.7,54.1L62,50.9l0,0L64.7,54.1z M65,53.9L65,53.9l-2.7-3.2l0,0L65,53.9z M65.2,53.7L65.2,53.7l-2.7-3.2l0,0
					L65.2,53.7z M64.9,54.1L64.9,54.1l-2.7-3.2l0,0L64.9,54.1z M67.7,51.4L67.7,51.4l-2.7-3.2l0,0L67.7,51.4z M68.3,50.9L68.3,50.9
					l-2.7-3.2l0,0L68.3,50.9z M65.6,53.4L65.6,53.4l-2.7-3.2l0,0L65.6,53.4z M67.2,51.9L67.2,51.9l-2.7-3.2l0,0L67.2,51.9z
					 M66.6,52.4L66.6,52.4l-2.7-3.2l0,0L66.6,52.4z"/>
			</g>
		</g>
		<g>
			<g>
				<g>
					<path style="fill:#02529C;" d="M35,52c-0.1-3.4,2.1-6.3,4.7-7.3c2.6-1,5.3-0.3,6.9,1c1.6,1.3,2.3,3,2.6,4.1
						c0.3,1.1,0.2,1.8,0.2,1.8c0,0,0-0.7-0.3-1.8c-0.3-1.1-1.1-2.6-2.7-3.8c-1.6-1.2-4.1-1.7-6.4-0.7c-2.3,0.9-4.3,3.6-4.2,6.6
						c0,3,2.1,5.6,4.5,6.4c2.4,0.9,4.9,0.2,6.4-1.1c1.6-1.2,2.2-2.8,2.5-3.9c0.3-1.1,0.2-1.8,0.2-1.8c0,0,0.1,0.6-0.1,1.8
						c-0.2,1.1-0.8,2.8-2.4,4.2c-1.5,1.4-4.2,2.3-6.8,1.4C37.4,58.1,35,55.3,35,52z"/>
					<path style="fill:#02529C;" d="M46.4,46.6c-1.5,1.2-4,1.9-6.4,1.1c-0.8-0.3-1.6-0.8-2.3-1.4c-0.2,0.1-0.4,0.3-0.6,0.4
						c0.8,0.8,1.7,1.3,2.7,1.6c2.7,0.9,5.3,0,6.8-1.4c0.2-0.1,0.3-0.3,0.4-0.4c-0.1-0.1-0.1-0.2-0.2-0.3
						C46.7,46.3,46.5,46.5,46.4,46.6z"/>
					<path style="fill:#02529C;" d="M40.2,56c2.4-1,4.9-0.4,6.4,0.7c0.2,0.1,0.3,0.2,0.4,0.3c0.1-0.1,0.2-0.2,0.3-0.2
						c-0.2-0.1-0.3-0.3-0.5-0.4c-1.6-1.3-4.3-2-6.9-1c-1,0.3-1.9,1-2.6,1.8c0.2,0.1,0.4,0.3,0.6,0.4C38.6,56.9,39.4,56.3,40.2,56z"
						/>
					<path style="fill:#02529C;" d="M45.5,51.7c0,2.3-0.4,4.5-1.1,5.9c-0.4,0.7-0.8,1.2-1.2,1.3c-0.4,0.2-0.6,0.1-0.6,0.1
						c0,0.1,1-0.2,1.5-1.6c0.5-1.4,0.8-3.4,0.7-5.7c-0.1-2.3-0.4-4.3-1-5.6c-0.5-1.4-1.6-1.6-1.6-1.6c0,0,0.2-0.1,0.6,0.1
						c0.4,0.2,0.9,0.6,1.3,1.3C44.9,47.2,45.5,49.3,45.5,51.7z"/>
					<path style="fill:#02529C;" d="M39.3,51.8c0-2.3,0.4-4.5,1.1-5.9c0.4-0.7,0.8-1.2,1.2-1.3c0.4-0.2,0.6-0.1,0.6-0.1
						c0-0.1-1,0.2-1.5,1.6c-0.5,1.4-0.8,3.4-0.7,5.7c0.1,2.2,0.4,4.3,1,5.6c0.5,1.4,1.6,1.6,1.6,1.6c0,0-0.2,0.1-0.6-0.1
						c-0.4-0.2-0.9-0.6-1.3-1.3C39.9,56.3,39.3,54.2,39.3,51.8z"/>
					<path style="fill:#02529C;" d="M42.7,51.8c0.1,4-0.2,7.3-0.2,7.3s-0.4-3.2-0.5-7.3c-0.1-4,0.2-7.3,0.2-7.3S42.6,47.7,42.7,51.8
						z"/>
					<path style="fill:#02529C;" d="M42.4,51.4c3.9-0.1,7,0.2,7,0.2s-3.1,0.5-7,0.6c-3.9,0.1-7-0.2-7-0.2S38.5,51.5,42.4,51.4z"/>
				</g>
				<g>
					<path style="fill:#F69121;" d="M53.2,56.9c-0.5-2.4-1.9-3.8-3.1-5.2c-0.2-0.2-0.5-0.5-0.7-0.7c0.1,0.5,0,1.1-0.1,1.7
						c1.1,1.2,2.3,2.8,2.5,4.3c0.3,1.5-1.5,1.8-3.3,1.6c-3.6-0.6-7-2.3-9.9-4.2c-2.9-1.9-5.3-3.9-6.8-6.1c-0.7-1.1-1.3-2.2-1.1-3.1
						c0.2-0.9,1-1.3,1.7-1.5c1.3-0.3,2.1-0.1,2.1-0.1c0,0-0.8-0.3-2.2-0.1c-0.7,0.1-1.7,0.4-2.1,1.5c-0.3,1.2,0.2,2.5,0.9,3.7
						c1.5,2.4,3.9,4.7,6.8,6.8c2.9,2,6.4,4,10.4,4.6c1,0.1,2.1,0.2,3.1-0.2C52.6,59.6,53.5,58.2,53.2,56.9z"/>
				</g>
				<g>
					<path style="fill:#007BBE;" d="M51,45.1c-1.9-0.8-3.6-0.3-5.1,0c-0.1,0-0.2,0.1-0.3,0.1c0.4,0.3,0.8,0.6,1.2,0.9
						c1.2-0.2,2.6-0.3,3.6,0.2c1.2,0.5,0.6,2.2-0.4,3.5c-2.1,2.7-4.9,4.6-7.5,6.1c-2.6,1.4-5.2,2.4-7.4,2.6
						c-1.1,0.1-2.1-0.1-2.7-0.7c-0.6-0.6-0.5-1.5-0.3-2.1c0.4-1.2,0.9-1.8,0.9-1.8c0,0-0.5,0.5-1.1,1.8c-0.2,0.6-0.5,1.6,0.2,2.5
						c0.7,0.8,1.9,1.1,3.1,1.1c2.4,0,5.1-0.8,7.9-2.2c2.8-1.4,5.7-3.3,8-6.3c0.6-0.8,1.1-1.6,1.3-2.7C52.7,46.9,52,45.5,51,45.1z"/>
				</g>
			</g>
			<g>
				<path style="fill:#F69121;" d="M43.5,43.1l0.5-5c3.3-1.9,3.5-2.1,4.5-3.3c0.4-0.6,0.7-1.6-1.1-1.1c-0.2-0.1-1.2-0.3-1.9,0.6
					l-3.1,1.8l-6.1-0.2l-4.7-0.1c-0.6,0.1-0.8,0-0.9,0.6l5.3,1.3l2,0.9l-2.3,1.3l-1.7-1.1c-0.3-0.1-0.3-0.2-0.5-0.1
					c-0.2,0.1-0.5,0.2-0.5,0.2l0.5,1.6L31.8,40c-0.3-0.1-0.8,0-0.9,0.4l2.6,1.4c-0.4,0.5,0.4,0.5,0.6,0.4l1.4,1
					c0.2,0,0.5-0.1,0.4-0.5l-0.3-0.9c1.1-0.3,3.1-1.1,4.8-1.8l1.5,0.8l0.8,2.5C43,43.4,43.3,43.3,43.5,43.1z"/>
			</g>
		</g>
	</g>
</g>
<g>
</g>
<g>
</g>
<g>
</g>
<g>
</g>
<g>
</g>
<g>
</g>
<g>
</g>
<g>
</g>
<g>
</g>
<g>
</g>
<g>
</g>
<g>
</g>
<g>
</g>
<g>
</g>
<g>
</g>
</svg>
